<svg width="689" height="415" viewBox="0 0 689 415" fill="none" xmlns="http://www.w3.org/2000/svg">
<rect opacity="0.1" width="688.75" height="414.833" fill="url(#paint0_linear_681_6901)"/>
<path d="M20 124.553C20 123.796 20.6138 123.182 21.3711 123.182H123.744C124.501 123.182 125.115 123.796 125.115 124.553V388.712C125.115 389.469 124.501 390.083 123.744 390.083H21.3711C20.6138 390.083 20 389.469 20 388.712V124.553Z" fill="white"/>
<path fill-rule="evenodd" clip-rule="evenodd" d="M123.744 123.639H21.3711C20.8663 123.639 20.457 124.048 20.457 124.553V388.712C20.457 389.217 20.8663 389.626 21.3711 389.626H123.744C124.249 389.626 124.658 389.217 124.658 388.712V124.553C124.658 124.048 124.249 123.639 123.744 123.639ZM21.3711 123.182C20.6138 123.182 20 123.796 20 124.553V388.712C20 389.469 20.6138 390.083 21.3711 390.083H123.744C124.501 390.083 125.115 389.469 125.115 388.712V124.553C125.115 123.796 124.501 123.182 123.744 123.182H21.3711Z" fill="#B8CDEB"/>
<path d="M129.686 124.553C129.686 123.796 130.299 123.182 131.057 123.182H487.077C487.834 123.182 488.448 123.796 488.448 124.553V388.712C488.448 389.469 487.834 390.083 487.077 390.083H131.057C130.299 390.083 129.686 389.469 129.686 388.712V124.553Z" fill="white"/>
<path fill-rule="evenodd" clip-rule="evenodd" d="M487.077 123.639H131.057C130.552 123.639 130.143 124.048 130.143 124.553V388.712C130.143 389.217 130.552 389.626 131.057 389.626H487.077C487.582 389.626 487.991 389.217 487.991 388.712V124.553C487.991 124.048 487.582 123.639 487.077 123.639ZM131.057 123.182C130.299 123.182 129.686 123.796 129.686 124.553V388.712C129.686 389.469 130.299 390.083 131.057 390.083H487.077C487.834 390.083 488.448 389.469 488.448 388.712V124.553C488.448 123.796 487.834 123.182 487.077 123.182H131.057Z" fill="#B8CDEB"/>
<path d="M493.932 124.553C493.932 123.796 494.545 123.182 495.303 123.182H665.772C666.529 123.182 667.143 123.796 667.143 124.553V388.712C667.143 389.469 666.529 390.083 665.772 390.083H495.303C494.545 390.083 493.932 389.469 493.932 388.712V124.553Z" fill="white"/>
<path fill-rule="evenodd" clip-rule="evenodd" d="M665.772 123.639H495.303C494.798 123.639 494.389 124.048 494.389 124.553V388.712C494.389 389.217 494.798 389.626 495.303 389.626H665.772C666.277 389.626 666.686 389.217 666.686 388.712V124.553C666.686 124.048 666.277 123.639 665.772 123.639ZM495.303 123.182C494.545 123.182 493.932 123.796 493.932 124.553V388.712C493.932 389.469 494.545 390.083 495.303 390.083H665.772C666.529 390.083 667.143 389.469 667.143 388.712V124.553C667.143 123.796 666.529 123.182 665.772 123.182H495.303Z" fill="#B8CDEB"/>
<path d="M29.1406 141.92C29.1406 139.144 31.3914 136.893 34.1679 136.893H98.151C100.927 136.893 103.178 139.144 103.178 141.92V141.92C103.178 144.697 100.927 146.948 98.151 146.948H34.1679C31.3914 146.948 29.1406 144.697 29.1406 141.92V141.92Z" fill="white"/>
<path d="M29.1406 141.92C29.1406 139.144 31.3914 136.893 34.1679 136.893H98.151C100.927 136.893 103.178 139.144 103.178 141.92V141.92C103.178 144.697 100.927 146.948 98.151 146.948H34.1679C31.3914 146.948 29.1406 144.697 29.1406 141.92V141.92Z" fill="white"/>
<path d="M29.1406 141.92C29.1406 139.144 31.3914 136.893 34.1679 136.893H98.151C100.927 136.893 103.178 139.144 103.178 141.92V141.92C103.178 144.697 100.927 146.948 98.151 146.948H34.1679C31.3914 146.948 29.1406 144.697 29.1406 141.92V141.92Z" fill="#E2E9FF"/>
<path d="M29.1406 158.83C29.1406 156.054 31.3914 153.803 34.1679 153.803H83.5263C86.3028 153.803 88.5535 156.054 88.5535 158.83V158.83C88.5535 161.606 86.3028 163.857 83.5263 163.857H34.1679C31.3914 163.857 29.1406 161.606 29.1406 158.83V158.83Z" fill="white"/>
<path d="M29.1406 158.83C29.1406 156.054 31.3914 153.803 34.1679 153.803H83.5263C86.3028 153.803 88.5535 156.054 88.5535 158.83V158.83C88.5535 161.606 86.3028 163.857 83.5263 163.857H34.1679C31.3914 163.857 29.1406 161.606 29.1406 158.83V158.83Z" fill="white"/>
<path d="M29.1406 158.83C29.1406 156.054 31.3914 153.803 34.1679 153.803H83.5263C86.3028 153.803 88.5535 156.054 88.5535 158.83V158.83C88.5535 161.606 86.3028 163.857 83.5263 163.857H34.1679C31.3914 163.857 29.1406 161.606 29.1406 158.83V158.83Z" fill="#E2E9FF"/>
<path d="M29.1406 175.283C29.1406 172.506 31.3914 170.255 34.1679 170.255H98.151C100.927 170.255 103.178 172.506 103.178 175.283V175.283C103.178 178.059 100.927 180.31 98.151 180.31H34.1679C31.3914 180.31 29.1406 178.059 29.1406 175.283V175.283Z" fill="white"/>
<path d="M29.1406 175.283C29.1406 172.506 31.3914 170.255 34.1679 170.255H98.151C100.927 170.255 103.178 172.506 103.178 175.283V175.283C103.178 178.059 100.927 180.31 98.151 180.31H34.1679C31.3914 180.31 29.1406 178.059 29.1406 175.283V175.283Z" fill="white"/>
<path d="M29.1406 175.283C29.1406 172.506 31.3914 170.255 34.1679 170.255H98.151C100.927 170.255 103.178 172.506 103.178 175.283V175.283C103.178 178.059 100.927 180.31 98.151 180.31H34.1679C31.3914 180.31 29.1406 178.059 29.1406 175.283V175.283Z" fill="#E2E9FF"/>
<path d="M29.1406 192.193C29.1406 189.416 31.3914 187.166 34.1679 187.166H83.5263C86.3028 187.166 88.5535 189.416 88.5535 192.193V192.193C88.5535 194.969 86.3028 197.22 83.5263 197.22H34.1679C31.3914 197.22 29.1406 194.969 29.1406 192.193V192.193Z" fill="white"/>
<path d="M29.1406 192.193C29.1406 189.416 31.3914 187.166 34.1679 187.166H83.5263C86.3028 187.166 88.5535 189.416 88.5535 192.193V192.193C88.5535 194.969 86.3028 197.22 83.5263 197.22H34.1679C31.3914 197.22 29.1406 194.969 29.1406 192.193V192.193Z" fill="white"/>
<path d="M29.1406 192.193C29.1406 189.416 31.3914 187.166 34.1679 187.166H83.5263C86.3028 187.166 88.5535 189.416 88.5535 192.193V192.193C88.5535 194.969 86.3028 197.22 83.5263 197.22H34.1679C31.3914 197.22 29.1406 194.969 29.1406 192.193V192.193Z" fill="#E2E9FF"/>
<path d="M29.1406 315.588C29.1406 312.812 31.3914 310.561 34.1679 310.561H98.151C100.927 310.561 103.178 312.812 103.178 315.588V315.588C103.178 318.365 100.927 320.616 98.151 320.616H34.1679C31.3914 320.616 29.1406 318.365 29.1406 315.588V315.588Z" fill="white"/>
<path d="M29.1406 315.588C29.1406 312.812 31.3914 310.561 34.1679 310.561H98.151C100.927 310.561 103.178 312.812 103.178 315.588V315.588C103.178 318.365 100.927 320.616 98.151 320.616H34.1679C31.3914 320.616 29.1406 318.365 29.1406 315.588V315.588Z" fill="white"/>
<path d="M29.1406 315.588C29.1406 312.812 31.3914 310.561 34.1679 310.561H98.151C100.927 310.561 103.178 312.812 103.178 315.588V315.588C103.178 318.365 100.927 320.616 98.151 320.616H34.1679C31.3914 320.616 29.1406 318.365 29.1406 315.588V315.588Z" fill="#E2E9FF"/>
<path d="M29.1406 332.498C29.1406 329.722 31.3914 327.471 34.1679 327.471H83.5263C86.3028 327.471 88.5535 329.722 88.5535 332.498V332.498C88.5535 335.275 86.3028 337.526 83.5263 337.526H34.1679C31.3914 337.526 29.1406 335.275 29.1406 332.498V332.498Z" fill="white"/>
<path d="M29.1406 332.498C29.1406 329.722 31.3914 327.471 34.1679 327.471H83.5263C86.3028 327.471 88.5535 329.722 88.5535 332.498V332.498C88.5535 335.275 86.3028 337.526 83.5263 337.526H34.1679C31.3914 337.526 29.1406 335.275 29.1406 332.498V332.498Z" fill="white"/>
<path d="M29.1406 332.498C29.1406 329.722 31.3914 327.471 34.1679 327.471H83.5263C86.3028 327.471 88.5535 329.722 88.5535 332.498V332.498C88.5535 335.275 86.3028 337.526 83.5263 337.526H34.1679C31.3914 337.526 29.1406 335.275 29.1406 332.498V332.498Z" fill="#E2E9FF"/>
<path d="M29.1406 348.951C29.1406 346.175 31.3914 343.924 34.1679 343.924H98.151C100.927 343.924 103.178 346.175 103.178 348.951V348.951C103.178 351.728 100.927 353.978 98.151 353.978H34.1679C31.3914 353.978 29.1406 351.728 29.1406 348.951V348.951Z" fill="white"/>
<path d="M29.1406 348.951C29.1406 346.175 31.3914 343.924 34.1679 343.924H98.151C100.927 343.924 103.178 346.175 103.178 348.951V348.951C103.178 351.728 100.927 353.978 98.151 353.978H34.1679C31.3914 353.978 29.1406 351.728 29.1406 348.951V348.951Z" fill="white"/>
<path d="M29.1406 348.951C29.1406 346.175 31.3914 343.924 34.1679 343.924H98.151C100.927 343.924 103.178 346.175 103.178 348.951V348.951C103.178 351.728 100.927 353.978 98.151 353.978H34.1679C31.3914 353.978 29.1406 351.728 29.1406 348.951V348.951Z" fill="#E2E9FF"/>
<path d="M29.1406 365.861C29.1406 363.085 31.3914 360.834 34.1679 360.834H83.5263C86.3028 360.834 88.5535 363.085 88.5535 365.861V365.861C88.5535 368.638 86.3028 370.888 83.5263 370.888H34.1679C31.3914 370.888 29.1406 368.638 29.1406 365.861V365.861Z" fill="white"/>
<path d="M29.1406 365.861C29.1406 363.085 31.3914 360.834 34.1679 360.834H83.5263C86.3028 360.834 88.5535 363.085 88.5535 365.861V365.861C88.5535 368.638 86.3028 370.888 83.5263 370.888H34.1679C31.3914 370.888 29.1406 368.638 29.1406 365.861V365.861Z" fill="white"/>
<path d="M29.1406 365.861C29.1406 363.085 31.3914 360.834 34.1679 360.834H83.5263C86.3028 360.834 88.5535 363.085 88.5535 365.861V365.861C88.5535 368.638 86.3028 370.888 83.5263 370.888H34.1679C31.3914 370.888 29.1406 368.638 29.1406 365.861V365.861Z" fill="#E2E9FF"/>
<path d="M137.455 141.006C137.455 138.23 139.706 135.979 142.482 135.979H191.841C194.617 135.979 196.868 138.23 196.868 141.006V141.006C196.868 143.783 194.617 146.033 191.841 146.033H142.482C139.706 146.033 137.455 143.783 137.455 141.006V141.006Z" fill="white"/>
<path d="M137.455 141.006C137.455 138.23 139.706 135.979 142.482 135.979H191.841C194.617 135.979 196.868 138.23 196.868 141.006V141.006C196.868 143.783 194.617 146.033 191.841 146.033H142.482C139.706 146.033 137.455 143.783 137.455 141.006V141.006Z" fill="white"/>
<path d="M137.455 141.006C137.455 138.23 139.706 135.979 142.482 135.979H191.841C194.617 135.979 196.868 138.23 196.868 141.006V141.006C196.868 143.783 194.617 146.033 191.841 146.033H142.482C139.706 146.033 137.455 143.783 137.455 141.006V141.006Z" fill="#E2E9FF"/>
<path d="M137.455 141.006C137.455 138.23 139.706 135.979 142.482 135.979H191.841C194.617 135.979 196.868 138.23 196.868 141.006V141.006C196.868 143.783 194.617 146.033 191.841 146.033H142.482C139.706 146.033 137.455 143.783 137.455 141.006V141.006Z" fill="white"/>
<path d="M137.455 141.006C137.455 138.23 139.706 135.979 142.482 135.979H191.841C194.617 135.979 196.868 138.23 196.868 141.006V141.006C196.868 143.783 194.617 146.033 191.841 146.033H142.482C139.706 146.033 137.455 143.783 137.455 141.006V141.006Z" fill="white"/>
<path d="M137.455 141.006C137.455 138.23 139.706 135.979 142.482 135.979H191.841C194.617 135.979 196.868 138.23 196.868 141.006V141.006C196.868 143.783 194.617 146.033 191.841 146.033H142.482C139.706 146.033 137.455 143.783 137.455 141.006V141.006Z" fill="#E2E9FF"/>
<path d="M137.455 227.383C137.455 224.607 139.706 222.356 142.482 222.356H191.841C194.617 222.356 196.868 224.607 196.868 227.383V227.383C196.868 230.16 194.617 232.41 191.841 232.41H142.482C139.706 232.41 137.455 230.16 137.455 227.383V227.383Z" fill="white"/>
<path d="M137.455 227.383C137.455 224.607 139.706 222.356 142.482 222.356H191.841C194.617 222.356 196.868 224.607 196.868 227.383V227.383C196.868 230.16 194.617 232.41 191.841 232.41H142.482C139.706 232.41 137.455 230.16 137.455 227.383V227.383Z" fill="white"/>
<path d="M137.455 227.383C137.455 224.607 139.706 222.356 142.482 222.356H191.841C194.617 222.356 196.868 224.607 196.868 227.383V227.383C196.868 230.16 194.617 232.41 191.841 232.41H142.482C139.706 232.41 137.455 230.16 137.455 227.383V227.383Z" fill="#E2E9FF"/>
<g filter="url(#filter0_d_681_6901)">
<path d="M476.109 151.975H138.369C137.864 151.975 137.455 152.384 137.455 152.889V216.415C137.455 216.92 137.864 217.329 138.369 217.329H476.109C476.613 217.329 477.023 216.92 477.023 216.415V152.889C477.023 152.384 476.613 151.975 476.109 151.975Z" fill="black"/>
</g>
<path d="M475.882 152.204H138.6C138.095 152.204 137.686 152.613 137.686 153.118V216.187C137.686 216.692 138.095 217.101 138.6 217.101H475.882C476.387 217.101 476.796 216.692 476.796 216.187V153.118C476.796 152.613 476.387 152.204 475.882 152.204Z" fill="white"/>
<path fill-rule="evenodd" clip-rule="evenodd" d="M138.598 152.432C138.219 152.432 137.912 152.739 137.912 153.118V216.187C137.912 216.565 138.219 216.872 138.598 216.872H475.88C476.259 216.872 476.566 216.565 476.566 216.187V153.118C476.566 152.739 476.259 152.432 475.88 152.432H138.598ZM137.455 153.118C137.455 152.487 137.967 151.975 138.598 151.975H475.88C476.511 151.975 477.023 152.487 477.023 153.118V216.187C477.023 216.818 476.511 217.329 475.88 217.329H138.598C137.967 217.329 137.455 216.818 137.455 216.187V153.118Z" fill="#B8CDEB"/>
<g filter="url(#filter1_d_681_6901)">
<path d="M476.109 236.524H138.369C137.864 236.524 137.455 236.933 137.455 237.438V257.09C137.455 257.595 137.864 258.004 138.369 258.004H476.109C476.613 258.004 477.023 257.595 477.023 257.09V237.438C477.023 236.933 476.613 236.524 476.109 236.524Z" fill="black"/>
</g>
<path d="M475.882 236.753H138.6C138.095 236.753 137.686 237.162 137.686 237.667V256.862C137.686 257.367 138.095 257.776 138.6 257.776H475.882C476.387 257.776 476.796 257.367 476.796 256.862V237.667C476.796 237.162 476.387 236.753 475.882 236.753Z" fill="white"/>
<path fill-rule="evenodd" clip-rule="evenodd" d="M138.598 236.981C138.219 236.981 137.912 237.288 137.912 237.666V256.861C137.912 257.24 138.219 257.547 138.598 257.547H475.88C476.259 257.547 476.566 257.24 476.566 256.861V237.666C476.566 237.288 476.259 236.981 475.88 236.981H138.598ZM137.455 237.666C137.455 237.035 137.967 236.524 138.598 236.524H475.88C476.511 236.524 477.023 237.035 477.023 237.666V256.861C477.023 257.492 476.511 258.004 475.88 258.004H138.598C137.967 258.004 137.455 257.492 137.455 256.861V237.666Z" fill="#B8CDEB"/>
<g filter="url(#filter2_d_681_6901)">
<path d="M130.6 100.788H487.534C488.039 100.788 488.448 101.197 488.448 101.702V123.639H129.686V101.702C129.686 101.197 130.095 100.788 130.6 100.788Z" fill="black"/>
</g>
<path fill-rule="evenodd" clip-rule="evenodd" d="M129.916 123.411H488.222V101.702C488.222 101.324 487.915 101.017 487.536 101.017H130.602C130.223 101.017 129.916 101.324 129.916 101.702V123.411Z" fill="url(#paint1_linear_681_6901)"/>
<path fill-rule="evenodd" clip-rule="evenodd" d="M129.686 101.702C129.686 101.197 130.095 100.788 130.6 100.788H487.534C488.039 100.788 488.448 101.197 488.448 101.702V123.639H129.686V101.702ZM130.6 101.245C130.347 101.245 130.143 101.449 130.143 101.702V123.182H487.991V101.702C487.991 101.449 487.786 101.245 487.534 101.245H130.6Z" fill="#7091F5"/>
<g filter="url(#filter3_d_681_6901)">
<path d="M480.679 103.987H421.266C420.761 103.987 420.352 104.397 420.352 104.901V119.526C420.352 120.031 420.761 120.44 421.266 120.44H480.679C481.183 120.44 481.593 120.031 481.593 119.526V104.901C481.593 104.397 481.183 103.987 480.679 103.987Z" fill="black"/>
</g>
<path d="M480.679 103.987H421.266C420.761 103.987 420.352 104.397 420.352 104.901V119.526C420.352 120.031 420.761 120.44 421.266 120.44H480.679C481.183 120.44 481.593 120.031 481.593 119.526V104.901C481.593 104.397 481.183 103.987 480.679 103.987Z" fill="#243E6D"/>
<path fill-rule="evenodd" clip-rule="evenodd" d="M421.266 104.216C420.887 104.216 420.58 104.523 420.58 104.901V119.526C420.58 119.905 420.887 120.212 421.266 120.212H480.679C481.057 120.212 481.364 119.905 481.364 119.526V104.901C481.364 104.523 481.057 104.216 480.679 104.216H421.266ZM420.123 104.901C420.123 104.27 420.635 103.759 421.266 103.759H480.679C481.31 103.759 481.821 104.27 481.821 104.901V119.526C481.821 120.157 481.31 120.669 480.679 120.669H421.266C420.635 120.669 420.123 120.157 420.123 119.526V104.901Z" fill="#233D6C"/>
<g filter="url(#filter4_d_681_6901)">
<path d="M494.389 100.788H666.229C666.734 100.788 667.143 101.197 667.143 101.702V123.639H493.475V101.702C493.475 101.197 493.884 100.788 494.389 100.788Z" fill="black"/>
</g>
<path fill-rule="evenodd" clip-rule="evenodd" d="M493.703 123.41H666.915V101.702C666.915 101.323 666.608 101.016 666.229 101.016H494.389C494.01 101.016 493.703 101.323 493.703 101.702V123.41Z" fill="url(#paint2_linear_681_6901)"/>
<path fill-rule="evenodd" clip-rule="evenodd" d="M493.475 101.702C493.475 101.197 493.884 100.788 494.389 100.788H666.229C666.734 100.788 667.143 101.197 667.143 101.702V123.639H493.475V101.702ZM494.389 101.245C494.136 101.245 493.932 101.449 493.932 101.702V123.182H666.686V101.702C666.686 101.449 666.481 101.245 666.229 101.245H494.389Z" fill="#7091F5"/>
<path d="M521.721 113.607H521.118V111.505H518.824V113.607H518.225V109.059H518.824V111.014H521.118V109.059H521.721V113.607Z" fill="white"/>
<path d="M523.429 113.607H522.83V109.059H523.429V113.607Z" fill="white"/>
<path d="M525.869 111.58C525.355 111.432 524.98 111.251 524.745 111.036C524.511 110.82 524.395 110.553 524.395 110.236C524.395 109.878 524.538 109.582 524.823 109.349C525.11 109.114 525.483 108.996 525.941 108.996C526.254 108.996 526.532 109.056 526.775 109.177C527.021 109.298 527.211 109.465 527.344 109.677C527.479 109.89 527.547 110.122 527.547 110.374H526.944C526.944 110.099 526.857 109.883 526.682 109.727C526.507 109.569 526.26 109.49 525.941 109.49C525.646 109.49 525.414 109.555 525.248 109.687C525.083 109.816 525.001 109.996 525.001 110.227C525.001 110.412 525.079 110.57 525.235 110.699C525.394 110.826 525.661 110.942 526.038 111.049C526.417 111.155 526.713 111.273 526.925 111.402C527.14 111.529 527.298 111.678 527.4 111.848C527.504 112.019 527.557 112.22 527.557 112.451C527.557 112.82 527.413 113.116 527.125 113.339C526.838 113.559 526.454 113.67 525.973 113.67C525.66 113.67 525.369 113.611 525.098 113.492C524.827 113.371 524.618 113.206 524.47 112.998C524.324 112.79 524.251 112.553 524.251 112.289H524.854C524.854 112.564 524.955 112.782 525.157 112.942C525.361 113.1 525.633 113.179 525.973 113.179C526.289 113.179 526.532 113.115 526.7 112.986C526.869 112.857 526.954 112.681 526.954 112.458C526.954 112.235 526.875 112.063 526.719 111.942C526.563 111.819 526.28 111.699 525.869 111.58Z" fill="white"/>
<path d="M531.471 109.552H530.009V113.607H529.412V109.552H527.953V109.059H531.471V109.552Z" fill="white"/>
<path d="M535.558 111.48C535.558 111.926 535.483 112.315 535.333 112.648C535.183 112.979 534.97 113.232 534.695 113.407C534.42 113.582 534.1 113.67 533.733 113.67C533.375 113.67 533.057 113.582 532.78 113.407C532.503 113.23 532.288 112.979 532.133 112.655C531.981 112.328 531.903 111.949 531.899 111.52V111.192C531.899 110.755 531.975 110.369 532.127 110.033C532.279 109.698 532.494 109.442 532.771 109.265C533.05 109.086 533.369 108.996 533.727 108.996C534.091 108.996 534.412 109.085 534.689 109.262C534.968 109.437 535.183 109.692 535.333 110.027C535.483 110.36 535.558 110.749 535.558 111.192V111.48ZM534.961 111.186C534.961 110.647 534.853 110.233 534.636 109.946C534.419 109.656 534.116 109.512 533.727 109.512C533.348 109.512 533.049 109.656 532.83 109.946C532.614 110.233 532.502 110.633 532.496 111.146V111.48C532.496 112.003 532.605 112.414 532.824 112.714C533.045 113.012 533.348 113.161 533.733 113.161C534.12 113.161 534.42 113.02 534.633 112.739C534.845 112.456 534.955 112.05 534.961 111.524V111.186Z" fill="white"/>
<path d="M538.126 111.767H537.057V113.607H536.454V109.059H537.96C538.472 109.059 538.866 109.175 539.141 109.408C539.418 109.642 539.556 109.981 539.556 110.427C539.556 110.71 539.479 110.957 539.325 111.167C539.173 111.378 538.961 111.535 538.688 111.639L539.756 113.57V113.607H539.113L538.126 111.767ZM537.057 111.277H537.979C538.277 111.277 538.513 111.2 538.688 111.046C538.865 110.891 538.954 110.685 538.954 110.427C538.954 110.146 538.869 109.93 538.7 109.78C538.534 109.63 538.292 109.554 537.976 109.552H537.057V111.277Z" fill="white"/>
<path d="M541.044 113.607H540.444V109.059H541.044V113.607Z" fill="white"/>
<path d="M544.711 112.42H542.806L542.378 113.607H541.759L543.496 109.059H544.021L545.761 113.607H545.146L544.711 112.42ZM542.987 111.927H544.533L543.759 109.799L542.987 111.927Z" fill="white"/>
<path d="M546.976 113.117H549.132V113.607H546.373V109.059H546.976V113.117Z" fill="white"/>
<mask id="mask0_681_6901" style="mask-type:alpha" maskUnits="userSpaceOnUse" x="505" y="107" width="9" height="10">
<path d="M513.9 111.863C513.904 114.363 511.915 116.407 509.476 116.409C508.422 116.41 507.454 116.033 506.694 115.404C506.496 115.241 506.481 114.937 506.661 114.753L506.862 114.547C507.016 114.389 507.261 114.372 507.431 114.51C507.992 114.966 508.701 115.238 509.472 115.238C511.288 115.238 512.757 113.732 512.757 111.871C512.757 110.01 511.288 108.504 509.472 108.504C508.601 108.504 507.809 108.851 507.222 109.418L508.128 110.347C508.308 110.531 508.18 110.846 507.926 110.846H505.331C505.173 110.846 505.045 110.715 505.045 110.554V107.893C505.045 107.633 505.353 107.502 505.533 107.686L506.414 108.59C507.209 107.811 508.286 107.333 509.472 107.333C511.915 107.333 513.895 109.36 513.9 111.863ZM510.67 113.304L510.845 113.073C510.991 112.882 510.957 112.606 510.77 112.457L510.044 111.877V109.968C510.044 109.725 509.852 109.529 509.615 109.529H509.33C509.093 109.529 508.901 109.725 508.901 109.968V112.45L510.069 113.381C510.256 113.53 510.525 113.496 510.67 113.304Z" fill="white"/>
</mask>
<g mask="url(#mask0_681_6901)">
<path d="M513.9 111.863C513.904 114.363 511.915 116.407 509.476 116.409C508.422 116.41 507.454 116.033 506.694 115.404C506.496 115.241 506.481 114.937 506.661 114.753L506.862 114.547C507.016 114.389 507.261 114.372 507.431 114.51C507.992 114.966 508.701 115.238 509.472 115.238C511.288 115.238 512.757 113.732 512.757 111.871C512.757 110.01 511.288 108.504 509.472 108.504C508.601 108.504 507.809 108.851 507.222 109.418L508.128 110.347C508.308 110.531 508.18 110.846 507.926 110.846H505.331C505.173 110.846 505.045 110.715 505.045 110.554V107.893C505.045 107.633 505.353 107.502 505.533 107.686L506.414 108.59C507.209 107.811 508.286 107.333 509.472 107.333C511.915 107.333 513.895 109.36 513.9 111.863ZM510.67 113.304L510.845 113.073C510.991 112.882 510.957 112.606 510.77 112.457L510.044 111.877V109.968C510.044 109.725 509.852 109.529 509.615 109.529H509.33C509.093 109.529 508.901 109.725 508.901 109.968V112.45L510.069 113.381C510.256 113.53 510.525 113.496 510.67 113.304Z" fill="black"/>
<path d="M514.043 107.186H504.902V116.555H514.043V107.186Z" fill="white"/>
</g>
<g opacity="0.523042">
<mask id="mask1_681_6901" style="mask-type:alpha" maskUnits="userSpaceOnUse" x="461" y="139" width="8" height="9">
<g opacity="0.523042">
<path opacity="0.523042" d="M467.531 142.968H467.174V141.897C467.174 140.65 466.159 139.635 464.913 139.635C463.666 139.635 462.651 140.65 462.651 141.897V142.968H462.294C461.9 142.968 461.58 143.288 461.58 143.682V146.538C461.58 146.932 461.9 147.252 462.294 147.252H467.531C467.925 147.252 468.245 146.932 468.245 146.538V143.682C468.245 143.288 467.925 142.968 467.531 142.968ZM465.984 142.968H463.841V141.897C463.841 141.306 464.322 140.825 464.913 140.825C465.503 140.825 465.984 141.306 465.984 141.897V142.968Z" fill="white"/>
</g>
</mask>
<g mask="url(#mask1_681_6901)">
<path opacity="0.523042" d="M467.531 142.968H467.174V141.897C467.174 140.65 466.159 139.635 464.913 139.635C463.666 139.635 462.651 140.65 462.651 141.897V142.968H462.294C461.9 142.968 461.58 143.288 461.58 143.682V146.538C461.58 146.932 461.9 147.252 462.294 147.252H467.531C467.925 147.252 468.245 146.932 468.245 146.538V143.682C468.245 143.288 467.925 142.968 467.531 142.968ZM465.984 142.968H463.841V141.897C463.841 141.306 464.322 140.825 464.913 140.825C465.503 140.825 465.984 141.306 465.984 141.897V142.968Z" fill="black"/>
<g opacity="0.523042">
<g opacity="0.523042">
<path opacity="0.523042" d="M468.723 139.635H461.105V147.252H468.723V139.635Z" fill="#4D648D"/>
</g>
</g>
</g>
</g>
<g opacity="0.523042">
<mask id="mask2_681_6901" style="mask-type:alpha" maskUnits="userSpaceOnUse" x="461" y="224" width="8" height="8">
<g opacity="0.523042">
<path opacity="0.523042" d="M467.531 227.517H467.174V226.445C467.174 225.199 466.159 224.184 464.913 224.184C463.666 224.184 462.651 225.199 462.651 226.445V227.517H462.294C461.9 227.517 461.58 227.836 461.58 228.231V231.087C461.58 231.481 461.9 231.801 462.294 231.801H467.531C467.925 231.801 468.245 231.481 468.245 231.087V228.231C468.245 227.836 467.925 227.517 467.531 227.517ZM465.984 227.517H463.841V226.445C463.841 225.855 464.322 225.374 464.913 225.374C465.503 225.374 465.984 225.855 465.984 226.445V227.517Z" fill="white"/>
</g>
</mask>
<g mask="url(#mask2_681_6901)">
<path opacity="0.523042" d="M467.531 227.517H467.174V226.445C467.174 225.199 466.159 224.184 464.913 224.184C463.666 224.184 462.651 225.199 462.651 226.445V227.517H462.294C461.9 227.517 461.58 227.836 461.58 228.231V231.087C461.58 231.481 461.9 231.801 462.294 231.801H467.531C467.925 231.801 468.245 231.481 468.245 231.087V228.231C468.245 227.836 467.925 227.517 467.531 227.517ZM465.984 227.517H463.841V226.445C463.841 225.855 464.322 225.374 464.913 225.374C465.503 225.374 465.984 225.855 465.984 226.445V227.517Z" fill="black"/>
<g opacity="0.523042">
<g opacity="0.523042">
<path opacity="0.523042" d="M468.723 224.184H461.105V231.801H468.723V224.184Z" fill="#4D648D"/>
</g>
</g>
</g>
</g>
<g opacity="0.523042">
<mask id="mask3_681_6901" style="mask-type:alpha" maskUnits="userSpaceOnUse" x="461" y="264" width="8" height="9">
<g opacity="0.523042">
<path opacity="0.523042" d="M467.531 268.192H467.174V267.121C467.174 265.874 466.159 264.859 464.913 264.859C463.666 264.859 462.651 265.874 462.651 267.121V268.192H462.294C461.9 268.192 461.58 268.512 461.58 268.906V271.762C461.58 272.157 461.9 272.476 462.294 272.476H467.531C467.925 272.476 468.245 272.157 468.245 271.762V268.906C468.245 268.512 467.925 268.192 467.531 268.192ZM465.984 268.192H463.841V267.121C463.841 266.53 464.322 266.05 464.913 266.05C465.503 266.05 465.984 266.53 465.984 267.121V268.192Z" fill="white"/>
</g>
</mask>
<g mask="url(#mask3_681_6901)">
<path opacity="0.523042" d="M467.531 268.192H467.174V267.121C467.174 265.874 466.159 264.859 464.913 264.859C463.666 264.859 462.651 265.874 462.651 267.121V268.192H462.294C461.9 268.192 461.58 268.512 461.58 268.906V271.762C461.58 272.157 461.9 272.476 462.294 272.476H467.531C467.925 272.476 468.245 272.157 468.245 271.762V268.906C468.245 268.512 467.925 268.192 467.531 268.192ZM465.984 268.192H463.841V267.121C463.841 266.53 464.322 266.05 464.913 266.05C465.503 266.05 465.984 266.53 465.984 267.121V268.192Z" fill="black"/>
<g opacity="0.523042">
<g opacity="0.523042">
<path opacity="0.523042" d="M468.723 264.859H461.105V272.476H468.723V264.859Z" fill="#4D648D"/>
</g>
</g>
</g>
</g>
<g filter="url(#filter5_d_681_6901)">
<path d="M667.144 56H20.457V92.5618H667.144V56Z" fill="black"/>
</g>
<path d="M666.919 56.229H20.6816V92.3338H666.919V56.229Z" fill="white"/>
<path fill-rule="evenodd" clip-rule="evenodd" d="M20.457 56H667.144V92.5618H20.457V56ZM20.9061 56.457V92.1048H666.695V56.457H20.9061Z" fill="white"/>
<path d="M417.987 61.0269H365.892C365.396 61.0269 364.994 61.4361 364.994 61.9409V87.5342C364.994 88.039 365.396 88.4482 365.892 88.4482H417.987C418.483 88.4482 418.885 88.039 418.885 87.5342V61.9409C418.885 61.4361 418.483 61.0269 417.987 61.0269Z" fill="#E54435" fill-opacity="0.8"/>
<path d="M33.2541 80.2219C36.6024 80.2219 39.3168 77.4596 39.3168 74.0521C39.3168 70.6446 36.6024 67.8823 33.2541 67.8823C29.9058 67.8823 27.1914 70.6446 27.1914 74.0521C27.1914 77.4596 29.9058 80.2219 33.2541 80.2219Z" fill="white"/>
<path fill-rule="evenodd" clip-rule="evenodd" d="M33.2559 68.3398C30.1556 68.3398 27.6423 70.8975 27.6423 74.0526C27.6423 77.2077 30.1556 79.7654 33.2559 79.7654C36.3562 79.7654 38.8695 77.2077 38.8695 74.0526C38.8695 70.8975 36.3562 68.3398 33.2559 68.3398ZM26.7441 74.0526C26.7441 70.3927 29.6596 67.4258 33.2559 67.4258C36.8523 67.4258 39.7677 70.3927 39.7677 74.0526C39.7677 77.7125 36.8523 80.6794 33.2559 80.6794C29.6596 80.6794 26.7441 77.7125 26.7441 74.0526Z" fill="#7093FF"/>
<path d="M33.3924 73.8122H32.3425V75.6523H31.75V71.1035H33.2297C33.7332 71.1035 34.12 71.2202 34.3901 71.4534C34.6623 71.6867 34.7984 72.0262 34.7984 72.4719C34.7984 72.7552 34.7227 73.002 34.5713 73.2123C34.4219 73.4227 34.2131 73.5799 33.945 73.6841L34.9949 75.6148V75.6523H34.3625L33.3924 73.8122ZM32.3425 73.3217H33.2481C33.5408 73.3217 33.7731 73.2446 33.945 73.0905C34.119 72.9364 34.206 72.7302 34.206 72.4719C34.206 72.1907 34.1231 71.9752 33.9573 71.8252C33.7936 71.6752 33.5561 71.5992 33.2451 71.5971H32.3425V73.3217Z" fill="#4D648D"/>
<path d="M44.6797 82.0502C44.6797 80.2834 46.112 78.8511 47.8788 78.8511H129.229C130.996 78.8511 132.428 80.2834 132.428 82.0502V82.0502C132.428 83.8171 130.996 85.2494 129.229 85.2494H47.8788C46.112 85.2494 44.6797 83.8171 44.6797 82.0502V82.0502Z" fill="white"/>
<path d="M44.6797 82.0502C44.6797 80.2834 46.112 78.8511 47.8788 78.8511H129.229C130.996 78.8511 132.428 80.2834 132.428 82.0502V82.0502C132.428 83.8171 130.996 85.2494 129.229 85.2494H47.8788C46.112 85.2494 44.6797 83.8171 44.6797 82.0502V82.0502Z" fill="white"/>
<path d="M44.6797 82.0502C44.6797 80.2834 46.112 78.8511 47.8788 78.8511H129.229C130.996 78.8511 132.428 80.2834 132.428 82.0502V82.0502C132.428 83.8171 130.996 85.2494 129.229 85.2494H47.8788C46.112 85.2494 44.6797 83.8171 44.6797 82.0502V82.0502Z" fill="#E2E9FF"/>
<path d="M147.51 69.7104C147.51 67.9435 148.942 66.5112 150.709 66.5112H206.923C208.69 66.5112 210.122 67.9435 210.122 69.7104V69.7104C210.122 71.4772 208.69 72.9095 206.923 72.9095H150.709C148.942 72.9095 147.51 71.4772 147.51 69.7104V69.7104Z" fill="white"/>
<path d="M147.51 69.7104C147.51 67.9435 148.942 66.5112 150.709 66.5112H206.923C208.69 66.5112 210.122 67.9435 210.122 69.7104V69.7104C210.122 71.4772 208.69 72.9095 206.923 72.9095H150.709C148.942 72.9095 147.51 71.4772 147.51 69.7104V69.7104Z" fill="white"/>
<path d="M147.51 69.7104C147.51 67.9435 148.942 66.5112 150.709 66.5112H206.923C208.69 66.5112 210.122 67.9435 210.122 69.7104V69.7104C210.122 71.4772 208.69 72.9095 206.923 72.9095H150.709C148.942 72.9095 147.51 71.4772 147.51 69.7104V69.7104Z" fill="#E2E9FF"/>
<path d="M254.91 69.7104C254.91 67.9435 256.342 66.5112 258.109 66.5112H314.323C316.09 66.5112 317.522 67.9435 317.522 69.7104V69.7104C317.522 71.4772 316.09 72.9095 314.323 72.9095H258.109C256.342 72.9095 254.91 71.4772 254.91 69.7104V69.7104Z" fill="white"/>
<path d="M254.91 69.7104C254.91 67.9435 256.342 66.5112 258.109 66.5112H314.323C316.09 66.5112 317.522 67.9435 317.522 69.7104V69.7104C317.522 71.4772 316.09 72.9095 314.323 72.9095H258.109C256.342 72.9095 254.91 71.4772 254.91 69.7104V69.7104Z" fill="white"/>
<path d="M254.91 69.7104C254.91 67.9435 256.342 66.5112 258.109 66.5112H314.323C316.09 66.5112 317.522 67.9435 317.522 69.7104V69.7104C317.522 71.4772 316.09 72.9095 314.323 72.9095H258.109C256.342 72.9095 254.91 71.4772 254.91 69.7104V69.7104Z" fill="#E2E9FF"/>
<path d="M147.51 81.5937C147.51 79.8268 148.942 78.3945 150.709 78.3945H238C239.767 78.3945 241.199 79.8268 241.199 81.5937V81.5937C241.199 83.3605 239.767 84.7928 238 84.7928H150.709C148.942 84.7928 147.51 83.3605 147.51 81.5937V81.5937Z" fill="white"/>
<path d="M147.51 81.5937C147.51 79.8268 148.942 78.3945 150.709 78.3945H238C239.767 78.3945 241.199 79.8268 241.199 81.5937V81.5937C241.199 83.3605 239.767 84.7928 238 84.7928H150.709C148.942 84.7928 147.51 83.3605 147.51 81.5937V81.5937Z" fill="white"/>
<path d="M147.51 81.5937C147.51 79.8268 148.942 78.3945 150.709 78.3945H238C239.767 78.3945 241.199 79.8268 241.199 81.5937V81.5937C241.199 83.3605 239.767 84.7928 238 84.7928H150.709C148.942 84.7928 147.51 83.3605 147.51 81.5937V81.5937Z" fill="#E2E9FF"/>
<path d="M254.91 81.5937C254.91 79.8268 256.342 78.3945 258.109 78.3945H345.401C347.167 78.3945 348.6 79.8268 348.6 81.5937V81.5937C348.6 83.3605 347.167 84.7928 345.401 84.7928H258.109C256.342 84.7928 254.91 83.3605 254.91 81.5937V81.5937Z" fill="white"/>
<path d="M254.91 81.5937C254.91 79.8268 256.342 78.3945 258.109 78.3945H345.401C347.167 78.3945 348.6 79.8268 348.6 81.5937V81.5937C348.6 83.3605 347.167 84.7928 345.401 84.7928H258.109C256.342 84.7928 254.91 83.3605 254.91 81.5937V81.5937Z" fill="white"/>
<path d="M254.91 81.5937C254.91 79.8268 256.342 78.3945 258.109 78.3945H345.401C347.167 78.3945 348.6 79.8268 348.6 81.5937V81.5937C348.6 83.3605 347.167 84.7928 345.401 84.7928H258.109C256.342 84.7928 254.91 83.3605 254.91 81.5937V81.5937Z" fill="#E2E9FF"/>
<path d="M439.09 69.7104C439.09 67.9435 440.522 66.5112 442.289 66.5112H498.503C500.27 66.5112 501.702 67.9435 501.702 69.7104V69.7104C501.702 71.4772 500.27 72.9095 498.503 72.9095H442.289C440.522 72.9095 439.09 71.4772 439.09 69.7104V69.7104Z" fill="white"/>
<path d="M439.09 69.7104C439.09 67.9435 440.522 66.5112 442.289 66.5112H498.503C500.27 66.5112 501.702 67.9435 501.702 69.7104V69.7104C501.702 71.4772 500.27 72.9095 498.503 72.9095H442.289C440.522 72.9095 439.09 71.4772 439.09 69.7104V69.7104Z" fill="white"/>
<path d="M439.09 69.7104C439.09 67.9435 440.522 66.5112 442.289 66.5112H498.503C500.27 66.5112 501.702 67.9435 501.702 69.7104V69.7104C501.702 71.4772 500.27 72.9095 498.503 72.9095H442.289C440.522 72.9095 439.09 71.4772 439.09 69.7104V69.7104Z" fill="#E2E9FF"/>
<path d="M439.09 81.5937C439.09 79.8268 440.522 78.3945 442.289 78.3945H529.58C531.347 78.3945 532.779 79.8268 532.779 81.5937V81.5937C532.779 83.3605 531.347 84.7928 529.58 84.7928H442.289C440.522 84.7928 439.09 83.3605 439.09 81.5937V81.5937Z" fill="white"/>
<path d="M439.09 81.5937C439.09 79.8268 440.522 78.3945 442.289 78.3945H529.58C531.347 78.3945 532.779 79.8268 532.779 81.5937V81.5937C532.779 83.3605 531.347 84.7928 529.58 84.7928H442.289C440.522 84.7928 439.09 83.3605 439.09 81.5937V81.5937Z" fill="white"/>
<path d="M439.09 81.5937C439.09 79.8268 440.522 78.3945 442.289 78.3945H529.58C531.347 78.3945 532.779 79.8268 532.779 81.5937V81.5937C532.779 83.3605 531.347 84.7928 529.58 84.7928H442.289C440.522 84.7928 439.09 83.3605 439.09 81.5937V81.5937Z" fill="#E2E9FF"/>
<path d="M554.26 69.7104C554.26 67.9435 555.692 66.5112 557.459 66.5112H613.673C615.44 66.5112 616.872 67.9435 616.872 69.7104V69.7104C616.872 71.4772 615.44 72.9095 613.673 72.9095H557.459C555.692 72.9095 554.26 71.4772 554.26 69.7104V69.7104Z" fill="white"/>
<path d="M554.26 69.7104C554.26 67.9435 555.692 66.5112 557.459 66.5112H613.673C615.44 66.5112 616.872 67.9435 616.872 69.7104V69.7104C616.872 71.4772 615.44 72.9095 613.673 72.9095H557.459C555.692 72.9095 554.26 71.4772 554.26 69.7104V69.7104Z" fill="white"/>
<path d="M554.26 69.7104C554.26 67.9435 555.692 66.5112 557.459 66.5112H613.673C615.44 66.5112 616.872 67.9435 616.872 69.7104V69.7104C616.872 71.4772 615.44 72.9095 613.673 72.9095H557.459C555.692 72.9095 554.26 71.4772 554.26 69.7104V69.7104Z" fill="#E2E9FF"/>
<path d="M554.26 81.5937C554.26 79.8268 555.692 78.3945 557.459 78.3945H644.75C646.517 78.3945 647.949 79.8268 647.949 81.5937V81.5937C647.949 83.3605 646.517 84.7928 644.75 84.7928H557.459C555.692 84.7928 554.26 83.3605 554.26 81.5937V81.5937Z" fill="white"/>
<path d="M554.26 81.5937C554.26 79.8268 555.692 78.3945 557.459 78.3945H644.75C646.517 78.3945 647.949 79.8268 647.949 81.5937V81.5937C647.949 83.3605 646.517 84.7928 644.75 84.7928H557.459C555.692 84.7928 554.26 83.3605 554.26 81.5937V81.5937Z" fill="white"/>
<path d="M554.26 81.5937C554.26 79.8268 555.692 78.3945 557.459 78.3945H644.75C646.517 78.3945 647.949 79.8268 647.949 81.5937V81.5937C647.949 83.3605 646.517 84.7928 644.75 84.7928H557.459C555.692 84.7928 554.26 83.3605 554.26 81.5937V81.5937Z" fill="#E2E9FF"/>
<g opacity="0.5">
<path d="M374.191 70.396C374.191 69.2601 375.112 68.3394 376.248 68.3394H410.525C411.661 68.3394 412.581 69.2601 412.581 70.396V70.396C412.581 71.5318 411.661 72.4526 410.525 72.4526H376.248C375.112 72.4526 374.191 71.5318 374.191 70.396V70.396Z" fill="white"/>
<path d="M374.191 70.396C374.191 69.2601 375.112 68.3394 376.248 68.3394H410.525C411.661 68.3394 412.581 69.2601 412.581 70.396V70.396C412.581 71.5318 411.661 72.4526 410.525 72.4526H376.248C375.112 72.4526 374.191 71.5318 374.191 70.396V70.396Z" fill="white"/>
<path d="M374.191 70.396C374.191 69.2601 375.112 68.3394 376.248 68.3394H410.525C411.661 68.3394 412.581 69.2601 412.581 70.396V70.396C412.581 71.5318 411.661 72.4526 410.525 72.4526H376.248C375.112 72.4526 374.191 71.5318 374.191 70.396V70.396Z" fill="#E2E9FF"/>
</g>
<g opacity="0.5">
<path d="M378.307 79.5366C378.307 78.4008 379.227 77.48 380.363 77.48H404.128C405.264 77.48 406.185 78.4008 406.185 79.5366V79.5366C406.185 80.6724 405.264 81.5932 404.128 81.5932H380.363C379.227 81.5932 378.307 80.6724 378.307 79.5366V79.5366Z" fill="white"/>
<path d="M378.307 79.5366C378.307 78.4008 379.227 77.48 380.363 77.48H404.128C405.264 77.48 406.185 78.4008 406.185 79.5366V79.5366C406.185 80.6724 405.264 81.5932 404.128 81.5932H380.363C379.227 81.5932 378.307 80.6724 378.307 79.5366V79.5366Z" fill="white"/>
<path d="M378.307 79.5366C378.307 78.4008 379.227 77.48 380.363 77.48H404.128C405.264 77.48 406.185 78.4008 406.185 79.5366V79.5366C406.185 80.6724 405.264 81.5932 404.128 81.5932H380.363C379.227 81.5932 378.307 80.6724 378.307 79.5366V79.5366Z" fill="#E2E9FF"/>
</g>
<g filter="url(#filter6_d_681_6901)">
<path d="M20.914 100.788H124.201C124.706 100.788 125.115 101.197 125.115 101.702V123.639H20V101.702C20 101.197 20.4092 100.788 20.914 100.788Z" fill="black"/>
</g>
<path fill-rule="evenodd" clip-rule="evenodd" d="M20.2285 123.41H124.887V101.702C124.887 101.323 124.58 101.016 124.201 101.016H20.914C20.5354 101.016 20.2285 101.323 20.2285 101.702V123.41Z" fill="url(#paint3_linear_681_6901)"/>
<path fill-rule="evenodd" clip-rule="evenodd" d="M20 101.702C20 101.197 20.4092 100.788 20.914 100.788H124.201C124.706 100.788 125.115 101.197 125.115 101.702V123.639H20V101.702ZM20.914 101.245C20.6616 101.245 20.457 101.449 20.457 101.702V123.182H124.658V101.702C124.658 101.449 124.454 101.245 124.201 101.245H20.914Z" fill="#7091F5"/>
<path d="M43.6066 112.854H41.7009L41.2729 114.041H40.6543L42.3913 109.493H42.9162L44.6564 114.041H44.0409L43.6066 112.854ZM41.8821 112.361H43.4286L42.6538 110.233L41.8821 112.361Z" fill="white"/>
<path d="M48.5772 112.598C48.521 113.079 48.3429 113.451 48.043 113.713C47.7451 113.974 47.3484 114.104 46.8527 114.104C46.3153 114.104 45.8842 113.911 45.5593 113.526C45.2364 113.141 45.075 112.625 45.075 111.98V111.542C45.075 111.119 45.15 110.748 45.2999 110.427C45.452 110.106 45.6665 109.86 45.9435 109.689C46.2205 109.517 46.5413 109.43 46.9058 109.43C47.389 109.43 47.7764 109.566 48.068 109.836C48.3596 110.105 48.5293 110.478 48.5772 110.955H47.9742C47.9222 110.592 47.8087 110.33 47.6337 110.167C47.4608 110.005 47.2182 109.924 46.9058 109.924C46.5225 109.924 46.2216 110.065 46.0029 110.349C45.7863 110.632 45.678 111.035 45.678 111.558V111.998C45.678 112.492 45.7811 112.884 45.9873 113.176C46.1935 113.468 46.4819 113.613 46.8527 113.613C47.1859 113.613 47.441 113.538 47.6181 113.389C47.7972 113.236 47.9159 112.973 47.9742 112.598H48.5772Z" fill="white"/>
<path d="M52.7449 112.598C52.6886 113.079 52.5105 113.451 52.2106 113.713C51.9128 113.974 51.516 114.104 51.0203 114.104C50.483 114.104 50.0518 113.911 49.7269 113.526C49.4041 113.141 49.2427 112.625 49.2427 111.98V111.542C49.2427 111.119 49.3176 110.748 49.4676 110.427C49.6196 110.106 49.8342 109.86 50.1112 109.689C50.3882 109.517 50.7089 109.43 51.0734 109.43C51.5566 109.43 51.944 109.566 52.2356 109.836C52.5272 110.105 52.697 110.478 52.7449 110.955H52.1419C52.0898 110.592 51.9763 110.33 51.8014 110.167C51.6285 110.005 51.3858 109.924 51.0734 109.924C50.6902 109.924 50.3892 110.065 50.1705 110.349C49.9539 110.632 49.8456 111.035 49.8456 111.558V111.998C49.8456 112.492 49.9487 112.884 50.1549 113.176C50.3611 113.468 50.6496 113.613 51.0203 113.613C51.3536 113.613 51.6087 113.538 51.7857 113.389C51.9649 113.236 52.0836 112.973 52.1419 112.598H52.7449Z" fill="white"/>
<path d="M54.2101 114.041H53.6103V109.493H54.2101V114.041Z" fill="white"/>
<path d="M58.8089 111.914C58.8089 112.36 58.7339 112.749 58.5839 113.082C58.434 113.414 58.2215 113.667 57.9466 113.842C57.6717 114.016 57.3509 114.104 56.9844 114.104C56.6261 114.104 56.3085 114.016 56.0315 113.842C55.7545 113.664 55.5389 113.414 55.3848 113.089C55.2327 112.762 55.1546 112.384 55.1505 111.955V111.626C55.1505 111.189 55.2265 110.803 55.3785 110.467C55.5306 110.132 55.7451 109.876 56.0221 109.699C56.3012 109.52 56.6199 109.43 56.9781 109.43C57.3426 109.43 57.6634 109.519 57.9404 109.696C58.2195 109.871 58.434 110.126 58.5839 110.461C58.7339 110.794 58.8089 111.183 58.8089 111.626V111.914ZM58.2122 111.62C58.2122 111.081 58.1039 110.667 57.8873 110.38C57.6706 110.09 57.3676 109.946 56.9781 109.946C56.5991 109.946 56.3002 110.09 56.0815 110.38C55.8649 110.667 55.7534 111.067 55.7472 111.58V111.914C55.7472 112.437 55.8565 112.848 56.0752 113.148C56.296 113.446 56.5991 113.595 56.9844 113.595C57.3718 113.595 57.6717 113.454 57.8841 113.173C58.0966 112.89 58.2059 112.485 58.2122 111.958V111.62Z" fill="white"/>
<path d="M63.2046 114.041H62.6016L60.3116 110.536V114.041H59.7086V109.493H60.3116L62.6079 113.014V109.493H63.2046V114.041Z" fill="white"/>
<path d="M66.8411 111.939H64.8698V113.551H67.1598V114.041H64.2699V109.493H67.1286V109.986H64.8698V111.448H66.8411V111.939Z" fill="white"/>
<path d="M69.2468 112.014C68.7323 111.866 68.3574 111.685 68.1221 111.47C67.8888 111.254 67.7721 110.987 67.7721 110.67C67.7721 110.312 67.9148 110.016 68.2002 109.783C68.4876 109.548 68.8604 109.43 69.3186 109.43C69.631 109.43 69.9091 109.491 70.1528 109.611C70.3985 109.732 70.5881 109.899 70.7214 110.111C70.8568 110.324 70.9244 110.556 70.9244 110.808H70.3215C70.3215 110.533 70.234 110.317 70.059 110.161C69.8841 110.003 69.6373 109.924 69.3186 109.924C69.0229 109.924 68.7917 109.989 68.625 110.121C68.4605 110.25 68.3782 110.43 68.3782 110.661C68.3782 110.846 68.4563 111.004 68.6126 111.133C68.7708 111.26 69.0385 111.377 69.4155 111.483C69.7945 111.589 70.0903 111.707 70.3027 111.836C70.5173 111.963 70.6755 112.112 70.7776 112.283C70.8817 112.453 70.9338 112.654 70.9338 112.886C70.9338 113.254 70.7901 113.55 70.5027 113.773C70.2153 113.994 69.831 114.104 69.3499 114.104C69.0374 114.104 68.7458 114.045 68.4751 113.926C68.2043 113.805 67.995 113.641 67.8471 113.432C67.7013 113.224 67.6284 112.988 67.6284 112.723H68.2314C68.2314 112.998 68.3324 113.216 68.5344 113.376C68.7386 113.534 69.0104 113.613 69.3499 113.613C69.6664 113.613 69.9091 113.549 70.0778 113.42C70.2465 113.291 70.3308 113.115 70.3308 112.892C70.3308 112.669 70.2527 112.497 70.0965 112.376C69.9403 112.253 69.6571 112.133 69.2468 112.014Z" fill="white"/>
<mask id="mask4_681_6901" style="mask-type:alpha" maskUnits="userSpaceOnUse" x="27" y="107" width="8" height="10">
<path d="M34.8534 109.643V115.927C34.8534 116.4 34.4697 116.784 33.9965 116.784H28.855C28.3817 116.784 27.998 116.4 27.998 115.927V109.643C27.998 109.169 28.3817 108.786 28.855 108.786H30.2832C30.2832 108.156 30.7957 107.643 31.4257 107.643C32.0557 107.643 32.5683 108.156 32.5683 108.786H33.9965C34.4697 108.786 34.8534 109.169 34.8534 109.643ZM31.4257 108.357C31.1891 108.357 30.9973 108.549 30.9973 108.786C30.9973 109.022 31.1891 109.214 31.4257 109.214C31.6623 109.214 31.8542 109.022 31.8542 108.786C31.8542 108.549 31.6623 108.357 31.4257 108.357ZM33.1395 110.392V110.035C33.1395 109.976 33.0916 109.928 33.0324 109.928H29.819C29.7598 109.928 29.7119 109.976 29.7119 110.035V110.392C29.7119 110.451 29.7598 110.499 29.819 110.499H33.0324C33.0916 110.499 33.1395 110.451 33.1395 110.392Z" fill="white"/>
</mask>
<g mask="url(#mask4_681_6901)">
<path d="M34.8534 109.643V115.927C34.8534 116.4 34.4697 116.784 33.9965 116.784H28.855C28.3817 116.784 27.998 116.4 27.998 115.927V109.643C27.998 109.169 28.3817 108.786 28.855 108.786H30.2832C30.2832 108.156 30.7957 107.643 31.4257 107.643C32.0557 107.643 32.5683 108.156 32.5683 108.786H33.9965C34.4697 108.786 34.8534 109.169 34.8534 109.643ZM31.4257 108.357C31.1891 108.357 30.9973 108.549 30.9973 108.786C30.9973 109.022 31.1891 109.214 31.4257 109.214C31.6623 109.214 31.8542 109.022 31.8542 108.786C31.8542 108.549 31.6623 108.357 31.4257 108.357ZM33.1395 110.392V110.035C33.1395 109.976 33.0916 109.928 33.0324 109.928H29.819C29.7598 109.928 29.7119 109.976 29.7119 110.035V110.392C29.7119 110.451 29.7598 110.499 29.819 110.499H33.0324C33.0916 110.499 33.1395 110.451 33.1395 110.392Z" fill="black"/>
<path d="M35.9959 107.643H26.8555V116.784H35.9959V107.643Z" fill="white"/>
</g>
<g filter="url(#filter7_d_681_6901)">
<path d="M660.745 133.237H498.502V149.69H660.745V133.237Z" fill="black"/>
</g>
<path d="M660.745 133.237H498.502V149.69H660.745V133.237Z" fill="#4D648D"/>
<path d="M660.745 133.237H498.502V149.69H660.745V133.237Z" fill="url(#paint4_linear_681_6901)"/>
<g opacity="0.3">
<path d="M504.9 141.691C504.9 139.546 506.64 137.807 508.785 137.807H581.452C583.597 137.807 585.336 139.546 585.336 141.691V141.691C585.336 143.837 583.597 145.576 581.452 145.576H508.785C506.64 145.576 504.9 143.837 504.9 141.691V141.691Z" fill="white"/>
<path d="M504.9 141.691C504.9 139.546 506.64 137.807 508.785 137.807H581.452C583.597 137.807 585.336 139.546 585.336 141.691V141.691C585.336 143.837 583.597 145.576 581.452 145.576H508.785C506.64 145.576 504.9 143.837 504.9 141.691V141.691Z" fill="white"/>
<path d="M504.9 141.691C504.9 139.546 506.64 137.807 508.785 137.807H581.452C583.597 137.807 585.336 139.546 585.336 141.691V141.691C585.336 143.837 583.597 145.576 581.452 145.576H508.785C506.64 145.576 504.9 143.837 504.9 141.691V141.691Z" fill="#E2E9FF" fill-opacity="0.3"/>
</g>
<g opacity="0.3">
<path d="M427.664 111.071C427.664 108.925 429.403 107.186 431.549 107.186H472.681C474.826 107.186 476.565 108.925 476.565 111.071V111.071C476.565 113.216 474.826 114.955 472.681 114.955H431.549C429.403 114.955 427.664 113.216 427.664 111.071V111.071Z" fill="white"/>
<path d="M427.664 111.071C427.664 108.925 429.403 107.186 431.549 107.186H472.681C474.826 107.186 476.565 108.925 476.565 111.071V111.071C476.565 113.216 474.826 114.955 472.681 114.955H431.549C429.403 114.955 427.664 113.216 427.664 111.071V111.071Z" fill="white"/>
<path d="M427.664 111.071C427.664 108.925 429.403 107.186 431.549 107.186H472.681C474.826 107.186 476.565 108.925 476.565 111.071V111.071C476.565 113.216 474.826 114.955 472.681 114.955H431.549C429.403 114.955 427.664 113.216 427.664 111.071V111.071Z" fill="#E2E9FF" fill-opacity="0.3"/>
</g>
<mask id="mask5_681_6901" style="mask-type:alpha" maskUnits="userSpaceOnUse" x="648" y="140" width="7" height="4">
<path d="M651.304 143.633L648.876 141.205C648.708 141.038 648.708 140.766 648.876 140.6L649.279 140.197C649.447 140.029 649.718 140.029 649.885 140.197L651.605 141.918L653.326 140.197C653.494 140.029 653.766 140.029 653.932 140.197L654.335 140.6C654.503 140.768 654.503 141.039 654.335 141.205L651.907 143.633C651.743 143.801 651.472 143.801 651.304 143.633Z" fill="white"/>
</mask>
<g mask="url(#mask5_681_6901)">
<path d="M651.304 143.633L648.876 141.205C648.708 141.038 648.708 140.766 648.876 140.6L649.279 140.197C649.447 140.029 649.718 140.029 649.885 140.197L651.605 141.918L653.326 140.197C653.494 140.029 653.766 140.029 653.932 140.197L654.335 140.6C654.503 140.768 654.503 141.039 654.335 141.205L651.907 143.633C651.743 143.801 651.472 143.801 651.304 143.633Z" fill="black"/>
<path d="M656.178 137.339L647.037 137.339L647.037 146.479L656.178 146.479L656.178 137.339Z" fill="white"/>
</g>
<g filter="url(#filter8_d_681_6901)">
<path d="M660.745 151.975H498.502V168.428H660.745V151.975Z" fill="black"/>
</g>
<path d="M660.745 151.975H498.502V168.428H660.745V151.975Z" fill="#4D648D"/>
<path d="M660.745 151.975H498.502V168.428H660.745V151.975Z" fill="url(#paint5_linear_681_6901)"/>
<g opacity="0.3">
<path d="M504.9 160.43C504.9 158.284 506.64 156.545 508.785 156.545H581.452C583.597 156.545 585.336 158.284 585.336 160.43V160.43C585.336 162.575 583.597 164.314 581.452 164.314H508.785C506.64 164.314 504.9 162.575 504.9 160.43V160.43Z" fill="white"/>
<path d="M504.9 160.43C504.9 158.284 506.64 156.545 508.785 156.545H581.452C583.597 156.545 585.336 158.284 585.336 160.43V160.43C585.336 162.575 583.597 164.314 581.452 164.314H508.785C506.64 164.314 504.9 162.575 504.9 160.43V160.43Z" fill="white"/>
<path d="M504.9 160.43C504.9 158.284 506.64 156.545 508.785 156.545H581.452C583.597 156.545 585.336 158.284 585.336 160.43V160.43C585.336 162.575 583.597 164.314 581.452 164.314H508.785C506.64 164.314 504.9 162.575 504.9 160.43V160.43Z" fill="#E2E9FF" fill-opacity="0.3"/>
</g>
<mask id="mask6_681_6901" style="mask-type:alpha" maskUnits="userSpaceOnUse" x="648" y="158" width="7" height="5">
<path d="M651.304 162.371L648.876 159.943C648.708 159.775 648.708 159.504 648.876 159.338L649.279 158.934C649.447 158.767 649.718 158.767 649.885 158.934L651.605 160.655L653.326 158.934C653.494 158.767 653.766 158.767 653.932 158.934L654.335 159.338C654.503 159.506 654.503 159.777 654.335 159.943L651.907 162.371C651.743 162.539 651.472 162.539 651.304 162.371Z" fill="white"/>
</mask>
<g mask="url(#mask6_681_6901)">
<path d="M651.304 162.371L648.876 159.943C648.708 159.775 648.708 159.504 648.876 159.338L649.279 158.934C649.447 158.767 649.718 158.767 649.885 158.934L651.605 160.655L653.326 158.934C653.494 158.767 653.766 158.767 653.932 158.934L654.335 159.338C654.503 159.506 654.503 159.777 654.335 159.943L651.907 162.371C651.743 162.539 651.472 162.539 651.304 162.371Z" fill="black"/>
<path d="M656.178 156.077L647.037 156.077L647.037 165.217L656.178 165.217L656.178 156.077Z" fill="white"/>
</g>
<mask id="mask7_681_6901" style="mask-type:alpha" maskUnits="userSpaceOnUse" x="653" y="200" width="7" height="5">
<path d="M655.874 203.96L653.446 201.532C653.278 201.365 653.278 201.093 653.446 200.927L653.85 200.524C654.017 200.356 654.289 200.356 654.455 200.524L656.176 202.245L657.897 200.524C658.065 200.356 658.336 200.356 658.502 200.524L658.905 200.927C659.073 201.095 659.073 201.366 658.905 201.532L656.478 203.96C656.313 204.128 656.042 204.128 655.874 203.96Z" fill="white"/>
</mask>
<g mask="url(#mask7_681_6901)">
<path d="M655.874 203.96L653.446 201.532C653.278 201.365 653.278 201.093 653.446 200.927L653.85 200.524C654.017 200.356 654.289 200.356 654.455 200.524L656.176 202.245L657.897 200.524C658.065 200.356 658.336 200.356 658.502 200.524L658.905 200.927C659.073 201.095 659.073 201.366 658.905 201.532L656.478 203.96C656.313 204.128 656.042 204.128 655.874 203.96Z" fill="black"/>
<path d="M660.746 197.667L651.605 197.667L651.605 206.807L660.746 206.807L660.746 197.667Z" fill="white"/>
</g>
<mask id="mask8_681_6901" style="mask-type:alpha" maskUnits="userSpaceOnUse" x="653" y="221" width="7" height="5">
<path d="M655.874 224.983L653.446 222.555C653.278 222.387 653.278 222.116 653.446 221.95L653.85 221.546C654.017 221.378 654.289 221.378 654.455 221.546L656.176 223.267L657.897 221.546C658.065 221.378 658.336 221.378 658.502 221.546L658.905 221.95C659.073 222.118 659.073 222.389 658.905 222.555L656.478 224.983C656.313 225.151 656.042 225.151 655.874 224.983Z" fill="white"/>
</mask>
<g mask="url(#mask8_681_6901)">
<path d="M655.874 224.983L653.446 222.555C653.278 222.387 653.278 222.116 653.446 221.95L653.85 221.546C654.017 221.378 654.289 221.378 654.455 221.546L656.176 223.267L657.897 221.546C658.065 221.378 658.336 221.378 658.502 221.546L658.905 221.95C659.073 222.118 659.073 222.389 658.905 222.555L656.478 224.983C656.313 225.151 656.042 225.151 655.874 224.983Z" fill="black"/>
<path d="M660.746 218.689L651.605 218.689L651.605 227.829L660.746 227.829L660.746 218.689Z" fill="white"/>
</g>
<mask id="mask9_681_6901" style="mask-type:alpha" maskUnits="userSpaceOnUse" x="653" y="242" width="7" height="5">
<path d="M655.874 246.006L653.446 243.578C653.278 243.411 653.278 243.139 653.446 242.973L653.85 242.57C654.017 242.402 654.289 242.402 654.455 242.57L656.176 244.291L657.897 242.57C658.065 242.402 658.336 242.402 658.502 242.57L658.905 242.973C659.073 243.141 659.073 243.412 658.905 243.578L656.478 246.006C656.313 246.174 656.042 246.174 655.874 246.006Z" fill="white"/>
</mask>
<g mask="url(#mask9_681_6901)">
<path d="M655.874 246.006L653.446 243.578C653.278 243.411 653.278 243.139 653.446 242.973L653.85 242.57C654.017 242.402 654.289 242.402 654.455 242.57L656.176 244.291L657.897 242.57C658.065 242.402 658.336 242.402 658.502 242.57L658.905 242.973C659.073 243.141 659.073 243.412 658.905 243.578L656.478 246.006C656.313 246.174 656.042 246.174 655.874 246.006Z" fill="black"/>
<path d="M660.746 239.712L651.605 239.712L651.605 248.853L660.746 248.853L660.746 239.712Z" fill="white"/>
</g>
<mask id="mask10_681_6901" style="mask-type:alpha" maskUnits="userSpaceOnUse" x="653" y="263" width="7" height="5">
<path d="M655.874 267.029L653.446 264.601C653.278 264.434 653.278 264.162 653.446 263.996L653.85 263.593C654.017 263.425 654.289 263.425 654.455 263.593L656.176 265.314L657.897 263.593C658.065 263.425 658.336 263.425 658.502 263.593L658.905 263.996C659.073 264.164 659.073 264.435 658.905 264.601L656.478 267.029C656.313 267.197 656.042 267.197 655.874 267.029Z" fill="white"/>
</mask>
<g mask="url(#mask10_681_6901)">
<path d="M655.874 267.029L653.446 264.601C653.278 264.434 653.278 264.162 653.446 263.996L653.85 263.593C654.017 263.425 654.289 263.425 654.455 263.593L656.176 265.314L657.897 263.593C658.065 263.425 658.336 263.425 658.502 263.593L658.905 263.996C659.073 264.164 659.073 264.435 658.905 264.601L656.478 267.029C656.313 267.197 656.042 267.197 655.874 267.029Z" fill="black"/>
<path d="M660.746 260.735L651.605 260.735L651.605 269.876L660.746 269.876L660.746 260.735Z" fill="white"/>
</g>
<path d="M660.777 364.947H644.033C643.293 364.947 642.693 365.547 642.693 366.287V383.031C642.693 383.771 643.293 384.371 644.033 384.371H660.777C661.517 384.371 662.117 383.771 662.117 383.031V366.287C662.117 365.547 661.517 364.947 660.777 364.947Z" fill="#6BBF59"/>
<path fill-rule="evenodd" clip-rule="evenodd" d="M660.777 365.617H644.033C643.663 365.617 643.363 365.917 643.363 366.287V383.031C643.363 383.401 643.663 383.701 644.033 383.701H660.777C661.147 383.701 661.447 383.401 661.447 383.031V366.287C661.447 365.917 661.147 365.617 660.777 365.617ZM644.033 364.947H660.777C661.517 364.947 662.117 365.547 662.117 366.287V383.031C662.117 383.771 661.517 384.371 660.777 384.371H644.033C643.293 384.371 642.693 383.771 642.693 383.031V366.287C642.693 365.547 643.293 364.947 644.033 364.947Z" fill="#6BBF59"/>
<mask id="mask11_681_6901" style="mask-type:alpha" maskUnits="userSpaceOnUse" x="648" y="370" width="9" height="10">
<path d="M656.842 375.408V373.909C656.842 373.648 656.632 373.438 656.371 373.438H653.667V370.734C653.667 370.473 653.457 370.263 653.196 370.263H651.697C651.436 370.263 651.226 370.473 651.226 370.734V373.438H648.522C648.261 373.438 648.051 373.648 648.051 373.909V375.408C648.051 375.669 648.261 375.879 648.522 375.879H651.226V378.583C651.226 378.844 651.436 379.054 651.697 379.054H653.196C653.457 379.054 653.667 378.844 653.667 378.583V375.879H656.371C656.632 375.879 656.842 375.669 656.842 375.408Z" fill="white"/>
</mask>
<g mask="url(#mask11_681_6901)">
<path d="M656.842 375.408V373.909C656.842 373.648 656.632 373.438 656.371 373.438H653.667V370.734C653.667 370.473 653.457 370.263 653.196 370.263H651.697C651.436 370.263 651.226 370.473 651.226 370.734V373.438H648.522C648.261 373.438 648.051 373.648 648.051 373.909V375.408C648.051 375.669 648.261 375.879 648.522 375.879H651.226V378.583C651.226 378.844 651.436 379.054 651.697 379.054H653.196C653.457 379.054 653.667 378.844 653.667 378.583V375.879H656.371C656.632 375.879 656.842 375.669 656.842 375.408Z" fill="black"/>
<path d="M657.468 369.635H647.422V379.682H657.468V369.635Z" fill="white"/>
</g>
<path d="M53.5691 74.7377H52.5528L49.9459 70.5883V74.7377H48.9297V68.8892H49.9459L52.5609 73.0546V68.8892H53.5691V74.7377Z" fill="#4D648D"/>
<path d="M55.7141 74.7377H54.738V70.3915H55.7141V74.7377ZM54.6777 69.2628C54.6777 69.1128 54.7246 68.9883 54.8183 68.8892C54.9147 68.7901 55.0513 68.7406 55.228 68.7406C55.4048 68.7406 55.5413 68.7901 55.6377 68.8892C55.7341 68.9883 55.7823 69.1128 55.7823 69.2628C55.7823 69.4101 55.7341 69.5332 55.6377 69.6323C55.5413 69.7287 55.4048 69.7769 55.228 69.7769C55.0513 69.7769 54.9147 69.7287 54.8183 69.6323C54.7246 69.5332 54.6777 69.4101 54.6777 69.2628Z" fill="#4D648D"/>
<path d="M56.5978 72.5325C56.5978 71.863 56.7531 71.3261 57.0637 70.9217C57.3743 70.5147 57.7907 70.3112 58.3129 70.3112C58.7735 70.3112 59.1457 70.4718 59.4296 70.7932V68.5679H60.4057V74.7377H59.522L59.4738 74.2878C59.1819 74.6413 58.7923 74.818 58.3049 74.818C57.7961 74.818 57.3837 74.6132 57.0677 74.2034C56.7544 73.7937 56.5978 73.2367 56.5978 72.5325ZM57.5738 72.6168C57.5738 73.0587 57.6582 73.4041 57.8269 73.6531C57.9983 73.8995 58.2406 74.0227 58.5539 74.0227C58.9529 74.0227 59.2448 73.8446 59.4296 73.4884V71.6327C59.2502 71.2846 58.961 71.1105 58.562 71.1105C58.246 71.1105 58.0023 71.2364 57.8309 71.4881C57.6595 71.7371 57.5738 72.1134 57.5738 72.6168Z" fill="#4D648D"/>
<path d="M62.4623 74.7377H61.4862V70.3915H62.4623V74.7377ZM61.4259 69.2628C61.4259 69.1128 61.4728 68.9883 61.5665 68.8892C61.6629 68.7901 61.7995 68.7406 61.9762 68.7406C62.153 68.7406 62.2896 68.7901 62.386 68.8892C62.4824 68.9883 62.5306 69.1128 62.5306 69.2628C62.5306 69.4101 62.4824 69.5332 62.386 69.6323C62.2896 69.7287 62.153 69.7769 61.9762 69.7769C61.7995 69.7769 61.6629 69.7287 61.5665 69.6323C61.4728 69.5332 61.4259 69.4101 61.4259 69.2628Z" fill="#4D648D"/>
<path d="M66.1256 74.7377C66.0828 74.6547 66.0453 74.5194 66.0131 74.332C65.7025 74.656 65.3222 74.818 64.8724 74.818C64.4359 74.818 64.0797 74.6935 63.8039 74.4444C63.5281 74.1954 63.3902 73.8875 63.3902 73.5206C63.3902 73.0573 63.5615 72.7025 63.9043 72.4561C64.2498 72.2071 64.7425 72.0826 65.3825 72.0826H65.981V71.7974C65.981 71.5724 65.9181 71.393 65.7922 71.2591C65.6663 71.1226 65.4749 71.0543 65.2178 71.0543C64.9955 71.0543 64.8134 71.1105 64.6715 71.223C64.5296 71.3328 64.4586 71.4734 64.4586 71.6447H63.4825C63.4825 71.4064 63.5615 71.1841 63.7195 70.9779C63.8775 70.7691 64.0918 70.6057 64.3622 70.4879C64.6354 70.3701 64.9393 70.3112 65.274 70.3112C65.7828 70.3112 66.1885 70.4397 66.4911 70.6968C66.7937 70.9512 66.949 71.31 66.9571 71.7733V73.7335C66.9571 74.1244 67.012 74.4364 67.1218 74.6694V74.7377H66.1256ZM65.0531 74.0347C65.2459 74.0347 65.4267 73.9879 65.5954 73.8941C65.7668 73.8004 65.8953 73.6746 65.981 73.5166V72.6971H65.4548C65.0933 72.6971 64.8215 72.7601 64.6394 72.8859C64.4573 73.0118 64.3662 73.1899 64.3662 73.4202C64.3662 73.6076 64.4278 73.7576 64.551 73.87C64.6769 73.9798 64.8442 74.0347 65.0531 74.0347Z" fill="#4D648D"/>
<path d="M72.1829 73.4643L73.6691 68.8892H74.7858L72.681 74.7377H71.6969L69.6001 68.8892H70.7128L72.1829 73.4643Z" fill="#4D648D"/>
<path d="M77.7663 74.7377C77.7234 74.6547 77.6859 74.5194 77.6538 74.332C77.3432 74.656 76.9629 74.818 76.513 74.818C76.0765 74.818 75.7204 74.6935 75.4446 74.4444C75.1688 74.1954 75.0308 73.8875 75.0308 73.5206C75.0308 73.0573 75.2022 72.7025 75.545 72.4561C75.8904 72.2071 76.3832 72.0826 77.0232 72.0826H77.6217V71.7974C77.6217 71.5724 77.5587 71.393 77.4329 71.2591C77.307 71.1226 77.1156 71.0543 76.8585 71.0543C76.6362 71.0543 76.4541 71.1105 76.3122 71.223C76.1703 71.3328 76.0993 71.4734 76.0993 71.6447H75.1232C75.1232 71.4064 75.2022 71.1841 75.3602 70.9779C75.5182 70.7691 75.7324 70.6057 76.0029 70.4879C76.276 70.3701 76.58 70.3112 76.9147 70.3112C77.4235 70.3112 77.8292 70.4397 78.1318 70.6968C78.4344 70.9512 78.5897 71.31 78.5978 71.7733V73.7335C78.5978 74.1244 78.6527 74.4364 78.7624 74.6694V74.7377H77.7663ZM76.6938 74.0347C76.8866 74.0347 77.0674 73.9879 77.2361 73.8941C77.4074 73.8004 77.536 73.6746 77.6217 73.5166V72.6971H77.0955C76.734 72.6971 76.4622 72.7601 76.2801 72.8859C76.098 73.0118 76.0069 73.1899 76.0069 73.4202C76.0069 73.6076 76.0685 73.7576 76.1917 73.87C76.3176 73.9798 76.4849 74.0347 76.6938 74.0347Z" fill="#4D648D"/>
<path d="M80.6584 74.7377H79.6823V68.5679H80.6584V74.7377Z" fill="#4D648D"/>
<path d="M81.5421 72.5325C81.5421 71.863 81.6974 71.3261 82.008 70.9217C82.3187 70.5147 82.7351 70.3112 83.2572 70.3112C83.7178 70.3112 84.0901 70.4718 84.3739 70.7932V68.5679H85.35V74.7377H84.4663L84.4181 74.2878C84.1262 74.6413 83.7366 74.818 83.2492 74.818C82.7404 74.818 82.328 74.6132 82.012 74.2034C81.6987 73.7937 81.5421 73.2367 81.5421 72.5325ZM82.5182 72.6168C82.5182 73.0587 82.6025 73.4041 82.7712 73.6531C82.9426 73.8995 83.1849 74.0227 83.4983 74.0227C83.8973 74.0227 84.1891 73.8446 84.3739 73.4884V71.6327C84.1945 71.2846 83.9053 71.1105 83.5063 71.1105C83.1903 71.1105 82.9466 71.2364 82.7752 71.4881C82.6038 71.7371 82.5182 72.1134 82.5182 72.6168Z" fill="#4D648D"/>
<path d="M88.2823 74.818C87.6637 74.818 87.1616 74.6239 86.776 74.2356C86.393 73.8446 86.2016 73.3251 86.2016 72.6771V72.5566C86.2016 72.1227 86.2846 71.7358 86.4506 71.3957C86.6193 71.0529 86.855 70.7865 87.1576 70.5964C87.4602 70.4062 87.7976 70.3112 88.1698 70.3112C88.7616 70.3112 89.2182 70.5 89.5395 70.8775C89.8635 71.2551 90.0255 71.7893 90.0255 72.4802V72.8739H87.1857C87.2151 73.2327 87.3343 73.5166 87.5432 73.7254C87.7547 73.9343 88.0198 74.0388 88.3385 74.0388C88.7857 74.0388 89.1499 73.858 89.4311 73.4965L89.9573 73.9986C89.7832 74.2583 89.5502 74.4605 89.2583 74.6051C88.9691 74.747 88.6438 74.818 88.2823 74.818ZM88.1658 71.0944C87.898 71.0944 87.6811 71.1882 87.515 71.3756C87.3517 71.5631 87.2473 71.8242 87.2017 72.1589H89.0615V72.0866C89.0401 71.7599 88.9531 71.5135 88.8004 71.3475C88.6478 71.1788 88.4362 71.0944 88.1658 71.0944ZM88.3867 68.5679H89.4993L88.3867 69.785H87.6034L88.3867 68.5679Z" fill="#4D648D"/>
<path d="M93.2229 73.5567C93.2229 73.3827 93.1506 73.2501 93.006 73.1591C92.8641 73.068 92.6271 72.9877 92.295 72.9181C91.963 72.8484 91.6858 72.7601 91.4636 72.653C90.9762 72.4173 90.7325 72.0759 90.7325 71.6287C90.7325 71.2538 90.8905 70.9405 91.2065 70.6887C91.5225 70.437 91.9242 70.3112 92.4115 70.3112C92.931 70.3112 93.3501 70.4397 93.6688 70.6968C93.9901 70.9538 94.1508 71.2872 94.1508 71.697H93.1747C93.1747 71.5095 93.1051 71.3542 92.9658 71.231C92.8266 71.1051 92.6418 71.0422 92.4115 71.0422C92.1973 71.0422 92.0219 71.0918 91.8853 71.1908C91.7514 71.2899 91.6845 71.4225 91.6845 71.5885C91.6845 71.7385 91.7474 71.855 91.8733 71.938C91.9991 72.021 92.2535 72.1053 92.6365 72.191C93.0194 72.274 93.3193 72.3745 93.5362 72.4923C93.7558 72.6074 93.9178 72.7467 94.0223 72.91C94.1294 73.0734 94.1829 73.2715 94.1829 73.5045C94.1829 73.8955 94.0209 74.2128 93.6969 74.4565C93.3729 74.6975 92.9484 74.818 92.4236 74.818C92.0674 74.818 91.7501 74.7537 91.4716 74.6252C91.1931 74.4967 90.9762 74.3199 90.8209 74.095C90.6656 73.87 90.5879 73.6277 90.5879 73.3679H91.5359C91.5493 73.5982 91.6363 73.7763 91.797 73.9022C91.9576 74.0254 92.1705 74.087 92.4356 74.087C92.6927 74.087 92.8882 74.0388 93.0221 73.9423C93.156 73.8433 93.2229 73.7147 93.2229 73.5567Z" fill="#4D648D"/>
<path d="M688.75 0H0V35.5102H688.75V0Z" fill="#4D648D"/>
<path d="M469.031 7.93608C469.031 6.82178 469.978 5.91846 471.146 5.91846H600.82C601.988 5.91846 602.934 6.82178 602.934 7.93608V26.0947C602.934 27.209 601.988 28.1123 600.82 28.1123H471.146C469.978 28.1123 469.031 27.209 469.031 26.0947V7.93608Z" fill="white"/>
<mask id="mask12_681_6901" style="mask-type:alpha" maskUnits="userSpaceOnUse" x="586" y="11" width="12" height="12">
<path d="M596.861 21.0588L594.779 18.9769C594.685 18.8829 594.558 18.8307 594.424 18.8307H594.084C594.66 18.0936 595.003 17.1664 595.003 16.1578C595.003 13.7585 593.058 11.8145 590.659 11.8145C588.259 11.8145 586.314 13.7585 586.314 16.1578C586.314 18.5571 588.259 20.5012 590.659 20.5012C591.667 20.5012 592.595 20.1588 593.332 19.5824V19.9228C593.332 20.0564 593.384 20.1838 593.478 20.2778L595.56 22.3597C595.757 22.556 596.074 22.556 596.268 22.3597L596.859 21.7687C597.056 21.5725 597.056 21.2551 596.861 21.0588ZM590.659 18.8307C589.182 18.8307 587.985 17.6363 587.985 16.1578C587.985 14.6815 589.18 13.485 590.659 13.485C592.135 13.485 593.332 14.6794 593.332 16.1578C593.332 17.6342 592.137 18.8307 590.659 18.8307Z" fill="white"/>
</mask>
<g mask="url(#mask12_681_6901)">
<path d="M596.861 21.0588L594.779 18.9769C594.685 18.8829 594.558 18.8307 594.424 18.8307H594.084C594.66 18.0936 595.003 17.1664 595.003 16.1578C595.003 13.7585 593.058 11.8145 590.659 11.8145C588.259 11.8145 586.314 13.7585 586.314 16.1578C586.314 18.5571 588.259 20.5012 590.659 20.5012C591.667 20.5012 592.595 20.1588 593.332 19.5824V19.9228C593.332 20.0564 593.384 20.1838 593.478 20.2778L595.56 22.3597C595.757 22.556 596.074 22.556 596.268 22.3597L596.859 21.7687C597.056 21.5725 597.056 21.2551 596.861 21.0588ZM590.659 18.8307C589.182 18.8307 587.985 17.6363 587.985 16.1578C587.985 14.6815 589.18 13.485 590.659 13.485C592.135 13.485 593.332 14.6794 593.332 16.1578C593.332 17.6342 592.137 18.8307 590.659 18.8307Z" fill="black"/>
<path d="M597.007 11.8145H586.314V22.5069H597.007V11.8145Z" fill="#4D648D"/>
</g>
<path fill-rule="evenodd" clip-rule="evenodd" d="M27.2027 14.59L24.0659 23.5219C23.6891 24.595 22.5441 25.1483 21.5087 24.7577C20.4732 24.3672 19.9393 23.1806 20.3162 22.1074L23.453 13.1756C23.8299 12.1024 24.9748 11.5491 26.0103 11.9397C27.0457 12.3303 27.5796 13.5169 27.2027 14.59Z" fill="white"/>
<path fill-rule="evenodd" clip-rule="evenodd" d="M35.5102 12.351L31.5005 23.4548C31.0939 24.5809 29.8585 25.1616 28.7413 24.7517C27.624 24.3418 27.048 23.0967 27.4546 21.9706L31.4643 10.8668C31.8709 9.74068 33.1063 9.16006 34.2235 9.56992C35.3408 9.97979 35.9168 11.2249 35.5102 12.351Z" fill="white"/>
<path fill-rule="evenodd" clip-rule="evenodd" d="M43.8177 11.108L38.9326 23.4819C38.4965 24.5867 37.1714 25.1564 35.9731 24.7542C34.7747 24.3521 34.1568 23.1305 34.593 22.0257L39.478 9.65179C39.9142 8.54698 41.2392 7.97733 42.4376 8.37945C43.6359 8.78157 44.2538 10.0032 43.8177 11.108Z" fill="white"/>
<path d="M55.2877 21.3193V13.0029H54.4681L52.0307 18.9015L49.5286 13.0029H48.709V21.3193H49.5286V15.0003L51.664 20.0111H52.365L54.4681 15.0003V21.3193H55.2877Z" fill="white"/>
<path d="M64.9769 21.3193V20.525H61.0297V17.5232H64.3945V16.7289H61.0297V13.7972H64.9769V13.0029H60.21V21.3193H64.9769Z" fill="white"/>
<path d="M74.7006 17.1611C74.7006 15.888 74.7006 14.6732 74.0212 13.879C73.5035 13.2716 72.8672 13.0029 72.0044 13.0029H69.3729V21.3193H72.0044C72.8672 21.3193 73.5035 21.0506 74.0212 20.4433C74.7006 19.649 74.7006 18.4343 74.7006 17.1611ZM73.881 17.1611C73.881 18.3175 73.8702 19.3453 73.3741 19.9177C72.9858 20.3849 72.4466 20.525 71.8642 20.525H70.1926V13.7972H71.8642C72.4466 13.7972 72.9858 13.9374 73.3741 14.4046C73.8702 14.9769 73.881 16.0048 73.881 17.1611Z" fill="white"/>
<path d="M80.1454 21.3193V13.0029H79.3257V21.3193H80.1454Z" fill="white"/>
<path d="M90.7385 21.3193V13.0029H89.9189V19.649L85.8422 13.0029H85.0657V21.3193H85.8853V14.6498L89.962 21.3193H90.7385Z" fill="white"/>
<path d="M100.428 21.3193V20.525H96.4806V17.5232H99.8455V16.7289H96.4806V13.7972H100.428V13.0029H95.661V21.3193H100.428Z" fill="white"/>
<path d="M109.3 13.7972V13.0029H104.037V13.7972H106.258V21.3193H107.078V13.7972H109.3Z" fill="white"/>
<path d="M632.077 21.5224C631.471 20.8625 630.337 19.8697 630.337 16.6178C630.337 14.1478 628.627 12.1706 626.322 11.6855V11.0231C626.322 10.4614 625.873 10.0059 625.319 10.0059C624.765 10.0059 624.316 10.4614 624.316 11.0231V11.6855C622.011 12.1706 620.302 14.1478 620.302 16.6178C620.302 19.8697 619.167 20.8625 618.561 21.5224C618.373 21.7274 618.289 21.9725 618.291 22.2125C618.294 22.7338 618.698 23.2297 619.298 23.2297H631.34C631.94 23.2297 632.344 22.7338 632.347 22.2125C632.349 21.9725 632.265 21.7271 632.077 21.5224V21.5224ZM620.41 21.7039C621.076 20.8148 621.803 19.3411 621.807 16.6362C621.807 16.6299 621.805 16.6241 621.805 16.6178C621.805 14.6514 623.378 13.0575 625.319 13.0575C627.26 13.0575 628.833 14.6514 628.833 16.6178C628.833 16.6241 628.831 16.6299 628.831 16.6362C628.835 19.3414 629.563 20.8151 630.228 21.7039H620.41ZM625.319 26.2814C626.427 26.2814 627.326 25.3706 627.326 24.2469H623.312C623.312 25.3706 624.211 26.2814 625.319 26.2814Z" fill="white"/>
<g clip-path="url(#clip0_681_6901)">
<path d="M660.341 20.0205C659.441 20.0205 659.008 20.5291 657.53 20.5291C656.052 20.5291 655.622 20.0205 654.719 20.0205C652.391 20.0205 650.502 21.9342 650.502 24.2928V25.1066C650.502 25.949 651.177 26.6324 652.008 26.6324H663.052C663.884 26.6324 664.558 25.949 664.558 25.1066V24.2928C664.558 21.9342 662.669 20.0205 660.341 20.0205ZM663.052 25.1066H652.008V24.2928C652.008 22.7797 653.225 21.5463 654.719 21.5463C655.177 21.5463 655.92 22.055 657.53 22.055C659.152 22.055 659.88 21.5463 660.341 21.5463C661.835 21.5463 663.052 22.7797 663.052 24.2928V25.1066ZM657.53 19.5119C660.024 19.5119 662.048 17.4616 662.048 14.9344C662.048 12.4073 660.024 10.3569 657.53 10.3569C655.036 10.3569 653.012 12.4073 653.012 14.9344C653.012 17.4616 655.036 19.5119 657.53 19.5119ZM657.53 11.8828C659.19 11.8828 660.542 13.2528 660.542 14.9344C660.542 16.616 659.19 17.9861 657.53 17.9861C655.87 17.9861 654.518 16.616 654.518 14.9344C654.518 13.2528 655.87 11.8828 657.53 11.8828Z" fill="white"/>
</g>
<rect x="127.984" y="14.0562" width="48.0867" height="8.87755" fill="#8292AF"/>
<rect x="198.266" y="14.0562" width="48.0867" height="8.87755" fill="#70CCFF"/>
<rect x="264.848" y="14.0562" width="48.0867" height="8.87755" fill="white" fill-opacity="0.3"/>
<rect x="332.908" y="14.0562" width="48.0867" height="8.87755" fill="white" fill-opacity="0.3"/>
<rect x="403.93" y="14.0562" width="48.0867" height="8.87755" fill="white" fill-opacity="0.3"/>
<defs>
<filter id="filter0_d_681_6901" x="133.455" y="149.975" width="347.568" height="73.354" filterUnits="userSpaceOnUse" color-interpolation-filters="sRGB">
<feFlood flood-opacity="0" result="BackgroundImageFix"/>
<feColorMatrix in="SourceAlpha" type="matrix" values="0 0 0 0 0 0 0 0 0 0 0 0 0 0 0 0 0 0 127 0" result="hardAlpha"/>
<feOffset dy="2"/>
<feGaussianBlur stdDeviation="2"/>
<feColorMatrix type="matrix" values="0 0 0 0 0 0 0 0 0 0 0 0 0 0 0 0 0 0 0.0285457 0"/>
<feBlend mode="normal" in2="BackgroundImageFix" result="effect1_dropShadow_681_6901"/>
<feBlend mode="normal" in="SourceGraphic" in2="effect1_dropShadow_681_6901" result="shape"/>
</filter>
<filter id="filter1_d_681_6901" x="133.455" y="234.524" width="347.568" height="29.48" filterUnits="userSpaceOnUse" color-interpolation-filters="sRGB">
<feFlood flood-opacity="0" result="BackgroundImageFix"/>
<feColorMatrix in="SourceAlpha" type="matrix" values="0 0 0 0 0 0 0 0 0 0 0 0 0 0 0 0 0 0 127 0" result="hardAlpha"/>
<feOffset dy="2"/>
<feGaussianBlur stdDeviation="2"/>
<feColorMatrix type="matrix" values="0 0 0 0 0 0 0 0 0 0 0 0 0 0 0 0 0 0 0.0285457 0"/>
<feBlend mode="normal" in2="BackgroundImageFix" result="effect1_dropShadow_681_6901"/>
<feBlend mode="normal" in="SourceGraphic" in2="effect1_dropShadow_681_6901" result="shape"/>
</filter>
<filter id="filter2_d_681_6901" x="112.686" y="84.7876" width="392.762" height="56.8511" filterUnits="userSpaceOnUse" color-interpolation-filters="sRGB">
<feFlood flood-opacity="0" result="BackgroundImageFix"/>
<feColorMatrix in="SourceAlpha" type="matrix" values="0 0 0 0 0 0 0 0 0 0 0 0 0 0 0 0 0 0 127 0" result="hardAlpha"/>
<feOffset dy="1"/>
<feGaussianBlur stdDeviation="8.5"/>
<feColorMatrix type="matrix" values="0 0 0 0 0 0 0 0 0 0 0 0 0 0 0 0 0 0 0.145542 0"/>
<feBlend mode="normal" in2="BackgroundImageFix" result="effect1_dropShadow_681_6901"/>
<feBlend mode="normal" in="SourceGraphic" in2="effect1_dropShadow_681_6901" result="shape"/>
</filter>
<filter id="filter3_d_681_6901" x="416.352" y="101.987" width="69.2402" height="24.4526" filterUnits="userSpaceOnUse" color-interpolation-filters="sRGB">
<feFlood flood-opacity="0" result="BackgroundImageFix"/>
<feColorMatrix in="SourceAlpha" type="matrix" values="0 0 0 0 0 0 0 0 0 0 0 0 0 0 0 0 0 0 127 0" result="hardAlpha"/>
<feOffset dy="2"/>
<feGaussianBlur stdDeviation="2"/>
<feColorMatrix type="matrix" values="0 0 0 0 0 0 0 0 0 0 0 0 0 0 0 0 0 0 0.131529 0"/>
<feBlend mode="normal" in2="BackgroundImageFix" result="effect1_dropShadow_681_6901"/>
<feBlend mode="normal" in="SourceGraphic" in2="effect1_dropShadow_681_6901" result="shape"/>
</filter>
<filter id="filter4_d_681_6901" x="476.475" y="84.7876" width="207.668" height="56.8511" filterUnits="userSpaceOnUse" color-interpolation-filters="sRGB">
<feFlood flood-opacity="0" result="BackgroundImageFix"/>
<feColorMatrix in="SourceAlpha" type="matrix" values="0 0 0 0 0 0 0 0 0 0 0 0 0 0 0 0 0 0 127 0" result="hardAlpha"/>
<feOffset dy="1"/>
<feGaussianBlur stdDeviation="8.5"/>
<feColorMatrix type="matrix" values="0 0 0 0 0 0 0 0 0 0 0 0 0 0 0 0 0 0 0.145542 0"/>
<feBlend mode="normal" in2="BackgroundImageFix" result="effect1_dropShadow_681_6901"/>
<feBlend mode="normal" in="SourceGraphic" in2="effect1_dropShadow_681_6901" result="shape"/>
</filter>
<filter id="filter5_d_681_6901" x="3.45703" y="40" width="680.688" height="70.562" filterUnits="userSpaceOnUse" color-interpolation-filters="sRGB">
<feFlood flood-opacity="0" result="BackgroundImageFix"/>
<feColorMatrix in="SourceAlpha" type="matrix" values="0 0 0 0 0 0 0 0 0 0 0 0 0 0 0 0 0 0 127 0" result="hardAlpha"/>
<feOffset dy="1"/>
<feGaussianBlur stdDeviation="8.5"/>
<feColorMatrix type="matrix" values="0 0 0 0 0 0 0 0 0 0 0 0 0 0 0 0 0 0 0.145542 0"/>
<feBlend mode="normal" in2="BackgroundImageFix" result="effect1_dropShadow_681_6901"/>
<feBlend mode="normal" in="SourceGraphic" in2="effect1_dropShadow_681_6901" result="shape"/>
</filter>
<filter id="filter6_d_681_6901" x="3" y="84.7876" width="139.115" height="56.8511" filterUnits="userSpaceOnUse" color-interpolation-filters="sRGB">
<feFlood flood-opacity="0" result="BackgroundImageFix"/>
<feColorMatrix in="SourceAlpha" type="matrix" values="0 0 0 0 0 0 0 0 0 0 0 0 0 0 0 0 0 0 127 0" result="hardAlpha"/>
<feOffset dy="1"/>
<feGaussianBlur stdDeviation="8.5"/>
<feColorMatrix type="matrix" values="0 0 0 0 0 0 0 0 0 0 0 0 0 0 0 0 0 0 0.145542 0"/>
<feBlend mode="normal" in2="BackgroundImageFix" result="effect1_dropShadow_681_6901"/>
<feBlend mode="normal" in="SourceGraphic" in2="effect1_dropShadow_681_6901" result="shape"/>
</filter>
<filter id="filter7_d_681_6901" x="494.502" y="131.237" width="170.242" height="24.4526" filterUnits="userSpaceOnUse" color-interpolation-filters="sRGB">
<feFlood flood-opacity="0" result="BackgroundImageFix"/>
<feColorMatrix in="SourceAlpha" type="matrix" values="0 0 0 0 0 0 0 0 0 0 0 0 0 0 0 0 0 0 127 0" result="hardAlpha"/>
<feOffset dy="2"/>
<feGaussianBlur stdDeviation="2"/>
<feColorMatrix type="matrix" values="0 0 0 0 0 0 0 0 0 0 0 0 0 0 0 0 0 0 0.0933949 0"/>
<feBlend mode="normal" in2="BackgroundImageFix" result="effect1_dropShadow_681_6901"/>
<feBlend mode="normal" in="SourceGraphic" in2="effect1_dropShadow_681_6901" result="shape"/>
</filter>
<filter id="filter8_d_681_6901" x="494.502" y="149.975" width="170.242" height="24.4526" filterUnits="userSpaceOnUse" color-interpolation-filters="sRGB">
<feFlood flood-opacity="0" result="BackgroundImageFix"/>
<feColorMatrix in="SourceAlpha" type="matrix" values="0 0 0 0 0 0 0 0 0 0 0 0 0 0 0 0 0 0 127 0" result="hardAlpha"/>
<feOffset dy="2"/>
<feGaussianBlur stdDeviation="2"/>
<feColorMatrix type="matrix" values="0 0 0 0 0 0 0 0 0 0 0 0 0 0 0 0 0 0 0.0933949 0"/>
<feBlend mode="normal" in2="BackgroundImageFix" result="effect1_dropShadow_681_6901"/>
<feBlend mode="normal" in="SourceGraphic" in2="effect1_dropShadow_681_6901" result="shape"/>
</filter>
<linearGradient id="paint0_linear_681_6901" x1="1.10373" y1="1.17911" x2="370.054" y2="612.225" gradientUnits="userSpaceOnUse">
<stop stop-color="#7DB8FF"/>
<stop offset="0.0621" stop-color="#7CB6FF"/>
<stop offset="1" stop-color="#7194FF"/>
</linearGradient>
<linearGradient id="paint1_linear_681_6901" x1="101.056" y1="112.022" x2="216.57" y2="167.328" gradientUnits="userSpaceOnUse">
<stop stop-color="#A1C0FF"/>
<stop offset="1" stop-color="#7093FF"/>
</linearGradient>
<linearGradient id="paint2_linear_681_6901" x1="479.752" y1="111.393" x2="515.032" y2="146.24" gradientUnits="userSpaceOnUse">
<stop stop-color="#A1C0FF"/>
<stop offset="1" stop-color="#7093FF"/>
</linearGradient>
<linearGradient id="paint3_linear_681_6901" x1="11.7989" y1="109.975" x2="24.5176" y2="130.695" gradientUnits="userSpaceOnUse">
<stop stop-color="#A1C0FF"/>
<stop offset="1" stop-color="#7093FF"/>
</linearGradient>
<linearGradient id="paint4_linear_681_6901" x1="553.259" y1="129.595" x2="553.493" y2="138.083" gradientUnits="userSpaceOnUse">
<stop stop-color="#7093FF"/>
<stop offset="1" stop-color="#243F6D"/>
</linearGradient>
<linearGradient id="paint5_linear_681_6901" x1="553.259" y1="148.333" x2="553.493" y2="156.822" gradientUnits="userSpaceOnUse">
<stop stop-color="#7093FF"/>
<stop offset="1" stop-color="#243F6D"/>
</linearGradient>
<clipPath id="clip0_681_6901">
<rect width="14.0561" height="16.2755" fill="white" transform="translate(650.502 10.3569)"/>
</clipPath>
</defs>
</svg>
