<svg width="738" height="486" viewBox="0 0 738 486" fill="none" xmlns="http://www.w3.org/2000/svg">
<rect x="0.5" y="-0.5" width="737" height="485" rx="27.5" transform="matrix(1 0 0 -1 0 485)" fill="url(#paint0_linear)" stroke="#B8CDEB"/>
<rect opacity="0.1" x="25.25" y="36" width="688.75" height="414.833" fill="url(#paint1_linear)"/>
<path d="M714 36.2858H25.25V71.796H714V36.2858Z" fill="#4D648D"/>
<path d="M494.281 44.2217C494.281 43.1074 495.228 42.2041 496.396 42.2041H626.07C627.238 42.2041 628.184 43.1074 628.184 44.2217V62.3804C628.184 63.4947 627.238 64.398 626.07 64.398H496.396C495.228 64.398 494.281 63.4947 494.281 62.3804V44.2217Z" fill="white"/>
<mask id="mask0" mask-type="alpha" maskUnits="userSpaceOnUse" x="611" y="48" width="12" height="11">
<path d="M622.112 57.3447L620.03 55.2628C619.936 55.1688 619.808 55.1166 619.675 55.1166H619.334C619.911 54.3795 620.253 53.4524 620.253 52.4438C620.253 50.0445 618.309 48.1004 615.909 48.1004C613.509 48.1004 611.565 50.0445 611.565 52.4438C611.565 54.8431 613.509 56.7872 615.909 56.7872C616.918 56.7872 617.845 56.4447 618.582 55.8684V56.2088C618.582 56.3424 618.635 56.4698 618.729 56.5637L620.811 58.6456C621.007 58.8419 621.325 58.8419 621.519 58.6456L622.11 58.0547C622.306 57.8584 622.306 57.541 622.112 57.3447ZM615.909 55.1166C614.433 55.1166 613.236 53.9222 613.236 52.4438C613.236 50.9675 614.43 49.7709 615.909 49.7709C617.386 49.7709 618.582 50.9654 618.582 52.4438C618.582 53.9201 617.388 55.1166 615.909 55.1166Z" fill="white"/>
</mask>
<g mask="url(#mask0)">
<path d="M622.112 57.3447L620.03 55.2628C619.936 55.1688 619.808 55.1166 619.675 55.1166H619.334C619.911 54.3795 620.253 53.4524 620.253 52.4438C620.253 50.0445 618.309 48.1004 615.909 48.1004C613.509 48.1004 611.565 50.0445 611.565 52.4438C611.565 54.8431 613.509 56.7872 615.909 56.7872C616.918 56.7872 617.845 56.4447 618.582 55.8684V56.2088C618.582 56.3424 618.635 56.4698 618.729 56.5637L620.811 58.6456C621.007 58.8419 621.325 58.8419 621.519 58.6456L622.11 58.0547C622.306 57.8584 622.306 57.541 622.112 57.3447ZM615.909 55.1166C614.433 55.1166 613.236 53.9222 613.236 52.4438C613.236 50.9675 614.43 49.7709 615.909 49.7709C617.386 49.7709 618.582 50.9654 618.582 52.4438C618.582 53.9201 617.388 55.1166 615.909 55.1166Z" fill="black"/>
<path d="M622.257 48.1004H611.565V58.7929H622.257V48.1004Z" fill="#4D648D"/>
</g>
<path fill-rule="evenodd" clip-rule="evenodd" d="M52.4527 50.8762L49.3158 59.808C48.939 60.8812 47.794 61.4345 46.7586 61.0439C45.7231 60.6533 45.1892 59.4667 45.5661 58.3936L48.7029 49.4617C49.0798 48.3886 50.2247 47.8353 51.2602 48.2259C52.2956 48.6164 52.8295 49.803 52.4527 50.8762Z" fill="white"/>
<path fill-rule="evenodd" clip-rule="evenodd" d="M60.7593 48.637L56.7496 59.7408C56.343 60.8669 55.1076 61.4475 53.9904 61.0376C52.8732 60.6277 52.2971 59.3826 52.7037 58.2565L56.7134 47.1527C57.12 46.0266 58.3554 45.446 59.4726 45.8558C60.5899 46.2657 61.1659 47.5109 60.7593 48.637Z" fill="white"/>
<path fill-rule="evenodd" clip-rule="evenodd" d="M69.0669 47.3939L64.1819 59.7678C63.7457 60.8726 62.4207 61.4423 61.2223 61.0402C60.024 60.638 59.4061 59.4164 59.8423 58.3116L64.7273 45.9377C65.1635 44.8329 66.4885 44.2633 67.6869 44.6654C68.8852 45.0675 69.5031 46.2891 69.0669 47.3939Z" fill="white"/>
<path d="M80.5374 57.6049V49.2886H79.7177L77.2803 55.1871L74.7783 49.2886H73.9586V57.6049H74.7783V51.2859L76.9137 56.2967H77.6147L79.7177 51.2859V57.6049H80.5374Z" fill="white"/>
<path d="M90.2265 57.6049V56.8107H86.2793V53.8088H89.6442V53.0146H86.2793V50.0828H90.2265V49.2886H85.4596V57.6049H90.2265Z" fill="white"/>
<path d="M99.9502 53.4468C99.9502 52.1736 99.9502 50.9589 99.2708 50.1646C98.7531 49.5572 98.1168 49.2886 97.254 49.2886H94.6225V57.6049H97.254C98.1168 57.6049 98.7531 57.3363 99.2708 56.7289C99.9502 55.9347 99.9502 54.7199 99.9502 53.4468ZM99.1306 53.4468C99.1306 54.6031 99.1198 55.631 98.6237 56.2033C98.2355 56.6705 97.6962 56.8107 97.1138 56.8107H95.4422V50.0828H97.1138C97.6962 50.0828 98.2355 50.223 98.6237 50.6902C99.1198 51.2625 99.1306 52.2904 99.1306 53.4468Z" fill="white"/>
<path d="M105.395 57.6049V49.2886H104.575V57.6049H105.395Z" fill="white"/>
<path d="M115.988 57.6049V49.2886H115.168V55.9347L111.092 49.2886H110.315V57.6049H111.135V50.9355L115.212 57.6049H115.988Z" fill="white"/>
<path d="M125.677 57.6049V56.8107H121.73V53.8088H125.095V53.0146H121.73V50.0828H125.677V49.2886H120.911V57.6049H125.677Z" fill="white"/>
<path d="M134.549 50.0828V49.2886H129.286V50.0828H131.508V57.6049H132.328V50.0828H134.549Z" fill="white"/>
<path d="M657.329 57.8083C656.723 57.1483 655.589 56.1556 655.589 52.9037C655.589 50.4337 653.879 48.4565 651.574 47.9714V47.309C651.574 46.7473 651.125 46.2917 650.571 46.2917C650.017 46.2917 649.568 46.7473 649.568 47.309V47.9714C647.263 48.4565 645.554 50.4337 645.554 52.9037C645.554 56.1556 644.419 57.1483 643.813 57.8083C643.625 58.0133 643.541 58.2584 643.543 58.4984C643.546 59.0197 643.95 59.5156 644.55 59.5156H656.592C657.192 59.5156 657.596 59.0197 657.599 58.4984C657.601 58.2584 657.517 58.013 657.329 57.8083ZM645.662 57.9898C646.328 57.1007 647.055 55.627 647.059 52.9221C647.059 52.9158 647.057 52.91 647.057 52.9037C647.057 50.9373 648.63 49.3434 650.571 49.3434C652.512 49.3434 654.085 50.9373 654.085 52.9037C654.085 52.91 654.083 52.9158 654.083 52.9221C654.087 55.6273 654.815 57.101 655.48 57.9898H645.662ZM650.571 62.5673C651.679 62.5673 652.578 61.6565 652.578 60.5328H648.564C648.564 61.6565 649.463 62.5673 650.571 62.5673Z" fill="white"/>
<g clip-path="url(#clip0)">
<path d="M685.591 56.3064C684.691 56.3064 684.258 56.815 682.78 56.815C681.302 56.815 680.872 56.3064 679.969 56.3064C677.641 56.3064 675.752 58.2201 675.752 60.5787V61.3925C675.752 62.2349 676.427 62.9183 677.258 62.9183H688.302C689.134 62.9183 689.808 62.2349 689.808 61.3925V60.5787C689.808 58.2201 687.919 56.3064 685.591 56.3064ZM688.302 61.3925H677.258V60.5787C677.258 59.0656 678.475 57.8322 679.969 57.8322C680.427 57.8322 681.17 58.3408 682.78 58.3408C684.402 58.3408 685.13 57.8322 685.591 57.8322C687.085 57.8322 688.302 59.0656 688.302 60.5787V61.3925ZM682.78 55.7978C685.274 55.7978 687.298 53.7475 687.298 51.2203C687.298 48.6932 685.274 46.6428 682.78 46.6428C680.286 46.6428 678.262 48.6932 678.262 51.2203C678.262 53.7475 680.286 55.7978 682.78 55.7978ZM682.78 48.1687C684.44 48.1687 685.792 49.5387 685.792 51.2203C685.792 52.9019 684.44 54.272 682.78 54.272C681.12 54.272 679.768 52.9019 679.768 51.2203C679.768 49.5387 681.12 48.1687 682.78 48.1687Z" fill="white"/>
</g>
<rect x="153.234" y="50.3418" width="48.0867" height="8.87755" fill="#70CCFF"/>
<rect x="223.516" y="50.3418" width="48.0867" height="8.87755" fill="#8292AF"/>
<rect x="290.098" y="50.3418" width="48.0867" height="8.87755" fill="white" fill-opacity="0.3"/>
<rect x="358.158" y="50.3418" width="48.0867" height="8.87755" fill="white" fill-opacity="0.3"/>
<rect x="429.18" y="50.3418" width="48.0867" height="8.87755" fill="white" fill-opacity="0.3"/>
<rect x="45.5" y="96.7917" width="147.831" height="318.366" rx="2.5" fill="white" stroke="#B8CDEB"/>
<path d="M193.331 97.2042V123.242H45.5V97.2042C45.5 97.0572 45.5404 96.9469 45.5795 96.888C45.5858 96.8785 45.5911 96.8714 45.5955 96.8661H193.235C193.239 96.8714 193.245 96.8785 193.251 96.888C193.29 96.9469 193.331 97.0572 193.331 97.2042ZM45.6087 96.8531C45.6088 96.8533 45.6077 96.8542 45.6054 96.8556C45.6076 96.8536 45.6087 96.853 45.6087 96.8531ZM193.222 96.8531C193.222 96.853 193.223 96.8536 193.225 96.8556C193.223 96.8542 193.222 96.8533 193.222 96.8531Z" fill="url(#paint2_linear)" stroke="#7091F5"/>
<mask id="mask1" mask-type="alpha" maskUnits="userSpaceOnUse" x="179" y="144" width="5" height="7">
<path d="M183.696 147.119L180.81 144.234C180.611 144.035 180.288 144.035 180.091 144.234L179.612 144.714C179.412 144.913 179.412 145.235 179.612 145.433L181.657 147.478L179.612 149.523C179.412 149.722 179.412 150.045 179.612 150.242L180.091 150.722C180.291 150.921 180.613 150.921 180.81 150.722L183.696 147.836C183.895 147.641 183.895 147.319 183.696 147.119Z" fill="#4E658D"/>
</mask>
<g mask="url(#mask1)">
<path d="M183.696 147.119L180.81 144.234C180.611 144.035 180.288 144.035 180.091 144.234L179.612 144.714C179.412 144.913 179.412 145.235 179.612 145.433L181.657 147.478L179.612 149.523C179.412 149.722 179.412 150.045 179.612 150.242L180.091 150.722C180.291 150.921 180.613 150.921 180.81 150.722L183.696 147.836C183.895 147.641 183.895 147.319 183.696 147.119Z" fill="#4E658D"/>
</g>
<mask id="mask2" mask-type="alpha" maskUnits="userSpaceOnUse" x="56" y="143" width="5" height="8">
<path d="M56.2696 147.567L59.1548 150.452C59.3542 150.652 59.6767 150.652 59.874 150.452L60.3534 149.973C60.5528 149.773 60.5528 149.451 60.3534 149.253L58.3083 147.208L60.3534 145.163C60.5528 144.964 60.5528 144.641 60.3534 144.444L59.874 143.965C59.6745 143.765 59.3521 143.765 59.1548 143.965L56.2696 146.85C56.0701 147.045 56.0701 147.367 56.2696 147.567Z" fill="#4E658D"/>
</mask>
<g mask="url(#mask2)">
<path d="M56.2696 147.567L59.1548 150.452C59.3542 150.652 59.6767 150.652 59.874 150.452L60.3534 149.973C60.5528 149.773 60.5528 149.451 60.3534 149.253L58.3083 147.208L60.3534 145.163C60.5528 144.964 60.5528 144.641 60.3534 144.444L59.874 143.965C59.6745 143.765 59.3521 143.765 59.1548 143.965L56.2696 146.85C56.0701 147.045 56.0701 147.367 56.2696 147.567Z" fill="#4E658D"/>
</g>
<ellipse cx="62.379" cy="191.877" rx="5.97409" ry="5.97409" fill="#E2E9FF"/>
<ellipse cx="62.3432" cy="175.584" rx="5.97409" ry="5.9741" fill="#E2E9FF"/>
<ellipse cx="81.8948" cy="175.584" rx="5.9741" ry="5.9741" fill="#E2E9FF"/>
<ellipse cx="101.446" cy="175.584" rx="5.9741" ry="5.9741" fill="#E2E9FF"/>
<circle cx="120.998" cy="175.584" r="5.9741" fill="#E2E9FF"/>
<ellipse cx="140.55" cy="175.584" rx="5.97409" ry="5.9741" fill="#E2E9FF"/>
<circle cx="160.101" cy="175.584" r="5.9741" fill="#E2E9FF"/>
<ellipse cx="179.653" cy="175.584" rx="5.97409" ry="5.9741" fill="#E2E9FF"/>
<ellipse cx="62.379" cy="191.877" rx="5.97409" ry="5.97409" fill="#E2E9FF"/>
<ellipse cx="81.9303" cy="191.877" rx="5.9741" ry="5.97409" fill="#E2E9FF"/>
<ellipse cx="101.482" cy="191.877" rx="5.9741" ry="5.97409" fill="#E2E9FF"/>
<ellipse cx="121.034" cy="191.877" rx="5.9741" ry="5.97409" fill="#E2E9FF"/>
<circle cx="140.585" cy="191.877" r="5.97409" fill="#E2E9FF"/>
<ellipse cx="160.137" cy="191.877" rx="5.9741" ry="5.97409" fill="#E2E9FF"/>
<circle cx="179.688" cy="191.877" r="5.97409" fill="#E2E9FF"/>
<ellipse cx="62.379" cy="208.17" rx="5.97409" ry="5.9741" fill="#E2E9FF"/>
<ellipse cx="81.9303" cy="208.17" rx="5.9741" ry="5.97409" fill="#E2E9FF"/>
<ellipse cx="101.482" cy="208.17" rx="5.9741" ry="5.97409" fill="#E2E9FF"/>
<ellipse cx="121.034" cy="208.17" rx="5.9741" ry="5.97409" fill="#E2E9FF"/>
<circle cx="140.585" cy="208.17" r="5.97409" fill="#E2E9FF"/>
<ellipse cx="160.137" cy="208.17" rx="5.9741" ry="5.97409" fill="#E2E9FF"/>
<circle cx="179.688" cy="208.17" r="5.97409" fill="#E2E9FF"/>
<ellipse cx="62.379" cy="223.92" rx="5.97409" ry="5.9741" fill="#E2E9FF"/>
<ellipse cx="81.9303" cy="223.92" rx="5.9741" ry="5.97409" fill="#E2E9FF"/>
<ellipse cx="101.482" cy="223.92" rx="5.9741" ry="5.97409" fill="#E2E9FF"/>
<ellipse cx="121.034" cy="223.92" rx="5.9741" ry="5.97409" fill="#E2E9FF"/>
<ellipse cx="140.585" cy="223.92" rx="5.97409" ry="5.97409" fill="#E2E9FF"/>
<ellipse cx="160.137" cy="223.92" rx="5.9741" ry="5.97409" fill="#E2E9FF"/>
<ellipse cx="179.688" cy="223.92" rx="5.97409" ry="5.97409" fill="#E2E9FF"/>
<ellipse cx="62.379" cy="240.213" rx="5.97409" ry="5.9741" fill="#E2E9FF"/>
<ellipse cx="81.9303" cy="240.213" rx="5.9741" ry="5.9741" fill="#E2E9FF"/>
<ellipse cx="101.482" cy="240.213" rx="5.9741" ry="5.9741" fill="#E2E9FF"/>
<circle cx="121.034" cy="240.213" r="5.9741" fill="#E2E9FF"/>
<ellipse cx="140.585" cy="240.213" rx="5.97409" ry="5.9741" fill="#E2E9FF"/>
<path d="M59.3981 112.251C59.3014 113.078 58.9953 113.717 58.4796 114.169C57.9676 114.616 57.2855 114.84 56.4332 114.84C55.5094 114.84 54.7682 114.509 54.2096 113.846C53.6546 113.184 53.3771 112.298 53.3771 111.188V110.436C53.3771 109.709 53.506 109.07 53.7638 108.518C54.0252 107.967 54.394 107.544 54.8703 107.251C55.3465 106.953 55.8979 106.805 56.5246 106.805C57.3553 106.805 58.0213 107.037 58.5226 107.503C59.0239 107.965 59.3157 108.606 59.3981 109.426H58.3615C58.2719 108.803 58.0768 108.352 57.776 108.072C57.4788 107.793 57.0617 107.653 56.5246 107.653C55.8657 107.653 55.3483 107.897 54.9723 108.384C54.5999 108.871 54.4137 109.564 54.4137 110.462V111.22C54.4137 112.068 54.591 112.743 54.9454 113.245C55.2999 113.746 55.7959 113.997 56.4332 113.997C57.0062 113.997 57.4448 113.868 57.7492 113.61C58.0571 113.349 58.2612 112.896 58.3615 112.251H59.3981ZM64.2428 114.732C64.1855 114.618 64.139 114.414 64.1032 114.12C63.6413 114.6 63.0898 114.84 62.4489 114.84C61.876 114.84 61.4051 114.679 61.0363 114.357C60.671 114.031 60.4884 113.619 60.4884 113.121C60.4884 112.516 60.7176 112.047 61.1759 111.714C61.6378 111.377 62.2859 111.209 63.1203 111.209H64.0871V110.753C64.0871 110.405 63.9832 110.129 63.7755 109.925C63.5678 109.718 63.2617 109.614 62.8571 109.614C62.5026 109.614 62.2054 109.703 61.9655 109.882C61.7256 110.061 61.6056 110.278 61.6056 110.532H60.6066C60.6066 110.242 60.7086 109.963 60.9127 109.694C61.1204 109.422 61.3997 109.207 61.7506 109.05C62.1051 108.892 62.4936 108.814 62.9162 108.814C63.5857 108.814 64.1103 108.982 64.4899 109.318C64.8694 109.651 65.0664 110.112 65.0807 110.699V113.374C65.0807 113.907 65.1487 114.331 65.2848 114.647V114.732H64.2428ZM62.5939 113.975C62.9054 113.975 63.2008 113.895 63.4801 113.733C63.7594 113.572 63.9617 113.363 64.0871 113.105V111.913H63.3082C62.0908 111.913 61.4821 112.269 61.4821 112.982C61.4821 113.293 61.5859 113.537 61.7936 113.712C62.0013 113.887 62.268 113.975 62.5939 113.975ZM67.7179 114.732H66.7243V106.482H67.7179V114.732ZM71.7247 114.84C70.937 114.84 70.296 114.582 69.8019 114.066C69.3078 113.547 69.0607 112.854 69.0607 111.988V111.805C69.0607 111.229 69.1699 110.715 69.3883 110.264C69.6103 109.809 69.9183 109.454 70.3121 109.2C70.7096 108.942 71.1393 108.814 71.6012 108.814C72.3567 108.814 72.944 109.062 73.3629 109.56C73.7819 110.058 73.9913 110.77 73.9913 111.698V112.111H70.0543C70.0687 112.684 70.2352 113.148 70.5538 113.503C70.8761 113.853 71.2843 114.029 71.7785 114.029C72.1294 114.029 72.4266 113.957 72.6701 113.814C72.9135 113.671 73.1266 113.481 73.3092 113.245L73.9162 113.717C73.4292 114.466 72.6987 114.84 71.7247 114.84ZM71.6012 109.63C71.2002 109.63 70.8636 109.777 70.5914 110.07C70.3193 110.36 70.151 110.769 70.0866 111.295H72.9977V111.22C72.9691 110.715 72.833 110.325 72.5895 110.049C72.346 109.77 72.0166 109.63 71.6012 109.63ZM76.0861 108.921L76.1183 109.651C76.5623 109.093 77.1424 108.814 77.8585 108.814C79.0867 108.814 79.7062 109.506 79.7169 110.892V114.732H78.7233V110.887C78.7197 110.468 78.623 110.158 78.4332 109.958C78.247 109.757 77.9552 109.657 77.5578 109.657C77.2355 109.657 76.9526 109.743 76.7091 109.915C76.4656 110.086 76.2759 110.312 76.1398 110.591V114.732H75.1461V108.921H76.0861ZM80.9738 111.778C80.9738 110.887 81.185 110.171 81.6076 109.63C82.0301 109.086 82.5833 108.814 83.2672 108.814C83.9476 108.814 84.4865 109.046 84.8839 109.512V106.482H85.8776V114.732H84.9645L84.9162 114.109C84.5187 114.596 83.9655 114.84 83.2565 114.84C82.5833 114.84 82.0337 114.564 81.6076 114.013C81.185 113.461 80.9738 112.742 80.9738 111.854V111.778ZM81.9674 111.891C81.9674 112.55 82.1035 113.066 82.3756 113.438C82.6478 113.81 83.0237 113.997 83.5036 113.997C84.1338 113.997 84.5939 113.714 84.8839 113.148V110.479C84.5867 109.931 84.1302 109.657 83.5143 109.657C83.0273 109.657 82.6478 109.845 82.3756 110.221C82.1035 110.597 81.9674 111.154 81.9674 111.891ZM91.0123 114.732C90.9551 114.618 90.9085 114.414 90.8727 114.12C90.4108 114.6 89.8593 114.84 89.2184 114.84C88.6455 114.84 88.1746 114.679 87.8058 114.357C87.4406 114.031 87.2579 113.619 87.2579 113.121C87.2579 112.516 87.4871 112.047 87.9454 111.714C88.4074 111.377 89.0555 111.209 89.8898 111.209H90.8566V110.753C90.8566 110.405 90.7527 110.129 90.5451 109.925C90.3374 109.718 90.0312 109.614 89.6266 109.614C89.2721 109.614 88.9749 109.703 88.735 109.882C88.4951 110.061 88.3751 110.278 88.3751 110.532H87.3761C87.3761 110.242 87.4782 109.963 87.6823 109.694C87.8899 109.422 88.1692 109.207 88.5202 109.05C88.8746 108.892 89.2632 108.814 89.6857 108.814C90.3553 108.814 90.8799 108.982 91.2594 109.318C91.639 109.651 91.8359 110.112 91.8502 110.699V113.374C91.8502 113.907 91.9183 114.331 92.0543 114.647V114.732H91.0123ZM89.3634 113.975C89.6749 113.975 89.9704 113.895 90.2496 113.733C90.5289 113.572 90.7313 113.363 90.8566 113.105V111.913H90.0778C88.8603 111.913 88.2516 112.269 88.2516 112.982C88.2516 113.293 88.3554 113.537 88.5631 113.712C88.7708 113.887 89.0376 113.975 89.3634 113.975ZM96.2169 109.813C96.0665 109.787 95.9036 109.775 95.7282 109.775C95.0765 109.775 94.6343 110.052 94.4015 110.607V114.732H93.4079V108.921H94.3746L94.3908 109.592C94.7166 109.073 95.1785 108.814 95.7765 108.814C95.9699 108.814 96.1167 108.839 96.2169 108.889V109.813ZM98.215 114.732H97.2213V108.921H98.215V114.732ZM97.1408 107.379C97.1408 107.218 97.1891 107.082 97.2858 106.971C97.386 106.86 97.5329 106.805 97.7262 106.805C97.9196 106.805 98.0664 106.86 98.1666 106.971C98.2669 107.082 98.317 107.218 98.317 107.379C98.317 107.541 98.2669 107.675 98.1666 107.782C98.0664 107.89 97.9196 107.943 97.7262 107.943C97.5329 107.943 97.386 107.89 97.2858 107.782C97.1891 107.675 97.1408 107.541 97.1408 107.379ZM99.547 111.773C99.547 111.204 99.658 110.692 99.88 110.237C100.106 109.782 100.417 109.431 100.815 109.184C101.216 108.937 101.672 108.814 102.184 108.814C102.976 108.814 103.615 109.087 104.102 109.635C104.592 110.183 104.838 110.912 104.838 111.821V111.891C104.838 112.457 104.728 112.965 104.51 113.417C104.295 113.864 103.985 114.213 103.581 114.464C103.18 114.715 102.718 114.84 102.195 114.84C101.407 114.84 100.768 114.566 100.277 114.018C99.7905 113.47 99.547 112.745 99.547 111.843V111.773ZM100.546 111.891C100.546 112.536 100.695 113.053 100.992 113.443C101.293 113.834 101.694 114.029 102.195 114.029C102.7 114.029 103.101 113.832 103.398 113.438C103.695 113.041 103.844 112.486 103.844 111.773C103.844 111.136 103.692 110.62 103.387 110.226C103.087 109.829 102.686 109.63 102.184 109.63C101.694 109.63 101.298 109.825 100.997 110.215C100.696 110.606 100.546 111.164 100.546 111.891Z" fill="white"/>
<mask id="mask3" mask-type="alpha" maskUnits="userSpaceOnUse" x="233" y="112" width="5" height="8">
<path d="M233.923 116.024L236.345 118.933C236.512 119.134 236.783 119.134 236.949 118.933L237.351 118.45C237.519 118.249 237.519 117.924 237.351 117.725L235.634 115.663L237.351 113.601C237.519 113.4 237.519 113.075 237.351 112.876L236.949 112.393C236.781 112.192 236.511 112.192 236.345 112.393L233.923 115.301C233.755 115.498 233.755 115.823 233.923 116.024Z" fill="white"/>
</mask>
<g mask="url(#mask3)">
<path d="M233.923 116.024L236.345 118.933C236.512 119.134 236.783 119.134 236.949 118.933L237.351 118.45C237.519 118.249 237.519 117.924 237.351 117.725L235.634 115.663L237.351 113.601C237.519 113.4 237.519 113.075 237.351 112.876L236.949 112.393C236.781 112.192 236.511 112.192 236.345 112.393L233.923 115.301C233.755 115.498 233.755 115.823 233.923 116.024Z" fill="black"/>
<path d="M240.203 110.187L240.203 121.137L231.084 121.137L231.084 110.187L240.203 110.187Z" fill="white"/>
</g>
<rect x="205.7" y="117.463" width="485.8" height="297.695" rx="2.5" fill="white" stroke="#B8CDEB"/>
<path d="M683.731 186.21H680.631V217.217H683.731V186.21Z" fill="#4D648D"/>
<path opacity="0.2" d="M683.731 217.217H680.631V402.221H683.731V217.217Z" fill="#7093FF"/>
<path d="M691.5 97.2019V123.24H206.03V97.2019C206.03 97.0806 206.071 96.9855 206.119 96.9283C206.165 96.8722 206.205 96.8639 206.225 96.8639H691.305C691.325 96.8639 691.365 96.8722 691.411 96.9283C691.459 96.9855 691.5 97.0806 691.5 97.2019Z" fill="url(#paint3_linear)" stroke="#7091F5"/>
<path d="M224.041 112.208H221.012L220.378 114.029H218.965L221.919 106.209H223.139L226.098 114.029H224.68L224.041 112.208ZM221.393 111.113H223.66L222.526 107.868L221.393 111.113ZM226.635 111.08C226.635 110.178 226.846 109.458 227.269 108.921C227.695 108.38 228.259 108.11 228.961 108.11C229.623 108.11 230.144 108.341 230.524 108.803L230.583 108.218H231.759V113.852C231.759 114.615 231.521 115.216 231.045 115.656C230.572 116.097 229.933 116.317 229.127 116.317C228.701 116.317 228.284 116.228 227.876 116.049C227.471 115.873 227.163 115.642 226.952 115.356L227.57 114.572C227.971 115.048 228.465 115.286 229.052 115.286C229.485 115.286 229.827 115.168 230.078 114.931C230.329 114.699 230.454 114.355 230.454 113.9V113.508C230.078 113.927 229.577 114.136 228.95 114.136C228.27 114.136 227.713 113.866 227.28 113.325C226.85 112.785 226.635 112.036 226.635 111.08ZM227.935 111.193C227.935 111.777 228.053 112.237 228.289 112.573C228.529 112.906 228.861 113.073 229.283 113.073C229.809 113.073 230.2 112.847 230.454 112.396V109.84C230.207 109.399 229.82 109.179 229.294 109.179C228.864 109.179 228.529 109.349 228.289 109.689C228.053 110.029 227.935 110.531 227.935 111.193ZM235.664 114.136C234.837 114.136 234.165 113.877 233.65 113.358C233.138 112.835 232.882 112.14 232.882 111.274V111.113C232.882 110.532 232.993 110.015 233.215 109.56C233.44 109.102 233.755 108.746 234.16 108.491C234.565 108.237 235.016 108.11 235.514 108.11C236.305 108.11 236.915 108.363 237.345 108.867C237.778 109.372 237.995 110.087 237.995 111.01V111.537H234.198C234.237 112.017 234.396 112.396 234.676 112.676C234.959 112.955 235.313 113.094 235.739 113.094C236.337 113.094 236.824 112.853 237.2 112.369L237.904 113.041C237.671 113.388 237.359 113.658 236.969 113.852C236.582 114.042 236.147 114.136 235.664 114.136ZM235.508 109.157C235.15 109.157 234.86 109.283 234.638 109.533C234.42 109.784 234.28 110.133 234.219 110.581H236.706V110.484C236.677 110.047 236.561 109.718 236.357 109.496C236.153 109.27 235.87 109.157 235.508 109.157ZM240.224 108.218L240.262 108.889C240.691 108.37 241.255 108.11 241.954 108.11C243.164 108.11 243.78 108.803 243.801 110.189V114.029H242.496V110.264C242.496 109.895 242.415 109.623 242.254 109.448C242.097 109.268 241.837 109.179 241.475 109.179C240.949 109.179 240.557 109.417 240.299 109.893V114.029H238.994V108.218H240.224ZM244.891 111.08C244.891 110.185 245.099 109.467 245.515 108.927C245.93 108.382 246.487 108.11 247.185 108.11C247.801 108.11 248.299 108.325 248.678 108.755V105.779H249.983V114.029H248.802L248.737 113.427C248.347 113.9 247.826 114.136 247.174 114.136C246.494 114.136 245.942 113.863 245.52 113.315C245.101 112.767 244.891 112.022 244.891 111.08ZM246.197 111.193C246.197 111.784 246.309 112.246 246.535 112.579C246.764 112.908 247.088 113.073 247.507 113.073C248.041 113.073 248.431 112.835 248.678 112.359V109.877C248.438 109.412 248.051 109.179 247.518 109.179C247.095 109.179 246.77 109.347 246.54 109.684C246.311 110.017 246.197 110.52 246.197 111.193ZM254.817 114.029C254.76 113.918 254.71 113.737 254.667 113.487C254.252 113.92 253.743 114.136 253.141 114.136C252.558 114.136 252.082 113.97 251.713 113.637C251.344 113.304 251.16 112.892 251.16 112.402C251.16 111.782 251.389 111.308 251.847 110.978C252.309 110.645 252.968 110.479 253.824 110.479H254.624V110.097C254.624 109.797 254.54 109.557 254.371 109.378C254.203 109.195 253.947 109.104 253.603 109.104C253.306 109.104 253.063 109.179 252.873 109.329C252.683 109.476 252.588 109.664 252.588 109.893H251.283C251.283 109.575 251.389 109.277 251.6 109.002C251.811 108.722 252.098 108.504 252.459 108.346C252.825 108.189 253.231 108.11 253.679 108.11C254.359 108.11 254.901 108.282 255.306 108.626C255.711 108.966 255.918 109.446 255.929 110.065V112.686C255.929 113.209 256.002 113.626 256.149 113.938V114.029H254.817ZM253.383 113.089C253.641 113.089 253.883 113.026 254.108 112.901C254.337 112.776 254.509 112.608 254.624 112.396V111.301H253.92C253.437 111.301 253.073 111.385 252.83 111.553C252.586 111.721 252.465 111.959 252.465 112.267C252.465 112.518 252.547 112.719 252.712 112.869C252.88 113.016 253.104 113.089 253.383 113.089Z" fill="white"/>
<mask id="mask4" mask-type="alpha" maskUnits="userSpaceOnUse" x="375" y="109" width="6" height="4">
<path d="M378.323 112.292L380.14 110.111C380.266 109.96 380.266 109.716 380.14 109.567L379.838 109.205C379.713 109.054 379.51 109.054 379.385 109.205L378.098 110.751L376.81 109.205C376.685 109.054 376.482 109.054 376.357 109.205L376.055 109.567C375.93 109.718 375.93 109.962 376.055 110.111L377.872 112.292C377.995 112.443 378.198 112.443 378.323 112.292Z" fill="white"/>
</mask>
<g mask="url(#mask4)">
<path d="M378.323 112.292L380.14 110.111C380.266 109.96 380.266 109.716 380.14 109.567L379.838 109.205C379.713 109.054 379.51 109.054 379.385 109.205L378.098 110.751L376.81 109.205C376.685 109.054 376.482 109.054 376.357 109.205L376.055 109.567C375.93 109.718 375.93 109.962 376.055 110.111L377.872 112.292C377.995 112.443 378.198 112.443 378.323 112.292Z" fill="black"/>
<path d="M374.678 106.637L381.517 106.637L381.517 114.85L374.678 114.85L374.678 106.637Z" fill="white"/>
</g>
<mask id="mask5" mask-type="alpha" maskUnits="userSpaceOnUse" x="474" y="109" width="5" height="4">
<path d="M476.801 112.292L478.618 110.111C478.743 109.96 478.743 109.716 478.618 109.567L478.316 109.205C478.19 109.054 477.987 109.054 477.863 109.205L476.576 110.751L475.288 109.205C475.162 109.054 474.959 109.054 474.835 109.205L474.533 109.567C474.408 109.718 474.408 109.962 474.533 110.111L476.35 112.292C476.473 112.443 476.676 112.443 476.801 112.292Z" fill="white"/>
</mask>
<g mask="url(#mask5)">
<path d="M476.801 112.292L478.618 110.111C478.743 109.96 478.743 109.716 478.618 109.567L478.316 109.205C478.19 109.054 477.987 109.054 477.863 109.205L476.576 110.751L475.288 109.205C475.162 109.054 474.959 109.054 474.835 109.205L474.533 109.567C474.408 109.718 474.408 109.962 474.533 110.111L476.35 112.292C476.473 112.443 476.676 112.443 476.801 112.292Z" fill="black"/>
<path d="M473.156 106.637L479.995 106.637L479.995 114.85L473.156 114.85L473.156 106.637Z" fill="white"/>
</g>
<mask id="mask6" mask-type="alpha" maskUnits="userSpaceOnUse" x="572" y="109" width="5" height="4">
<path d="M574.825 112.292L576.641 110.111C576.767 109.96 576.767 109.716 576.641 109.567L576.34 109.205C576.214 109.054 576.011 109.054 575.887 109.205L574.599 110.751L573.311 109.205C573.186 109.054 572.983 109.054 572.859 109.205L572.557 109.567C572.431 109.718 572.431 109.962 572.557 110.111L574.373 112.292C574.496 112.443 574.699 112.443 574.825 112.292Z" fill="white"/>
</mask>
<g mask="url(#mask6)">
<path d="M574.825 112.292L576.641 110.111C576.767 109.96 576.767 109.716 576.641 109.567L576.34 109.205C576.214 109.054 576.011 109.054 575.887 109.205L574.599 110.751L573.311 109.205C573.186 109.054 572.983 109.054 572.859 109.205L572.557 109.567C572.431 109.718 572.431 109.962 572.557 110.111L574.373 112.292C574.496 112.443 574.699 112.443 574.825 112.292Z" fill="black"/>
<path d="M571.18 106.637L578.019 106.637L578.019 114.85L571.18 114.85L571.18 106.637Z" fill="white"/>
</g>
<mask id="mask7" mask-type="alpha" maskUnits="userSpaceOnUse" x="671" y="109" width="6" height="4">
<path d="M674.216 112.292L676.033 110.111C676.159 109.96 676.159 109.716 676.033 109.567L675.731 109.205C675.606 109.054 675.403 109.054 675.278 109.205L673.991 110.751L672.703 109.205C672.578 109.054 672.374 109.054 672.25 109.205L671.948 109.567C671.823 109.718 671.823 109.962 671.948 110.111L673.765 112.292C673.888 112.443 674.091 112.443 674.216 112.292Z" fill="white"/>
</mask>
<g mask="url(#mask7)">
<path d="M674.216 112.292L676.033 110.111C676.159 109.96 676.159 109.716 676.033 109.567L675.731 109.205C675.606 109.054 675.403 109.054 675.278 109.205L673.991 110.751L672.703 109.205C672.578 109.054 672.374 109.054 672.25 109.205L671.948 109.567C671.823 109.718 671.823 109.962 671.948 110.111L673.765 112.292C673.888 112.443 674.091 112.443 674.216 112.292Z" fill="black"/>
<path d="M670.57 106.637L677.409 106.637L677.409 114.85L670.57 114.85L670.57 106.637Z" fill="white"/>
</g>
<mask id="mask8" mask-type="alpha" maskUnits="userSpaceOnUse" x="527" y="141" width="5" height="8">
<path d="M531.421 144.972L528.999 142.063C528.832 141.862 528.561 141.862 528.395 142.063L527.993 142.546C527.826 142.747 527.826 143.072 527.993 143.271L529.71 145.333L527.993 147.395C527.826 147.596 527.826 147.921 527.993 148.12L528.395 148.603C528.563 148.804 528.834 148.804 528.999 148.603L531.421 145.695C531.589 145.498 531.589 145.173 531.421 144.972Z" fill="#4E658D"/>
</mask>
<g mask="url(#mask8)">
<path d="M531.421 144.972L528.999 142.063C528.832 141.862 528.561 141.862 528.395 142.063L527.993 142.546C527.826 142.747 527.826 143.072 527.993 143.271L529.71 145.333L527.993 147.395C527.826 147.596 527.826 147.921 527.993 148.12L528.395 148.603C528.563 148.804 528.834 148.804 528.999 148.603L531.421 145.695C531.589 145.498 531.589 145.173 531.421 144.972Z" fill="#4E658D"/>
</g>
<mask id="mask9" mask-type="alpha" maskUnits="userSpaceOnUse" x="373" y="142" width="4" height="7">
<path d="M373.435 145.913L375.857 148.822C376.025 149.023 376.295 149.023 376.461 148.822L376.863 148.338C377.031 148.137 377.031 147.812 376.863 147.613L375.147 145.551L376.863 143.49C377.031 143.289 377.031 142.963 376.863 142.765L376.461 142.281C376.293 142.08 376.023 142.08 375.857 142.281L373.435 145.19C373.268 145.387 373.268 145.712 373.435 145.913Z" fill="#4E658D"/>
</mask>
<g mask="url(#mask9)">
<path d="M373.435 145.913L375.857 148.822C376.025 149.023 376.295 149.023 376.461 148.822L376.863 148.338C377.031 148.137 377.031 147.812 376.863 147.613L375.147 145.551L376.863 143.49C377.031 143.289 377.031 142.963 376.863 142.765L376.461 142.281C376.293 142.08 376.023 142.08 375.857 142.281L373.435 145.19C373.268 145.387 373.268 145.712 373.435 145.913Z" fill="#4E658D"/>
</g>
<path d="M65.7238 311.631C65.7238 313.928 63.8616 315.79 61.5644 315.79C59.2672 315.79 57.4049 313.928 57.4049 311.631C57.4049 309.334 59.2672 307.471 61.5644 307.471C63.8616 307.471 65.7238 309.334 65.7238 311.631Z" fill="white" stroke="#4D648D" stroke-width="2"/>
<ellipse cx="61.5644" cy="328.467" rx="5.15945" ry="5.15945" fill="#680063"/>
<ellipse cx="61.5644" cy="344.76" rx="5.15945" ry="5.15943" fill="#808200"/>
<ellipse cx="61.5644" cy="361.053" rx="5.15945" ry="5.15943" fill="#8A5AFF"/>
<ellipse cx="61.5644" cy="377.346" rx="5.15945" ry="5.15943" fill="#E54435"/>
<ellipse cx="61.5644" cy="393.91" rx="5.15945" ry="5.43099" fill="#FF7AD6"/>
<path d="M217.179 186.219V164.818H680.352V186.219H217.179Z" fill="white" stroke="#B8CDEB" stroke-width="0.5"/>
<path d="M362.618 186.218V164.817H425.947V186.218H362.618Z" fill="#4D648D" stroke="#B8CDEB" stroke-width="0.5"/>
<path d="M217.178 212.746V186.218H234.941V212.746H217.178Z" fill="white" stroke="#B8CDEB" stroke-width="0.5"/>
<path d="M235.441 212.746V186.218H298.664V212.746H235.441Z" fill="#7093FF" fill-opacity="0.05" stroke="#B8CDEB" stroke-width="0.5"/>
<path d="M299.061 212.746V186.218H362.284V212.746H299.061Z" fill="#7093FF" fill-opacity="0.05" stroke="#B8CDEB" stroke-width="0.5"/>
<path d="M362.681 212.746V186.218H425.904V212.746H362.681Z" fill="#7093FF" fill-opacity="0.2" stroke="#B8CDEB" stroke-width="0.5"/>
<path d="M426.302 212.746V186.218H489.525V212.746H426.302Z" fill="#7093FF" fill-opacity="0.05" stroke="#B8CDEB" stroke-width="0.5"/>
<path d="M489.922 212.746V186.218H553.145V212.746H489.922Z" fill="#7093FF" fill-opacity="0.05" stroke="#B8CDEB" stroke-width="0.5"/>
<path d="M553.541 212.746V186.218H616.764V212.746H553.541Z" fill="#7093FF" fill-opacity="0.05" stroke="#B8CDEB" stroke-width="0.5"/>
<path d="M617.162 212.746V186.218H680.385V212.746H617.162Z" fill="#7093FF" fill-opacity="0.05" stroke="#B8CDEB" stroke-width="0.5"/>
<path d="M217.178 239.774V213.246H234.941V239.774H217.178Z" fill="white" stroke="#B8CDEB" stroke-width="0.5"/>
<path d="M235.441 239.774V213.246H298.664V239.774H235.441Z" fill="#7093FF" fill-opacity="0.05" stroke="#B8CDEB" stroke-width="0.5"/>
<path d="M299.061 239.774V213.246H362.284V239.774H299.061Z" fill="#7093FF" fill-opacity="0.05" stroke="#B8CDEB" stroke-width="0.5"/>
<path d="M362.681 239.774V213.246H425.904V239.774H362.681Z" fill="#7093FF" fill-opacity="0.2" stroke="#B8CDEB" stroke-width="0.5"/>
<path d="M426.302 239.774V213.246H489.525V239.774H426.302Z" fill="#7093FF" fill-opacity="0.05" stroke="#B8CDEB" stroke-width="0.5"/>
<path d="M489.922 239.774V213.246H553.145V239.774H489.922Z" fill="#7093FF" fill-opacity="0.05" stroke="#B8CDEB" stroke-width="0.5"/>
<path d="M553.541 239.774V213.246H616.764V239.774H553.541Z" fill="#7093FF" fill-opacity="0.05" stroke="#B8CDEB" stroke-width="0.5"/>
<path d="M617.162 239.774V213.246H680.385V239.774H617.162Z" fill="#7093FF" fill-opacity="0.05" stroke="#B8CDEB" stroke-width="0.5"/>
<path d="M217.178 266.802V240.274H234.941V266.802H217.178Z" fill="white" stroke="#B8CDEB" stroke-width="0.5"/>
<path d="M235.441 266.802V240.274H298.664V266.802H235.441Z" fill="#7093FF" fill-opacity="0.05" stroke="#B8CDEB" stroke-width="0.5"/>
<path d="M299.061 266.802V240.274H362.284V266.802H299.061Z" fill="#7093FF" fill-opacity="0.05" stroke="#B8CDEB" stroke-width="0.5"/>
<path d="M362.681 266.802V240.274H425.904V266.802H362.681Z" fill="#7093FF" fill-opacity="0.2" stroke="#B8CDEB" stroke-width="0.5"/>
<path d="M426.302 266.802V240.274H489.525V266.802H426.302Z" fill="#7093FF" fill-opacity="0.05" stroke="#B8CDEB" stroke-width="0.5"/>
<path d="M489.922 266.802V240.274H553.145V266.802H489.922Z" fill="#7093FF" fill-opacity="0.05" stroke="#B8CDEB" stroke-width="0.5"/>
<path d="M553.541 266.802V240.274H616.764V266.802H553.541Z" fill="#7093FF" fill-opacity="0.05" stroke="#B8CDEB" stroke-width="0.5"/>
<path d="M617.162 266.802V240.274H680.385V266.802H617.162Z" fill="#7093FF" fill-opacity="0.05" stroke="#B8CDEB" stroke-width="0.5"/>
<path d="M217.178 293.83V267.302H234.941V293.83H217.178Z" fill="white" stroke="#B8CDEB" stroke-width="0.5"/>
<path d="M235.441 293.83V267.302H298.664V293.83H235.441Z" fill="#7093FF" fill-opacity="0.05" stroke="#B8CDEB" stroke-width="0.5"/>
<path d="M299.061 293.83V267.302H362.284V293.83H299.061Z" fill="#7093FF" fill-opacity="0.05" stroke="#B8CDEB" stroke-width="0.5"/>
<path d="M362.681 293.83V267.302H425.904V293.83H362.681Z" fill="#7093FF" fill-opacity="0.2" stroke="#B8CDEB" stroke-width="0.5"/>
<path d="M426.302 293.83V267.302H489.525V293.83H426.302Z" fill="#7093FF" fill-opacity="0.05" stroke="#B8CDEB" stroke-width="0.5"/>
<path d="M489.922 293.83V267.302H553.145V293.83H489.922Z" fill="#7093FF" fill-opacity="0.05" stroke="#B8CDEB" stroke-width="0.5"/>
<path d="M553.541 293.83V267.302H616.764V293.83H553.541Z" fill="#7093FF" fill-opacity="0.05" stroke="#B8CDEB" stroke-width="0.5"/>
<path d="M617.162 293.83V267.302H680.385V293.83H617.162Z" fill="#7093FF" fill-opacity="0.05" stroke="#B8CDEB" stroke-width="0.5"/>
<path d="M217.178 320.858V294.33H234.941V320.858H217.178Z" fill="white" stroke="#B8CDEB" stroke-width="0.5"/>
<path d="M235.441 320.858V294.33H298.664V320.858H235.441Z" fill="#7093FF" fill-opacity="0.05" stroke="#B8CDEB" stroke-width="0.5"/>
<path d="M299.061 320.858V294.33H362.284V320.858H299.061Z" fill="#7093FF" fill-opacity="0.05" stroke="#B8CDEB" stroke-width="0.5"/>
<path d="M362.681 320.858V294.33H425.904V320.858H362.681Z" fill="#6BBF59" stroke="#6BBF59" stroke-width="0.5"/>
<path d="M426.302 320.858V294.33H489.525V320.858H426.302Z" fill="#7093FF" fill-opacity="0.05" stroke="#B8CDEB" stroke-width="0.5"/>
<path d="M489.922 320.858V294.33H553.145V320.858H489.922Z" fill="#7093FF" fill-opacity="0.05" stroke="#B8CDEB" stroke-width="0.5"/>
<path d="M553.541 320.858V294.33H616.764V320.858H553.541Z" fill="#7093FF" fill-opacity="0.05" stroke="#B8CDEB" stroke-width="0.5"/>
<path d="M617.162 320.858V294.33H680.385V320.858H617.162Z" fill="#7093FF" fill-opacity="0.05" stroke="#B8CDEB" stroke-width="0.5"/>
<path d="M217.178 347.886V321.358H234.941V347.886H217.178Z" fill="white" stroke="#B8CDEB" stroke-width="0.5"/>
<path d="M235.441 347.886V321.358H298.664V347.886H235.441Z" fill="#7093FF" fill-opacity="0.05" stroke="#B8CDEB" stroke-width="0.5"/>
<path d="M299.061 347.886V321.358H362.284V347.886H299.061Z" fill="#7093FF" fill-opacity="0.05" stroke="#B8CDEB" stroke-width="0.5"/>
<path d="M362.681 347.886V321.358H425.904V347.886H362.681Z" fill="#7093FF" fill-opacity="0.2" stroke="#B8CDEB" stroke-width="0.5"/>
<path d="M426.302 347.886V321.358H489.525V347.886H426.302Z" fill="#7093FF" fill-opacity="0.05" stroke="#B8CDEB" stroke-width="0.5"/>
<path d="M489.922 347.886V321.358H553.145V347.886H489.922Z" fill="#7093FF" fill-opacity="0.05" stroke="#B8CDEB" stroke-width="0.5"/>
<path d="M553.541 347.886V321.358H616.764V347.886H553.541Z" fill="#7093FF" fill-opacity="0.05" stroke="#B8CDEB" stroke-width="0.5"/>
<path d="M617.162 347.886V321.358H680.385V347.886H617.162Z" fill="#7093FF" fill-opacity="0.05" stroke="#B8CDEB" stroke-width="0.5"/>
<path d="M217.178 374.914V348.386H234.941V374.914H217.178Z" fill="white" stroke="#B8CDEB" stroke-width="0.5"/>
<path d="M235.441 374.914V348.386H298.664V374.914H235.441Z" fill="#7093FF" fill-opacity="0.05" stroke="#B8CDEB" stroke-width="0.5"/>
<path d="M299.061 374.914V348.386H362.284V374.914H299.061Z" fill="#7093FF" fill-opacity="0.05" stroke="#B8CDEB" stroke-width="0.5"/>
<path d="M362.681 374.914V348.386H425.904V374.914H362.681Z" fill="#7093FF" fill-opacity="0.2" stroke="#B8CDEB" stroke-width="0.5"/>
<path d="M426.302 374.914V348.386H489.525V374.914H426.302Z" fill="#7093FF" fill-opacity="0.05" stroke="#B8CDEB" stroke-width="0.5"/>
<path d="M489.922 374.914V348.386H553.145V374.914H489.922Z" fill="#7093FF" fill-opacity="0.05" stroke="#B8CDEB" stroke-width="0.5"/>
<path d="M553.541 374.914V348.386H616.764V374.914H553.541Z" fill="#7093FF" fill-opacity="0.05" stroke="#B8CDEB" stroke-width="0.5"/>
<path d="M617.162 374.914V348.386H680.385V374.914H617.162Z" fill="#7093FF" fill-opacity="0.05" stroke="#B8CDEB" stroke-width="0.5"/>
<path d="M217.178 401.943V375.415H234.941V401.943H217.178Z" fill="white" stroke="#B8CDEB" stroke-width="0.5"/>
<path d="M235.441 401.943V375.415H298.664V401.943H235.441Z" fill="#7093FF" fill-opacity="0.05" stroke="#B8CDEB" stroke-width="0.5"/>
<path d="M299.061 401.943V375.415H362.284V401.943H299.061Z" fill="#7093FF" fill-opacity="0.05" stroke="#B8CDEB" stroke-width="0.5"/>
<path d="M362.681 401.943V375.415H425.904V401.943H362.681Z" fill="#7093FF" fill-opacity="0.2" stroke="#B8CDEB" stroke-width="0.5"/>
<path d="M426.302 401.943V375.415H489.525V401.943H426.302Z" fill="#7093FF" fill-opacity="0.05" stroke="#B8CDEB" stroke-width="0.5"/>
<path d="M489.922 401.943V375.415H553.145V401.943H489.922Z" fill="#7093FF" fill-opacity="0.05" stroke="#B8CDEB" stroke-width="0.5"/>
<path d="M553.541 401.943V375.415H616.764V401.943H553.541Z" fill="#7093FF" fill-opacity="0.05" stroke="#B8CDEB" stroke-width="0.5"/>
<path d="M617.162 401.943V375.415H680.385V401.943H617.162Z" fill="#7093FF" fill-opacity="0.05" stroke="#B8CDEB" stroke-width="0.5"/>
<mask id="path-156-inside-1" fill="white">
<path fill-rule="evenodd" clip-rule="evenodd" d="M216.929 164.567H680.602V166.209H680.601V166.209H216.928V165.999H216.929V164.567Z"/>
</mask>
<path fill-rule="evenodd" clip-rule="evenodd" d="M216.929 164.567H680.602V166.209H680.601V166.209H216.928V165.999H216.929V164.567Z" fill="#4D648D"/>
<path d="M680.602 164.567H681.602V163.567H680.602V164.567ZM216.929 164.567V163.567H215.929V164.567H216.929ZM680.602 166.209V167.209H681.602V166.209H680.602ZM680.601 166.209V165.209H679.601V166.209H680.601ZM680.601 166.209V167.209H681.601V166.209H680.601ZM216.928 166.209H215.928V167.209H216.928V166.209ZM216.928 165.999V164.999H215.928V165.999H216.928ZM216.929 165.999V166.999H217.929V165.999H216.929ZM680.602 163.567H216.929V165.567H680.602V163.567ZM681.602 166.209V164.567H679.602V166.209H681.602ZM680.601 167.209H680.602V165.209H680.601V167.209ZM681.601 166.209V166.209H679.601V166.209H681.601ZM216.928 167.209H680.601V165.209H216.928V167.209ZM215.928 165.999V166.209H217.928V165.999H215.928ZM216.929 164.999H216.928V166.999H216.929V164.999ZM215.929 164.567V165.999H217.929V164.567H215.929Z" fill="#4D648D" mask="url(#path-156-inside-1)"/>
<rect x="294.584" y="101.959" width="89.952" height="17.6038" rx="1.5" stroke="white"/>
<rect x="392.771" y="101.959" width="89.952" height="17.6038" rx="1.5" stroke="white"/>
<rect x="490.958" y="101.959" width="89.952" height="17.6038" rx="1.5" stroke="white"/>
<rect x="590.179" y="101.959" width="89.952" height="17.6038" rx="1.5" stroke="white"/>
<rect x="77.0433" y="305.928" width="70.6029" height="9.77579" rx="4.88789" fill="#E2E9FF"/>
<path d="M256.376 175.884H258.958V176.674H255.388V170.986H256.376V175.884ZM262.13 176.259C261.851 176.588 261.455 176.752 260.942 176.752C260.484 176.752 260.136 176.618 259.899 176.349C259.665 176.081 259.548 175.693 259.548 175.185V172.447H260.497V175.174C260.497 175.71 260.72 175.978 261.165 175.978C261.626 175.978 261.937 175.813 262.098 175.482V172.447H263.048V176.674H262.153L262.13 176.259ZM264.895 172.447L264.923 172.935C265.235 172.558 265.645 172.369 266.153 172.369C267.033 172.369 267.481 172.873 267.497 173.881V176.674H266.548V173.935C266.548 173.667 266.489 173.469 266.372 173.341C266.257 173.211 266.069 173.146 265.805 173.146C265.423 173.146 265.138 173.319 264.95 173.666V176.674H264.001V172.447H264.895ZM270.329 176.752C269.727 176.752 269.239 176.563 268.864 176.185C268.492 175.805 268.305 175.3 268.305 174.67V174.552C268.305 174.131 268.386 173.754 268.548 173.424C268.712 173.09 268.941 172.831 269.235 172.646C269.529 172.461 269.858 172.369 270.22 172.369C270.795 172.369 271.239 172.552 271.552 172.92C271.867 173.287 272.024 173.806 272.024 174.478V174.861H269.263C269.291 175.21 269.407 175.486 269.61 175.689C269.816 175.892 270.074 175.994 270.384 175.994C270.819 175.994 271.173 175.818 271.446 175.466L271.958 175.955C271.789 176.207 271.562 176.404 271.278 176.545C270.997 176.683 270.68 176.752 270.329 176.752ZM270.216 173.131C269.955 173.131 269.744 173.222 269.583 173.404C269.424 173.586 269.322 173.84 269.278 174.166H271.087V174.095C271.066 173.778 270.981 173.538 270.833 173.377C270.684 173.213 270.479 173.131 270.216 173.131ZM275.134 175.525C275.134 175.356 275.063 175.227 274.923 175.138C274.785 175.05 274.554 174.972 274.231 174.904C273.908 174.836 273.639 174.75 273.423 174.646C272.949 174.417 272.712 174.085 272.712 173.65C272.712 173.286 272.865 172.981 273.173 172.736C273.48 172.491 273.871 172.369 274.345 172.369C274.85 172.369 275.257 172.494 275.567 172.744C275.88 172.994 276.036 173.318 276.036 173.716H275.087C275.087 173.534 275.019 173.383 274.884 173.263C274.748 173.141 274.569 173.08 274.345 173.08C274.136 173.08 273.966 173.128 273.833 173.224C273.703 173.321 273.638 173.45 273.638 173.611C273.638 173.757 273.699 173.87 273.821 173.951C273.944 174.032 274.191 174.114 274.563 174.197C274.936 174.278 275.227 174.375 275.438 174.49C275.652 174.602 275.809 174.737 275.911 174.896C276.015 175.055 276.067 175.248 276.067 175.474C276.067 175.855 275.91 176.163 275.595 176.4C275.279 176.634 274.867 176.752 274.356 176.752C274.01 176.752 273.701 176.689 273.43 176.564C273.16 176.439 272.949 176.267 272.798 176.049C272.647 175.83 272.571 175.594 272.571 175.341H273.493C273.506 175.565 273.591 175.739 273.747 175.861C273.903 175.981 274.11 176.041 274.368 176.041C274.618 176.041 274.808 175.994 274.938 175.9C275.069 175.804 275.134 175.679 275.134 175.525Z" fill="#4D648D"/>
<path d="M318.682 170.986L320.322 175.345L321.959 170.986H323.236V176.674H322.252V174.799L322.35 172.291L320.67 176.674H319.963L318.287 172.295L318.385 174.799V176.674H317.4V170.986H318.682ZM326.842 176.674C326.8 176.593 326.764 176.461 326.732 176.279C326.43 176.594 326.061 176.752 325.623 176.752C325.199 176.752 324.852 176.631 324.584 176.388C324.316 176.146 324.182 175.847 324.182 175.49C324.182 175.039 324.348 174.694 324.682 174.455C325.018 174.213 325.497 174.091 326.119 174.091H326.701V173.814C326.701 173.595 326.64 173.421 326.518 173.291C326.395 173.158 326.209 173.091 325.959 173.091C325.743 173.091 325.566 173.146 325.428 173.256C325.29 173.362 325.221 173.499 325.221 173.666H324.271C324.271 173.434 324.348 173.218 324.502 173.017C324.656 172.814 324.864 172.655 325.127 172.541C325.393 172.426 325.688 172.369 326.014 172.369C326.508 172.369 326.903 172.494 327.197 172.744C327.492 172.991 327.643 173.34 327.65 173.791V175.697C327.65 176.077 327.704 176.381 327.811 176.607V176.674H326.842ZM325.799 175.99C325.986 175.99 326.162 175.944 326.326 175.853C326.493 175.762 326.618 175.64 326.701 175.486V174.689H326.189C325.838 174.689 325.574 174.75 325.396 174.873C325.219 174.995 325.131 175.168 325.131 175.392C325.131 175.575 325.191 175.72 325.311 175.83C325.433 175.937 325.596 175.99 325.799 175.99ZM330.857 173.314C330.732 173.293 330.604 173.283 330.471 173.283C330.036 173.283 329.743 173.45 329.592 173.783V176.674H328.643V172.447H329.549L329.572 172.92C329.801 172.552 330.119 172.369 330.525 172.369C330.661 172.369 330.773 172.387 330.861 172.424L330.857 173.314ZM332.842 171.42V172.447H333.588V173.15H332.842V175.509C332.842 175.671 332.873 175.788 332.936 175.861C333.001 175.931 333.115 175.966 333.279 175.966C333.389 175.966 333.499 175.953 333.611 175.927V176.662C333.395 176.722 333.187 176.752 332.986 176.752C332.257 176.752 331.893 176.349 331.893 175.545V173.15H331.197V172.447H331.893V171.42H332.842ZM336.178 176.752C335.576 176.752 335.088 176.563 334.713 176.185C334.34 175.805 334.154 175.3 334.154 174.67V174.552C334.154 174.131 334.235 173.754 334.396 173.424C334.561 173.09 334.79 172.831 335.084 172.646C335.378 172.461 335.706 172.369 336.068 172.369C336.644 172.369 337.088 172.552 337.4 172.92C337.715 173.287 337.873 173.806 337.873 174.478V174.861H335.111C335.14 175.21 335.256 175.486 335.459 175.689C335.665 175.892 335.923 175.994 336.232 175.994C336.667 175.994 337.021 175.818 337.295 175.466L337.807 175.955C337.637 176.207 337.411 176.404 337.127 176.545C336.846 176.683 336.529 176.752 336.178 176.752ZM336.064 173.131C335.804 173.131 335.593 173.222 335.432 173.404C335.273 173.586 335.171 173.84 335.127 174.166H336.936V174.095C336.915 173.778 336.83 173.538 336.682 173.377C336.533 173.213 336.327 173.131 336.064 173.131ZM340.982 175.525C340.982 175.356 340.912 175.227 340.771 175.138C340.633 175.05 340.403 174.972 340.08 174.904C339.757 174.836 339.488 174.75 339.271 174.646C338.798 174.417 338.561 174.085 338.561 173.65C338.561 173.286 338.714 172.981 339.021 172.736C339.329 172.491 339.719 172.369 340.193 172.369C340.699 172.369 341.106 172.494 341.416 172.744C341.729 172.994 341.885 173.318 341.885 173.716H340.936C340.936 173.534 340.868 173.383 340.732 173.263C340.597 173.141 340.417 173.08 340.193 173.08C339.985 173.08 339.814 173.128 339.682 173.224C339.551 173.321 339.486 173.45 339.486 173.611C339.486 173.757 339.548 173.87 339.67 173.951C339.792 174.032 340.04 174.114 340.412 174.197C340.785 174.278 341.076 174.375 341.287 174.49C341.501 174.602 341.658 174.737 341.76 174.896C341.864 175.055 341.916 175.248 341.916 175.474C341.916 175.855 341.758 176.163 341.443 176.4C341.128 176.634 340.715 176.752 340.205 176.752C339.859 176.752 339.55 176.689 339.279 176.564C339.008 176.439 338.798 176.267 338.646 176.049C338.495 175.83 338.42 175.594 338.42 175.341H339.342C339.355 175.565 339.439 175.739 339.596 175.861C339.752 175.981 339.959 176.041 340.217 176.041C340.467 176.041 340.657 175.994 340.787 175.9C340.917 175.804 340.982 175.679 340.982 175.525Z" fill="#4D648D"/>
<path d="M371.522 302.697H370.534L367.999 298.662V302.697H367.011V297.009H367.999L370.542 301.06V297.009H371.522V302.697ZM373.608 302.697H372.659V298.47H373.608V302.697ZM372.601 297.373C372.601 297.227 372.646 297.106 372.737 297.009C372.831 296.913 372.964 296.865 373.136 296.865C373.308 296.865 373.44 296.913 373.534 297.009C373.628 297.106 373.675 297.227 373.675 297.373C373.675 297.516 373.628 297.636 373.534 297.732C373.44 297.826 373.308 297.873 373.136 297.873C372.964 297.873 372.831 297.826 372.737 297.732C372.646 297.636 372.601 297.516 372.601 297.373ZM374.468 300.552C374.468 299.901 374.619 299.379 374.921 298.986C375.223 298.59 375.628 298.392 376.136 298.392C376.584 298.392 376.946 298.549 377.222 298.861V296.697H378.171V302.697H377.311L377.265 302.259C376.981 302.603 376.602 302.775 376.128 302.775C375.633 302.775 375.232 302.576 374.925 302.177C374.62 301.779 374.468 301.237 374.468 300.552ZM375.417 300.634C375.417 301.064 375.499 301.4 375.663 301.642C375.83 301.882 376.065 302.002 376.37 302.002C376.758 302.002 377.042 301.828 377.222 301.482V299.677C377.047 299.339 376.766 299.17 376.378 299.17C376.071 299.17 375.834 299.292 375.667 299.537C375.5 299.779 375.417 300.145 375.417 300.634ZM380.171 302.697H379.222V298.47H380.171V302.697ZM379.163 297.373C379.163 297.227 379.209 297.106 379.3 297.009C379.394 296.913 379.526 296.865 379.698 296.865C379.87 296.865 380.003 296.913 380.097 297.009C380.19 297.106 380.237 297.227 380.237 297.373C380.237 297.516 380.19 297.636 380.097 297.732C380.003 297.826 379.87 297.873 379.698 297.873C379.526 297.873 379.394 297.826 379.3 297.732C379.209 297.636 379.163 297.516 379.163 297.373ZM383.733 302.697C383.692 302.616 383.655 302.485 383.624 302.302C383.322 302.618 382.952 302.775 382.515 302.775C382.09 302.775 381.744 302.654 381.476 302.412C381.207 302.17 381.073 301.87 381.073 301.513C381.073 301.063 381.24 300.718 381.573 300.478C381.909 300.236 382.388 300.115 383.011 300.115H383.593V299.838C383.593 299.619 383.532 299.444 383.409 299.314C383.287 299.181 383.101 299.115 382.851 299.115C382.634 299.115 382.457 299.17 382.319 299.279C382.181 299.386 382.112 299.522 382.112 299.689H381.163C381.163 299.457 381.24 299.241 381.394 299.041C381.547 298.838 381.756 298.679 382.019 298.564C382.284 298.45 382.58 298.392 382.905 298.392C383.4 298.392 383.795 298.517 384.089 298.767C384.383 299.015 384.534 299.364 384.542 299.814V301.72C384.542 302.101 384.595 302.404 384.702 302.631V302.697H383.733ZM382.69 302.013C382.878 302.013 383.054 301.968 383.218 301.877C383.384 301.786 383.509 301.663 383.593 301.509V300.713H383.081C382.729 300.713 382.465 300.774 382.288 300.896C382.111 301.019 382.022 301.192 382.022 301.416C382.022 301.598 382.082 301.744 382.202 301.853C382.325 301.96 382.487 302.013 382.69 302.013ZM389.624 301.459L391.069 297.009H392.155L390.108 302.697H389.151L387.112 297.009H388.194L389.624 301.459ZM395.054 302.697C395.012 302.616 394.976 302.485 394.944 302.302C394.642 302.618 394.272 302.775 393.835 302.775C393.41 302.775 393.064 302.654 392.796 302.412C392.528 302.17 392.394 301.87 392.394 301.513C392.394 301.063 392.56 300.718 392.894 300.478C393.229 300.236 393.709 300.115 394.331 300.115H394.913V299.838C394.913 299.619 394.852 299.444 394.729 299.314C394.607 299.181 394.421 299.115 394.171 299.115C393.955 299.115 393.778 299.17 393.64 299.279C393.502 299.386 393.433 299.522 393.433 299.689H392.483C392.483 299.457 392.56 299.241 392.714 299.041C392.867 298.838 393.076 298.679 393.339 298.564C393.604 298.45 393.9 298.392 394.226 298.392C394.72 298.392 395.115 298.517 395.409 298.767C395.703 299.015 395.854 299.364 395.862 299.814V301.72C395.862 302.101 395.916 302.404 396.022 302.631V302.697H395.054ZM394.011 302.013C394.198 302.013 394.374 301.968 394.538 301.877C394.705 301.786 394.83 301.663 394.913 301.509V300.713H394.401C394.05 300.713 393.785 300.774 393.608 300.896C393.431 301.019 393.343 301.192 393.343 301.416C393.343 301.598 393.403 301.744 393.522 301.853C393.645 301.96 393.808 302.013 394.011 302.013ZM397.866 302.697H396.917V296.697H397.866V302.697ZM398.726 300.552C398.726 299.901 398.877 299.379 399.179 298.986C399.481 298.59 399.886 298.392 400.394 298.392C400.841 298.392 401.203 298.549 401.479 298.861V296.697H402.429V302.697H401.569L401.522 302.259C401.239 302.603 400.86 302.775 400.386 302.775C399.891 302.775 399.49 302.576 399.183 302.177C398.878 301.779 398.726 301.237 398.726 300.552ZM399.675 300.634C399.675 301.064 399.757 301.4 399.921 301.642C400.088 301.882 400.323 302.002 400.628 302.002C401.016 302.002 401.3 301.828 401.479 301.482V299.677C401.305 299.339 401.024 299.17 400.636 299.17C400.328 299.17 400.091 299.292 399.925 299.537C399.758 299.779 399.675 300.145 399.675 300.634ZM405.28 302.775C404.679 302.775 404.19 302.586 403.815 302.209C403.443 301.828 403.257 301.323 403.257 300.693V300.576C403.257 300.154 403.338 299.778 403.499 299.447C403.663 299.114 403.892 298.855 404.186 298.67C404.481 298.485 404.809 298.392 405.171 298.392C405.746 298.392 406.19 298.576 406.503 298.943C406.818 299.31 406.976 299.83 406.976 300.502V300.884H404.214C404.242 301.233 404.358 301.509 404.561 301.713C404.767 301.916 405.025 302.017 405.335 302.017C405.77 302.017 406.124 301.841 406.397 301.49L406.909 301.978C406.74 302.231 406.513 302.427 406.229 302.568C405.948 302.706 405.632 302.775 405.28 302.775ZM405.167 299.154C404.907 299.154 404.696 299.245 404.534 299.427C404.375 299.61 404.274 299.864 404.229 300.189H406.038V300.119C406.017 299.801 405.933 299.562 405.784 299.4C405.636 299.236 405.43 299.154 405.167 299.154ZM405.382 296.697H406.464L405.382 297.881H404.62L405.382 296.697ZM410.085 301.549C410.085 301.379 410.015 301.25 409.874 301.162C409.736 301.073 409.506 300.995 409.183 300.927C408.86 300.86 408.59 300.774 408.374 300.67C407.9 300.44 407.663 300.108 407.663 299.674C407.663 299.309 407.817 299.004 408.124 298.759C408.431 298.515 408.822 298.392 409.296 298.392C409.801 298.392 410.209 298.517 410.519 298.767C410.831 299.017 410.987 299.341 410.987 299.74H410.038C410.038 299.558 409.97 299.407 409.835 299.287C409.7 299.164 409.52 299.103 409.296 299.103C409.088 299.103 408.917 299.151 408.784 299.248C408.654 299.344 408.589 299.473 408.589 299.634C408.589 299.78 408.65 299.894 408.772 299.974C408.895 300.055 409.142 300.137 409.515 300.22C409.887 300.301 410.179 300.399 410.39 300.513C410.603 300.625 410.761 300.761 410.862 300.92C410.966 301.078 411.019 301.271 411.019 301.498C411.019 301.878 410.861 302.187 410.546 302.424C410.231 302.658 409.818 302.775 409.308 302.775C408.961 302.775 408.653 302.713 408.382 302.588C408.111 302.463 407.9 302.291 407.749 302.072C407.598 301.853 407.522 301.618 407.522 301.365H408.444C408.457 301.589 408.542 301.762 408.698 301.884C408.854 302.004 409.061 302.064 409.319 302.064C409.569 302.064 409.759 302.017 409.89 301.924C410.02 301.827 410.085 301.702 410.085 301.549Z" fill="white"/>
<path d="M368.292 309.481L369.933 313.841L371.569 309.481H372.847V315.169H371.862V313.294L371.96 310.786L370.28 315.169H369.573L367.897 310.79L367.995 313.294V315.169H367.011V309.481H368.292ZM374.616 315.169H373.667V310.942H374.616V315.169ZM373.609 309.844C373.609 309.699 373.654 309.578 373.745 309.481C373.839 309.385 373.972 309.337 374.144 309.337C374.316 309.337 374.449 309.385 374.542 309.481C374.636 309.578 374.683 309.699 374.683 309.844C374.683 309.988 374.636 310.108 374.542 310.204C374.449 310.298 374.316 310.344 374.144 310.344C373.972 310.344 373.839 310.298 373.745 310.204C373.654 310.108 373.609 309.988 373.609 309.844ZM377.195 315.247C376.593 315.247 376.105 315.058 375.73 314.68C375.358 314.3 375.171 313.795 375.171 313.165V313.048C375.171 312.626 375.252 312.249 375.414 311.919C375.578 311.585 375.807 311.326 376.101 311.141C376.395 310.956 376.724 310.864 377.086 310.864C377.661 310.864 378.105 311.048 378.418 311.415C378.733 311.782 378.89 312.302 378.89 312.973V313.356H376.129C376.157 313.705 376.273 313.981 376.476 314.184C376.682 314.387 376.94 314.489 377.25 314.489C377.685 314.489 378.039 314.313 378.312 313.962L378.824 314.45C378.655 314.703 378.428 314.899 378.144 315.04C377.863 315.178 377.546 315.247 377.195 315.247ZM377.082 311.626C376.821 311.626 376.61 311.717 376.449 311.899C376.29 312.081 376.188 312.335 376.144 312.661H377.953V312.591C377.932 312.273 377.847 312.033 377.699 311.872C377.55 311.708 377.345 311.626 377.082 311.626ZM379.902 314.169C380.079 314.169 380.216 314.219 380.312 314.321C380.409 314.42 380.457 314.545 380.457 314.696C380.457 314.844 380.409 314.968 380.312 315.067C380.216 315.163 380.079 315.212 379.902 315.212C379.733 315.212 379.599 315.163 379.5 315.067C379.401 314.971 379.351 314.847 379.351 314.696C379.351 314.545 379.4 314.42 379.496 314.321C379.592 314.219 379.728 314.169 379.902 314.169ZM386.661 315.169H382.836V314.516L384.731 312.45C385.004 312.145 385.198 311.891 385.313 311.688C385.43 311.483 385.489 311.277 385.489 311.071C385.489 310.8 385.412 310.581 385.258 310.415C385.107 310.248 384.903 310.165 384.645 310.165C384.338 310.165 384.1 310.259 383.93 310.446C383.761 310.634 383.676 310.89 383.676 311.216H382.727C382.727 310.869 382.805 310.558 382.961 310.282C383.12 310.003 383.346 309.787 383.637 309.634C383.932 309.48 384.27 309.403 384.653 309.403C385.205 309.403 385.64 309.542 385.958 309.821C386.278 310.097 386.438 310.48 386.438 310.969C386.438 311.253 386.357 311.552 386.196 311.864C386.037 312.174 385.775 312.527 385.411 312.923L384.02 314.411H386.661V315.169ZM390.888 315.169H387.063V314.516L388.958 312.45C389.231 312.145 389.425 311.891 389.54 311.688C389.657 311.483 389.716 311.277 389.716 311.071C389.716 310.8 389.639 310.581 389.485 310.415C389.334 310.248 389.13 310.165 388.872 310.165C388.565 310.165 388.326 310.259 388.157 310.446C387.988 310.634 387.903 310.89 387.903 311.216H386.954C386.954 310.869 387.032 310.558 387.188 310.282C387.347 310.003 387.572 309.787 387.864 309.634C388.158 309.48 388.497 309.403 388.88 309.403C389.432 309.403 389.867 309.542 390.184 309.821C390.505 310.097 390.665 310.48 390.665 310.969C390.665 311.253 390.584 311.552 390.423 311.864C390.264 312.174 390.002 312.527 389.638 312.923L388.247 314.411H390.888V315.169ZM391.618 315.657H390.872L393.111 309.481H393.857L391.618 315.657ZM396.705 315.169H395.759V310.602L394.365 311.079V310.278L396.584 309.462H396.705V315.169ZM399.459 311.891H400.037C400.329 311.889 400.559 311.813 400.728 311.665C400.9 311.516 400.986 311.302 400.986 311.02C400.986 310.749 400.915 310.54 400.771 310.391C400.631 310.24 400.415 310.165 400.123 310.165C399.868 310.165 399.658 310.239 399.494 310.387C399.33 310.533 399.248 310.725 399.248 310.962H398.299C398.299 310.67 398.376 310.404 398.529 310.165C398.685 309.925 398.902 309.739 399.178 309.606C399.456 309.471 399.767 309.403 400.111 309.403C400.679 309.403 401.124 309.546 401.447 309.833C401.773 310.117 401.935 310.512 401.935 311.02C401.935 311.275 401.853 311.516 401.689 311.743C401.528 311.967 401.318 312.136 401.06 312.251C401.373 312.358 401.61 312.525 401.771 312.755C401.935 312.984 402.017 313.257 402.017 313.575C402.017 314.085 401.842 314.492 401.49 314.794C401.141 315.096 400.681 315.247 400.111 315.247C399.564 315.247 399.116 315.101 398.767 314.809C398.418 314.518 398.244 314.13 398.244 313.645H399.193C399.193 313.895 399.277 314.098 399.443 314.255C399.612 314.411 399.839 314.489 400.123 314.489C400.417 314.489 400.649 314.411 400.818 314.255C400.987 314.098 401.072 313.872 401.072 313.575C401.072 313.275 400.984 313.045 400.806 312.884C400.629 312.722 400.366 312.641 400.017 312.641H399.459V311.891ZM403.221 314.169C403.398 314.169 403.535 314.219 403.631 314.321C403.727 314.42 403.776 314.545 403.776 314.696C403.776 314.844 403.727 314.968 403.631 315.067C403.535 315.163 403.398 315.212 403.221 315.212C403.052 315.212 402.917 315.163 402.819 315.067C402.72 314.971 402.67 314.847 402.67 314.696C402.67 314.545 402.718 314.42 402.815 314.321C402.911 314.219 403.046 314.169 403.221 314.169ZM403.221 310.852C403.398 310.852 403.535 310.903 403.631 311.005C403.727 311.104 403.776 311.229 403.776 311.38C403.776 311.528 403.727 311.652 403.631 311.751C403.535 311.847 403.398 311.895 403.221 311.895C403.052 311.895 402.917 311.847 402.819 311.751C402.72 311.654 402.67 311.531 402.67 311.38C402.67 311.229 402.718 311.104 402.815 311.005C402.911 310.903 403.046 310.852 403.221 310.852ZM408.1 312.774C408.1 313.592 407.946 314.209 407.639 314.626C407.334 315.04 406.87 315.247 406.245 315.247C405.63 315.247 405.166 315.045 404.854 314.641C404.544 314.235 404.385 313.635 404.377 312.841V311.856C404.377 311.038 404.53 310.425 404.834 310.016C405.142 309.608 405.609 309.403 406.237 309.403C406.859 309.403 407.323 309.602 407.627 310.001C407.935 310.399 408.092 310.996 408.1 311.79V312.774ZM407.151 311.712C407.151 311.178 407.078 310.787 406.932 310.54C406.786 310.29 406.555 310.165 406.237 310.165C405.927 310.165 405.699 310.283 405.553 310.52C405.407 310.755 405.331 311.122 405.323 311.622V312.911C405.323 313.442 405.397 313.838 405.545 314.098C405.694 314.359 405.927 314.489 406.245 314.489C406.549 314.489 406.775 314.369 406.92 314.13C407.066 313.887 407.143 313.51 407.151 312.997V311.712ZM412.327 312.774C412.327 313.592 412.173 314.209 411.866 314.626C411.561 315.04 411.096 315.247 410.471 315.247C409.857 315.247 409.393 315.045 409.081 314.641C408.771 314.235 408.612 313.635 408.604 312.841V311.856C408.604 311.038 408.757 310.425 409.061 310.016C409.369 309.608 409.836 309.403 410.464 309.403C411.086 309.403 411.55 309.602 411.854 310.001C412.162 310.399 412.319 310.996 412.327 311.79V312.774ZM411.378 311.712C411.378 311.178 411.305 310.787 411.159 310.54C411.013 310.29 410.781 310.165 410.464 310.165C410.154 310.165 409.926 310.283 409.78 310.52C409.634 310.755 409.557 311.122 409.55 311.622V312.911C409.55 313.442 409.624 313.838 409.772 314.098C409.921 314.359 410.154 314.489 410.471 314.489C410.776 314.489 411.001 314.369 411.147 314.13C411.293 313.887 411.37 313.51 411.378 312.997V311.712Z" fill="white"/>
<path d="M446.855 170.986H447.839V174.974C447.839 175.519 447.669 175.951 447.327 176.271C446.989 176.591 446.541 176.752 445.984 176.752C445.39 176.752 444.932 176.602 444.609 176.302C444.286 176.003 444.124 175.586 444.124 175.052H445.109C445.109 175.355 445.183 175.582 445.331 175.736C445.482 175.887 445.7 175.963 445.984 175.963C446.249 175.963 446.46 175.875 446.616 175.701C446.775 175.524 446.855 175.28 446.855 174.97V170.986ZM451.441 176.259C451.162 176.588 450.766 176.752 450.253 176.752C449.795 176.752 449.447 176.618 449.21 176.349C448.976 176.081 448.859 175.693 448.859 175.185V172.447H449.808V175.174C449.808 175.71 450.03 175.978 450.476 175.978C450.937 175.978 451.248 175.813 451.409 175.482V172.447H452.359V176.674H451.464L451.441 176.259ZM455.187 176.752C454.585 176.752 454.097 176.563 453.722 176.185C453.349 175.805 453.163 175.3 453.163 174.67V174.552C453.163 174.131 453.244 173.754 453.405 173.424C453.57 173.09 453.799 172.831 454.093 172.646C454.387 172.461 454.715 172.369 455.077 172.369C455.653 172.369 456.097 172.552 456.409 172.92C456.724 173.287 456.882 173.806 456.882 174.478V174.861H454.12C454.149 175.21 454.265 175.486 454.468 175.689C454.674 175.892 454.932 175.994 455.241 175.994C455.676 175.994 456.03 175.818 456.304 175.466L456.816 175.955C456.646 176.207 456.42 176.404 456.136 176.545C455.855 176.683 455.538 176.752 455.187 176.752ZM455.073 173.131C454.813 173.131 454.602 173.222 454.441 173.404C454.282 173.586 454.18 173.84 454.136 174.166H455.945V174.095C455.924 173.778 455.839 173.538 455.691 173.377C455.542 173.213 455.336 173.131 455.073 173.131ZM459.058 175.47L459.952 172.447H460.933L459.468 176.674H458.644L457.167 172.447H458.152L459.058 175.47ZM463.335 176.752C462.734 176.752 462.245 176.563 461.87 176.185C461.498 175.805 461.312 175.3 461.312 174.67V174.552C461.312 174.131 461.392 173.754 461.554 173.424C461.718 173.09 461.947 172.831 462.241 172.646C462.536 172.461 462.864 172.369 463.226 172.369C463.801 172.369 464.245 172.552 464.558 172.92C464.873 173.287 465.03 173.806 465.03 174.478V174.861H462.269C462.297 175.21 462.413 175.486 462.616 175.689C462.822 175.892 463.08 175.994 463.39 175.994C463.825 175.994 464.179 175.818 464.452 175.466L464.964 175.955C464.795 176.207 464.568 176.404 464.284 176.545C464.003 176.683 463.687 176.752 463.335 176.752ZM463.222 173.131C462.961 173.131 462.751 173.222 462.589 173.404C462.43 173.586 462.329 173.84 462.284 174.166H464.093V174.095C464.072 173.778 463.988 173.538 463.839 173.377C463.691 173.213 463.485 173.131 463.222 173.131ZM468.14 175.525C468.14 175.356 468.07 175.227 467.929 175.138C467.791 175.05 467.56 174.972 467.238 174.904C466.915 174.836 466.645 174.75 466.429 174.646C465.955 174.417 465.718 174.085 465.718 173.65C465.718 173.286 465.872 172.981 466.179 172.736C466.486 172.491 466.877 172.369 467.351 172.369C467.856 172.369 468.264 172.494 468.573 172.744C468.886 172.994 469.042 173.318 469.042 173.716H468.093C468.093 173.534 468.025 173.383 467.89 173.263C467.754 173.141 467.575 173.08 467.351 173.08C467.142 173.08 466.972 173.128 466.839 173.224C466.709 173.321 466.644 173.45 466.644 173.611C466.644 173.757 466.705 173.87 466.827 173.951C466.95 174.032 467.197 174.114 467.57 174.197C467.942 174.278 468.234 174.375 468.445 174.49C468.658 174.602 468.816 174.737 468.917 174.896C469.021 175.055 469.073 175.248 469.073 175.474C469.073 175.855 468.916 176.163 468.601 176.4C468.286 176.634 467.873 176.752 467.363 176.752C467.016 176.752 466.708 176.689 466.437 176.564C466.166 176.439 465.955 176.267 465.804 176.049C465.653 175.83 465.577 175.594 465.577 175.341H466.499C466.512 175.565 466.597 175.739 466.753 175.861C466.909 175.981 467.116 176.041 467.374 176.041C467.624 176.041 467.814 175.994 467.945 175.9C468.075 175.804 468.14 175.679 468.14 175.525Z" fill="#4D648D"/>
<path d="M508.543 175.435L509.989 170.986H511.075L509.028 176.674H508.071L506.032 170.986H507.114L508.543 175.435ZM512.637 176.674H511.688V172.447H512.637V176.674ZM511.629 171.349C511.629 171.203 511.675 171.082 511.766 170.986C511.86 170.89 511.993 170.841 512.164 170.841C512.336 170.841 512.469 170.89 512.563 170.986C512.657 171.082 512.704 171.203 512.704 171.349C512.704 171.493 512.657 171.612 512.563 171.709C512.469 171.802 512.336 171.849 512.164 171.849C511.993 171.849 511.86 171.802 511.766 171.709C511.675 171.612 511.629 171.493 511.629 171.349ZM515.536 176.752C514.934 176.752 514.446 176.563 514.071 176.185C513.698 175.805 513.512 175.3 513.512 174.67V174.552C513.512 174.131 513.593 173.754 513.754 173.424C513.918 173.09 514.148 172.831 514.442 172.646C514.736 172.461 515.064 172.369 515.426 172.369C516.002 172.369 516.446 172.552 516.758 172.92C517.073 173.287 517.231 173.806 517.231 174.478V174.861H514.469C514.498 175.21 514.614 175.486 514.817 175.689C515.023 175.892 515.28 175.994 515.59 175.994C516.025 175.994 516.379 175.818 516.653 175.466L517.164 175.955C516.995 176.207 516.769 176.404 516.485 176.545C516.204 176.683 515.887 176.752 515.536 176.752ZM515.422 173.131C515.162 173.131 514.951 173.222 514.789 173.404C514.631 173.586 514.529 173.84 514.485 174.166H516.293V174.095C516.273 173.778 516.188 173.538 516.039 173.377C515.891 173.213 515.685 173.131 515.422 173.131ZM520.184 173.314C520.059 173.293 519.93 173.283 519.797 173.283C519.362 173.283 519.069 173.45 518.918 173.783V176.674H517.969V172.447H518.875L518.899 172.92C519.128 172.552 519.446 172.369 519.852 172.369C519.987 172.369 520.099 172.387 520.188 172.424L520.184 173.314ZM521.664 172.447L521.692 172.935C522.004 172.558 522.414 172.369 522.922 172.369C523.802 172.369 524.25 172.873 524.266 173.881V176.674H523.317V173.935C523.317 173.667 523.258 173.469 523.141 173.341C523.026 173.211 522.838 173.146 522.575 173.146C522.192 173.146 521.907 173.319 521.719 173.666V176.674H520.77V172.447H521.664ZM527.098 176.752C526.496 176.752 526.008 176.563 525.633 176.185C525.261 175.805 525.075 175.3 525.075 174.67V174.552C525.075 174.131 525.155 173.754 525.317 173.424C525.481 173.09 525.71 172.831 526.004 172.646C526.299 172.461 526.627 172.369 526.989 172.369C527.564 172.369 528.008 172.552 528.321 172.92C528.636 173.287 528.793 173.806 528.793 174.478V174.861H526.032C526.06 175.21 526.176 175.486 526.379 175.689C526.585 175.892 526.843 175.994 527.153 175.994C527.588 175.994 527.942 175.818 528.215 175.466L528.727 175.955C528.558 176.207 528.331 176.404 528.047 176.545C527.766 176.683 527.45 176.752 527.098 176.752ZM526.985 173.131C526.724 173.131 526.513 173.222 526.352 173.404C526.193 173.586 526.092 173.84 526.047 174.166H527.856V174.095C527.835 173.778 527.75 173.538 527.602 173.377C527.454 173.213 527.248 173.131 526.985 173.131ZM531.903 175.525C531.903 175.356 531.832 175.227 531.692 175.138C531.554 175.05 531.323 174.972 531 174.904C530.677 174.836 530.408 174.75 530.192 174.646C529.718 174.417 529.481 174.085 529.481 173.65C529.481 173.286 529.635 172.981 529.942 172.736C530.249 172.491 530.64 172.369 531.114 172.369C531.619 172.369 532.026 172.494 532.336 172.744C532.649 172.994 532.805 173.318 532.805 173.716H531.856C531.856 173.534 531.788 173.383 531.653 173.263C531.517 173.141 531.338 173.08 531.114 173.08C530.905 173.08 530.735 173.128 530.602 173.224C530.472 173.321 530.407 173.45 530.407 173.611C530.407 173.757 530.468 173.87 530.59 173.951C530.713 174.032 530.96 174.114 531.332 174.197C531.705 174.278 531.996 174.375 532.207 174.49C532.421 174.602 532.579 174.737 532.68 174.896C532.784 175.055 532.836 175.248 532.836 175.474C532.836 175.855 532.679 176.163 532.364 176.4C532.049 176.634 531.636 176.752 531.125 176.752C530.779 176.752 530.47 176.689 530.2 176.564C529.929 176.439 529.718 176.267 529.567 176.049C529.416 175.83 529.34 175.594 529.34 175.341H530.262C530.275 175.565 530.36 175.739 530.516 175.861C530.672 175.981 530.879 176.041 531.137 176.041C531.387 176.041 531.577 175.994 531.707 175.9C531.838 175.804 531.903 175.679 531.903 175.525Z" fill="#4D648D"/>
<path d="M574.625 175.209C574.625 174.959 574.537 174.766 574.36 174.631C574.185 174.495 573.869 174.358 573.411 174.22C572.952 174.082 572.588 173.929 572.317 173.759C571.799 173.434 571.539 173.009 571.539 172.486C571.539 172.028 571.726 171.65 572.098 171.353C572.473 171.056 572.959 170.908 573.555 170.908C573.951 170.908 574.304 170.981 574.614 171.127C574.924 171.272 575.167 171.481 575.344 171.752C575.521 172.02 575.61 172.318 575.61 172.646H574.625C574.625 172.349 574.532 172.118 574.344 171.951C574.159 171.782 573.894 171.697 573.547 171.697C573.224 171.697 572.973 171.766 572.793 171.904C572.616 172.042 572.528 172.235 572.528 172.482C572.528 172.69 572.624 172.865 572.817 173.006C573.01 173.144 573.327 173.279 573.77 173.412C574.213 173.542 574.568 173.692 574.836 173.861C575.105 174.028 575.301 174.22 575.426 174.439C575.551 174.655 575.614 174.909 575.614 175.201C575.614 175.675 575.431 176.052 575.067 176.334C574.705 176.612 574.213 176.752 573.59 176.752C573.179 176.752 572.8 176.676 572.454 176.525C572.11 176.371 571.842 176.161 571.649 175.892C571.459 175.624 571.364 175.312 571.364 174.955H572.352C572.352 175.278 572.459 175.528 572.672 175.705C572.886 175.882 573.192 175.97 573.59 175.97C573.934 175.97 574.192 175.901 574.364 175.763C574.538 175.623 574.625 175.438 574.625 175.209ZM578.914 176.674C578.873 176.593 578.836 176.461 578.805 176.279C578.503 176.594 578.133 176.752 577.696 176.752C577.271 176.752 576.925 176.631 576.657 176.388C576.388 176.146 576.254 175.847 576.254 175.49C576.254 175.039 576.421 174.694 576.754 174.455C577.09 174.213 577.569 174.091 578.192 174.091H578.774V173.814C578.774 173.595 578.713 173.421 578.59 173.291C578.468 173.158 578.282 173.091 578.032 173.091C577.816 173.091 577.638 173.146 577.5 173.256C577.362 173.362 577.293 173.499 577.293 173.666H576.344C576.344 173.434 576.421 173.218 576.575 173.017C576.728 172.814 576.937 172.655 577.2 172.541C577.465 172.426 577.761 172.369 578.086 172.369C578.581 172.369 578.976 172.494 579.27 172.744C579.564 172.991 579.715 173.34 579.723 173.791V175.697C579.723 176.077 579.776 176.381 579.883 176.607V176.674H578.914ZM577.872 175.99C578.059 175.99 578.235 175.944 578.399 175.853C578.566 175.762 578.691 175.64 578.774 175.486V174.689H578.262C577.911 174.689 577.646 174.75 577.469 174.873C577.292 174.995 577.204 175.168 577.204 175.392C577.204 175.575 577.263 175.72 577.383 175.83C577.506 175.937 577.668 175.99 577.872 175.99ZM578.399 170.674H579.481L578.399 171.857H577.637L578.399 170.674ZM584.426 174.603C584.426 175.259 584.279 175.782 583.985 176.17C583.693 176.558 583.291 176.752 582.778 176.752C582.283 176.752 581.898 176.573 581.622 176.216L581.575 176.674H580.715V170.674H581.664V172.853C581.938 172.53 582.306 172.369 582.77 172.369C583.286 172.369 583.691 172.56 583.985 172.943C584.279 173.326 584.426 173.861 584.426 174.549V174.603ZM583.477 174.521C583.477 174.063 583.396 173.719 583.235 173.49C583.073 173.261 582.839 173.146 582.532 173.146C582.12 173.146 581.831 173.326 581.664 173.685V175.427C581.834 175.795 582.125 175.978 582.539 175.978C582.836 175.978 583.066 175.868 583.227 175.646C583.388 175.425 583.472 175.09 583.477 174.642V174.521ZM587.75 176.674C587.709 176.593 587.672 176.461 587.641 176.279C587.339 176.594 586.969 176.752 586.532 176.752C586.107 176.752 585.761 176.631 585.493 176.388C585.224 176.146 585.09 175.847 585.09 175.49C585.09 175.039 585.257 174.694 585.59 174.455C585.926 174.213 586.405 174.091 587.028 174.091H587.61V173.814C587.61 173.595 587.549 173.421 587.426 173.291C587.304 173.158 587.118 173.091 586.868 173.091C586.651 173.091 586.474 173.146 586.336 173.256C586.198 173.362 586.129 173.499 586.129 173.666H585.18C585.18 173.434 585.257 173.218 585.411 173.017C585.564 172.814 585.773 172.655 586.036 172.541C586.301 172.426 586.597 172.369 586.922 172.369C587.417 172.369 587.812 172.494 588.106 172.744C588.4 172.991 588.551 173.34 588.559 173.791V175.697C588.559 176.077 588.612 176.381 588.719 176.607V176.674H587.75ZM586.707 175.99C586.895 175.99 587.071 175.944 587.235 175.853C587.401 175.762 587.526 175.64 587.61 175.486V174.689H587.098C586.747 174.689 586.482 174.75 586.305 174.873C586.128 174.995 586.039 175.168 586.039 175.392C586.039 175.575 586.099 175.72 586.219 175.83C586.342 175.937 586.504 175.99 586.707 175.99ZM589.375 174.529C589.375 173.878 589.526 173.356 589.829 172.963C590.131 172.567 590.536 172.369 591.043 172.369C591.491 172.369 591.853 172.525 592.129 172.838V170.674H593.079V176.674H592.219L592.172 176.236C591.888 176.58 591.51 176.752 591.036 176.752C590.541 176.752 590.14 176.552 589.832 176.154C589.528 175.756 589.375 175.214 589.375 174.529ZM590.325 174.611C590.325 175.041 590.407 175.377 590.571 175.619C590.737 175.858 590.973 175.978 591.278 175.978C591.666 175.978 591.95 175.805 592.129 175.459V173.654C591.955 173.315 591.674 173.146 591.286 173.146C590.978 173.146 590.741 173.269 590.575 173.513C590.408 173.756 590.325 174.121 590.325 174.611ZM593.891 174.521C593.891 174.107 593.973 173.735 594.137 173.404C594.301 173.071 594.532 172.815 594.829 172.638C595.125 172.459 595.467 172.369 595.852 172.369C596.422 172.369 596.885 172.552 597.239 172.92C597.595 173.287 597.788 173.774 597.817 174.381L597.821 174.603C597.821 175.02 597.74 175.392 597.579 175.72C597.42 176.049 597.191 176.302 596.891 176.482C596.594 176.662 596.25 176.752 595.86 176.752C595.263 176.752 594.786 176.554 594.426 176.158C594.069 175.759 593.891 175.23 593.891 174.568V174.521ZM594.84 174.603C594.84 175.038 594.93 175.379 595.11 175.627C595.289 175.871 595.539 175.994 595.86 175.994C596.18 175.994 596.429 175.869 596.606 175.619C596.786 175.369 596.875 175.003 596.875 174.521C596.875 174.094 596.783 173.756 596.598 173.506C596.416 173.256 596.167 173.131 595.852 173.131C595.542 173.131 595.296 173.254 595.114 173.502C594.931 173.746 594.84 174.114 594.84 174.603Z" fill="#4D648D"/>
<path d="M632.632 176.674V170.986H634.312C634.814 170.986 635.26 171.098 635.648 171.322C636.038 171.546 636.341 171.864 636.554 172.275C636.768 172.687 636.874 173.158 636.874 173.689V173.974C636.874 174.513 636.766 174.987 636.55 175.396C636.337 175.805 636.031 176.12 635.632 176.341C635.236 176.563 634.782 176.674 634.269 176.674H632.632ZM633.62 171.783V175.884H634.265C634.783 175.884 635.18 175.723 635.456 175.4C635.735 175.075 635.877 174.608 635.882 174.002V173.685C635.882 173.068 635.748 172.597 635.48 172.271C635.212 171.946 634.822 171.783 634.312 171.783H633.62ZM637.589 174.521C637.589 174.107 637.671 173.735 637.835 173.404C637.999 173.071 638.23 172.815 638.527 172.638C638.824 172.459 639.165 172.369 639.55 172.369C640.12 172.369 640.583 172.552 640.937 172.92C641.294 173.287 641.486 173.774 641.515 174.381L641.519 174.603C641.519 175.02 641.438 175.392 641.277 175.72C641.118 176.049 640.889 176.302 640.589 176.482C640.292 176.662 639.949 176.752 639.558 176.752C638.962 176.752 638.484 176.554 638.124 176.158C637.768 175.759 637.589 175.23 637.589 174.568V174.521ZM638.538 174.603C638.538 175.038 638.628 175.379 638.808 175.627C638.988 175.871 639.238 175.994 639.558 175.994C639.878 175.994 640.127 175.869 640.304 175.619C640.484 175.369 640.574 175.003 640.574 174.521C640.574 174.094 640.481 173.756 640.296 173.506C640.114 173.256 639.865 173.131 639.55 173.131C639.24 173.131 638.994 173.254 638.812 173.502C638.63 173.746 638.538 174.114 638.538 174.603ZM643.214 172.447L643.242 172.888C643.538 172.542 643.945 172.369 644.46 172.369C645.025 172.369 645.412 172.585 645.62 173.017C645.928 172.585 646.36 172.369 646.917 172.369C647.384 172.369 647.73 172.498 647.956 172.756C648.186 173.013 648.303 173.394 648.308 173.896V176.674H647.359V173.924C647.359 173.655 647.3 173.459 647.183 173.334C647.066 173.209 646.872 173.146 646.601 173.146C646.385 173.146 646.208 173.205 646.07 173.322C645.934 173.437 645.839 173.588 645.785 173.775L645.788 176.674H644.839V173.892C644.826 173.395 644.572 173.146 644.078 173.146C643.697 173.146 643.428 173.301 643.269 173.611V176.674H642.32V172.447H643.214ZM650.292 176.674H649.343V172.447H650.292V176.674ZM649.285 171.349C649.285 171.203 649.33 171.082 649.421 170.986C649.515 170.89 649.648 170.841 649.82 170.841C649.992 170.841 650.124 170.89 650.218 170.986C650.312 171.082 650.359 171.203 650.359 171.349C650.359 171.493 650.312 171.612 650.218 171.709C650.124 171.802 649.992 171.849 649.82 171.849C649.648 171.849 649.515 171.802 649.421 171.709C649.33 171.612 649.285 171.493 649.285 171.349ZM652.21 172.447L652.238 172.935C652.55 172.558 652.96 172.369 653.468 172.369C654.348 172.369 654.796 172.873 654.812 173.881V176.674H653.863V173.935C653.863 173.667 653.804 173.469 653.687 173.341C653.572 173.211 653.384 173.146 653.12 173.146C652.738 173.146 652.453 173.319 652.265 173.666V176.674H651.316V172.447H652.21ZM655.617 174.529C655.617 173.873 655.77 173.349 656.078 172.959C656.387 172.565 656.798 172.369 657.308 172.369C657.79 172.369 658.169 172.537 658.445 172.873L658.488 172.447H659.343V176.545C659.343 177.099 659.17 177.537 658.824 177.857C658.48 178.177 658.015 178.338 657.429 178.338C657.119 178.338 656.816 178.272 656.519 178.142C656.225 178.015 656.001 177.847 655.847 177.638L656.296 177.068C656.588 177.414 656.947 177.588 657.374 177.588C657.689 177.588 657.938 177.502 658.12 177.33C658.303 177.161 658.394 176.911 658.394 176.58V176.295C658.12 176.599 657.756 176.752 657.3 176.752C656.805 176.752 656.4 176.555 656.085 176.162C655.773 175.769 655.617 175.224 655.617 174.529ZM656.562 174.611C656.562 175.036 656.648 175.37 656.82 175.615C656.994 175.857 657.235 175.978 657.542 175.978C657.925 175.978 658.209 175.814 658.394 175.486V173.627C658.214 173.306 657.933 173.146 657.55 173.146C657.238 173.146 656.994 173.27 656.82 173.517C656.648 173.765 656.562 174.129 656.562 174.611ZM660.144 174.521C660.144 174.107 660.226 173.735 660.39 173.404C660.554 173.071 660.785 172.815 661.081 172.638C661.378 172.459 661.719 172.369 662.105 172.369C662.675 172.369 663.137 172.552 663.492 172.92C663.848 173.287 664.041 173.774 664.07 174.381L664.074 174.603C664.074 175.02 663.993 175.392 663.831 175.72C663.673 176.049 663.443 176.302 663.144 176.482C662.847 176.662 662.503 176.752 662.113 176.752C661.516 176.752 661.038 176.554 660.679 176.158C660.322 175.759 660.144 175.23 660.144 174.568V174.521ZM661.093 174.603C661.093 175.038 661.183 175.379 661.363 175.627C661.542 175.871 661.792 175.994 662.113 175.994C662.433 175.994 662.682 175.869 662.859 175.619C663.038 175.369 663.128 175.003 663.128 174.521C663.128 174.094 663.036 173.756 662.851 173.506C662.669 173.256 662.42 173.131 662.105 173.131C661.795 173.131 661.549 173.254 661.367 173.502C661.184 173.746 661.093 174.114 661.093 174.603Z" fill="#4D648D"/>
<path d="M376.561 170.986L378.201 175.345L379.838 170.986H381.115V176.674H380.131V174.799L380.229 172.291L378.549 176.674H377.842L376.166 172.295L376.264 174.799V176.674H375.279V170.986H376.561ZM383.205 176.674H382.256V172.447H383.205V176.674ZM382.197 171.349C382.197 171.203 382.243 171.082 382.334 170.986C382.428 170.89 382.561 170.841 382.733 170.841C382.904 170.841 383.037 170.89 383.131 170.986C383.225 171.082 383.272 171.203 383.272 171.349C383.272 171.493 383.225 171.612 383.131 171.709C383.037 171.802 382.904 171.849 382.733 171.849C382.561 171.849 382.428 171.802 382.334 171.709C382.243 171.612 382.197 171.493 382.197 171.349ZM386.104 176.752C385.502 176.752 385.014 176.563 384.639 176.185C384.266 175.805 384.08 175.3 384.08 174.67V174.552C384.08 174.131 384.161 173.754 384.322 173.424C384.486 173.09 384.716 172.831 385.01 172.646C385.304 172.461 385.632 172.369 385.994 172.369C386.57 172.369 387.014 172.552 387.326 172.92C387.641 173.287 387.799 173.806 387.799 174.478V174.861H385.037C385.066 175.21 385.182 175.486 385.385 175.689C385.591 175.892 385.848 175.994 386.158 175.994C386.593 175.994 386.947 175.818 387.221 175.466L387.733 175.955C387.563 176.207 387.337 176.404 387.053 176.545C386.772 176.683 386.455 176.752 386.104 176.752ZM385.99 173.131C385.73 173.131 385.519 173.222 385.358 173.404C385.199 173.586 385.097 173.84 385.053 174.166H386.861V174.095C386.841 173.778 386.756 173.538 386.608 173.377C386.459 173.213 386.253 173.131 385.99 173.131ZM390.752 173.314C390.627 173.293 390.498 173.283 390.365 173.283C389.93 173.283 389.637 173.45 389.486 173.783V176.674H388.537V172.447H389.443L389.467 172.92C389.696 172.552 390.014 172.369 390.42 172.369C390.555 172.369 390.667 172.387 390.756 172.424L390.752 173.314ZM393.01 175.994C393.247 175.994 393.443 175.925 393.6 175.787C393.756 175.649 393.839 175.478 393.85 175.275H394.744C394.734 175.538 394.652 175.784 394.498 176.013C394.345 176.24 394.136 176.42 393.873 176.552C393.61 176.685 393.326 176.752 393.022 176.752C392.43 176.752 391.962 176.56 391.615 176.177C391.269 175.795 391.096 175.266 391.096 174.591V174.494C391.096 173.851 391.268 173.336 391.611 172.951C391.955 172.563 392.424 172.369 393.018 172.369C393.52 172.369 393.929 172.516 394.244 172.81C394.562 173.102 394.729 173.486 394.744 173.963H393.85C393.839 173.72 393.756 173.521 393.6 173.365C393.446 173.209 393.249 173.131 393.01 173.131C392.703 173.131 392.466 173.243 392.299 173.466C392.132 173.688 392.048 174.025 392.045 174.478V174.631C392.045 175.089 392.127 175.431 392.291 175.658C392.458 175.882 392.697 175.994 393.01 175.994ZM395.283 174.521C395.283 174.107 395.365 173.735 395.529 173.404C395.693 173.071 395.924 172.815 396.221 172.638C396.518 172.459 396.859 172.369 397.244 172.369C397.815 172.369 398.277 172.552 398.631 172.92C398.988 173.287 399.18 173.774 399.209 174.381L399.213 174.603C399.213 175.02 399.132 175.392 398.971 175.72C398.812 176.049 398.583 176.302 398.283 176.482C397.986 176.662 397.643 176.752 397.252 176.752C396.656 176.752 396.178 176.554 395.818 176.158C395.462 175.759 395.283 175.23 395.283 174.568V174.521ZM396.233 174.603C396.233 175.038 396.322 175.379 396.502 175.627C396.682 175.871 396.932 175.994 397.252 175.994C397.572 175.994 397.821 175.869 397.998 175.619C398.178 175.369 398.268 175.003 398.268 174.521C398.268 174.094 398.175 173.756 397.99 173.506C397.808 173.256 397.559 173.131 397.244 173.131C396.934 173.131 396.688 173.254 396.506 173.502C396.324 173.746 396.233 174.114 396.233 174.603ZM401.026 176.674H400.076V170.674H401.026V176.674ZM403.924 176.752C403.322 176.752 402.834 176.563 402.459 176.185C402.087 175.805 401.901 175.3 401.901 174.67V174.552C401.901 174.131 401.981 173.754 402.143 173.424C402.307 173.09 402.536 172.831 402.83 172.646C403.124 172.461 403.453 172.369 403.815 172.369C404.39 172.369 404.834 172.552 405.147 172.92C405.462 173.287 405.619 173.806 405.619 174.478V174.861H402.858C402.886 175.21 403.002 175.486 403.205 175.689C403.411 175.892 403.669 175.994 403.979 175.994C404.414 175.994 404.768 175.818 405.041 175.466L405.553 175.955C405.384 176.207 405.157 176.404 404.873 176.545C404.592 176.683 404.276 176.752 403.924 176.752ZM403.811 173.131C403.55 173.131 403.339 173.222 403.178 173.404C403.019 173.586 402.917 173.84 402.873 174.166H404.682V174.095C404.661 173.778 404.576 173.538 404.428 173.377C404.279 173.213 404.074 173.131 403.811 173.131ZM408.729 175.525C408.729 175.356 408.658 175.227 408.518 175.138C408.38 175.05 408.149 174.972 407.826 174.904C407.503 174.836 407.234 174.75 407.018 174.646C406.544 174.417 406.307 174.085 406.307 173.65C406.307 173.286 406.46 172.981 406.768 172.736C407.075 172.491 407.466 172.369 407.94 172.369C408.445 172.369 408.852 172.494 409.162 172.744C409.475 172.994 409.631 173.318 409.631 173.716H408.682C408.682 173.534 408.614 173.383 408.479 173.263C408.343 173.141 408.164 173.08 407.94 173.08C407.731 173.08 407.561 173.128 407.428 173.224C407.298 173.321 407.233 173.45 407.233 173.611C407.233 173.757 407.294 173.87 407.416 173.951C407.539 174.032 407.786 174.114 408.158 174.197C408.531 174.278 408.822 174.375 409.033 174.49C409.247 174.602 409.404 174.737 409.506 174.896C409.61 175.055 409.662 175.248 409.662 175.474C409.662 175.855 409.505 176.163 409.19 176.4C408.874 176.634 408.462 176.752 407.951 176.752C407.605 176.752 407.296 176.689 407.026 176.564C406.755 176.439 406.544 176.267 406.393 176.049C406.242 175.83 406.166 175.594 406.166 175.341H407.088C407.101 175.565 407.186 175.739 407.342 175.861C407.498 175.981 407.705 176.041 407.963 176.041C408.213 176.041 408.403 175.994 408.533 175.9C408.664 175.804 408.729 175.679 408.729 175.525Z" fill="white"/>
<rect x="219.67" y="195.512" width="13.4361" height="9.30191" rx="4.65096" fill="#E2E9FF"/>
<rect x="219.67" y="223.418" width="13.4361" height="9.30191" rx="4.65096" fill="#E2E9FF"/>
<rect x="219.67" y="249.257" width="13.4361" height="9.30191" rx="4.65096" fill="#E2E9FF"/>
<rect x="219.67" y="278.196" width="13.4361" height="9.30191" rx="4.65096" fill="#E2E9FF"/>
<rect x="219.67" y="304.034" width="13.4361" height="9.30191" rx="4.65096" fill="#E2E9FF"/>
<rect x="219.67" y="328.84" width="13.4361" height="9.30191" rx="4.65096" fill="#E2E9FF"/>
<rect x="219.67" y="357.779" width="13.4361" height="10.3355" rx="5.16773" fill="#E2E9FF"/>
<rect x="219.67" y="383.617" width="13.4361" height="9.30191" rx="4.65096" fill="#E2E9FF"/>
<rect x="386.07" y="140.734" width="126.093" height="9.30191" rx="4.65096" fill="#E2E9FF"/>
<rect x="219.67" y="140.734" width="55.8115" height="9.30191" rx="4.65096" fill="#E2E9FF"/>
<rect x="89.534" y="142.998" width="64.0857" height="9.77579" rx="4.8879" fill="#E2E9FF"/>
<rect x="396.406" y="105.594" width="70.2811" height="9.30191" rx="4.65096" fill="#B1C5FF"/>
<rect x="299.252" y="105.594" width="63.0463" height="9.30191" rx="4.65096" fill="#B1C5FF"/>
<rect x="495.626" y="105.594" width="64.0798" height="9.30191" rx="4.65096" fill="#B1C5FF"/>
<rect x="592.779" y="105.594" width="62.0127" height="9.30191" rx="4.65096" fill="#B1C5FF"/>
<rect x="77.0433" y="322.764" width="70.6029" height="9.77577" rx="4.88789" fill="#E2E9FF"/>
<rect x="77.0433" y="339.6" width="70.6029" height="9.7758" rx="4.8879" fill="#E2E9FF"/>
<rect x="77.0433" y="356.436" width="70.6029" height="9.77582" rx="4.88791" fill="#E2E9FF"/>
<rect x="77.0433" y="373.273" width="70.6029" height="9.77582" rx="4.88791" fill="#E2E9FF"/>
<rect x="77.0433" y="390.109" width="70.6029" height="9.77582" rx="4.88791" fill="#E2E9FF"/>
<ellipse cx="101.482" cy="223.92" rx="5.9741" ry="5.9741" fill="#7093FF"/>
<path d="M101.539 226.48H97.7152V225.828L99.6097 223.761C99.8831 223.456 100.077 223.203 100.192 222.999C100.309 222.794 100.368 222.588 100.368 222.382C100.368 222.111 100.291 221.893 100.137 221.726C99.986 221.559 99.7816 221.476 99.5238 221.476C99.2165 221.476 98.9782 221.57 98.8089 221.757C98.6396 221.945 98.555 222.201 98.555 222.527H97.6058C97.6058 222.18 97.6839 221.869 97.8402 221.593C97.999 221.314 98.2243 221.098 98.5159 220.945C98.8102 220.791 99.1488 220.714 99.5316 220.714C100.084 220.714 100.519 220.854 100.836 221.132C101.157 221.408 101.317 221.791 101.317 222.281C101.317 222.564 101.236 222.863 101.075 223.175C100.916 223.485 100.654 223.838 100.289 224.234L98.8988 225.722H101.539V226.48ZM106.086 226.48H102.262V225.828L104.157 223.761C104.43 223.456 104.624 223.203 104.739 222.999C104.856 222.794 104.914 222.588 104.914 222.382C104.914 222.111 104.838 221.893 104.684 221.726C104.533 221.559 104.328 221.476 104.071 221.476C103.763 221.476 103.525 221.57 103.356 221.757C103.187 221.945 103.102 222.201 103.102 222.527H102.153C102.153 222.18 102.231 221.869 102.387 221.593C102.546 221.314 102.771 221.098 103.063 220.945C103.357 220.791 103.696 220.714 104.078 220.714C104.631 220.714 105.065 220.854 105.383 221.132C105.703 221.408 105.864 221.791 105.864 222.281C105.864 222.564 105.783 222.863 105.621 223.175C105.463 223.485 105.201 223.838 104.836 224.234L103.446 225.722H106.086V226.48Z" fill="white"/>
<circle cx="32" cy="20" r="5" fill="#B8CDEB" fill-opacity="0.7"/>
<circle cx="49" cy="20" r="5" fill="#B8CDEB" fill-opacity="0.7"/>
<circle cx="66" cy="20" r="5" fill="#B8CDEB" fill-opacity="0.7"/>
<defs>
<linearGradient id="paint0_linear" x1="369" y1="0" x2="123.515" y2="427.709" gradientUnits="userSpaceOnUse">
<stop stop-color="#FDFDFF"/>
<stop offset="1" stop-color="white"/>
</linearGradient>
<linearGradient id="paint1_linear" x1="26.3537" y1="37.1791" x2="395.304" y2="648.225" gradientUnits="userSpaceOnUse">
<stop stop-color="#7DB8FF"/>
<stop offset="0.0621" stop-color="#7CB6FF"/>
<stop offset="1" stop-color="#7194FF"/>
</linearGradient>
<linearGradient id="paint2_linear" x1="7.51179" y1="109.963" x2="184.838" y2="145.147" gradientUnits="userSpaceOnUse">
<stop stop-color="#A1C0FF"/>
<stop offset="1" stop-color="#7093FF"/>
</linearGradient>
<linearGradient id="paint3_linear" x1="158.71" y1="109.96" x2="375.581" y2="163.703" gradientUnits="userSpaceOnUse">
<stop stop-color="#A1C0FF"/>
<stop offset="1" stop-color="#7093FF"/>
</linearGradient>
<clipPath id="clip0">
<rect width="14.0561" height="16.2755" fill="white" transform="translate(675.752 46.6428)"/>
</clipPath>
</defs>
</svg>
