<svg width="552" height="751" viewBox="0 0 552 751" fill="none" xmlns="http://www.w3.org/2000/svg">
<path d="M376.035 750.889H135.068C115.523 750.889 102.365 735.044 105.679 715.498L202.728 143.147C206.042 123.602 224.574 107.757 244.119 107.757H485.085C504.631 107.757 517.789 123.602 514.475 143.147L417.426 715.498C414.112 735.044 395.58 750.889 376.035 750.889Z" fill="#3D4CDF"/>
<path d="M345.938 750.889H104.971C85.4259 750.889 72.2669 735.044 75.5819 715.498L172.631 143.147C175.945 123.602 194.476 107.757 214.022 107.757H454.988C474.534 107.757 487.692 123.602 484.378 143.147L387.329 715.498C384.015 735.044 365.483 750.889 345.938 750.889Z" fill="#D1E8F7"/>
<path d="M347.323 731.754H110.075C99.9261 731.754 93.0941 723.527 94.8151 713.378L191.145 145.268C192.866 135.119 202.488 126.892 212.637 126.892H449.885C460.034 126.892 466.866 135.119 465.145 145.268L368.815 713.378C367.094 723.527 357.472 731.754 347.323 731.754Z" fill="white"/>
<path d="M369.779 318.307H142.93L166.573 187.691C168.122 179.727 175.834 173.271 183.797 173.271H397.987C405.951 173.271 411.151 179.727 409.602 187.691L387.003 303.887C385.454 311.851 377.743 318.307 369.779 318.307Z" fill="url(#paint0_linear_579_3426)"/>
<path d="M351.495 301.5H11.888C3.92398 301.5 -1.27601 295.044 0.272991 287.08L22.872 170.885C24.421 162.921 32.132 156.465 40.096 156.465H379.702C387.666 156.465 392.867 162.921 391.318 170.885L368.719 287.08C367.17 295.044 359.458 301.5 351.495 301.5Z" fill="#FEBB94"/>
<path d="M329.828 716.943L119.196 717.943C111.232 717.943 106.032 711.487 107.581 703.523L130.18 587.327C131.729 579.363 139.44 572.907 147.404 572.907L358.036 571.907C365.999 571.907 371.2 578.363 369.651 586.327L347.052 702.523C345.503 710.487 337.791 716.943 329.828 716.943Z" fill="#FEBB94"/>
<path d="M142.361 681.756C148.355 634.878 192.895 596.877 241.845 596.877C290.794 596.877 325.618 634.878 319.624 681.756" stroke="#FF967C" stroke-width="16.5208" stroke-miterlimit="10" stroke-linecap="round"/>
<path d="M142.361 681.756C148.355 634.878 192.895 596.877 241.845 596.877C266.072 596.877 286.838 606.186 300.909 621.273" stroke="white" stroke-width="16.5208" stroke-miterlimit="10" stroke-linecap="round"/>
<path d="M304.64 555.479H153.822C145.772 555.479 140.331 548.953 141.67 540.903L173.522 349.311C174.86 341.261 182.471 334.735 190.52 334.735H341.338C349.388 334.735 354.829 341.261 353.491 349.311L321.638 540.903C320.3 548.953 312.69 555.479 304.64 555.479Z" fill="url(#paint1_linear_579_3426)"/>
<path d="M200.264 436.052H179.701C178.57 436.09 177.485 436.512 176.626 437.249C175.767 437.985 175.184 438.993 174.974 440.105L163.806 507.282C163.697 507.779 163.704 508.295 163.825 508.789C163.946 509.284 164.179 509.744 164.505 510.135C164.831 510.526 165.242 510.837 165.706 511.045C166.171 511.253 166.676 511.353 167.185 511.336H187.748C188.879 511.297 189.964 510.875 190.823 510.138C191.683 509.402 192.265 508.394 192.476 507.282L203.644 440.105C203.752 439.608 203.745 439.092 203.624 438.598C203.503 438.104 203.27 437.643 202.944 437.253C202.618 436.862 202.208 436.55 201.743 436.342C201.279 436.134 200.773 436.035 200.264 436.052Z" fill="white"/>
<path d="M237.782 459.036H217.219C216.087 459.074 215.003 459.496 214.144 460.233C213.284 460.97 212.702 461.977 212.491 463.09L205.144 507.282C205.036 507.779 205.043 508.295 205.164 508.789C205.285 509.283 205.518 509.744 205.844 510.135C206.17 510.525 206.58 510.837 207.045 511.045C207.509 511.253 208.015 511.352 208.524 511.335H229.087C230.218 511.297 231.303 510.875 232.162 510.138C233.021 509.402 233.604 508.394 233.814 507.282L241.161 463.09C241.269 462.592 241.263 462.077 241.142 461.582C241.02 461.088 240.788 460.628 240.462 460.237C240.136 459.846 239.725 459.535 239.261 459.327C238.796 459.118 238.29 459.019 237.782 459.036Z" fill="white"/>
<path d="M287.447 394.367H266.884C265.753 394.405 264.669 394.827 263.809 395.564C262.95 396.301 262.367 397.308 262.157 398.421L244.059 507.282C243.951 507.78 243.957 508.295 244.078 508.789C244.2 509.284 244.432 509.744 244.758 510.135C245.084 510.526 245.495 510.837 245.959 511.045C246.424 511.253 246.93 511.353 247.438 511.336H268.001C269.133 511.298 270.217 510.875 271.076 510.139C271.936 509.402 272.518 508.394 272.729 507.282L290.827 398.421C290.935 397.923 290.928 397.408 290.807 396.913C290.686 396.419 290.454 395.959 290.128 395.568C289.802 395.177 289.391 394.866 288.926 394.658C288.462 394.45 287.956 394.35 287.447 394.367Z" fill="white"/>
<path d="M322.833 422.586H302.27C301.139 422.624 300.054 423.046 299.195 423.783C298.336 424.52 297.753 425.527 297.543 426.639L284.136 507.282C284.028 507.779 284.034 508.295 284.156 508.789C284.277 509.283 284.509 509.744 284.835 510.134C285.161 510.525 285.572 510.837 286.036 511.045C286.501 511.253 287.007 511.352 287.515 511.335H308.078C309.21 511.297 310.294 510.875 311.153 510.138C312.013 509.402 312.595 508.394 312.806 507.282L326.213 426.639C326.321 426.142 326.314 425.627 326.193 425.132C326.072 424.638 325.839 424.178 325.513 423.787C325.187 423.396 324.776 423.084 324.312 422.876C323.848 422.668 323.342 422.569 322.833 422.586Z" fill="white"/>
<path d="M188.573 358.306H244.246" stroke="white" stroke-width="10" stroke-miterlimit="10" stroke-linecap="round"/>
<path d="M185.43 377.21H213.267" stroke="white" stroke-width="10" stroke-miterlimit="10" stroke-linecap="round"/>
<path opacity="0.6" d="M169.807 525.024H180.575" stroke="white" stroke-width="6" stroke-miterlimit="10" stroke-linecap="round"/>
<path opacity="0.6" d="M211.146 525.024H221.913" stroke="white" stroke-width="6" stroke-miterlimit="10" stroke-linecap="round"/>
<path opacity="0.6" d="M250.06 525.024H260.828" stroke="white" stroke-width="6" stroke-miterlimit="10" stroke-linecap="round"/>
<path opacity="0.6" d="M290.137 525.024H300.905" stroke="white" stroke-width="6" stroke-miterlimit="10" stroke-linecap="round"/>
<path d="M502.47 555.479H351.653C343.603 555.479 338.162 548.953 339.5 540.903L371.353 349.311C372.691 341.261 380.301 334.735 388.351 334.735H539.169C547.219 334.735 552.66 341.261 551.321 349.311L519.469 540.903C518.131 548.953 510.52 555.479 502.47 555.479Z" fill="url(#paint2_linear_579_3426)"/>
<path d="M394.188 464.934H373.625C372.494 464.972 371.409 465.394 370.55 466.131C369.691 466.867 369.108 467.875 368.898 468.987L361.636 507.282C361.528 507.779 361.535 508.294 361.656 508.789C361.777 509.283 362.01 509.743 362.336 510.134C362.661 510.525 363.072 510.836 363.537 511.045C364.001 511.253 364.507 511.352 365.016 511.335H385.579C386.71 511.297 387.795 510.875 388.654 510.138C389.513 509.401 390.096 508.394 390.306 507.282L397.568 468.987C397.676 468.49 397.669 467.974 397.548 467.48C397.427 466.985 397.194 466.525 396.868 466.134C396.542 465.744 396.131 465.432 395.667 465.224C395.202 465.016 394.697 464.917 394.188 464.934Z" fill="white"/>
<path d="M443.378 405.635H422.815C421.684 405.673 420.6 406.095 419.74 406.832C418.881 407.568 418.298 408.576 418.088 409.688L402.975 507.282C402.867 507.779 402.874 508.294 402.995 508.789C403.116 509.283 403.348 509.743 403.674 510.134C404 510.525 404.411 510.836 404.876 511.045C405.34 511.253 405.846 511.352 406.355 511.335H426.918C428.049 511.297 429.133 510.875 429.993 510.138C430.852 509.401 431.435 508.394 431.645 507.282L446.758 409.688C446.866 409.191 446.859 408.675 446.738 408.181C446.617 407.687 446.385 407.226 446.059 406.836C445.733 406.445 445.322 406.133 444.857 405.925C444.393 405.717 443.887 405.618 443.378 405.635Z" fill="white"/>
<path d="M478.474 433.5H457.911C456.78 433.538 455.695 433.96 454.836 434.697C453.977 435.434 453.394 436.441 453.184 437.553L441.889 507.282C441.781 507.779 441.788 508.295 441.909 508.789C442.03 509.283 442.263 509.744 442.589 510.134C442.915 510.525 443.325 510.837 443.79 511.045C444.254 511.253 444.76 511.352 445.269 511.335H465.832C466.963 511.297 468.048 510.875 468.907 510.138C469.766 509.402 470.349 508.394 470.559 507.282L481.854 437.553C481.962 437.056 481.955 436.541 481.834 436.046C481.713 435.552 481.481 435.092 481.155 434.701C480.829 434.31 480.418 433.999 479.953 433.79C479.489 433.582 478.983 433.483 478.474 433.5Z" fill="white"/>
<path d="M520.664 422.586H500.101C498.969 422.624 497.885 423.046 497.026 423.783C496.166 424.52 495.584 425.527 495.373 426.639L481.966 507.282C481.858 507.779 481.865 508.295 481.986 508.789C482.107 509.283 482.34 509.744 482.666 510.134C482.992 510.525 483.403 510.837 483.867 511.045C484.331 511.253 484.837 511.352 485.346 511.335H505.909C507.04 511.297 508.125 510.875 508.984 510.138C509.843 509.402 510.426 508.394 510.636 507.282L524.043 426.639C524.151 426.142 524.145 425.627 524.023 425.132C523.902 424.638 523.67 424.178 523.344 423.787C523.018 423.396 522.607 423.084 522.143 422.876C521.678 422.668 521.172 422.569 520.664 422.586Z" fill="white"/>
<path d="M386.403 358.306H442.077" stroke="white" stroke-width="10" stroke-miterlimit="10" stroke-linecap="round"/>
<path d="M383.261 377.21H411.097" stroke="white" stroke-width="10" stroke-miterlimit="10" stroke-linecap="round"/>
<path opacity="0.6" d="M367.638 525.024H378.405" stroke="white" stroke-width="6" stroke-miterlimit="10" stroke-linecap="round"/>
<path opacity="0.6" d="M408.976 525.024H419.744" stroke="white" stroke-width="6" stroke-miterlimit="10" stroke-linecap="round"/>
<path opacity="0.6" d="M447.891 525.024H458.658" stroke="white" stroke-width="6" stroke-miterlimit="10" stroke-linecap="round"/>
<path d="M171.129 248.068C171.129 248.068 188.595 244.389 194.135 252.883C199.675 261.377 205.214 277.334 217.771 275.265C230.328 273.196 239.931 231.462 252.488 231.832C265.045 232.201 259.505 259.531 273.17 259.9C286.835 260.269 283.511 244.758 294.591 244.758C305.671 244.758 301.977 277.997 316.381 278.366C330.784 278.736 329.307 235.525 351.097 236.263" stroke="white" stroke-width="5" stroke-miterlimit="10" stroke-linecap="round"/>
<path d="M120.143 242.326C129.038 220.477 120.474 196.343 101.015 188.421C81.5562 180.499 58.5712 191.789 49.6762 213.638C40.7812 235.487 49.3452 259.621 68.8042 267.543C88.2632 275.465 111.249 264.175 120.143 242.326Z" stroke="#FF967C" stroke-width="16.5208" stroke-miterlimit="10" stroke-linecap="round"/>
<path d="M103.028 263.468C92.7612 270.24 80.1802 272.175 68.8042 267.543C49.3452 259.621 40.7812 235.487 49.6762 213.638C58.5712 191.789 81.5562 180.499 101.015 188.421" stroke="white" stroke-width="16.5208" stroke-miterlimit="10" stroke-linecap="round"/>
<path d="M184.257 185.89H261.113" stroke="white" stroke-width="10" stroke-miterlimit="10" stroke-linecap="round"/>
<path opacity="0.6" d="M180.615 207.088H211.884" stroke="white" stroke-width="10" stroke-miterlimit="10" stroke-linecap="round"/>
<path d="M226.539 678.332H250.06" stroke="white" stroke-width="5" stroke-miterlimit="10" stroke-linecap="round"/>
<path opacity="0.5" d="M231.328 688.539H243.089" stroke="white" stroke-width="5" stroke-miterlimit="10" stroke-linecap="round"/>
<path d="M210.873 657.953L228.92 645.368L241.633 653.834L258.553 641.58" stroke="white" stroke-width="6.50414" stroke-linecap="round" stroke-linejoin="round"/>
<path d="M245.545 636.239H263.544V654.049" stroke="white" stroke-width="6.50414" stroke-linecap="round" stroke-linejoin="round"/>
<path d="M458.655 83.2382H388.9C388.047 83.2702 387.199 83.1042 386.422 82.7502C385.645 82.3972 384.962 81.8662 384.427 81.2022C383.891 80.5372 383.519 79.7572 383.339 78.9222C383.159 78.0882 383.176 77.2232 383.39 76.3972L394.11 21.2772C394.523 19.3932 395.55 17.7002 397.028 16.4622C398.507 15.2242 400.354 14.5122 402.281 14.4372H472.036C472.888 14.4042 473.737 14.5712 474.514 14.9242C475.291 15.2782 475.974 15.8082 476.509 16.4732C477.045 17.1372 477.417 17.9182 477.597 18.7522C477.777 19.5862 477.759 20.4512 477.546 21.2772L466.825 76.3972C466.412 78.2812 465.386 79.9742 463.908 81.2122C462.429 82.4502 460.581 83.1622 458.655 83.2382Z" fill="#3D4CDF"/>
<path d="M410.808 29.3438L457.255 29.3528C457.588 29.3378 457.92 29.4008 458.225 29.5358C458.53 29.6718 458.799 29.8748 459.012 30.1318C459.225 30.3888 459.375 30.6908 459.452 31.0158C459.528 31.3398 459.528 31.6778 459.452 32.0028L458.816 35.4788C458.71 35.9848 458.488 36.4588 458.168 36.8638C457.848 37.2688 457.438 37.5948 456.971 37.8158L431.525 50.0628C431.131 50.2708 430.692 50.3788 430.247 50.3758C429.802 50.3728 429.364 50.2598 428.973 50.0478L408.039 37.4297C407.657 37.1897 407.358 36.8378 407.185 36.4218C407.012 36.0058 406.973 35.5458 407.073 35.1068L407.643 31.9928C407.798 31.2608 408.194 30.6018 408.768 30.1208C409.342 29.6408 410.06 29.3668 410.808 29.3438Z" fill="white"/>
<path d="M408.503 42.0052L428.529 54.5672C428.801 54.7202 429.108 54.8012 429.42 54.8012C429.732 54.8012 430.039 54.7212 430.311 54.5682L454.93 42.0142C456.254 41.3392 457.588 42.1962 457.339 43.5612L453.679 63.5712C453.4 64.8862 452.688 66.0702 451.657 66.9332C450.626 67.7962 449.335 68.2882 447.991 68.3302L405.817 68.3222C405.218 68.3482 404.622 68.2352 404.074 67.9922C403.527 67.7492 403.043 67.3832 402.661 66.9222C402.278 66.4612 402.008 65.9172 401.871 65.3342C401.733 64.7512 401.733 64.1442 401.87 63.5612L405.529 43.5512C405.586 43.2322 405.716 42.9312 405.908 42.6702C406.1 42.4092 406.349 42.1962 406.636 42.0472C406.924 41.8982 407.241 41.8162 407.565 41.8092C407.889 41.8022 408.21 41.8692 408.503 42.0052Z" fill="white"/>
<path d="M474.446 28.874C482.42 28.874 488.883 22.41 488.883 14.437C488.883 6.464 482.42 0 474.446 0C466.473 0 460.01 6.464 460.01 14.437C460.01 22.41 466.473 28.874 474.446 28.874Z" fill="#FF967C"/>
<defs>
<linearGradient id="paint0_linear_579_3426" x1="269.757" y1="172.927" x2="288.02" y2="482.972" gradientUnits="userSpaceOnUse">
<stop stop-color="white"/>
<stop offset="1" stop-color="#94B9FF"/>
</linearGradient>
<linearGradient id="paint1_linear_579_3426" x1="223.011" y1="264.5" x2="299.442" y2="800.254" gradientUnits="userSpaceOnUse">
<stop stop-color="white"/>
<stop offset="1" stop-color="#94B9FF"/>
</linearGradient>
<linearGradient id="paint2_linear_579_3426" x1="420.842" y1="264.5" x2="497.272" y2="800.254" gradientUnits="userSpaceOnUse">
<stop stop-color="white"/>
<stop offset="1" stop-color="#94B9FF"/>
</linearGradient>
</defs>
</svg>
