<svg id="Capa_1" data-name="Capa 1" xmlns="http://www.w3.org/2000/svg" xmlns:xlink="http://www.w3.org/1999/xlink" viewBox="0 0 680 495"><defs><style>.cls-1,.cls-16{fill:none;}.cls-2{opacity:0.7;}.cls-3{fill:#7093ff;}.cls-4{fill:#70d4ff;}.cls-5{fill:#70d3ff;}.cls-6{fill:#70ccff;}.cls-7{clip-path:url(#clip-path);}.cls-40,.cls-8{fill:#fff;}.cls-9{clip-path:url(#clip-path-2);}.cls-10{opacity:0.2;}.cls-11{fill:#dee5f4;}.cls-12{fill:#9ab1bc;}.cls-13{fill:#7a8e96;}.cls-14{fill:#00793b;}.cls-15{fill:#07602f;}.cls-16{stroke:#2e3641;stroke-linejoin:round;stroke-width:3px;}.cls-17{fill:#2e3641;}.cls-18{fill:#2b588d;}.cls-19{fill:#4487d4;}.cls-20{fill:#777;}.cls-21{fill:#1a1a1a;}.cls-22{fill:#3d7fc1;}.cls-23{fill:#2b2d32;}.cls-24{fill:#525661;}.cls-25{fill:#d8d6d6;}.cls-26{fill:#26252b;}.cls-27{fill:#0b2e34;}.cls-28{fill:#f9beb6;}.cls-29{fill:#f7acac;}.cls-30{fill:#ededed;}.cls-31{fill:#a55f4a;}.cls-32{fill:#7f5045;}.cls-33{fill:#4c3631;}.cls-34{fill:#827d71;}.cls-35{fill:#32333e;}.cls-36{fill:#292929;}.cls-37{fill:#3c3d4a;}.cls-38{fill:#cfd0d2;}.cls-39{fill:#bbbcbe;}.cls-40,.cls-52{opacity:0.8;}.cls-40{isolation:isolate;}.cls-41{fill:#1487e3;}.cls-42{fill:#7194ff;}.cls-43,.cls-54{fill:#4d648d;}.cls-44{fill:#b2d0e9;}.cls-45{fill:#a1c0ff;}.cls-46{fill:#b8cdeb;}.cls-47{fill:#4aafff;}.cls-48{fill:#e0e0e0;}.cls-49{opacity:0.4;}.cls-50{fill:url(#Degradado_sin_nombre_7);}.cls-51{fill:url(#Degradado_sin_nombre_7-2);}.cls-53{fill:url(#Degradado_sin_nombre_3);}.cls-54,.cls-55,.cls-56,.cls-57{fill-rule:evenodd;}.cls-55{fill:url(#Degradado_sin_nombre_6);}.cls-56{fill:url(#Degradado_sin_nombre_6-2);}.cls-57{fill:url(#Degradado_sin_nombre_6-3);}.cls-58{fill:url(#Degradado_sin_nombre_7-3);}</style><clipPath id="clip-path"><rect class="cls-1" x="357.06" y="38.69" width="267" height="157"/></clipPath><clipPath id="clip-path-2"><rect class="cls-1" x="185.06" y="35.69" width="294" height="323.61"/></clipPath><linearGradient id="Degradado_sin_nombre_7" x1="155.4" y1="619.32" x2="155.4" y2="698.53" gradientTransform="translate(0 -440)" gradientUnits="userSpaceOnUse"><stop offset="0" stop-color="#fff" stop-opacity="0.84"/><stop offset="1" stop-color="#fff" stop-opacity="0"/></linearGradient><linearGradient id="Degradado_sin_nombre_7-2" x1="180.28" y1="630.08" x2="180.28" y2="684.41" xlink:href="#Degradado_sin_nombre_7"/><linearGradient id="Degradado_sin_nombre_3" x1="567.22" y1="721.38" x2="622.65" y2="777.92" gradientTransform="translate(0 -440)" gradientUnits="userSpaceOnUse"><stop offset="0" stop-color="#fff"/><stop offset="1" stop-color="#edf3fc"/></linearGradient><linearGradient id="Degradado_sin_nombre_6" x1="537.69" y1="681.83" x2="538.89" y2="684.34" gradientTransform="translate(0 -440)" gradientUnits="userSpaceOnUse"><stop offset="0" stop-color="#7093ff"/><stop offset="1" stop-color="#243f6d"/></linearGradient><linearGradient id="Degradado_sin_nombre_6-2" x1="540.7" y1="681.04" x2="542.09" y2="683.82" xlink:href="#Degradado_sin_nombre_6"/><linearGradient id="Degradado_sin_nombre_6-3" x1="543.76" y1="680.44" x2="545.31" y2="683.46" xlink:href="#Degradado_sin_nombre_6"/><linearGradient id="Degradado_sin_nombre_7-3" x1="567.73" y1="765.16" x2="567.73" y2="827.97" xlink:href="#Degradado_sin_nombre_7"/></defs><title>IMG-Gerente de Finanzas</title><g class="cls-2"><path class="cls-3" d="M180.76,259.88c.67.38.69,1,.08,1.36a2.59,2.59,0,0,1-2.36,0c-.67-.38-.7-1-.08-1.36A2.59,2.59,0,0,1,180.76,259.88Z"/><path class="cls-3" d="M197.68,269.62c.67.38.69,1,.08,1.36a2.59,2.59,0,0,1-2.36,0c-.67-.38-.7-1-.08-1.36A2.65,2.65,0,0,1,197.68,269.62Z"/><path class="cls-3" d="M174.88,263.29c.67.38.69,1,.08,1.36a2.61,2.61,0,0,1-2.37,0c-.66-.38-.69-1-.07-1.36A2.65,2.65,0,0,1,174.88,263.29Z"/><path class="cls-3" d="M168.72,266.88c.67.38.69,1,.08,1.36a2.67,2.67,0,0,1-2.37,0c-.66-.39-.69-1-.07-1.36A2.59,2.59,0,0,1,168.72,266.88Z"/><path class="cls-4" d="M198.12,259.57c.59.36.62.92,0,1.26l-.9.51-2.16,1.26a2.52,2.52,0,0,1-2.18,0c-.59-.36-.62-.93,0-1.26l2.16-1.26.9-.51A2.39,2.39,0,0,1,198.12,259.57Z"/><path class="cls-4" d="M189.57,254.69c.59.36.61.92,0,1.25l-.82.46-2.16,1.29-.1.05a2.55,2.55,0,0,1-2.19,0c-.59-.36-.61-.92,0-1.25l.11-.06,2.15-1.25.83-.46A2.49,2.49,0,0,1,189.57,254.69Z"/><path class="cls-4" d="M188.75,256.44l6.31,3.64-2.18,1.26-6.29-3.65Z"/><path class="cls-3" d="M189.7,274.21a.56.56,0,0,1,.27.73.55.55,0,0,1-.27.27L183.2,279l4,2.3a.55.55,0,0,1,.36.69.52.52,0,0,1-.36.36,2,2,0,0,1-1.82,0l-4.9-2.82c-.52-.28-.52-.76,0-1.05l7.39-4.3A2.13,2.13,0,0,1,189.7,274.21Z"/><path class="cls-4" d="M158.45,269.06l9,5.17a8.48,8.48,0,0,0-1.24,1.8l-9.91-5.72c-2.49-1.43-2.51-3.79,0-5.23L175.45,254a10.1,10.1,0,0,1,9,0l2.13,1.23-2.15,1.26-2.14-1.23a5.23,5.23,0,0,0-4.69,0l-19.16,11.1C157.14,267.08,157.14,268.29,158.45,269.06Z"/><path class="cls-3" d="M189.13,264.69c.67.38.69,1,.08,1.36a2.59,2.59,0,0,1-2.36,0c-.67-.38-.7-1-.08-1.36A2.59,2.59,0,0,1,189.13,264.69Z"/><path class="cls-4" d="M206.67,264.36c.59.36.61.93,0,1.26l-1,.56-2.08,1.21-.11.05a2.34,2.34,0,0,1-2.08-.05c-.56-.33-.61-.85-.1-1.21l.08-.05,2.08-1.2,1-.57A2.59,2.59,0,0,1,206.67,264.36Z"/><path class="cls-3" d="M203.49,265l-2.08,1.21a.09.09,0,0,0-.08,0l-6.27-3.61,2.16-1.26Z"/><path class="cls-3" d="M208.06,267.57c2.49,1.43,2.51,3.79,0,5.23l-9.45,5.48a6.21,6.21,0,0,0-.59-2.18l7.86-4.56a1.44,1.44,0,0,0,0-2.72l-2.36-1.35.1-.06,2.08-1.2Z"/><path class="cls-4" d="M198.63,278.28c.18,2.57-1.41,5.15-4.77,7.1-6.42,3.74-16.9,3.72-23.4,0-4.39-2.54-5.83-6.15-4.28-9.35a7.1,7.1,0,0,1,1.23-1.8,12,12,0,0,1,3-2.36c6.42-3.74,16.89-3.71,23.39,0a10.47,10.47,0,0,1,4.29,4.23A6.59,6.59,0,0,1,198.63,278.28Zm-26,5.85c5.26,3,13.81,3.05,19,0a7.55,7.55,0,0,0,3.62-3.93,4.64,4.64,0,0,0,.16-2.61,7.51,7.51,0,0,0-3.85-4.49c-5.27-3-13.82-3-19,0a9.09,9.09,0,0,0-2.83,2.44,5.52,5.52,0,0,0-.92,2c-.58,2.31.7,4.77,3.84,6.59Z"/><path class="cls-3" d="M331.82,261.6c10.17,5.87,10.12,15.2.13,21s-26.14,5.87-36.31,0l2.18-1.26c8.94,5.15,23.34,5.18,32.13.11s8.65-13.44-.26-18.59Z"/><path class="cls-4" d="M320.52,273l-1.46-1.16,1-.76h13l-2,1.38h-9.88Z"/><path class="cls-4" d="M331.82,261.6l-2.18,1.25c-8.94-5.15-23.34-5.18-32.12-.1s-8.66,13.43.25,18.58l-2.18,1.26c-10.17-5.85-10.12-15.2-.13-21S321.65,255.69,331.82,261.6Z"/><path class="cls-3" d="M331.06,273.57l2,1.38h-13l-1-.77-1.49-1.13-.69-.53H301.16a7.17,7.17,0,0,1-3.54-.9,2.6,2.6,0,0,1-1.56-2.13c0-1.67,2.33-3,5.26-3a7.66,7.66,0,0,1,3.75.89,2.64,2.64,0,0,1,1.54,2.13,2.19,2.19,0,0,1-.85,1.64h12.3l1,.77,1.49,1.15.7.54Zm-29.76-2.46c1.59,0,2.88-.75,2.88-1.64a1.45,1.45,0,0,0-.82-1.16,4.34,4.34,0,0,0-2.06-.49c-1.59,0-2.87.75-2.87,1.65a1.4,1.4,0,0,0,.82,1.15,4,4,0,0,0,2.09.49Z"/><path class="cls-4" d="M319.06,274.16l-1,.76H305.78a2.24,2.24,0,0,1,.85,1.65c0,1.66-2.34,3-5.26,3a7.33,7.33,0,0,1-3.75-.9,2.57,2.57,0,0,1-1.54-2.12c0-1.62,2.23-2.95,5.06-3h15.68l.7-.54Zm-14.76,2.41a1.45,1.45,0,0,0-.82-1.16,4.34,4.34,0,0,0-2.06-.49c-1.59,0-2.87.75-2.87,1.65a1.45,1.45,0,0,0,.84,1.15,4.1,4.1,0,0,0,2.06.49c1.51,0,2.82-.75,2.82-1.64Z"/><path class="cls-3" d="M262.44,233.94c.41.23.51.62.23.92a1.87,1.87,0,0,1-1.82.31l-6.09-1.92a.67.67,0,0,1-.23-.1h-.07c-.42-.23-.52-.62-.24-.92a1.92,1.92,0,0,1,1.83-.31l6.08,1.92Z"/><path class="cls-4" d="M265.91,236.25c.08.43-.46.79-1.21.84l-7.68.41-2-1.18L248.65,240c.49.65.31,1.44-.59,2a4.72,4.72,0,0,1-4.24,0c-1.18-.66-1.18-1.77,0-2.46a4.82,4.82,0,0,1,3.44-.33l3.57-2.08-5-2.89,2.8-1.62,1.9-1.1,7.6,4.38,6.39-.36a2.15,2.15,0,0,1,1.08.23A1.14,1.14,0,0,1,265.91,236.25Zm-19,5a.52.52,0,0,0,.32-.67.55.55,0,0,0-.32-.33,1.93,1.93,0,0,0-1.75,0c-.49.28-.49.72,0,1a1.92,1.92,0,0,0,1.7,0Z"/><path class="cls-4" d="M265,223.07l-2.18,1.26c-8.94-5.15-23.34-5.18-32.12-.1s-8.66,13.43.25,18.58l-2.18,1.25c-10.17-5.86-10.12-15.19-.13-21S254.81,217.2,265,223.07Z"/><path class="cls-3" d="M238.06,229.79l-3.39,2a.52.52,0,0,1-.23.1c.57.64.39,1.47-.56,2a4.72,4.72,0,0,1-4.24,0,1.3,1.3,0,0,1,0-2.46,4.82,4.82,0,0,1,3.44-.33,1,1,0,0,1,.15-.13l6.16-3.56-2.15-1.23c-.52-.31-.54-.8,0-1.1a2.06,2.06,0,0,1,1.9,0l11.29,6.46-4.67,2.71Zm-5.39,3.33c.49-.28.46-.72,0-1a1.91,1.91,0,0,0-1.74,0c-.49.28-.49.72,0,1a1.87,1.87,0,0,0,1.75,0Z"/><path class="cls-3" d="M265,223.07c10.17,5.85,10.12,15.2.13,21s-26.14,5.85-36.31,0l2.19-1.25c8.93,5.15,23.34,5.18,32.12.1s8.65-13.43-.26-18.56Z"/><path class="cls-3" d="M519.06,382.89l-.95.53a1,1,0,0,1,.43.95,1.76,1.76,0,0,1-.95,1.05l-.15.1-1.13-.64.15-.1a1.09,1.09,0,0,0,.54-.56.71.71,0,0,0-.41-.54,1.38,1.38,0,0,0-.74-.21,1.59,1.59,0,0,0-.8.24.51.51,0,0,0-.33.43,1,1,0,0,0,.2.51c.06.08.16.16.21.23a2.24,2.24,0,0,1,.61,1.18c0,.36-.25.67-.76,1a3.26,3.26,0,0,1-1.72.43,3.92,3.92,0,0,1-1.65-.36l-.82.47-.49-.29-.49-.28.8-.46a1.38,1.38,0,0,1-.59-1c0-.39.31-.75.92-1.11h.25l1.05.62-.15.1c-.39.2-.54.44-.52.61a.8.8,0,0,0,.49.54,2.53,2.53,0,0,0,.93.29,1.27,1.27,0,0,0,.82-.21c.2-.13.31-.26.31-.44a1.59,1.59,0,0,0-.34-.64l-.1-.12a1.62,1.62,0,0,1-.56-1.13c0-.36.25-.69.77-1a3.61,3.61,0,0,1,1.64-.46,3.77,3.77,0,0,1,1.59.28l.93-.54.41.23Z"/><path class="cls-3" d="M506.82,384.09l-1.7,3.61,2.29,1.31-3.47,2-10.25-5.89c-.95-.56-1-1.46,0-2l5.63-3.25a.17.17,0,0,1,.1-.06Z"/><path class="cls-4" d="M521.06,381.12l-1.8,1.05,5.73,3.3-2.83,5.36,2.83-5.36-5.73-3.3-5.75-3.31-9.25,1.64,4.39,2.54,1.06.61-.39.82-1.31,2.8,1.23.69c-.07.05-1.74.79-1.79,1.05l2.26,1.31,6.26-1,7.42,4.28L516,389.32l-6.26,1L507.45,389l-2.33-1.32,1.7-3.61-7.43-4.28,1.88-.33,12.92-2.31Z"/><path class="cls-3" d="M527.85,385l-3.93,7.48-.57,1.05v.05l-7.42-4.28-6.27,1L507.4,389c.08-.26,1.72-1,1.8-1.05l1.2.69,4.83-.77,1.44-.23,1.05.61,4.39,2.54,2.83-5.36-5.73-3.3,1.8-1.05Z"/><path class="cls-4" d="M523.33,393.6h-.11l-5.62,3.25a3.68,3.68,0,0,1-3.47,0L503.91,391l3.47-2,2.26,1.3,6.26-1Z"/><path class="cls-3" d="M529.9,376c9.89,5.8,9.68,15-.26,20.79s-25.88,5.9-35.95.21l2.19-1.26a.19.19,0,0,1-.11-.05c8.86,5.05,23.11,5,31.87,0s8.73-13.33,0-18.43h.1Z"/><path class="cls-3" d="M529.72,375.84l.1.05A.14.14,0,0,1,529.72,375.84Z"/><path class="cls-4" d="M529.9,376l-2.18,1.26h-.11c-8.85-5.05-23.1-5-31.86,0s-8.73,13.33,0,18.43a.15.15,0,0,1,.1.05L493.67,397a.14.14,0,0,1-.1-.06h-.11c-9.88-5.79-9.68-15,.26-20.78s25.88-5.9,35.95-.21a.15.15,0,0,1,.1,0Z"/><path class="cls-3" d="M383.85,304.32c1.79,1.05,1.82,2.75,0,3.77a7.14,7.14,0,0,1-6.52,0c-1.8-1-1.82-2.74,0-3.77A7.2,7.2,0,0,1,383.85,304.32Z"/><path class="cls-5" d="M390.55,311.07a1.23,1.23,0,0,1,.77,1.56,1.21,1.21,0,0,1-.77.77,4.47,4.47,0,0,1-4,0,1.22,1.22,0,0,1-.77-1.56,1.25,1.25,0,0,1,.77-.77A4.41,4.41,0,0,1,390.55,311.07Z"/><path class="cls-3" d="M381.53,311.42l-6.47,3.75a7.54,7.54,0,0,1-6.86,0l-3-1.75c-1.9-1.1-1.9-2.87,0-4l6.44-3.74Z"/><path class="cls-5" d="M389,315.52l-4,2.31a4.72,4.72,0,0,1-4.24,0l-1.87-1.07a1.3,1.3,0,0,1,0-2.46l4-2.31Z"/><path class="cls-4" d="M398.17,300.3a6.16,6.16,0,0,0-4.85-.33,3.53,3.53,0,0,0-.56.25,1.83,1.83,0,0,0-1.06,1.46,2,2,0,0,0,1.21,1.7l-2,1.12c-1.8-1.05-2.42-2.51-1.77-3.82-8.53-2.87-19.47-2.28-26.53,1.82a15.53,15.53,0,0,0-3.49,2.7l.31.15c2.62,1.51,2.69,3.95.15,5.41a8.17,8.17,0,0,1-3.11,1c.24,3.18,2.49,6.35,6.76,8.82l-2.36,1.35c-5-2.87-7.55-6.56-7.76-10.25a8.77,8.77,0,0,1-2.9-1c-2.62-1.51-2.7-3.95-.16-5.41a9.81,9.81,0,0,1,6.09-1,19,19,0,0,1,4.11-3.18c8.19-4.74,20.8-5.43,30.63-2.1a10.41,10.41,0,0,1,9.25.13Zm-40.72,6.2a6.1,6.1,0,0,0-2.54-.69,5.24,5.24,0,0,0-2.88.62c-1.46.84-1.39,2.25.15,3.12a5.24,5.24,0,0,0,1,.44,6.71,6.71,0,0,0,3.36.08,4.67,4.67,0,0,0,1-.41c1.31-.77,1.39-2,.26-2.88l-.4-.28Z"/><path class="cls-3" d="M391.29,324.69c.44,1.21-.13,2.51-1.72,3.43a10.23,10.23,0,0,1-9.34-.07,4.08,4.08,0,0,1-1.7-1.62A37.17,37.17,0,0,1,360.86,322l2.37-1.36a32.45,32.45,0,0,0,15.12,3.87,3.73,3.73,0,0,1,1.72-1.87,10.37,10.37,0,0,1,9.35.08c.13.08.26.16.38.25a23.74,23.74,0,0,0,4.68-2.05c7.06-4.1,8-10.43,3-15.35a10.54,10.54,0,0,1-6.6-1l1.95-1.13a6,6,0,0,0,2.91.69,5,5,0,0,0,2.51-.61,1.66,1.66,0,0,0,.46-.34c.95-.84.75-2-.61-2.79l2-1.13c2.59,1.49,2.7,3.87.26,5.36,5.77,5.66,4.64,13-3.55,17.71A29,29,0,0,1,391.29,324.69Zm-9.09,2.2a6,6,0,0,0,5.42.08,1.76,1.76,0,0,0,1.05-1.56,2,2,0,0,0-1.18-1.57c-.1,0-.2-.12-.33-.18a6.06,6.06,0,0,0-5.1,0,2.3,2.3,0,0,0-.79.69,1.4,1.4,0,0,0,.26,1.92,2,2,0,0,0,.67.55Z"/><path class="cls-4" d="M206.52,349.28a.63.63,0,0,1,.4.78.61.61,0,0,1-.4.4l-17.83,10.33-.33.2a2.14,2.14,0,0,1-2,0l-.33-.2-1.7-1-23.62-13.56a.93.93,0,0,1-.57-.84.62.62,0,0,1,.41-.62l.16-.08,4.7-2.71a2.27,2.27,0,0,1,2,0l2,1.15a.6.6,0,0,1,0,1.15l-4.7,2.72,3.77,2.18,14-8.13a2.33,2.33,0,0,1,2,0l2,1.16a.6.6,0,0,1,0,1.15l-14,8.13,4,2.33,9.86-5.72a2.33,2.33,0,0,1,2,0l2,1.16c.57.3.57.84,0,1.15l-9.86,5.72,4,2.3,17.85-10.3a2.2,2.2,0,0,1,2,0Z"/><path class="cls-3" d="M215.22,345c.15.07.13.2-.1.28l-4.86,1.87a.47.47,0,0,1-.43,0,.16.16,0,0,1-.11-.16l-.07-.56c0-.08-.08-.15-.16-.2a.92.92,0,0,0-.46-.11l-15.2,1a5,5,0,0,1-1.16-.05l-.43-.2a1.44,1.44,0,0,1-.41-.64L190,339a.74.74,0,0,0-.2-.23,1.05,1.05,0,0,0-.49-.13l-14.33-.18c-.33,0-.85-.05-1.18-.07a.91.91,0,0,1-.26-.13.58.58,0,0,1-.36-.49c0-.38.62-.54.64-.54a7.1,7.1,0,0,1,1.13-.12l15.33.18a4.65,4.65,0,0,1,1.42.28,1.88,1.88,0,0,1,.43.66l1.88,7.15a.28.28,0,0,0,.18.21.7.7,0,0,0,.51.1l14.17-.92c.34,0,.57-.21.54-.39l-.1-.76c0-.18.21-.29.49-.18L215,344.9C215.14,345,215.19,345,215.22,345Z"/><path class="cls-4" d="M453.35,272.87c1.18.7,1.06,1.88-.28,2.64l-12.2-7a5.24,5.24,0,0,1,4.6-.18Z"/><path class="cls-3" d="M440.88,268.49l12.19,7-18.64,10.82-12.2-7Zm2.82,10.2c.49,0,.87-.23.85-.49v-.33a.53.53,0,0,0-.26-.36,1.22,1.22,0,0,0-.62-.16h-7.75v-1.66a.48.48,0,0,0-.26-.36,1.31,1.31,0,0,0-.61-.15h-.57c-.49,0-.87.23-.85.48v2.67a.23.23,0,0,0,.18.23.86.86,0,0,0,.41.1Z"/><path class="cls-4" d="M422,282c-1.19-.69-1.06-1.87.28-2.64l12.19,7a5.15,5.15,0,0,1-4.59.18Zm5.9,1.15a1.63,1.63,0,0,0-1.46,0,.46.46,0,0,0-.28.58.44.44,0,0,0,.28.27,1.7,1.7,0,0,0,1.49,0,.45.45,0,0,0,.26-.58.46.46,0,0,0-.29-.27Z"/><path class="cls-4" d="M455.89,266.75,453.71,268c-8.93-5.15-23.34-5.17-32.12-.1s-8.65,13.43.26,18.58l-2.19,1.26c-10.16-5.87-10.11-15.2-.12-21S445.73,260.9,455.89,266.75Z"/><path class="cls-3" d="M427.88,283.1a.47.47,0,0,1,.28.58.44.44,0,0,1-.28.27,1.7,1.7,0,0,1-1.49,0,.44.44,0,0,1-.28-.57.48.48,0,0,1,.28-.28A1.76,1.76,0,0,1,427.88,283.1Z"/><path class="cls-4" d="M444.32,277.46a.47.47,0,0,1,.25.36v.33c0,.29-.38.49-.84.49h-9.48a.59.59,0,0,1-.41-.1c-.1-.08-.18-.15-.18-.23v-2.67c0-.28.39-.51.85-.48h.55a1.31,1.31,0,0,1,.61.15c.16.1.26.2.26.36v1.66h7.75A1.74,1.74,0,0,1,444.32,277.46Z"/><path class="cls-4" d="M506.86,234.91c.59.36.62.93,0,1.26l-.89.51-2.16,1.26a2.52,2.52,0,0,1-2.18,0c-.59-.36-.62-.92,0-1.26l2.15-1.25.9-.52A2.39,2.39,0,0,1,506.86,234.91Z"/><path class="cls-4" d="M515.39,239.69c.59.36.62.93,0,1.26l-1,.56-2.08,1.21-.1.05a2.48,2.48,0,0,1-2.08-.05c-.57-.34-.59-.85-.11-1.21a.09.09,0,0,0,.08,0l2.08-1.2,1-.57A2.4,2.4,0,0,1,515.39,239.69Z"/><path class="cls-3" d="M512.23,240.3l-2.08,1.2-.07.05-6.27-3.61,2.16-1.26Z"/><path class="cls-3" d="M498.42,249.58c.51.28.51.76,0,1l-6.5,3.76,4,2.31a.55.55,0,0,1,.36.69.52.52,0,0,1-.36.36,2.1,2.1,0,0,1-1.83,0l-4.9-2.82a.54.54,0,0,1-.36-.68.56.56,0,0,1,.36-.37l7.39-4.3A1.94,1.94,0,0,1,498.42,249.58Z"/><path class="cls-4" d="M498.29,230.07c.59.36.62.92,0,1.26l-.82.46L495.31,233l-.08.05a2.46,2.46,0,0,1-2.18,0c-.59-.35-.61-.92,0-1.25l.08-.05,2.16-1.26.82-.46A2.52,2.52,0,0,1,498.29,230.07Z"/><path class="cls-3" d="M497.88,240c.67.38.69,1,.08,1.36a2.54,2.54,0,0,1-2.34,0c-.67-.38-.69-1-.08-1.36A2.67,2.67,0,0,1,497.88,240Z"/><path class="cls-4" d="M497.49,231.81l6.29,3.62-2.15,1.26-6.32-3.61Z"/><path class="cls-3" d="M489.51,235.22c.66.39.69,1,.07,1.36a2.52,2.52,0,0,1-2.33,0c-.67-.38-.7-1-.08-1.35A2.54,2.54,0,0,1,489.51,235.22Z"/><path class="cls-3" d="M483.6,238.63c.67.39.69,1,.08,1.36a2.54,2.54,0,0,1-2.34,0c-.67-.38-.69-1-.08-1.35A2.64,2.64,0,0,1,483.6,238.63Z"/><path class="cls-3" d="M477.44,242.22c.67.38.69,1,.08,1.36a2.54,2.54,0,0,1-2.34,0c-.67-.38-.69-1-.08-1.36A2.54,2.54,0,0,1,477.44,242.22Z"/><path class="cls-3" d="M506.43,245c.67.38.69,1,.08,1.36a2.61,2.61,0,0,1-2.34,0c-.67-.38-.69-1-.08-1.36A2.54,2.54,0,0,1,506.43,245Z"/><path class="cls-4" d="M467.17,244.4l9,5.18a8.63,8.63,0,0,0-1.23,1.79L465,245.69c-2.5-1.43-2.52-3.79,0-5.23l19.16-11.12a10,10,0,0,1,9,0l2.14,1.23-2.16,1.26L491,230.6a5.19,5.19,0,0,0-4.7,0l-19.16,11.09A1.44,1.44,0,0,0,467.17,244.4Z"/><path class="cls-3" d="M516.78,242.91c2.49,1.44,2.51,3.79,0,5.23l-9.45,5.49a6.21,6.21,0,0,0-.59-2.18l7.86-4.56a1.44,1.44,0,0,0,0-2.72l-2.36-1.36s.08,0,.1-.05l2.08-1.21Z"/><path class="cls-4" d="M507.35,253.63c.18,2.56-1.41,5.15-4.77,7.09-6.42,3.75-16.9,3.72-23.4,0-4.39-2.53-5.82-6.15-4.29-9.35a7.35,7.35,0,0,1,1.24-1.79,11.68,11.68,0,0,1,3-2.36c6.42-3.74,16.89-3.72,23.39,0a10.41,10.41,0,0,1,4.29,4.23A6.13,6.13,0,0,1,507.35,253.63Zm-26,5.84c5.26,3,13.81,3,19,0a7.53,7.53,0,0,0,3.62-3.92,4.68,4.68,0,0,0,.16-2.62,7.47,7.47,0,0,0-3.85-4.48c-5.27-3-13.82-3-19,0a9.31,9.31,0,0,0-2.83,2.43,5.21,5.21,0,0,0-.92,2c-.58,2.33.73,4.81,3.84,6.59Z"/><path class="cls-3" d="M455.89,266.75c10.17,5.84,10.12,15.2.13,21s-26.14,5.84-36.31,0l2.19-1.26c8.93,5.16,23.34,5.18,32.12.11s8.65-13.43-.26-18.56Z"/><path class="cls-3" d="M346.38,347.41c1,.56,1,1.46,0,2l-.26.15-4,2.31a1.13,1.13,0,0,1-1.07,0l-1-.59c-.31-.18-.31-.46,0-.61l2.67-1.54,1-.57c.18-.1.18-.28,0-.41l-1.3-.76-2.92-1.7c-.31-.18-.31-.46,0-.64l.9-.51a1.19,1.19,0,0,1,1.1,0l4.55,2.61Z"/><path class="cls-3" d="M326.35,342l-7.93,4.62a8.69,8.69,0,0,0,8,0,8.69,8.69,0,0,1-8,0c-2.21-1.29-2.21-3.34,0-4.62A8.92,8.92,0,0,1,326.35,342Z"/><path class="cls-5" d="M326.35,342c2.21,1.28,2.21,3.33,0,4.62a8.69,8.69,0,0,1-8,0Z"/><path class="cls-3" d="M343.66,348.13c.2.1.2.28,0,.41l-1,.56H329.54a2.18,2.18,0,0,1-1.06-.25.73.73,0,0,1-.43-.62c0-.49.66-.87,1.49-.87h12.81Z"/><path class="cls-3" d="M317.44,347.18l-12,7,1.85,1.08a9.28,9.28,0,0,0,8.37,0,9.28,9.28,0,0,1-8.37,0l-3.7-2.13c-2.31-1.33-2.33-3.51,0-4.84l7.86-4.57Z"/><path class="cls-5" d="M323.5,350.69l-7.85,4.56a9.3,9.3,0,0,1-8.38,0l-1.84-1.08,12-7Z"/><path class="cls-4" d="M331.54,338.85,329.61,340l-10.27-5.92c-2.23-1.29-5.57-1.44-7.47-.34L290.71,346c-1.9,1.1-1.62,3,.62,4.31l10.27,5.92-1.93,1.13-10.27-5.93c-3.44-2-3.85-5-.9-6.69l21.16-12.27c3-1.72,8.14-1.49,11.58.49Z"/><path class="cls-3" d="M338.52,353.33c.31.18.31.46,0,.62l-16.92,9.84c-3,1.72-8.14,1.49-11.58-.49l-10.27-5.92,1.87-1.15L312,362.17c2.24,1.29,5.57,1.44,7.47.34l16.92-9.82a1.15,1.15,0,0,1,1.08,0Z"/><path class="cls-3" d="M230.75,320.11a.17.17,0,0,1,.11.05S230.78,320.14,230.75,320.11Z"/><path class="cls-3" d="M260.28,303.22l-8.6,5a9.45,9.45,0,0,0,8.63,0,9.45,9.45,0,0,1-8.63,0c-2.39-1.38-2.41-3.61,0-5A9.64,9.64,0,0,1,260.28,303.22Z"/><path class="cls-3" d="M252.73,312.4c.36.2.52.54.21.84-.82.8-3.95.49-4.11.47s-.56-1.9.8-2.39a1.86,1.86,0,0,1,1.46.13c.39.2.51.56.1.9A1.88,1.88,0,0,1,252.73,312.4Z"/><path class="cls-5" d="M250.63,308.84l6.57,3.79-8.52,4.92a10.1,10.1,0,0,1-9.09,0l-2-1.15Zm-1.8,4.87c.16,0,3.29.33,4.11-.47.28-.3.16-.64-.2-.84a2,2,0,0,0-1.57,0c.41-.34.28-.7-.1-.9a2.08,2.08,0,0,0-1.47-.13c-1.36.44-.79,2.23-.77,2.32Z"/><path class="cls-3" d="M250.63,308.84l-13,7.56,2,1.15a10.1,10.1,0,0,0,9.09,0,10.1,10.1,0,0,1-9.09,0l-4-2.31c-2.52-1.43-2.52-3.82,0-5.25l8.53-4.95Z"/><path class="cls-4" d="M267.14,299.22,265,300.48a.19.19,0,0,1-.11-.05c-8.85-5.05-23.11-5-31.86.05s-8.73,13.33,0,18.43h.1l-2.18,1.26-.1-.06-.11-.05c-9.88-5.79-9.68-15,.26-20.78s25.88-5.9,36-.21a.15.15,0,0,1,.1.05A.41.41,0,0,0,267.14,299.22Z"/><path class="cls-3" d="M267.11,299.22c9.89,5.8,9.68,15-.26,20.79s-25.88,5.9-35.94.21l2.18-1.26H233c8.86,5,23.11,5,31.86,0s8.73-13.33,0-18.43l.11,0Z"/><path class="cls-5" d="M260.28,303.22c2.39,1.39,2.42,3.62,0,5a9.45,9.45,0,0,1-8.63,0Z"/><path class="cls-3" d="M266.93,299.12a.17.17,0,0,1,.11.05Z"/><path class="cls-6" d="M243.85,302.76a.46.46,0,0,1,0,.85,1.63,1.63,0,0,1-1.46,0l-3.93-2.25a.44.44,0,0,1-.28-.57.48.48,0,0,1,.28-.28,1.63,1.63,0,0,1,1.46,0Z"/><path class="cls-6" d="M248.81,302.15a.45.45,0,0,1,0,.84,1.63,1.63,0,0,1-1.46,0l-5.86-3.39a.45.45,0,0,1,0-.84,1.63,1.63,0,0,1,1.46,0Z"/><path class="cls-3" d="M397.35,381.12a1.47,1.47,0,0,1,.87,1.18c0,.74-.84,1.38-2,1.58a3.92,3.92,0,0,1-.9.08H390.6V380.6h4.7A4.31,4.31,0,0,1,397.35,381.12Z"/><path class="cls-4" d="M390.6,380.6V384h-4.54a4.1,4.1,0,0,1-2.06-.49,1.46,1.46,0,0,1-.87-1.17c0-.93,1.31-1.7,2.9-1.7h4.57Z"/><path class="cls-3" d="M388,385.69c.18-.67,1.1-1.18,2.26-1.23C389.06,384.58,388.16,385.09,388,385.69Z"/><path class="cls-3" d="M388,386a1.36,1.36,0,0,0,.74.95,3.78,3.78,0,0,0,1.31.41,3.35,3.35,0,0,1-1.31-.41A1.23,1.23,0,0,1,388,386Z"/><path class="cls-4" d="M390.44,384.5v2.92h-.38a3.19,3.19,0,0,1-1.31-.41,1.33,1.33,0,0,1-.74-.95v-.37c.18-.67,1.1-1.18,2.26-1.23h.2Z"/><path class="cls-3" d="M393.06,386c0,.82-1.13,1.46-2.52,1.46h0V384.5h0a3.52,3.52,0,0,1,1.8.43A1.39,1.39,0,0,1,393.06,386Z"/><path class="cls-3" d="M378.38,384.78l-1.7,3.61,2.28,1.3-3.46,2-10.25-5.9a1.06,1.06,0,0,1,0-2l5.63-3.25a.16.16,0,0,1,.1-.05Z"/><path class="cls-4" d="M390.52,380.6H386.9l-1.84-1.05-9.24,1.64,4.39,2.54,1.05.62-.38.82L379.57,388l1.23.69c-.08.05-1.72.8-1.8,1.05l2.26,1.31,6.27-1,7.42,4.28L387.53,390l-6.27,1L379,389.69l-2.28-1.31,1.69-3.61L371,380.49l1.88-.33,12.91-2.31Z"/><path class="cls-4" d="M401.48,376.69l-2.18,1.25-.1-.05c-8.84-5.05-23.11-5-31.87.05s-8.73,13.33,0,18.43a.15.15,0,0,1,.1.05l-2.15,1.27h-.1c-.05,0-.06,0-.11-.05-9.88-5.8-9.68-15,.26-20.79s25.88-5.9,36-.21l.1.06C401.53,376.76,401.46,376.63,401.48,376.69Z"/><path class="cls-3" d="M399.43,385.75l-3.93,7.49-.54,1.05h0L387.54,390l-6.27,1L379,389.7c.08-.25,1.72-1,1.8-1.05l1.21.69,4.82-.76,1.44-.24,1.06.62,4.38,2.54,2.83-5.36-3.8-2.18h2.59a4.55,4.55,0,0,0,.9-.07Z"/><path class="cls-4" d="M394.91,394.32l-.1.05-5.62,3.25a3.68,3.68,0,0,1-3.47,0l-10.22-5.93,3.47-2,2.26,1.31,6.26-1Z"/><path class="cls-3" d="M401.49,376.69c9.88,5.79,9.68,15-.26,20.78s-25.88,5.9-36,.21l2.18-1.26-.1-.05c8.86,5.05,23.11,5,31.87,0s8.73-13.33,0-18.43a.15.15,0,0,1,.1.05Z"/><path class="cls-3" d="M365.12,397.55l.11.05A.16.16,0,0,1,365.12,397.55Z"/><path class="cls-3" d="M401.3,376.55a.16.16,0,0,1,.11.06C401.46,376.67,401.33,376.58,401.3,376.55Z"/><path class="cls-3" d="M472.15,356.69c1.34.77,1.36,2,0,2.82l-4.91,2.85a5.44,5.44,0,0,1-4.88,0l-.74-.44-1.18-.66,9.78-5.67,1.16.67Z"/><path class="cls-4" d="M436.3,336a33.47,33.47,0,0,0-5.62,2.46,20.67,20.67,0,0,0-4.19,3.18l1.19.67-1.93-1.1c-1.33-.77-1.36-2,0-2.82l4.91-2.85a5.44,5.44,0,0,1,4.88,0Z"/><path class="cls-4" d="M467,338.46l-2.19,1.23c-8.93-5.15-23.34-5.18-32.12-.1a16.28,16.28,0,0,0-4.08,3.25l-1-.56-1.18-.67a20.67,20.67,0,0,1,4.19-3.18,29.29,29.29,0,0,1,5.62-2.46C446.06,332.83,458.57,333.62,467,338.46Z"/><path class="cls-3" d="M458.93,345.44c0-1.47-2.06-2.67-4.61-2.68s-4.63,1.18-4.63,2.65,2.06,2.68,4.61,2.68S458.93,346.91,458.93,345.44Z"/><path class="cls-3" d="M455.23,350.61l-6.45,3.75a7.52,7.52,0,0,1-6.85,0l-3-1.75c-1.9-1.1-1.9-2.87,0-4l6.45-3.74Z"/><path class="cls-4" d="M435.06,356.82l-6.16,3.56c-1.72-1-1.72-2.59,0-3.56A6.76,6.76,0,0,1,435.06,356.82Z"/><path class="cls-3" d="M435.06,356.82c1.33.77,1.64,1.89.9,2.82a3.89,3.89,0,0,1-.88.74,4.77,4.77,0,0,1-1.33.54,6.7,6.7,0,0,1-4.83-.54c-1.72-1-1.72-2.59,0-3.56-1.7,1-1.7,2.59,0,3.56Z"/><path class="cls-3" d="M467,338.47c8.42,4.84,9.83,12.09,4.39,17.73l-1.16-.66-9.78,5.66,1.18.67c-8.7,2.87-19.67,2.56-27.94-1a5,5,0,0,0,1.34-.53,2.72,2.72,0,0,0,.87-.75c8.91,3.67,21.32,3.23,29.17-1.33,8.79-5.1,8.66-13.43-.25-18.56Z"/><path class="cls-3" d="M337.78,342.46c.31.18.31.46,0,.65l-.85.48a1.19,1.19,0,0,1-1.1,0L329.64,340h-.05l1.92-1.12Z"/><path class="cls-3" d="M597.06,352.69c.15.08.13.21-.1.28l-4.9,1.87a.47.47,0,0,1-.43,0,.15.15,0,0,1-.11-.15l-.07-.56c0-.08-.08-.16-.16-.21a.91.91,0,0,0-.46-.1l-15.2,1a5.51,5.51,0,0,1-1.15-.05l-.44-.21a1.29,1.29,0,0,1-.41-.64l-1.88-7.23a.55.55,0,0,0-.2-.23,1.05,1.05,0,0,0-.49-.13l-14.33-.18c-.33,0-.85,0-1.18-.08a.91.91,0,0,1-.26-.13.57.57,0,0,1-.36-.48c0-.39.62-.54.65-.54a6.11,6.11,0,0,1,1.13-.13L572,345a4.84,4.84,0,0,1,1.41.28,2.08,2.08,0,0,1,.43.67l1.88,7.15a.3.3,0,0,0,.18.2.76.76,0,0,0,.51.11l14.18-.93c.33,0,.56-.2.54-.38l-.11-.77c0-.18.21-.28.49-.18l5.26,1.51A.71.71,0,0,1,597.06,352.69Z"/><path class="cls-4" d="M588.29,357c.56.33.56.84,0,1.18L570.47,368.5l-.34.21a2.14,2.14,0,0,1-2,0l-.34-.21-1.69-1-23.6-13.58a.88.88,0,0,1-.56-.85.6.6,0,0,1,.41-.61l.15-.08,4.7-2.72a2.27,2.27,0,0,1,2,0l2,1.15a.62.62,0,0,1,.39.77.61.61,0,0,1-.39.39l-4.7,2.72,3.78,2.17,14-8.12a2.27,2.27,0,0,1,2,0l2,1.15a.62.62,0,0,1,.39.77.61.61,0,0,1-.39.39l-14,8.12,4,2.33,9.86-5.71a2.33,2.33,0,0,1,2,0l2,1.15c.57.31.57.85,0,1.15l-9.86,5.72,4,2.31,17.82-10.33a2.2,2.2,0,0,1,2,0Z"/><path class="cls-4" d="M269.76,379.37c1.18.69,1.05,1.87-.28,2.64l-12.2-7a5.2,5.2,0,0,1,4.6-.18Z"/><path class="cls-4" d="M260.69,384c.16.1.26.2.26.36v.34c0,.28-.38.49-.85.49h-9.47a.6.6,0,0,1-.41-.11.26.26,0,0,1-.18-.23v-2.66c0-.28.39-.49.85-.49h.56a1.35,1.35,0,0,1,.62.15c.15.11.26.21.26.36v1.67h7.73A.92.92,0,0,1,260.69,384Z"/><path class="cls-3" d="M257.28,375l12.2,7-18.64,10.82-12.2-7Zm2.8,10.18c.49,0,.87-.24.85-.49v-.33a.53.53,0,0,0-.26-.36,1.13,1.13,0,0,0-.62-.16H252.3v-1.66a.48.48,0,0,0-.26-.36,1.32,1.32,0,0,0-.61-.16h-.57c-.49,0-.87.24-.85.49v2.67a.26.26,0,0,0,.18.23,1,1,0,0,0,.41.1Z"/><path class="cls-3" d="M244.26,389.6c.41.23.41.61,0,.85a1.7,1.7,0,0,1-1.49,0c-.41-.24-.41-.62,0-.85A1.76,1.76,0,0,1,244.26,389.6Z"/><path class="cls-4" d="M272.27,373.27l-2.21,1.26c-8.93-5.15-23.34-5.18-32.12-.1s-8.65,13.43.26,18.58l-2.14,1.26c-10.16-5.88-10.11-15.2-.12-21S262.11,367.4,272.27,373.27Z"/><path class="cls-4" d="M238.35,388.47c-1.18-.69-1-1.87.29-2.64l12.19,7a5.18,5.18,0,0,1-4.59.17Zm5.91,1.13a1.63,1.63,0,0,0-1.46,0c-.41.23-.41.61,0,.85a1.7,1.7,0,0,0,1.49,0C244.67,390.21,244.67,389.86,244.26,389.6Z"/><path class="cls-3" d="M337.42,423.13c.41.23.51.61.23.92a1.93,1.93,0,0,1-1.82.31l-6.09-1.93a.4.4,0,0,1-.23-.1h-.08c-.41-.23-.51-.62-.23-.93a2,2,0,0,1,1.83-.3l6.08,1.92A1.15,1.15,0,0,1,337.42,423.13Z"/><path class="cls-3" d="M313.06,419l-3.36,2a.67.67,0,0,1-.23.1c.56.64.38,1.47-.57,2a4.7,4.7,0,0,1-4.23,0,1.3,1.3,0,0,1,0-2.46,4.82,4.82,0,0,1,3.44-.33,1,1,0,0,1,.15-.13l6.17-3.56-2.16-1.23c-.51-.31-.54-.8,0-1.1a2.06,2.06,0,0,1,1.9,0l11.21,6.43-4.68,2.72Zm-5.39,3.34c.49-.29.46-.72,0-1a1.87,1.87,0,0,0-1.75,0c-.48.28-.48.71,0,1a1.91,1.91,0,0,0,1.74,0Z"/><path class="cls-3" d="M340,412.23c10.17,5.85,10.12,15.2.13,21s-26.17,5.87-36.31,0L306,432c8.94,5.15,23.34,5.18,32.13.1s8.65-13.43-.26-18.56Z"/><path class="cls-4" d="M340.88,425.43c.08.44-.46.82-1.2.85l-7.62.41-2-1.18-6.37,3.69c.49.64.31,1.44-.62,1.95a4.77,4.77,0,0,1-4.23,0,1.3,1.3,0,0,1,0-2.46,4.82,4.82,0,0,1,3.44-.33l3.57-2.08-5-2.9,2.8-1.61,1.9-1.11,7.6,4.39,6.39-.36a2.13,2.13,0,0,1,1.08.23A.79.79,0,0,1,340.88,425.43Zm-19,5c.49-.29.47-.72,0-1a1.85,1.85,0,0,0-1.74,0c-.49.28-.49.71,0,1a1.86,1.86,0,0,0,1.69,0Z"/><path class="cls-4" d="M340,412.23l-2.18,1.26c-8.94-5.15-23.34-5.18-32.12-.1s-8.66,13.43.25,18.58l-2.18,1.25c-10.17-5.86-10.12-15.2-.13-21S329.79,406.39,340,412.23Z"/><path class="cls-3" d="M272.27,373.27c10.17,5.85,10.12,15.2.13,21s-26.14,5.84-36.3,0l2.18-1.26c8.93,5.15,23.34,5.18,32.12.1s8.65-13.43-.26-18.56Z"/><path class="cls-3" d="M136.75,305.45l-3.93,7.49-.56,1.05V314l-7.42-4.28-6.27.95-2.26-1.31a6.25,6.25,0,0,1,1.8-1l1.21.69,4.83-.77,1.43-.23,1.06.62,4.39,2.53,2.82-5.35-5.79-3.36,1.79-1Z"/><path class="cls-3" d="M138.62,296.25l.11.05C138.84,296.35,138.65,296.28,138.62,296.25Z"/><path class="cls-3" d="M128,303.3l-1,.54a1,1,0,0,1,.43,1,1.68,1.68,0,0,1-1,1l-.15.1-1.13-.64.15-.1c.31-.18.49-.38.52-.56s-.16-.39-.41-.54a1.54,1.54,0,0,0-.75-.21,1.72,1.72,0,0,0-.8.23.56.56,0,0,0-.33.44.86.86,0,0,0,.21.51c0,.08.15.16.2.23a2.08,2.08,0,0,1,.59,1.18c0,.36-.25.67-.74,1a3.26,3.26,0,0,1-1.72.43,3.92,3.92,0,0,1-1.65-.36l-.82.46-.49-.28-.48-.28.79-.46a1.38,1.38,0,0,1-.59-1c0-.38.31-.74.93-1.1H120l1,.62-.15.1c-.38.2-.54.43-.51.61a.86.86,0,0,0,.48.54,2.15,2.15,0,0,0,.93.28,1.25,1.25,0,0,0,.82-.2c.21-.13.31-.26.31-.44a1.78,1.78,0,0,0-.33-.64.69.69,0,0,1-.11-.13,1.56,1.56,0,0,1-.56-1.12c0-.36.25-.69.77-1a3.61,3.61,0,0,1,1.64-.46,3.77,3.77,0,0,1,1.59.28l.93-.54.41.23Z"/><path class="cls-3" d="M115.69,304.48,114,308.09l2.28,1.31-3.46,2-10.25-5.87c-1-.57-1-1.46,0-2l5.62-3.26.1,0Z"/><path class="cls-4" d="M129.92,301.5l-1.8,1.06,5.73,3.3-2.79,5.36,2.83-5.36-5.73-3.3-5.75-3.31-9.24,1.64,4.39,2.54,1,.61-.39.82-1.35,2.83,1.24.69a7.16,7.16,0,0,0-1.8,1l2.26,1.31,6.26-1,7.43,4.28-7.43-4.28-6.29,1-2.26-1.31L114,308.07l1.69-3.61-7.42-4.28,1.88-.34,12.91-2.28Z"/><path class="cls-3" d="M102.45,317.24a.15.15,0,0,1,.1.05S102.47,317.27,102.45,317.24Z"/><path class="cls-4" d="M138.8,296.35l-2.18,1.26a.15.15,0,0,1-.1-.05c-8.84-5.05-23.11-5-31.87.05s-8.73,13.33,0,18.43h.1l-2.18,1.25h-.1l-.1-.05c-9.89-5.79-9.68-15,.25-20.78s25.89-5.9,35.95-.21a.15.15,0,0,1,.1.05C138.72,296.35,138.78,296.33,138.8,296.35Z"/><path class="cls-4" d="M132.23,314a.16.16,0,0,1-.11.05l-5.62,3.25a3.71,3.71,0,0,1-3.46,0l-10.22-5.89,3.46-2,2.26,1.29,6.27-1Z"/><path class="cls-3" d="M138.8,296.35c9.89,5.8,9.68,15-.25,20.79s-25.89,5.89-36,.2l2.18-1.25h-.1c8.86,5,23.11,5,31.86,0s8.73-13.33,0-18.43l.1.05Z"/><path class="cls-5" d="M141.45,383.35l-4,2.3a4.72,4.72,0,0,1-4.24,0l-1.87-1.07a1.3,1.3,0,0,1,0-2.46l4-2.31Z"/><path class="cls-5" d="M143.87,380.06c0-.91-1.27-1.65-2.84-1.65s-2.85.73-2.86,1.63,1.27,1.65,2.89,1.65S143.87,381,143.87,380.06Z"/><path class="cls-3" d="M134,379.24,127.56,383a7.54,7.54,0,0,1-6.86,0l-3-1.75c-1.9-1.1-1.9-2.87,0-4l6.36-3.71Z"/><path class="cls-3" d="M136.34,372.14c1.79,1.06,1.82,2.75,0,3.77a7.14,7.14,0,0,1-6.52,0c-1.8-1.05-1.82-2.74,0-3.77A7.39,7.39,0,0,1,136.34,372.14Z"/><path class="cls-4" d="M150.64,368.15a6.2,6.2,0,0,0-4.85-.34,4.94,4.94,0,0,0-.57.26,1.8,1.8,0,0,0-1,1.46,2,2,0,0,0,1.21,1.69l-2,1.13c-1.8-1.05-2.42-2.51-1.78-3.82-8.52-2.87-19.46-2.28-26.52,1.82a15.78,15.78,0,0,0-3.49,2.69l.3.16c2.62,1.51,2.7,3.94.16,5.4a8.17,8.17,0,0,1-3.11,1c.23,3.18,2.49,6.36,6.75,8.82l-2.36,1.36c-5-2.87-7.55-6.56-7.75-10.25a8.77,8.77,0,0,1-2.9-1c-2.62-1.51-2.7-3.95-.16-5.41a10,10,0,0,1,6.09-1,19,19,0,0,1,4.11-3.17c8.19-4.75,20.79-5.44,30.63-2.11a10.46,10.46,0,0,1,9.24.13Zm-40.72,6.17a6.14,6.14,0,0,0-2.55-.69,5.3,5.3,0,0,0-2.87.62c-1.47.84-1.39,2.25.15,3.12a5.24,5.24,0,0,0,1,.44,6.75,6.75,0,0,0,3.37.08,4.13,4.13,0,0,0,1-.41c1.31-.77,1.39-2,.26-2.87A1.89,1.89,0,0,0,109.92,374.32Z"/><path class="cls-3" d="M143.76,392.47c.43,1.21-.13,2.51-1.72,3.43a10.31,10.31,0,0,1-9.35-.07,4,4,0,0,1-1.69-1.62,37.17,37.17,0,0,1-17.67-4.43l2.36-1.36a32.37,32.37,0,0,0,15.13,3.87,3.73,3.73,0,0,1,1.72-1.87,10.35,10.35,0,0,1,9.34.08c.13.08.27.16.39.25a24.3,24.3,0,0,0,4.67-2.06c7.06-4.1,8-10.43,3.06-15.35a10.54,10.54,0,0,1-6.6-1l1.95-1.13a6,6,0,0,0,2.9.69,4.83,4.83,0,0,0,2.52-.61,2.43,2.43,0,0,0,.46-.33c1-.85.74-2-.59-2.8l2-1.13c2.59,1.49,2.7,3.87.26,5.36,5.77,5.67,4.65,13-3.55,17.71A28.61,28.61,0,0,1,143.76,392.47Zm-9.09,2.22a6,6,0,0,0,5.42.08,1.8,1.8,0,0,0,1-1.57,2.13,2.13,0,0,0-1.13-1.51c-.11,0-.21-.13-.34-.18a6,6,0,0,0-5.08.1,2.46,2.46,0,0,0-.8.7,1.42,1.42,0,0,0,.26,1.92A2.76,2.76,0,0,0,134.67,394.69Z"/></g><g class="cls-7"><path class="cls-8" d="M381.15,40.69c2.68,1.34,3.68,3,4,4.35s-.67,3-2.68,4.34l-4-2.34c1-1,1.68-1.67,1.34-2.34,0-.67-.67-1.33-2-2a9,9,0,0,0-4.68-1A15.86,15.86,0,0,0,367.44,44l-1.38.66c-2,1.34-3.34,2.34-3.68,3.34q-.51,2,2,3a12.58,12.58,0,0,0,4.35,1.34l3.35-2-3.68-2,3-1.67,8,4.67-8,4.35a15.43,15.43,0,0,1-5.36-.67,17.14,17.14,0,0,1-5.35-2c-1.67-1-3-2-3.35-3.34a3.6,3.6,0,0,1,.34-3.67c.67-1.34,2-2.34,4-3.68l1.38-.67A21.62,21.62,0,0,1,369.42,39a37.6,37.6,0,0,1,6-.33A14.5,14.5,0,0,1,381.15,40.69Z"/><path class="cls-8" d="M392.86,62.07l-1.67,1-9.37-5.68a2.43,2.43,0,0,0-1.34,2c0,.67.67,1.34,1.67,2a7.42,7.42,0,0,0,5.36,1l-.34,2.67a18.65,18.65,0,0,1-4.35-.33c-1.34-.34-3-.67-4-1.67-2.34-1.34-3.35-2.68-3.35-4.35s1-3,3.35-4.34l.33-.33c1.34-.67,3-1,4.69-1.67a14.16,14.16,0,0,1,5.35,0A11.16,11.16,0,0,1,393.87,54c2,1.33,3,2.33,3,4C396.53,59.4,395.2,60.74,392.86,62.07Zm-2.68-3c1.34-.67,1.68-1.34,1.68-1.67,0-.67-.34-1-1.34-1.67a6.25,6.25,0,0,0-2.68-.67,14.55,14.55,0,0,0-3.34.67Z"/><path class="cls-8" d="M409.92,63.41c.34.33.67.67,1,.67l-3.68,2.34c-.34-.34-1-.67-1.34-1a8,8,0,0,0-4.68-1l-9.71,5.68-4-2.34,15.05-8.68,3.68,2.33-1.67,1A7.11,7.11,0,0,1,409.92,63.41Z"/><path class="cls-8" d="M418.62,76.77l-1.67,1-9.7-5.68a2.43,2.43,0,0,0-1.34,2c0,.67.67,1.33,1.67,2a7.42,7.42,0,0,0,5.36,1l-.34,2.34a18.65,18.65,0,0,1-4.35-.33,10.85,10.85,0,0,1-4-1.67c-2.35-1.34-3.35-2.67-3.35-4.34s1-3,3.35-4.35l.33-.33a12.66,12.66,0,0,1,5-1.67,14.58,14.58,0,0,1,5.35,0,11.25,11.25,0,0,1,4.69,1.67c2,1.34,3,2.34,3,4A8.13,8.13,0,0,1,418.62,76.77Zm-3-3c1.34-.66,1.68-1.33,1.68-1.67,0-.66-.34-1-1.34-1.67a6.58,6.58,0,0,0-2.68-.66,15.9,15.9,0,0,0-3.35.66Z"/><path class="cls-8" d="M452.42,83.79l-3.68,2,2.67,1.34-3,1.67-2.67-1.34-7.37,4.34c-.66.34-1,.67-1,1s.34.67,1,1c.34.33,1,.33,1.34.67l-3,1.67a6.64,6.64,0,0,1-2.65-1.33c-2.67-1.67-3-3.34,0-5l8-4.68-2.34-1.33,3-1.67,2.34,1.32,3.68-2Z"/><path class="cls-8" d="M459.44,100.49l-1.67,1-9.71-5.68a2.43,2.43,0,0,0-1.34,2c0,.66.67,1.33,1.67,2a7.42,7.42,0,0,0,5.36,1l-.34,2.34a18.65,18.65,0,0,1-4.35-.33,11.2,11.2,0,0,1-4-1.67c-2.35-1.34-3.35-2.68-3.35-4.35s1-3,3.35-4.34l.33-.33a12.66,12.66,0,0,1,5-1.67,14.16,14.16,0,0,1,5.35,0,11.25,11.25,0,0,1,4.69,1.67c2,1.33,3,2.34,3,4C463.12,97.48,461.79,99.15,459.44,100.49Zm-3-3c1.34-.67,1.68-1.33,1.68-1.67,0-.67-.34-1-1.34-1.67a6.59,6.59,0,0,0-2.68-.67,15.31,15.31,0,0,0-3.35.67Z"/><path class="cls-8" d="M436.36,78.44c1.67,1,2.34,2,2.34,3s-1,2-3,3L426,90.12l-4-2.34,9.7-5.67c1-.34,1.34-1,1.34-1.34s-.33-1-1.34-1.34a6.45,6.45,0,0,0-4.35-.66l-10.7,6-4-2.34,15.06-8.69,3.68,2.34-1.67,1A13.4,13.4,0,0,1,436.36,78.44Z"/><path class="cls-8" d="M491.23,103.16l4,2.34-21.06,12.36-3.69-2,1.34-1a14.14,14.14,0,0,1-5.68-1c-1.68-1-2.35-2.34-2-3.67s1.67-3,4-4.35a19.71,19.71,0,0,1,7-2.34,10,10,0,0,1,6.36,1.34c1.33,1,2,2,2,3Zm-16.73,9.69,6-3.34c.67-1,.34-1.67-1-2.34-2-1-4.35-.67-7.7,1-1.34.67-2.34,1.67-2.34,2.34-.33.67,0,1.34,1,2A7.52,7.52,0,0,0,474.5,112.85Z"/><path class="cls-8" d="M497.92,122.53l-1.67,1-9.71-5.68a2.41,2.41,0,0,0-1.33,2c0,.67.67,1.34,1.67,2a7.39,7.39,0,0,0,5.35,1v2.67a18.65,18.65,0,0,1-4.35-.33,11.2,11.2,0,0,1-4-1.67c-2.34-1.34-3.35-2.68-3.35-4.35s1-3,3.35-4.34l.33-.33a13,13,0,0,1,5-1.67,14.21,14.21,0,0,1,5.36,0,11.4,11.4,0,0,1,4.68,1.67c2,1.33,3,2.34,3,4A10.27,10.27,0,0,1,497.92,122.53Zm-2.68-2.67c1.34-.67,1.68-1.33,1.68-1.67,0-.67-.34-1-1.34-1.67a6.59,6.59,0,0,0-2.68-.67,15.1,15.1,0,0,0-3.34.67Z"/><path class="cls-8" d="M620.71,184.69a6.33,6.33,0,0,1,3.35,3.34c.34,1.33-.33,2.33-1.67,3l-4.33-2.34c.67-.33,1-.66,1-1s-.33-1-1.34-1.33a4.75,4.75,0,0,0-2-.67A2.59,2.59,0,0,0,614,186c-.33.34-.67.67-.33,1,0,.34.67,1,1.34,1.67l2,2q2,2.51-1,4a11.06,11.06,0,0,1-5,1,11.54,11.54,0,0,1-5.69-2c-1.34-.67-2.34-1.34-2.67-2.34a2.07,2.07,0,0,1-.34-2.34,4.58,4.58,0,0,1,1.67-2l3.68,2.34a1.81,1.81,0,0,0-1,1.34c0,.67.67,1,1.34,1.34a4.83,4.83,0,0,0,2.34.66,2.54,2.54,0,0,0,1.68-.33c.33-.33.66-.67.33-1a7.56,7.56,0,0,0-1.67-1.67c-2.68-2.34-3-4.35-.67-5.68a11.33,11.33,0,0,1,5-1A12.3,12.3,0,0,1,620.71,184.69Z"/><path class="cls-8" d="M600,186.34a6.38,6.38,0,0,0-2.68,2.33H597l-4-2.33c.34-.34.34-.67,1-1A9.11,9.11,0,0,1,588.6,184c-1.33-1-2.34-1.67-2.34-3a2.76,2.76,0,0,1,1.67-2.67,7.52,7.52,0,0,1,5.36-1,18.84,18.84,0,0,1,6.36,2.34l1.67,1,1-.67c.67-.33,1-.67,1-1.34a1.82,1.82,0,0,0-1-1.33,4.75,4.75,0,0,0-2-.67,4.4,4.4,0,0,0-2,.33l-3.68-1.67c1-.67,2-.67,3.34-1a16.81,16.81,0,0,1,4,.33,21.29,21.29,0,0,1,4,1.68c2,1,3,2.33,3,3.34,0,1.33-.67,2.33-2.34,3.34Zm-3.35-2.65,2.68-1.33-1.34-1c-2-1-3.68-1.34-5.35-.67h-.34c-.66.33-.66.67-.66,1s.33.67,1,1a4.49,4.49,0,0,0,2,.67A4.19,4.19,0,0,0,596.62,183.69Z"/><path class="cls-8" d="M596.62,171.3l-2.34,1.39L577.89,174l7.36,4-3.35,2-12.38-7.34,2.34-1.34,16.4-1.33-7-4,3.35-1.67Z"/><path class="cls-8" d="M577.22,159.61c1.67,1,2.34,2,2.34,3s-1,2-3,3l-9.7,5.67-4-2.33,9.7-5.68c1-.34,1.34-1,1.34-1.34s-.33-1-1.34-1.33a5.17,5.17,0,0,0-4-.67l-10.71,6.34-4-2.33,15-8.69,3.68,2.34-1.67,1A9.61,9.61,0,0,1,577.22,159.61Z"/><path class="cls-8" d="M554.47,160a6.33,6.33,0,0,0-2.68,2.34h-.34l-4-2.34c.33-.34.33-.67,1-1a9.06,9.06,0,0,1-5.35-1.33c-1.34-1-2.34-1.67-2.34-3a2.76,2.76,0,0,1,1.67-2.67,7.49,7.49,0,0,1,5.35-1,18.63,18.63,0,0,1,6.36,2.34l1.67,1,1-.67c.67-.33,1-.67,1-1.34a1.78,1.78,0,0,0-1-1.33,4.75,4.75,0,0,0-2-.67,4.4,4.4,0,0,0-2,.33l-4-1.67c1-.66,2-.66,3.34-1a16.32,16.32,0,0,1,4,.34,20,20,0,0,1,4,1.67c2,1,3,2.33,3,3.34,0,1.33-.67,2.33-2.35,3.34Zm-3.35-2.68,2.68-1.33-1.34-1c-2-1-3.68-1.34-5.35-.67h-.34c-.67.33-.67.67-.67,1s.34.67,1,1a4.45,4.45,0,0,0,2,.67A1.56,1.56,0,0,0,551.12,157.27Z"/><path class="cls-8" d="M546.06,141.91c1.66,1,2.33,2,2,3q0,1.5-3,3l-9.71,5.68-4-2.34,9.7-5.68c1-.33,1.34-1,1.34-1.33s-.33-1-1.34-1.34a5.26,5.26,0,0,0-4-.67l-10.71,6-4-2.34,15-8.69,3.68,2.34-1.67,1C542.06,140.24,544.43,140.57,546.06,141.91Z"/><path class="cls-8" d="M534.06,133.22c-.67-.33-1-.66-1-1.33a1.81,1.81,0,0,1,1-1.34c.67-.33,1.33-.67,2-.33a6.41,6.41,0,0,1,2.35.67c.67.33,1,.66,1,1.33a1.78,1.78,0,0,1-1,1.34,4.75,4.75,0,0,1-2,.67A13.53,13.53,0,0,0,534.06,133.22Z"/><path class="cls-8" d="M533.06,128.55l-3.34,2-9-5-5,3,8,4.34-3.34,2-8-4.67-8.37,5-4-2.67,20.07-11.7Z"/><path class="cls-8" d="M515.32,141.57l15.06-8.68,4,2.34-15.06,8.68Z"/></g><g class="cls-9"><g class="cls-10"><rect class="cls-1" x="369.55" y="268.78" width="92.03" height="42.24"/></g><path class="cls-11" d="M389.6,254.07l4.94,32.85c0,8.49,38.69,8.49,38.69,0l2.83-33.38"/><path class="cls-12" d="M436.06,253.58c0,2-2,3.84-5.43,5.28-4.26,1.81-10.67,2.94-17.84,2.94s-13.58-1.13-17.84-2.94c-3.39-1.44-5.43-3.28-5.43-5.28,0-4.53,10.41-8.22,23.27-8.22S436.06,249,436.06,253.58Z"/><path class="cls-13" d="M430.78,258.14a2.2,2.2,0,0,1-.11.68c-4.26,1.81-10.67,2.94-17.84,2.94s-13.58-1.13-17.84-2.94a2.2,2.2,0,0,1-.11-.68c0-3.51,8-6.34,17.95-6.34S430.78,254.63,430.78,258.14Z"/><path class="cls-14" d="M432.14,169.89s.38-21.09,14.41-30.82,32.51-3,32.51-3-18.78,7.06-20.29,15.2S455.41,172.37,432.14,169.89Z"/><path class="cls-14" d="M402.06,223.29s-16.48,6.87-22.93-1.7-14.64-5.73-14.64-6.07S395,198.21,402.06,223.29Z"/><path class="cls-14" d="M419.24,239.21s2.08-16.52,22.82-2.27C430.93,236.94,427.39,246.6,419.24,239.21Z"/><path class="cls-14" d="M437.06,181.58a9,9,0,0,1,7.85-8.23c7.5-1,13.58-.33,14.29-4.29C459.15,169.09,458.51,188,437.06,181.58Z"/><path class="cls-14" d="M420.64,167.58a9,9,0,0,0-2.45-11.08c-5.85-4.79-11.43-7.32-10-11.06C408.15,145.44,399,162,420.64,167.58Z"/><path class="cls-15" d="M411.62,259.42c.27-5.54.76-11,1.32-16.55.3-2.76.64-5.51,1-8.23s.8-5.46,1.25-8.22A251.6,251.6,0,0,1,422.5,194c1.63-5.31,3.44-10.56,5.55-15.65,1.06-2.56,2.19-5.09,3.43-7.58s2.53-4.94,4-7.32a67.52,67.52,0,0,1,10.11-13.2,47.73,47.73,0,0,1,6.34-5.35,38.42,38.42,0,0,1,7.24-4,44.85,44.85,0,0,0-13.11,9.88c-.94,1-1.85,2-2.72,3.09l-1.28,1.62-1.24,1.66a73.83,73.83,0,0,0-4.45,6.91,137.84,137.84,0,0,0-12.53,30.4,266.86,266.86,0,0,0-7.16,32.21,326.63,326.63,0,0,0-3.62,32.85Z"/><path class="cls-15" d="M452.54,176a4.52,4.52,0,0,1-1.5,1.32,16.68,16.68,0,0,1-1.85.91c-1.25.49-2.57.9-3.85,1.32l-3.85,1.2c-1.28.42-2.52.83-3.77,1.32s-2.49,1-3.66,1.51a31.83,31.83,0,0,0-3.47,1.89,19.1,19.1,0,0,0-3.13,2.3,18.53,18.53,0,0,0-2.67,2.79l-1.73,2.1.38-2.64a37.72,37.72,0,0,0,.34-4.12v-4.18a37.84,37.84,0,0,0-1.25-8.26,29.62,29.62,0,0,0-3.24-7.7,28.07,28.07,0,0,0-2.45-3.39l-.72-.79c-.22-.27-.49-.49-.75-.76l-.38-.37-.41-.34-.8-.68a22.24,22.24,0,0,1,6,6,27,27,0,0,1,2.11,3.74,30.89,30.89,0,0,1,1.55,4,40.42,40.42,0,0,1,1.59,8.44c.11,1.44.18,2.87.15,4.3s-.11,2.9-.27,4.34l-1.36-.56a21.47,21.47,0,0,1,6.23-5.47,35.26,35.26,0,0,1,7.5-3.28c2.6-.83,5.21-1.44,7.85-2.08,1.32-.3,2.6-.6,3.88-1a14.72,14.72,0,0,0,1.89-.68A3.71,3.71,0,0,0,452.54,176Z"/><path class="cls-15" d="M389.86,215.52a31.46,31.46,0,0,1,8.52,4.15,32.75,32.75,0,0,1,3.74,3q1.74,1.65,3.32,3.47a39.62,39.62,0,0,1,5.24,8c.72,1.44,1.36,2.91,1.92,4.38.31.75.57,1.51.83,2.22l.38,1.1c.08.19.11.34.19.53a1.42,1.42,0,0,1,.08.18h0a.6.6,0,0,0-.31-.15l-.71.26a16.13,16.13,0,0,1,1.81-1.47,21.89,21.89,0,0,1,1.88-1.25,27.65,27.65,0,0,1,4-2,37,37,0,0,1,4.26-1.36c.72-.19,1.47-.3,2.19-.46a20.42,20.42,0,0,1,2.19-.26c-.72.15-1.44.3-2.15.49a21.42,21.42,0,0,0-2.11.64,30,30,0,0,0-4,1.7A26.64,26.64,0,0,0,417.4,241c-.59.42-1.16.86-1.7,1.32s-1.09,1-1.55,1.44l-.3.34-.41-.12a.75.75,0,0,1-.42-.22c-.07-.08-.11-.15-.15-.15l-.08-.12v-.07a1,1,0,0,1-.15-.34l-.23-.57c-.15-.38-.26-.75-.42-1.13-.26-.75-.52-1.47-.79-2.19-.56-1.46-1.18-2.9-1.84-4.3a44.46,44.46,0,0,0-4.87-7.92,39.39,39.39,0,0,0-6.6-6.56,42.87,42.87,0,0,0-3.89-2.64c-.67-.38-1.35-.79-2.07-1.13A12.43,12.43,0,0,0,389.86,215.52Z"/><path class="cls-11" d="M407.25,257.46a8.71,8.71,0,0,0,2.6,2.53,10.81,10.81,0,0,0,4.49-.23c.9-.26-1.51-3-.94-3.5s1.24-.38,1.09-1c-.15-.83-.08-2.94-1.28-2.94-.53,0-2.79,2.41-3.4,2.6C407.81,255.5,407.06,256.29,407.25,257.46Z"/><path class="cls-12" d="M409.85,255.31a2.75,2.75,0,0,0-2.26,1.4c-.76,1.39,0,1.17,1.13,2.11s1.89-.94,1.89-.94a2.45,2.45,0,0,1-.27-1.66.72.72,0,0,0-.47-.9Z"/><path class="cls-11" d="M400,257c-.15-.49.41-1.55.79-2a5.41,5.41,0,0,1,2.87-1.06c.9-.18,1.62,1.06,2.33,1.25,1,.23,1.25-.26,1.48.38s1.32,2.64.26,3.2c-.49.27-3.09,0-3.7.15A3.48,3.48,0,0,1,400,257Z"/><g class="cls-10"><rect class="cls-1" x="245.46" y="288.4" width="187.83" height="70.91"/></g><g class="cls-10"><rect class="cls-1" x="198.32" y="286.51" width="72.42" height="37.72"/></g><path class="cls-16" d="M331.17,277.69l2.23,4,7.54,1.54"/><path class="cls-17" d="M347.32,282.32h-7.55v1.54h7.55Z"/><path class="cls-18" d="M385.06,241l-5.88.83c-1.06.15-1.92.57-2.07,1v.11l-29.5-21.38v5a.4.4,0,0,0,.27.34l1.24.68,28.06,20.59.15.07h0a2.19,2.19,0,0,0,1.28.27h.6l5.88-.83a1,1,0,0,0,.46-.07c.94-.23,1.66-.65,1.66-1v-5C387.14,241.06,386.2,240.83,385.06,241Z"/><path class="cls-19" d="M386.16,237.06h0l-29.45-21.37a1.7,1.7,0,0,0-1.13-.19l-5.89.83a2.6,2.6,0,0,0-2.11,2.57v2.64l29.48,21.4a.11.11,0,0,1,0-.11c.15-.42,1-.83,2.07-1L385,241c1.17-.15,2.11.07,2.11.49v-2.64A2,2,0,0,0,386.16,237.06Z"/><path class="cls-20" d="M326.8,280.51H315.37v9.61H326.8Z"/><path class="cls-17" d="M329,336.69a6,6,0,1,0-6-6A6,6,0,0,0,329,336.69Z"/><path class="cls-17" d="M331.55,320.6h-5.2v5.47h5.2Z"/><path class="cls-17" d="M336,330.75a7,7,0,0,0-14,0Z"/><path class="cls-17" d="M287.57,324.69a6,6,0,1,0-6-6A6,6,0,0,0,287.57,324.69Z"/><path class="cls-17" d="M294.59,318.69a7,7,0,0,0-14,0Z"/><path class="cls-17" d="M290.93,309.1h-6.75v6.22h6.75Z"/><path class="cls-17" d="M370.17,324.69a6,6,0,1,0-6-6A6,6,0,0,0,370.17,324.69Z"/><path class="cls-17" d="M377.19,318.69a7,7,0,0,0-14,0Z"/><path class="cls-17" d="M373.57,309.1h-6.75v6.22h6.75Z"/><path class="cls-20" d="M326.84,307l-35.91,5.24h-7.28s-.79-4.94.79-6,7.09-.75,7.09-.75l34.53-4.6Z"/><path class="cls-20" d="M331.17,307l35.53,5.24h7.36s.79-4.94-.79-6-7.09-.75-7.09-.75L333,301.29Z"/><path class="cls-20" d="M332.34,322.69c0,.87-6.75.87-6.75,0A33.7,33.7,0,0,1,325,318c0-1.62-.3-16.71-.3-16.71a30.28,30.28,0,0,1,8.29,0V318A43.36,43.36,0,0,1,332.34,322.69Z"/><path class="cls-21" d="M332.23,265.69H309.9v13.77h22.33Z"/><path class="cls-21" d="M328.91,274.77H313.3v9.62h15.61Z"/><path class="cls-18" d="M291.12,264.25l-5.55-1.7-6.37-53.86,6.41,2.08Z"/><path class="cls-18" d="M285.61,210.81l-6.41-2.12-19.57-53.82,9,4.49Z"/><path class="cls-22" d="M291.12,264.25l-5.51-53.44-17.05-51.56,62.76-20.18,1.14,5.09,3.81-1.28,13.08,61.81,1.51,39.41-59.74,20.18,59.55-21.16Z"/><path class="cls-18" d="M374.62,277.69h0c-.11.08-.22.19-.33.27l-.08.07a2.51,2.51,0,0,1-.53.34h0l-.27.15-.26.15c-.19.12-.42.19-.57.3a7.12,7.12,0,0,1-1.24.53h-.28l-.19.08h-.56l-.3.07h-.83l-5.12,1-5.13.71-5.13.72-5.13.72-5.12.71-5.14.72-5.12.72-5.13.71-5.13.72-5,.72H318a.45.45,0,0,1-.23,0h0a1.88,1.88,0,0,1-.52.08.88.88,0,0,0-.23,0h-.08a1.5,1.5,0,0,0-.3,0H315a.31.31,0,0,1-.19,0,20.25,20.25,0,0,1-3.09-.57c-.34-.08-.79-.19-1.13-.3a30.1,30.1,0,0,1-3.47-1.17,9.29,9.29,0,0,1-1-.42h0c-.41-.19-.79-.34-1-.46a10.88,10.88,0,0,1-1.2-.56c-.15-.08-.34-.15-.53-.27l-.57-.26-.75-.41-3-1.46c.3.22.56.45.83.64a1.27,1.27,0,0,1,.15.11c.45.34.87.64,1.32.94.11.08.19.16.3.23a11,11,0,0,1,1,.68l1,.64c.22.15.49.3.75.45l1.28.72,2.79,1.51,1.06.56h.08c.41.23.56.3,1,.53l1,.49a9.19,9.19,0,0,1,1,.45c.17.11,0,0,.08,0s.11,0,.15.08h0c.27.11.5.19.72.3h.08l.91.33h.07c.8.27,1.48.46,1.93.61a8,8,0,0,0,1.09.26h.08c.26,0,.49.12.83.15s.9.15,1.28.19a4.57,4.57,0,0,1,.83.08h1.09a3.11,3.11,0,0,0,.61,0h.15a2,2,0,0,0,.68-.08h0l4.3-.6,4.3-.6,8.6-1.21,4.3-.6,8.6-1.21,4.3-.6,4.3-.61,4.3-.6A3.56,3.56,0,0,0,367,285h0a3.06,3.06,0,0,0,.72-.19h0c.19-.08.42-.11.57-.19l.23-.07a.21.21,0,0,0,.19-.08l.18-.07a2.62,2.62,0,0,0,.46-.19h.18l.19-.11h.08a8.86,8.86,0,0,0,1.77-1.28,2.19,2.19,0,0,0,.34-.34c.11-.11.26-.3.38-.41l.15-.19.11-.12.08-.07h0a1.25,1.25,0,0,1,.15-.19c.08-.07.12-.19.19-.22s.08-.12.12-.19a.35.35,0,0,0,.07-.15.14.14,0,0,1,.08-.12v-.16a2.54,2.54,0,0,0,.26-.49c.08-.15.15-.34.23-.49s0,0,0-.08h0l.07-.18v-.16a.75.75,0,0,0,.07-.18.11.11,0,0,1,0-.08c.08-.19.15-.49.23-.68s0-.15.07-.26l.12-.42Z"/><path class="cls-17" d="M366.89,249.2a6.1,6.1,0,0,1,.6.38A4.67,4.67,0,0,1,366.89,249.2Z"/><path class="cls-17" d="M367.64,249.69a.25.25,0,0,1-.15-.07,1.14,1.14,0,0,1,.23.15A.11.11,0,0,0,367.64,249.69Z"/><path class="cls-17" d="M366.63,249.09a1.18,1.18,0,0,0-.19-.11c.15.07.26.15.41.22Z"/><path class="cls-17" d="M367.76,249.77h0a1.27,1.27,0,0,1,.15.11S367.83,249.77,367.76,249.77Z"/><path class="cls-17" d="M378.39,260.86h0V261S378.43,260.9,378.39,260.86Z"/><path class="cls-17" d="M378.13,260.06l.26.76C378.32,260.59,378.21,260.33,378.13,260.06Z"/><path class="cls-18" d="M379,264.36v5.9h0a1.88,1.88,0,0,1-.07.6h0a12.71,12.71,0,0,1-.5,1.73h0c-.08.19-.15.42-.23.61l-.11.22h0a1.4,1.4,0,0,1-.15.3h0c-.11.26-.19.34-.26.53a.24.24,0,0,1-.08.15c-.08.08-.19.34-.3.49l-.11.19a9.73,9.73,0,0,1-.8,1c-.07.11-.15.15-.15.18a8.6,8.6,0,0,1-.9.91,1.79,1.79,0,0,1-.38.3,1.06,1.06,0,0,0-.15.15h0c-.11.07-.23.19-.34.26l-.07.08a3.39,3.39,0,0,1-.53.34h0l-.26.15c-.08,0-.19.11-.27.15a4.64,4.64,0,0,0-.56.3,8.08,8.08,0,0,1-1.25.53h-.15l-.19.07h-.56l-.3.08h-1.27l-4.94.68L359,281l-5.13.72-5.13.71-5.13.72-5.13.72-5.13.71-5.13.72-5.13.72-5,.71H318a.41.41,0,0,1-.22,0h0a1.88,1.88,0,0,1-.53.07.41.41,0,0,0-.22,0H317a.76.76,0,0,0-.3,0h-1.59a.31.31,0,0,1-.19,0,18.88,18.88,0,0,1-3.09-.56c-.34-.08-.79-.19-1.13-.31a26.7,26.7,0,0,1-3.47-1.17c-.3-.11-.68-.26-1-.41h0c-.42-.19-.8-.34-1-.45a8.9,8.9,0,0,1-1.21-.57c-.15-.07-.34-.15-.53-.26l-.56-.26-.76-.42-2.79-1.51c-.64-.34-1.47-.83-2.07-1.2-.34-.19-.79-.49-1.13-.72l-1.1-.72c-.53-.37-1.24-.9-1.77-1.32-.9-.68-1.89-1.58-1.89-1.58s-.22-.23-.34-.34-.45-.42-.64-.64l-.41-.42c-.26-.26-.57-.64-.83-.9a15.47,15.47,0,0,1-1.32-1.78,12.67,12.67,0,0,1-.76-1.35,8.74,8.74,0,0,1-.41-1,2.74,2.74,0,0,0-.23-.61,9.31,9.31,0,0,1-.37-1.58,1.06,1.06,0,0,0-.08-.49v.48c0-.49-.08-.86-.08-1.2v-3.17c.23,2.56,3.32,6,8,8.52l.38.19,2.41,1.32.45.26h.12s.07,0,.11.08,0,0,.07,0h.27c.08,0,.11,0,.15.08h10c4.75-.68,9.5-1.32,14.29-2l7.06-1c5.31-.75,10.63-1.51,15.95-2.22l1.51-.23,1.47-.19,5.51-.79,2.64-.38.86-.11c1-.15,2.23-.3,3.44-.49h.07l2-.27a1.85,1.85,0,0,0,.6-.07h.23l.72-.11c1.28-.19,2.79-.38,4.26-.61l.41-.07,2-.3a.75.75,0,0,0,.41-.08l.46-.07c.79-.12,1.7-.23,2.6-.38h.23a10.55,10.55,0,0,0,1.09-.15l.57-.07h.07L378,263a.9.9,0,0,0,.45-.08c.15-.08.08,0,.08,0h0V262a12,12,0,0,0-.15-2.07l-.07-.45c-.08-.34-.19-.72-.3-1.06a5.89,5.89,0,0,1,.26,1v-.08a.36.36,0,0,0,.08.27c.08.08,0,.19,0,.26a.11.11,0,0,0,0,.11v.27a.19.19,0,0,0,0,.15v1A18,18,0,0,1,379,264.36Z"/><path class="cls-23" d="M346.75,242.38a.19.19,0,0,0,.15,0h-.22C346.61,242.38,346.71,242.41,346.75,242.38Z"/><path class="cls-23" d="M365.38,248.26l.53.3A2.78,2.78,0,0,1,365.38,248.26Z"/><path class="cls-19" d="M329.06,119.27l6.11,2.83a8,8,0,0,0-5-.53l-6.11-2.83A8,8,0,0,1,329.06,119.27Z"/><path class="cls-19" d="M270.34,134l-6.11-2.83,59.89-12.45,6.11,2.83Z"/><path class="cls-24" d="M267,158.69l-6.11-2.83a8.7,8.7,0,0,1-4.83-7.55l6.11,2.83A8.77,8.77,0,0,0,267,158.69Z"/><path class="cls-24" d="M262.19,151.1l-6.13-2.83-.3-5.2,6.11,2.83Z"/><path class="cls-19" d="M261.85,145.9l-6.11-2.83c-.34-5.47,3.47-10.83,8.53-11.88l6.11,2.83C265.32,135.07,261.51,140.39,261.85,145.9Z"/><path class="cls-19" d="M330.23,121.57c5-1.06,9.43,2.57,9.77,8.07l.34,5.24c.34,5.47-3.47,10.83-8.52,11.88l-59.9,12.45c-5,1.06-9.43-2.56-9.77-8.07l-.34-5.24c-.34-5.47,3.47-10.83,8.53-11.88Z"/><path class="cls-18" d="M262.23,151.86,256.12,149l-.46-7,6.11,2.83Z"/><path class="cls-18" d="M340,128.62l.45,7-78.18,16.26-.46-7Z"/><path class="cls-18" d="M267.06,159,261,156.12a8.7,8.7,0,0,1-4.83-7.55l6.11,2.83A8.75,8.75,0,0,0,267.06,159Z"/><path class="cls-18" d="M340.38,135.15c.34,5.47-3.47,10.82-8.53,11.88L272,159.48c-5,1-9.43-2.57-9.77-8.08Z"/><path class="cls-25" d="M316.06,140.47l26.74-4.34a4.17,4.17,0,0,1,4.42,6l-17.33,38.56c-1.43,2.83-5.43.79-8.26-.64a5.77,5.77,0,0,1-2.56-7.73c.07-.15.15-.3.22-.42L340,138.11l4.38,6-26.32,6.35a5.14,5.14,0,1,1-2.42-10h0A1.19,1.19,0,0,0,316.06,140.47Z"/><path class="cls-20" d="M292.18,261.91v21l3.28,1.78a2.67,2.67,0,0,0,1.62.3c1.92-.27,3.47-2.53,3.47-5V261.33a1.42,1.42,0,0,1-.45.08l-5.89.82"/><path class="cls-18" d="M301.91,256.33l-5.89.83c-1,.15-1.92.57-2.07,1v.11l-21-25.19v5a.4.4,0,0,0,.27.34l20.86,25.12.15.07h0a2.19,2.19,0,0,0,1.28.27h.6l5.89-.83a.9.9,0,0,0,.45-.08c.94-.22,1.66-.64,1.66-1v-5C304.06,256.37,303.06,256.14,301.91,256.33Z"/><path class="cls-19" d="M303.06,252.37h0l-21-25.19a1.7,1.7,0,0,0-1.13-.19l-5.89.83a2.61,2.61,0,0,0-2.11,2.56V233l21,25.2a.13.13,0,0,1,0-.12c.15-.41,1-.83,2.07-1l5.89-.83c1.16-.15,2.11.08,2.11.49v-2.64A2,2,0,0,0,303.06,252.37Z"/><path class="cls-26" d="M334.38,286.16c.08-.49,2-7.31,2.49-7.27s6,6.41,6,6.41l-3.54,4.3S333.74,291.11,334.38,286.16Z"/><path class="cls-18" d="M349.24,257.42l14,15.69,15.69-7.69V260S361,252.94,360,252.94,349.24,257.42,349.24,257.42Z"/><path class="cls-27" d="M376.77,331.69a38.61,38.61,0,0,1-2.07-4.53c-4.91-12.9-12.45-40.24-14.9-44.28a17.53,17.53,0,0,0-6.19-6.52c-1.73-1.36-3.62-2.64-5.58-3.89a119.81,119.81,0,0,0-12.67-6.71c-4.41-2.08-8.94-4-13.58-5.7-2.3-.86-4.64-1.69-7-2.52-1.17-.42-2.33-.8-3.5-1.17l-1.74-.57-1.66-.53a8.3,8.3,0,0,1,3.92-16.1l17.13,3-2.08-.12c5.17-.41,10.34-.71,15.54-1.09s10.34-.72,15.54-1.06l15.54-1c5.2-.33,10.37-.6,15.54-.86h.68a8,8,0,0,1,4.6,14.63l-50.46,34.74c-4.38,2.37-8-1.55-10.79-7.47l51.78-40.36,5.28,14.6q-7.74.67-15.5,1.28c-5.16.42-10.33.79-15.5,1.17s-10.33.75-15.54,1.09-10.33.72-15.54,1.06h-.11a7.89,7.89,0,0,1-2-.11l-17.09-3.17,3.89-16.11,2,.65,1.88.64c1.25.45,2.49.86,3.74,1.32,2.49.9,4.94,1.85,7.39,2.86,4.9,2,9.73,4.11,14.56,6.49a130.2,130.2,0,0,1,14.14,8.11,84.62,84.62,0,0,1,6.83,5.09c2.23,1.89,6.68,4.64,9.13,10.45,2.15,5.09,9.16,38.32,11.73,50.12.38,1.74.53,2.95.68,3.62Z"/><path class="cls-26" d="M374.7,327.24s-.3,8.45,1.58,9.58,5,.23,10.52,1.05c5.32.83,10.79,1.89,13.06-1.35-2.68-4.19-8-6.08-15.73-11.32C383.79,326.86,379.19,329.39,374.7,327.24Z"/><path class="cls-26" d="M335.44,283.94c-.34-.49-4.61,1-6.23,3.73,0,0-15.46,13.47-5,22.26,1.16.79,4.33,2,5.54.75,2-2.07,10.11-21.08,9.73-21.31S335.06,291.56,335.44,283.94Z"/><path class="cls-25" d="M317.48,168a11,11,0,0,0-11.73,2.38l1.32,2.52Z"/><path class="cls-28" d="M377.87,227.89l-2.3,1-4.27-2.53s-.26.64-1.84.75-8.57-7.73-10.34-8.11,4.38-5,4.38-5,10.11,5,10.48,5.88S377.94,226.76,377.87,227.89Z"/><path class="cls-29" d="M366.21,221.14c0-.79,4.57,0,5.09.6s4.27,7.1,4.27,7.1l-4.27-2.53S366.25,221.9,366.21,221.14Z"/><path class="cls-29" d="M306.55,160.38l1.92,13.5s5.13,8.56,10.26,4.15a5,5,0,0,0,1-7l-.32-.39L316.06,163Z"/><path class="cls-30" d="M296.32,220.76c-1-9.5,1.17-12.89-2.15-33.45.42-6.94,5.85-14.82,5.85-14.82l7.69-.34h0l.15-.08a15.15,15.15,0,0,1,1.82,2.94l2,2.34c1,1.06,3,.6,5.16-.11,4.91-1.59,2.76-5.7,1.7-8.6,1-2.11,2.26-2.91,6.07-5.43-.26,7.39,1,14.93,5.32,17.46,1.43,26.74,2.41,36.58,8.19,52-1,3.28-2.49,4.11-13.47,9.39A57.68,57.68,0,0,1,302,247.27,127.09,127.09,0,0,1,296.32,220.76Z"/><path class="cls-31" d="M325,223.59c-.19,2.15-2.83,10.22-4.3,10.11s-5.92-6.79-6.56-9S316.46,179,316.46,179l3.25-.23S325.14,221.44,325,223.59Z"/><path class="cls-32" d="M319.93,179.35l-3.87,1.47-1.18-3.13,4.22-2.49Z"/><path class="cls-25" d="M314.88,177.69a9.45,9.45,0,0,0-.87-1.28l-1.92.15s1.92,7,2.3,7.17S314.88,177.69,314.88,177.69Z"/><path class="cls-8" d="M305.75,170.38l8.26,6,.38,7.28-8.94-10.45Z"/><path class="cls-25" d="M324.84,180.69l-5.78-5-1-3Z"/><path class="cls-8" d="M321.37,169.24l3.47,11.45-6.78-8-.34-6.15,1.81,1.09Z"/><path class="cls-33" d="M322.06,244.87a41.25,41.25,0,0,0,8-3.51,35.4,35.4,0,0,0,8.52-6.79c.49-.53-.53-2.15-.53-2.15a33.18,33.18,0,0,1-9,7.43,45,45,0,0,1-28,5.51s.68,2.07.94,2.11A47.72,47.72,0,0,0,322.06,244.87Z"/><path class="cls-25" d="M305.53,155.33H262.38l2.45-7.28,35.23,24.47c2.56,1.89,2.41,9.85.52,12.41s-3.8,4.3-6.37,2.42c-.11-.08-34.43-32.93-34.43-32.93h0a4.11,4.11,0,0,1-.45-5.8h0a4,4,0,0,1,2.94-1.43l43.11-2a5.12,5.12,0,0,1,.49,10.22Z"/><path class="cls-34" d="M333.7,240.69l2.19-2.15s1.58-1.85.94-2.72l-.19-.26c-.68-.87-2-.11-2-.11l-3.58,1.8a2,2,0,0,0-.38,2.79l.19.26a2,2,0,0,0,2.8.42Z"/><path class="cls-35" d="M315.79,137.69l2.41,8.45-6.45-6Z"/><path class="cls-28" d="M319,147.48c4.07,5.36,4.83,13.28,2.19,15.8-5.88,2.76-12.3,1.29-17.73-4.6a5.05,5.05,0,0,1-4.86-1.51c-.72-1.13-1.66-2.67,1.43-2.94-4.53-9.5-5.2-14.56,2-17.91S314.46,137.94,319,147.48Z"/><path class="cls-36" d="M302.06,154.69l3.35.57a4.75,4.75,0,0,0,5.58.83h0c2-1.25,2.49-4.3,1.7-5.58a1,1,0,0,0-.3-.34,3.89,3.89,0,0,1,2.22-1.17v.07a3.52,3.52,0,0,0,2.15,1.32,4,4,0,0,0,3.06-.37h0a3.52,3.52,0,0,0,1.14-4.64c-.91-1.47-2.42-.83-3.66-.08a10.27,10.27,0,0,0-2.27,1.77,2,2,0,0,0-.6,1.47,4.72,4.72,0,0,0-2.49,1.36c-1.21-.56-3.09.57-3.81,1-2.37,1.43-3.47,2.79-3.09,3.85l-3-.53a.28.28,0,0,0-.26.19.19.19,0,0,0,0,.28A.18.18,0,0,0,302.06,154.69Zm13.05-5.88c-.23-.38-.12-.87.41-1.43a9.11,9.11,0,0,1,2.15-1.7c2-1.21,2.64-.76,3.06-.08a3.12,3.12,0,0,1-1,4,3.6,3.6,0,0,1-2.71.3,2.88,2.88,0,0,1-1.91-1.06Zm-9.47,6c-.49-.83.57-2.12,2.83-3.51,2.07-1.25,3.32-1.43,3.85-.57a4,4,0,0,1-6.68,4.08Z"/><path class="cls-35" d="M292.44,141.56c-2.15-.45-4.83-1.77-2.57-5.7a6.89,6.89,0,0,0,2.91,5.17c-.6-13.12,10.33-6.9,15.88-7.84,6.33-1.06,6.37-4,4.22-5.62,3.55-.23,9.51,9.73.53,14.25-8.41,4.27-11.2-.3-12.11,6.34s2.42,5.7,2.57,7.81C288.33,157,288.52,147.69,292.44,141.56Z"/><path class="cls-37" d="M292.44,141.56c1.7,1.62,4.9,4.68,10.07,3.36-.6.52-1,1.47-1.21,3.24-.9,6.64,2.42,5.7,2.57,7.81C288.33,157,288.52,147.69,292.44,141.56Z"/><path class="cls-27" d="M358,223.82a.76.76,0,1,0-.75-.77h0A.75.75,0,0,0,358,223.82Z"/><path class="cls-8" d="M382.66,225l-1,.57-25.3-11.73a3.23,3.23,0,0,0-3,.3L317.9,239.74l-1.2-.38.19,1.62a1,1,0,0,0,.67.87l25.16,12.44a3.17,3.17,0,0,0,3-.26l36.59-26.63a1,1,0,0,0,.52-.9Z"/><path class="cls-38" d="M353.2,212.47a3.38,3.38,0,0,1,3-.31l25.72,11.92a1,1,0,0,1,.59,1.29,1,1,0,0,1-.4.49l-36.58,26.62a3.18,3.18,0,0,1-3,.27L317.37,240.3a1,1,0,0,1-.6-1.28,1,1,0,0,1,.45-.53Z"/><path class="cls-8" d="M379.26,190.93l-1.2-.24h0a1.26,1.26,0,0,0-.83.31l-37,25.79a3.61,3.61,0,0,0-1.21,2.83l3.73,33.95c.12,1,.8,1.28,1.55.68l37-27a3.61,3.61,0,0,0,1.17-2.87l-3.7-32.7v-.22A3.54,3.54,0,0,0,379.26,190.93Z"/><path class="cls-39" d="M383.18,224.91a3.53,3.53,0,0,1-1.17,2.87l-37,27c-.76.6-1.43.3-1.55-.68l-3.73-33.95a3.38,3.38,0,0,1,1.2-2.83l37-25.79c.76-.57,1.48-.27,1.59.71Z"/><path class="cls-11" d="M213.46,279.94l4.3,22.82c0,5.88,33.53,5.88,33.53,0l2.49-23.2"/><path class="cls-12" d="M253.78,279.6c0,1.4-1.77,2.68-4.71,3.66a51.23,51.23,0,0,1-15.47,2,50.81,50.81,0,0,1-15.46-2c-2.94-1-4.72-2.26-4.72-3.66,0-3.17,9-5.69,20.18-5.69S253.78,276.43,253.78,279.6Z"/><path class="cls-13" d="M249.18,282.77a2.64,2.64,0,0,1-.08.49,50.85,50.85,0,0,1-15.46,2,51.19,51.19,0,0,1-15.47-2,1.15,1.15,0,0,1-.07-.49c0-2.45,7-4.41,15.54-4.41S249.18,280.32,249.18,282.77Z"/><path class="cls-14" d="M230.21,281.3c-5.55-10.45-8.87-29.65,1.43-44.43,0,0-22.82,17.84-7.51,45C224.17,281.87,228.17,283.94,230.21,281.3Z"/><path class="cls-15" d="M230.21,281.3c-5.55-10.45-8.87-29.65,1.43-44.43-12.79,13.09-10.52,37.94-3.77,45.71A3,3,0,0,0,230.21,281.3Z"/><path class="cls-15" d="M222.29,281.15c-1.63-6.26-7.36-15.2-16.94-17.35,0,0,16.33.49,20.14,17C225.42,281.87,224,282.92,222.29,281.15Z"/><path class="cls-14" d="M239.71,280.58c-1.32-11.8,2.68-31,17.8-41,0,0-27.94,8.22-23.65,39.23C233.86,278.89,236.85,282.28,239.71,280.58Z"/><path class="cls-15" d="M239.71,280.58c-1.32-11.8,2.68-31,17.8-41-16.82,7.47-23.87,31.53-20.44,41.3A3,3,0,0,0,239.71,280.58Z"/><path class="cls-14" d="M238.35,280.17c6.26-6.15,12.86-19,8.79-31.76,0,0,12.22,17.69-4.64,33.49C242.5,281.9,239.22,282.47,238.35,280.17Z"/><path class="cls-15" d="M238.35,280.17c6.26-6.15,12.86-19,8.79-31.76,6.19,12.11-.94,29.19-7.47,33.19A2.39,2.39,0,0,1,238.35,280.17Z"/><path class="cls-14" d="M222.29,281.15c-1.63-6.26-7.36-15.2-16.94-17.35,10,.56,18.82,12.71,18.94,18.33A2.27,2.27,0,0,1,222.29,281.15Z"/><path class="cls-14" d="M236.28,282.36c-4.15-13-4-35.57,10.86-50.28,0,0-29.72,15.58-17.88,49.63C229.3,281.75,233.41,284.92,236.28,282.36Z"/><path class="cls-15" d="M236.28,282.36c-4.15-13-4-35.57,10.86-50.28-17.27,12.22-19.87,41-13.76,51.26A3.4,3.4,0,0,0,236.28,282.36Z"/><path class="cls-15" d="M233.94,283.41c4.75-14.82,4.49-40.47-12.37-57.18,0,0,33.79,17.73,20.33,56.46C241.9,282.69,237.18,286.28,233.94,283.41Z"/><path class="cls-14" d="M233.94,283.41c4.75-14.82,4.49-40.47-12.37-57.18,19.69,13.92,22.59,46.66,15.65,58.31A4.14,4.14,0,0,1,233.94,283.41Z"/><path class="cls-12" d="M221.06,282.32a6.73,6.73,0,0,0,2.26,1.73,12.1,12.1,0,0,0,3.89-.15c.79-.19-1.32-2.07-.83-2.45s1.06-.26.94-.72-.07-2-1.13-2c-.45,0-2.41,1.66-2.94,1.81C221.53,280.92,220.85,281.49,221.06,282.32Z"/><path class="cls-13" d="M226.06,280.81a2.56,2.56,0,0,0-2,1c-.64,1,0,.83,1,1.47s1.62-.64,1.62-.64-.45-.68-.23-1.13S226.06,280.81,226.06,280.81Z"/></g><path class="cls-40" d="M190.89,179H121.55a4.8,4.8,0,0,1-4.82-4.8h0V111.51a4.82,4.82,0,0,1,4.82-4.82h69.34a4.82,4.82,0,0,1,4.82,4.82v62.68A4.81,4.81,0,0,1,190.9,179Z"/><path class="cls-41" d="M168.18,117.79h18.57a1.24,1.24,0,0,0,1.31-1.18v-.08a1.28,1.28,0,0,0-1.26-1.26H168.18a1.25,1.25,0,0,0-1.26,1.24v0A1.25,1.25,0,0,0,168.18,117.79Z"/><path class="cls-4" d="M168.18,122.15h18.57a1.24,1.24,0,0,0,1.31-1.18v-.08a1.28,1.28,0,0,0-1.26-1.26H168.18a1.27,1.27,0,0,0-1.26,1.27A1.25,1.25,0,0,0,168.18,122.15Z"/><path class="cls-4" d="M168.18,126.52h18.57a1.24,1.24,0,0,0,1.31-1.18v-.08A1.28,1.28,0,0,0,186.8,124H168.18a1.27,1.27,0,0,0-1.26,1.27A1.25,1.25,0,0,0,168.18,126.52Z"/><path class="cls-42" d="M160.62,124.69a18.32,18.32,0,0,0-34.74.71,18.09,18.09,0,0,0,.24,11.63c.14.38.29.78.45,1.14a17.88,17.88,0,0,0,2.85,4.52,18.32,18.32,0,0,0,31.2-18ZM148,143.78a13.71,13.71,0,0,1-15.09-4,13,13,0,0,1-2.12-3.42c-.12-.27-.24-.57-.34-.86a13.74,13.74,0,0,1,8.29-17.58,13.92,13.92,0,0,1,4.24-.81,13.74,13.74,0,0,1,5,26.67Z"/><path class="cls-43" d="M130.25,126.76l-4.39-1.36a18.37,18.37,0,0,1,17-12.86l.14,4.59a14,14,0,0,0-4.21.8A13.66,13.66,0,0,0,130.25,126.76Z"/><path class="cls-44" d="M130.76,136.32l-4.21,1.83c-.15-.38-.31-.76-.45-1.14a18.3,18.3,0,0,1-.24-11.63l4.39,1.36a13.63,13.63,0,0,0,.17,8.72C130.54,135.77,130.64,136.05,130.76,136.32Z"/><path class="cls-45" d="M129.4,142.69a18.29,18.29,0,0,1-2.85-4.56l4.21-1.83a13.91,13.91,0,0,0,2.13,3.42Z"/><path class="cls-3" d="M176.5,135.87a7.6,7.6,0,0,0-8.77,1.66,8.11,8.11,0,0,0-1.33,2,7.57,7.57,0,0,0,3.66,10.05l.47.2a6.88,6.88,0,0,0,2.15.5,7.59,7.59,0,0,0,3.87-14.41Zm1.9,9.29a5.67,5.67,0,0,1-5.59,3.23,6,6,0,0,1-1.63-.38l-.34-.16a5.69,5.69,0,1,1,7.57-2.71Z"/><path class="cls-43" d="M168.23,145.37l-1.67.88a7.57,7.57,0,0,1-.14-6.77,7,7,0,0,1,1.33-2l1.38,1.3a5.57,5.57,0,0,0-1,1.46A5.66,5.66,0,0,0,168.23,145.37Z"/><path class="cls-46" d="M171.18,148l-.69,1.76a3.82,3.82,0,0,1-.46-.21,7.33,7.33,0,0,1-3.47-3.33l1.67-.88a5.6,5.6,0,0,0,2.61,2.5Z"/><path class="cls-47" d="M172.65,150.28a7,7,0,0,1-2.16-.5l.69-1.76a5.38,5.38,0,0,0,1.63.38Z"/><path class="cls-47" d="M170.92,155.27H156.77V155h13.88v-6h.27Z"/><path class="cls-48" d="M164.23,152.06h-7.46v1.69h7.46Z"/><path class="cls-40" d="M212.85,190.55H148.78a3.24,3.24,0,0,1-3.24-3.24h0V162.45a3.24,3.24,0,0,1,3.24-3.24h64.07a3.24,3.24,0,0,1,3.24,3.24V187.3a3.24,3.24,0,0,1-3.23,3.25Z"/><path class="cls-48" d="M159.06,165.59h-3.12v20.75h3.12Z"/><path class="cls-48" d="M166.83,169.8h-3.12v16.54h3.12Z"/><path class="cls-48" d="M174.6,166.69h-3.12v19.65h3.12Z"/><path class="cls-48" d="M182.37,172.84h-3.13v13.52h3.13Z"/><path class="cls-48" d="M190.13,167.35h-3.07v19h3.12Z"/><path class="cls-48" d="M197.92,164.49h-3.13v21.87h3.13Z"/><path class="cls-48" d="M205.68,163.3h-3.12v23.06h3.12Z"/><path class="cls-3" d="M159.06,173.33h-3.12v13h3.12Z"/><path class="cls-3" d="M166.83,176h-3.12v10.37h3.12Z"/><path class="cls-3" d="M174.6,174h-3.12v12.33h3.12Z"/><path class="cls-3" d="M182.37,177.86h-3.13v8.48h3.13Z"/><path class="cls-3" d="M190.13,174.43h-3.07v11.93h3.12Z"/><path class="cls-3" d="M197.92,172.69h-3.13v13.72h3.13Z"/><path class="cls-3" d="M205.68,171.88h-3.12v14.46h3.12Z"/><g class="cls-49"><rect class="cls-50" x="116.06" y="179.32" width="78.68" height="81.37" rx="10"/></g><g class="cls-49"><rect class="cls-51" x="144.3" y="190.08" width="71.96" height="55.82" rx="10"/></g><g class="cls-52"><path class="cls-53" d="M538.45,325.07H596a5.39,5.39,0,0,0,5.39-5.38V243.08a5.39,5.39,0,0,0-5.39-5.39H538.45a5.39,5.39,0,0,0-5.39,5.39h0v76.61A5.38,5.38,0,0,0,538.45,325.07Z"/></g><path class="cls-47" d="M593.2,245H575.63v2H593.2Z"/><path class="cls-43" d="M593.2,249.38H580.3v2h12.9Z"/><path class="cls-43" d="M593.22,253.75H561.51v2h31.71Z"/><path class="cls-47" d="M562.88,266.4H541.12v2h21.76Z"/><path class="cls-43" d="M570.58,270.8H541.12v2h29.46Z"/><path class="cls-43" d="M580.4,275.2H541.12v2H580.4Z"/><path class="cls-47" d="M565.06,287.85h-24v2h24Z"/><path class="cls-43" d="M574.26,292.25H541.12v2h33.14Z"/><path class="cls-43" d="M573,296.69H541.12v2H573Z"/><path class="cls-54" d="M541.06,243.84l-1.49,4.08a.95.95,0,0,1-1.78-.65l1.49-4.08a1,1,0,0,1,1.83.52S541.08,243.8,541.06,243.84Z"/><path class="cls-55" d="M541.06,243.84l-1.49,4.08a.95.95,0,0,1-1.78-.65l1.49-4.08a1,1,0,0,1,1.83.52S541.08,243.8,541.06,243.84Z"/><path class="cls-54" d="M544.51,243.08l-1.76,4.84a.95.95,0,0,1-1.78-.65l1.76-4.84a1,1,0,0,1,1.22-.56.94.94,0,0,1,.56,1.21Z"/><path class="cls-56" d="M544.51,243.08l-1.76,4.84a.95.95,0,0,1-1.78-.65l1.76-4.84a1,1,0,0,1,1.22-.56.94.94,0,0,1,.56,1.21Z"/><path class="cls-54" d="M548,242.48,546,248a.95.95,0,1,1-1.78-.65l2-5.49a1,1,0,0,1,1.78.65Z"/><path class="cls-57" d="M548,242.48,546,248a.95.95,0,1,1-1.78-.65l2-5.49a1,1,0,0,1,1.78.65Z"/><g class="cls-49"><rect class="cls-58" x="534.13" y="325.16" width="67.2" height="64.53" rx="10"/></g><path class="cls-3" d="M590.76,308.69a7.76,7.76,0,0,0-3.08-1.69,6.44,6.44,0,0,0-.72-.2,3.41,3.41,0,0,1-1.27-.81,1.59,1.59,0,0,1-.46-1.26,1.82,1.82,0,0,1,.46-1.35,1.66,1.66,0,0,1,1.27-.47,2.05,2.05,0,0,1,1.55.63,2.74,2.74,0,0,1,.5,1.77v.34h2.61v-.38a5.2,5.2,0,0,0-1-3.2,3.82,3.82,0,0,0-2.4-1.39v-2.19h-2.16v2.2a3.81,3.81,0,0,0-2.39,1.27,4,4,0,0,0-1,2.82,3.87,3.87,0,0,0,1.09,2.85,6.78,6.78,0,0,0,2.9,1.59l.38.16a4.74,4.74,0,0,1,1.69.93,1.64,1.64,0,0,1,.5,1.22,1.53,1.53,0,0,1-.58,1.35,2.94,2.94,0,0,1-1.65.5h0a2.52,2.52,0,0,1-1.69-.54,2.26,2.26,0,0,1-.63-1.85v-.38h-2.43l-.08.2h0v.08a4.13,4.13,0,0,0,1.13,3.28,4.63,4.63,0,0,0,2.61,1.27v1.89h2.15v-1.89a4.51,4.51,0,0,0,2.62-1.23,3.93,3.93,0,0,0,1.09-2.9A3.47,3.47,0,0,0,590.76,308.69Z"/></svg>