<svg width="880" height="774" viewBox="0 0 880 774" fill="none" xmlns="http://www.w3.org/2000/svg">
<path d="M176.453 0.513672H714.428C722.566 0.513672 730.365 3.74588 736.121 9.49926C741.868 15.2526 745.098 23.0557 745.098 31.1925V65.0649H145.781V31.1925C145.781 23.0557 149.013 15.2526 154.765 9.49926C160.517 3.74588 168.319 0.513672 176.453 0.513672Z" fill="#3D4CDF"/>
<path d="M145.781 65.0649H745.098V608.447C745.098 615.812 743.653 623.105 740.833 629.909C738.013 636.714 733.89 642.896 728.679 648.104C723.476 653.312 717.292 657.443 710.492 660.262C703.684 663.08 696.393 664.531 689.031 664.531H201.852C194.489 664.531 187.198 663.08 180.395 660.262C173.592 657.443 167.41 653.312 162.204 648.104C156.997 642.896 152.868 636.714 150.049 629.909C147.232 623.105 145.781 615.812 145.781 608.447V65.0649Z" fill="url(#paint0_linear_572_2934)"/>
<path d="M537.362 450.518H372.978V530.37H537.362V450.518Z" fill="#FFCCB3"/>
<path d="M372.009 499.747C352.731 518.721 345.146 612.162 346.161 664.531H575.65C575.65 664.531 575.237 550.329 557.839 511.844C541.839 476.453 515.243 528.659 372.009 499.747Z" fill="#1F2D49"/>
<path d="M509.741 87.1062C509.741 87.1062 528.782 65.3817 565.742 62.2211C602.702 59.0605 613.761 91.4405 612.182 111.334C610.602 131.228 581.636 172.316 587.43 189.7C593.223 207.083 565.982 198.655 563.013 163.888C560.044 129.121 548.984 80.6582 518.966 98.0411L509.741 87.1062Z" fill="#080B09"/>
<path d="M515.521 76.9369C515.521 76.9369 520.074 74.2975 523.372 80.4545C526.67 86.6115 532.829 99.1139 525.022 102.428C517.216 105.743 515.521 76.9369 515.521 76.9369Z" fill="#3D4CDF"/>
<path d="M409.942 277.16C409.942 277.16 439.467 310.308 429.648 320.94C410.2 342.792 358.472 383.863 341.524 397.457C340.792 398.018 339.957 398.428 339.065 398.663C338.175 398.9 337.246 398.957 336.333 398.832C335.42 398.707 334.54 398.403 333.746 397.936C332.951 397.469 332.256 396.85 331.701 396.114L291.623 343.408C290.056 341.379 289.325 338.827 289.58 336.275C289.836 333.724 291.059 331.367 292.997 329.689L370.63 262.729L409.942 277.16Z" fill="#3D4CDF"/>
<path d="M363.329 319.302C363.329 319.302 326.533 341.177 323.217 385.129L330.545 394.546C330.545 394.546 335.146 402.567 341.523 397.458C347.9 392.349 377.396 368.716 377.396 368.716L363.329 319.302Z" fill="#0E66AF"/>
<path d="M397.733 335.964C420.685 335.964 439.292 317.354 439.292 294.396C439.292 271.439 420.685 252.828 397.733 252.828C374.782 252.828 356.175 271.439 356.175 294.396C356.175 317.354 374.782 335.964 397.733 335.964Z" fill="#3D4CDF"/>
<path d="M289.516 424.698L253.198 376.599L287.579 349.901L292.968 345.561L330.641 394.839L324.081 399.558L289.516 424.698Z" fill="#FFCCB3"/>
<path d="M324.08 399.558C314.352 386.53 296.057 361.068 287.579 349.901L292.968 345.561L330.545 394.546L324.08 399.558Z" fill="#FF967C"/>
<path d="M270.806 431.37C287.467 431.37 300.974 417.86 300.974 401.195C300.974 384.529 287.467 371.019 270.806 371.019C254.143 371.019 240.637 384.529 240.637 401.195C240.637 417.86 254.143 431.37 270.806 431.37Z" fill="#FFCCB3"/>
<path d="M296.349 384.961C296.349 384.961 199.032 242.009 194.534 229.869C190.156 218.013 167.169 246.543 167.169 246.543L242.487 410.911L296.349 384.961Z" fill="#FFCCB3"/>
<path d="M430.327 185.609L418.628 267.195C418.628 267.195 415.557 278.023 429.186 279.662C442.816 281.302 471.879 277.639 482.258 266.575C492.638 255.512 489.007 250.03 489.007 250.03L466.993 161.478L430.327 185.609Z" fill="#FFCCB3"/>
<path d="M428.699 196.167L457.316 186.057L421.863 238.615L428.699 196.167Z" fill="#FF967C"/>
<path d="M397.949 84.8357C397.949 84.8357 373.398 142.536 386.193 182.083C394.538 207.874 412.71 212.511 454.328 193.183C492.488 175.462 502.399 162.056 502.399 162.056L508.026 97.7344C508.026 97.7344 422.883 33.4063 397.949 84.8357Z" fill="#FFCCB3"/>
<path d="M418.421 243.737C418.421 243.737 386.971 252.478 380.588 257.585C374.205 262.692 369.563 304.205 360.13 324.71C346.165 355.067 337.123 371.216 360.585 404.577C374.735 424.698 369.924 475.851 369.924 475.851H542.208C536.988 375.269 560.087 256.7 560.087 256.7L482.332 238.778C464.8 241.801 418.421 243.737 418.421 243.737Z" fill="#3D4CDF"/>
<path d="M412.921 245.36C412.921 245.36 415.247 229.549 422.679 228.436C430.112 227.323 475.53 220.49 482.595 223.466C489.659 226.441 498.212 245.36 498.212 245.36C498.212 245.36 483.711 280.738 462.889 282.597C442.068 284.457 406.23 278.037 410.02 264.883C413.81 251.73 412.921 245.36 412.921 245.36Z" fill="#3D4CDF"/>
<path d="M398.776 250.167C398.776 250.167 403.8 280.68 431.086 280.198C458.372 279.716 498.022 238.778 498.022 238.778" stroke="white" stroke-width="1.35709" stroke-miterlimit="10"/>
<path d="M522.401 294.396C522.401 294.396 495.287 312.326 503.275 330.419C512.256 350.761 512.178 403.153 486.404 406.437C440.416 412.295 460.397 420.339 481.66 425.479C502.924 430.619 494.218 430.624 494.218 452.658C494.218 468.34 543.488 481.936 542.209 469.265C533.641 384.489 569.253 330.809 522.401 294.396Z" fill="#0E66AF"/>
<path d="M395.761 169.729L418.599 170.859C418.518 171.14 418.394 171.524 418.215 171.977C417.827 172.959 417.182 174.252 416.161 175.504C414.134 177.988 410.595 180.348 404.481 179.729C400.62 178.989 398.425 176.393 397.182 173.934C396.56 172.703 396.182 171.515 395.961 170.635C395.87 170.274 395.805 169.966 395.761 169.729Z" fill="#E56441" stroke="#E56441"/>
<path d="M397.268 131.798C398.222 128.259 397.05 124.865 394.649 124.217C392.249 123.569 389.529 125.913 388.574 129.452C387.62 132.991 388.793 136.385 391.193 137.033C393.594 137.68 396.313 135.337 397.268 131.798Z" fill="#080B09"/>
<path d="M432.599 141.875C433.553 138.336 432.382 134.942 429.98 134.294C427.58 133.647 424.86 135.99 423.905 139.529C422.951 143.068 424.124 146.462 426.524 147.11C428.926 147.758 431.645 145.414 432.599 141.875Z" fill="#080B09"/>
<path d="M388.334 113.518L406.294 118.682C406.607 118.745 406.932 118.691 407.208 118.532C407.485 118.373 407.694 118.12 407.798 117.818C407.88 117.251 407.846 116.674 407.7 116.12C407.553 115.566 407.295 115.048 406.941 114.598C406.589 114.146 406.148 113.771 405.647 113.495C405.145 113.219 404.593 113.047 404.022 112.991L388.596 111.367C387.413 111.048 386.854 113.119 388.334 113.518Z" fill="#080B09"/>
<path d="M449.738 128.875L425.381 123.89C425.602 123.165 425.971 122.494 426.466 121.921C426.962 121.347 427.571 120.883 428.257 120.56C428.941 120.237 429.686 120.06 430.444 120.043C431.201 120.025 431.954 120.166 432.653 120.457L450.433 127.476C451.023 127.635 450.624 129.115 449.738 128.875Z" fill="#080B09"/>
<path d="M408.13 132.81L396.578 148.371L400.928 154.523" stroke="#E56441" stroke-width="2.23881" stroke-linecap="round"/>
<path d="M429.614 302.584C431.852 302.584 433.665 297.573 433.665 291.391C433.665 285.21 431.852 280.198 429.614 280.198C427.377 280.198 425.564 285.21 425.564 291.391C425.564 297.573 427.377 302.584 429.614 302.584Z" fill="white"/>
<path d="M616.305 456.583L556.245 461.505L545.992 417.968L533.641 384.489L596.848 376.923L604.749 414.391L616.305 456.583Z" fill="#FFCCB3"/>
<path d="M598.981 387.041L601.197 397.548L538.953 398.887L534.858 387.789L598.981 387.041Z" fill="#FF967C"/>
<path d="M549.753 338.53C572.705 338.53 591.311 319.92 591.311 296.962C591.311 274.005 572.705 255.394 549.753 255.394C526.801 255.394 508.195 274.005 508.195 296.962C508.195 319.92 526.801 338.53 549.753 338.53Z" fill="#3D4CDF"/>
<path d="M541.738 277.42C541.738 277.42 585.536 270.228 589.255 284.218C597.29 312.348 607.168 357.508 609.57 379.106C609.651 380.024 609.549 380.949 609.272 381.828C608.994 382.707 608.545 383.522 607.95 384.227C607.356 384.931 606.628 385.511 605.809 385.932C604.989 386.354 604.094 386.609 603.175 386.683L537.213 392.315C534.66 392.552 532.114 391.803 530.096 390.22C528.079 388.638 526.744 386.343 526.365 383.807L508.501 302.899L541.738 277.42Z" fill="#3D4CDF"/>
<path d="M413.256 79.3505C413.256 79.3505 414.809 107.377 438.546 120.959C438.546 120.959 445.488 142.455 471.394 147.51C471.394 147.51 469.863 127.753 482.211 127.962C503.178 128.317 492.865 160.13 478.69 165.349C469.056 168.896 463.254 181.485 477.554 210.175C510.39 198.461 533.482 151.15 524.429 98.6624C517.179 56.6291 465.082 42.903 454.378 44.2722C454.378 44.2722 409.926 28.9119 386.52 71.0389C366.512 107.051 385.198 128.543 385.198 128.543L395.862 96.4925C395.862 96.4925 400.315 99.621 413.256 79.3505Z" fill="#080B09"/>
<path d="M616.527 560.441H457.449C454.372 560.441 451.402 559.317 449.094 557.281C446.787 555.245 445.302 552.436 444.92 549.381L430.237 432.169C430.014 430.392 430.172 428.587 430.701 426.876C431.228 425.164 432.114 423.584 433.299 422.241C434.484 420.898 435.94 419.823 437.574 419.086C439.206 418.349 440.976 417.968 442.766 417.968H631.21C633 417.968 634.77 418.349 636.402 419.086C638.035 419.823 639.492 420.898 640.677 422.241C641.862 423.584 642.748 425.164 643.275 426.876C643.803 428.587 643.961 430.392 643.738 432.169L629.055 549.381C628.673 552.436 627.189 555.245 624.882 557.281C622.574 559.317 619.604 560.441 616.527 560.441Z" fill="url(#paint1_linear_572_2934)"/>
<path d="M537.362 498.187C543.529 498.187 548.528 493.187 548.528 487.019C548.528 480.851 543.529 475.851 537.362 475.851C531.196 475.851 526.197 480.851 526.197 487.019C526.197 493.187 531.196 498.187 537.362 498.187Z" fill="white"/>
<path d="M171.306 255.934L161.72 237.539C161.72 237.539 127.824 218.145 123.896 211.134C119.967 204.121 118.423 184.1 125.377 178.974C125.377 178.974 98.3345 158.657 102.938 154.541C107.527 150.126 160.659 189.606 160.659 189.606C160.659 189.606 154.19 160.52 164.02 159.157C166.683 170.43 171.245 181.168 177.51 190.91C187.86 206.915 189.135 221.251 189.135 221.251L201.333 244.667L171.306 255.934Z" fill="#FFCCB3"/>
<path d="M127.201 179.488L143.578 189.812" stroke="#FF967C" stroke-width="2.87188" stroke-linecap="round" stroke-linejoin="round"/>
<path d="M124.759 191.299L138.659 199.941" stroke="#FF967C" stroke-width="2.87188" stroke-linecap="round" stroke-linejoin="round"/>
<path d="M127.46 204.067L136.731 209.928" stroke="#FF967C" stroke-width="2.87188" stroke-linecap="round" stroke-linejoin="round"/>
<path d="M191.266 40.5967C195.577 40.5967 199.071 37.1014 199.071 32.7893C199.071 28.4773 195.577 24.9819 191.266 24.9819C186.955 24.9819 183.46 28.4773 183.46 32.7893C183.46 37.1014 186.955 40.5967 191.266 40.5967Z" fill="white"/>
<path d="M222.791 40.5967C227.102 40.5967 230.597 37.1014 230.597 32.7893C230.597 28.4773 227.102 24.9819 222.791 24.9819C218.48 24.9819 214.986 28.4773 214.986 32.7893C214.986 37.1014 218.48 40.5967 222.791 40.5967Z" fill="white"/>
<path d="M252.412 40.5967C256.723 40.5967 260.218 37.1014 260.218 32.7893C260.218 28.4773 256.723 24.9819 252.412 24.9819C248.101 24.9819 244.607 28.4773 244.607 32.7893C244.607 37.1014 248.101 40.5967 252.412 40.5967Z" fill="white"/>
<path opacity="0.7" d="M17.9459 31.8323C49.3276 58.6025 132.088 119.641 237.197 122.557C239.347 122.621 241.386 123.522 242.883 125.067C244.379 126.611 245.214 128.679 245.212 130.83V297.414C245.212 299.54 244.397 301.584 242.932 303.123C241.468 304.663 239.467 305.581 237.345 305.686C205.743 307.259 85.9055 307.076 6.49962 222.041C5.08344 220.513 4.29994 218.505 4.30619 216.423V38.1411C4.3053 36.5603 4.75683 35.0117 5.60814 33.6791C6.45946 32.3473 7.67396 31.2861 9.10888 30.6229C10.5429 29.9588 12.1384 29.7196 13.7045 29.9347C15.2706 30.1489 16.7421 30.8067 17.9459 31.8323Z" fill="#FEBB94"/>
<path d="M29.8501 80.9224C29.8501 80.9224 54.614 104.991 88.463 119.941" stroke="white" stroke-width="7.4328" stroke-miterlimit="10" stroke-linecap="round"/>
<path opacity="0.4" d="M29.8501 110.102C29.8501 110.102 64.3149 142.257 109.148 154.196" stroke="white" stroke-width="7.4328" stroke-miterlimit="10" stroke-linecap="round"/>
<path d="M24.7163 216.799V147.218L49.1054 164.675V235.937L24.7163 216.799Z" fill="white"/>
<path d="M65.8818 244.915V195.338L90.2709 209.928V258.936L65.8818 244.915Z" fill="white"/>
<path d="M170.17 283.725V234.149L145.781 230.81V279.818L170.17 283.725Z" fill="white"/>
<path d="M210.231 285.848V199.048H185.842V285.281L210.231 285.848Z" fill="white"/>
<path d="M105.832 266.637V243.971L130.221 250.831V275.472L105.832 266.637Z" fill="white"/>
<g opacity="0.7">
<path opacity="0.7" d="M79.0291 377.015C110.411 400.064 193.171 460.211 298.28 450.658C299.302 450.539 300.339 450.64 301.319 450.956C302.299 451.272 303.199 451.795 303.959 452.489C304.72 453.184 305.322 454.033 305.725 454.981C306.127 455.929 306.322 456.952 306.295 457.981V624.567C306.241 626.771 305.43 628.89 303.997 630.566C302.565 632.244 300.598 633.374 298.429 633.771C266.826 639.092 135.389 636.465 67.5819 568.582C66.8805 567.878 66.3255 567.043 65.9489 566.122C65.5723 565.203 65.3822 564.218 65.3894 563.224V384.942C65.3894 377.882 73.658 373.07 79.0291 377.015Z" fill="#96BAFD"/>
</g>
<path d="M584.135 555.659C584.135 555.659 592.543 556.357 591.276 560.601C590.009 564.844 582.504 562.886 575.649 567.129C568.796 571.373 541.699 574.402 528.164 572.146C514.629 569.889 510.869 555.659 510.869 555.659C510.869 555.659 508.606 542.158 532.514 540.771C556.422 539.385 567.549 547.059 571.707 555.377L584.135 555.659Z" fill="#FFCCB3"/>
<path d="M521.033 542.87L526.196 556.761" stroke="#E56441" stroke-width="2.23881" stroke-linecap="round"/>
<path d="M534.406 540.608L539.569 554.5" stroke="#E56441" stroke-width="2.23881" stroke-linecap="round"/>
<path d="M548.528 541.785L553.691 555.676" stroke="#E56441" stroke-width="2.23881" stroke-linecap="round"/>
<path opacity="0.7" d="M838.564 390.568C794.794 427.91 679.352 513.052 532.736 517.119C529.737 517.209 526.892 518.465 524.804 520.621C522.717 522.775 521.552 525.659 521.556 528.659V761.029C521.554 763.993 522.693 766.844 524.736 768.992C526.778 771.14 529.569 772.42 532.528 772.566C576.61 774.76 743.768 774.505 854.537 655.89C856.509 653.759 857.607 650.959 857.598 648.053V399.368C857.598 397.163 856.964 395.004 855.778 393.144C854.591 391.286 852.895 389.806 850.896 388.881C848.898 387.955 846.667 387.622 844.489 387.921C842.303 388.22 840.251 389.139 838.564 390.568Z" fill="#3D4CDF"/>
<path d="M821.966 459.043C821.966 459.043 787.423 492.617 740.208 513.472" stroke="white" stroke-width="10.368" stroke-miterlimit="10" stroke-linecap="round"/>
<path opacity="0.4" d="M821.966 499.747C821.966 499.747 773.886 544.599 711.349 561.254" stroke="white" stroke-width="10.368" stroke-miterlimit="10" stroke-linecap="round"/>
<path d="M799.514 317.056H665.89C663.268 317.056 660.673 317.572 658.251 318.576C655.829 319.579 653.628 321.05 651.774 322.904C649.921 324.759 648.45 326.96 647.447 329.382C646.444 331.805 645.927 334.401 645.927 337.024V378.374C645.927 380.996 646.444 383.593 647.447 386.015C648.45 388.439 649.921 390.64 651.774 392.494C653.628 394.348 655.829 395.819 658.251 396.823C660.673 397.826 663.269 398.343 665.89 398.343H713.33L727.322 412.344C728.634 413.655 730.41 414.391 732.266 414.391C734.122 414.391 735.898 413.655 737.21 412.344L751.202 398.343H799.514C804.806 398.343 809.892 396.239 813.631 392.494C817.379 388.749 819.476 383.67 819.476 378.374V337.024C819.476 331.728 817.379 326.649 813.631 322.904C809.892 319.159 804.806 317.056 799.514 317.056Z" fill="white"/>
<path d="M702.613 344.583C700.828 342.934 698.49 342.02 696.063 342.02C693.636 342.02 691.298 342.934 689.513 344.583L687.047 346.862L684.578 344.583C682.795 342.934 680.457 342.02 678.028 342.02C675.6 342.02 673.261 342.934 671.478 344.583C670.536 345.435 669.784 346.476 669.268 347.637C668.753 348.799 668.487 350.055 668.487 351.325C668.487 352.595 668.753 353.852 669.268 355.013C669.784 356.174 670.536 357.214 671.478 358.066L687.047 372.5L702.613 358.256C703.595 357.409 704.389 356.36 704.924 355.181C705.469 354.001 705.745 352.718 705.745 351.42C705.745 350.122 705.469 348.84 704.924 347.66C704.389 346.48 703.595 345.43 702.613 344.583Z" fill="#F4608A"/>
<path d="M719.996 353.017C720.13 351.268 720.808 349.899 722.022 348.91C723.235 347.922 724.815 347.428 726.751 347.428C728.045 347.428 729.161 347.665 730.089 348.141C731.043 348.597 731.757 349.224 732.23 350.022C732.721 350.821 732.971 351.725 732.971 352.732C732.971 353.911 732.632 354.928 731.945 355.783C731.275 356.639 730.401 357.191 729.321 357.438V357.58C730.553 357.884 731.534 358.483 732.257 359.377C732.98 360.27 733.346 361.439 733.346 362.884C733.346 363.968 733.096 364.947 732.596 365.822C732.105 366.678 731.365 367.353 730.374 367.847C729.384 368.341 728.197 368.588 726.814 368.588C724.797 368.588 723.146 368.066 721.852 367.02C720.558 365.955 719.835 364.454 719.684 362.514H722.191C722.325 363.655 722.789 364.587 723.592 365.309C724.386 366.031 725.457 366.392 726.787 366.392C728.116 366.392 729.125 366.05 729.803 365.366C730.508 364.663 730.865 363.759 730.865 362.657C730.865 361.231 730.383 360.204 729.437 359.577C728.482 358.949 727.046 358.636 725.127 358.636H724.476V356.468H725.163C726.903 356.449 728.232 356.163 729.125 355.613C730.017 355.042 730.463 354.168 730.463 352.988C730.463 351.981 730.133 351.173 729.464 350.564C728.821 349.956 727.884 349.652 726.671 349.652C725.493 349.652 724.538 349.956 723.815 350.564C723.092 351.173 722.664 351.991 722.539 353.017H719.996ZM739.949 364.853L736.763 372.524H735.023L737.103 364.853H739.949ZM755.637 350.08H745.634V356.582C746.071 355.973 746.713 355.48 747.57 355.099C748.427 354.7 749.346 354.501 750.336 354.501C751.916 354.501 753.201 354.833 754.182 355.498C755.173 356.145 755.878 356.991 756.297 358.037C756.734 359.063 756.949 360.157 756.949 361.316C756.949 362.685 756.699 363.911 756.181 364.995C755.673 366.079 754.878 366.934 753.816 367.562C752.772 368.189 751.47 368.503 749.908 368.503C747.918 368.503 746.303 367.989 745.062 366.963C743.831 365.936 743.072 364.567 742.814 362.856H745.348C745.598 363.94 746.115 364.786 746.918 365.394C747.713 366.003 748.721 366.307 749.935 366.307C751.443 366.307 752.567 365.86 753.335 364.967C754.093 364.054 754.468 362.856 754.468 361.373C754.468 359.89 754.093 358.749 753.335 357.951C752.567 357.134 751.452 356.725 749.97 356.725C748.962 356.725 748.078 356.972 747.311 357.467C746.57 357.941 746.035 358.597 745.687 359.434H743.242V347.798H755.637V350.08ZM760.09 366.364C762.499 364.425 764.391 362.837 765.756 361.601C767.13 360.347 768.282 359.044 769.21 357.694C770.164 356.325 770.637 354.985 770.637 353.673C770.637 352.438 770.334 351.468 769.727 350.764C769.138 350.042 768.174 349.681 766.845 349.681C765.551 349.681 764.543 350.089 763.82 350.907C763.115 351.705 762.74 352.78 762.678 354.129H760.17C760.25 352 760.893 350.355 762.106 349.196C763.329 348.036 764.9 347.456 766.818 347.456C768.772 347.456 770.325 347.998 771.458 349.082C772.618 350.165 773.198 351.658 773.198 353.559C773.198 355.137 772.726 356.678 771.78 358.179C770.843 359.662 769.781 360.974 768.585 362.115C767.389 363.236 765.854 364.548 763.989 366.05H773.796V368.218H760.09V366.364ZM789.484 349.852L781.56 368.446H778.936L786.977 350.108H775.974V347.884H789.484V349.852Z" fill="#3D4CDF"/>
<path opacity="0.7" d="M15.51 697.653H116.255C118.231 697.653 120.188 697.263 122.015 696.507C123.841 695.751 125.501 694.641 126.898 693.243C128.295 691.846 129.404 690.186 130.16 688.359C130.917 686.533 131.306 684.575 131.306 682.598V651.422C131.306 649.445 130.917 647.488 130.16 645.661C129.404 643.835 128.295 642.174 126.898 640.777C125.501 639.379 123.841 638.27 122.015 637.513C120.188 636.757 118.231 636.367 116.255 636.367H80.4917L69.9377 625.811C68.9499 624.823 67.6096 624.268 66.2121 624.268C64.8156 624.268 63.4752 624.823 62.4874 625.811L51.9334 636.367H15.51C11.5175 636.367 7.6893 637.953 4.86676 640.777C2.04422 643.6 0.458496 647.429 0.458496 651.422V682.598C0.458496 686.591 2.04422 690.42 4.86676 693.243C7.6893 696.067 11.5175 697.653 15.51 697.653Z" fill="#3D4CDF"/>
<path d="M62.9702 674.674C64.7906 673.212 66.2157 672.015 67.2482 671.083C68.2798 670.137 69.1471 669.155 69.8494 668.137C70.566 667.105 70.9238 666.094 70.9238 665.105C70.9238 664.173 70.6945 663.442 70.2358 662.912C69.7914 662.368 69.0677 662.095 68.0647 662.095C67.0902 662.095 66.3309 662.403 65.7865 663.019C65.2565 663.622 64.9691 664.431 64.9263 665.449H63.0345C63.0925 663.844 63.5797 662.604 64.4961 661.729C65.4135 660.855 66.5959 660.418 68.0433 660.418C69.5193 660.418 70.6874 660.826 71.5476 661.644C72.4212 662.46 72.8585 663.586 72.8585 665.019C72.8585 666.209 72.5006 667.37 71.7841 668.502C71.0818 669.621 70.2786 670.61 69.3765 671.469C68.4734 672.315 67.3196 673.304 65.915 674.437H73.31V676.07H62.9702V674.674ZM75.0983 672.781V671.298L82.6432 660.848H84.9866V671.083H87.1362V672.781H84.9866V676.243H83.0519V672.781H75.0983ZM83.1376 662.891L77.3551 671.083H83.1376V662.891ZM89.0477 664.611C89.1476 663.291 89.6563 662.26 90.5736 661.514C91.491 660.769 92.6805 660.396 94.1422 660.396C95.1166 660.396 95.9546 660.575 96.6569 660.934C97.3734 661.278 97.9106 661.751 98.2694 662.353C98.6415 662.955 98.828 663.636 98.828 664.396C98.828 665.285 98.5701 666.051 98.0543 666.697C97.5528 667.341 96.8933 667.757 96.0768 667.944V668.051C97.0085 668.28 97.7464 668.732 98.2908 669.406C98.8351 670.08 99.1073 670.96 99.1073 672.05C99.1073 672.867 98.9208 673.605 98.5487 674.265C98.1757 674.91 97.617 675.419 96.8719 675.791C96.1268 676.164 95.2309 676.351 94.185 676.351C92.6662 676.351 91.4187 675.956 90.4442 675.168C89.4698 674.365 88.9254 673.233 88.8112 671.771H90.7021C90.803 672.631 91.1537 673.333 91.756 673.877C92.3575 674.423 93.1606 674.695 94.1636 674.695C95.1666 674.695 95.926 674.437 96.4418 673.92C96.9719 673.39 97.2378 672.709 97.2378 671.878C97.2378 670.803 96.879 670.029 96.1625 669.556C95.4459 669.082 94.3644 668.846 92.917 668.846H92.4226V667.213H92.9384C94.2564 667.198 95.2523 666.983 95.926 666.567C96.5997 666.137 96.9362 665.477 96.9362 664.589C96.9362 663.83 96.6854 663.22 96.1839 662.761C95.6967 662.302 94.9944 662.073 94.077 662.073C93.1891 662.073 92.4726 662.302 91.9274 662.761C91.383 663.22 91.0609 663.837 90.96 664.611H89.0477ZM110.412 664.396C110.097 662.804 109.115 662.009 107.467 662.009C106.191 662.009 105.238 662.503 104.608 663.492C103.977 664.467 103.669 666.08 103.683 668.33C104.013 667.585 104.558 667.005 105.317 666.589C106.091 666.158 106.951 665.943 107.896 665.943C109.373 665.943 110.547 666.402 111.422 667.32C112.311 668.237 112.755 669.506 112.755 671.126C112.755 672.1 112.561 672.975 112.174 673.749C111.802 674.523 111.228 675.14 110.455 675.597C109.695 676.056 108.771 676.286 107.682 676.286C106.205 676.286 105.052 675.956 104.221 675.297C103.39 674.637 102.809 673.727 102.48 672.566C102.15 671.405 101.985 669.972 101.985 668.266C101.985 663.005 103.82 660.375 107.488 660.375C108.893 660.375 109.996 660.755 110.799 661.514C111.601 662.274 112.074 663.234 112.217 664.396H110.412ZM107.488 667.599C106.872 667.599 106.292 667.728 105.747 667.986C105.202 668.23 104.758 668.609 104.414 669.126C104.085 669.628 103.92 670.244 103.92 670.975C103.92 672.065 104.235 672.953 104.866 673.641C105.497 674.315 106.399 674.652 107.574 674.652C108.577 674.652 109.373 674.343 109.96 673.727C110.563 673.096 110.863 672.251 110.863 671.19C110.863 670.072 110.577 669.198 110.003 668.567C109.43 667.922 108.591 667.599 107.488 667.599Z" fill="white"/>
<path d="M551.742 671.712C551.742 671.712 583.871 664.983 598.561 649.395C618.024 628.742 622.514 603.974 643.838 601.427C677.305 597.43 696.705 715.612 737.335 699.623C777.964 683.633 768.362 595.378 792.536 580.419C809.187 570.114 817.843 600.761 841.161 592.766" stroke="white" stroke-width="10.368" stroke-miterlimit="10" stroke-linecap="round"/>
<path opacity="0.7" d="M235.557 574.736C259.574 581.595 315.761 593.852 389.385 585.397C390.569 585.229 391.774 585.32 392.918 585.665C394.062 586.008 395.118 586.598 396.011 587.391C396.904 588.185 397.615 589.163 398.092 590.259C398.569 591.354 398.803 592.54 398.776 593.736V707.39C398.722 709.898 397.785 712.306 396.131 714.191C394.476 716.075 392.21 717.316 389.731 717.693C363.517 721.278 285.681 728.946 227.678 703.897C226.194 703.24 224.937 702.159 224.067 700.788C223.197 699.418 222.754 697.82 222.791 696.197V584.788C222.791 578.198 229.423 572.984 235.557 574.736Z" fill="url(#paint2_linear_572_2934)"/>
<path d="M20.1379 679.388H23.4378C24.0509 679.387 24.6381 679.144 25.0709 678.711C25.5045 678.278 25.7482 677.69 25.7491 677.077V661.89C25.7482 661.278 25.5045 660.69 25.0709 660.257C24.6381 659.824 24.0509 659.58 23.4378 659.579H20.1379C19.5248 659.58 18.9377 659.824 18.5049 660.257C18.0712 660.69 17.8276 661.278 17.8267 661.89V677.077C17.8276 677.69 18.0712 678.278 18.5049 678.711C18.9377 679.144 19.5248 679.387 20.1379 679.388Z" fill="white"/>
<path d="M34.701 650.004C33.3812 650.004 32.7209 650.665 32.7209 653.967C32.7209 657.105 29.6833 659.629 27.729 660.93V677.29C29.843 678.269 34.0737 679.718 40.6424 679.718H42.7546C44.0003 679.719 45.205 679.28 46.1572 678.478C47.1093 677.675 47.7473 676.561 47.9571 675.334L49.4357 666.75C49.5669 665.991 49.5312 665.214 49.3295 664.471C49.1287 663.728 48.7682 663.038 48.273 662.449C47.7768 661.861 47.1584 661.387 46.4615 661.063C45.7636 660.738 45.0033 660.57 44.2341 660.57H38.0019C38.7033 658.899 39.0415 657.099 38.9924 655.288C38.9924 651.325 36.0217 650.005 34.701 650.005V650.004Z" fill="white"/>
<path d="M130.102 545.563C112.59 539.387 98.3943 520.181 98.3943 502.665C98.3943 485.148 112.59 475.955 130.102 482.132V461.774C101.811 451.796 78.8774 466.647 78.8774 494.945C78.8774 523.242 101.811 554.27 130.102 564.248C157.197 573.804 179.364 560.576 181.19 534.581L161.686 527.702C160.307 543.46 146.698 551.416 130.102 545.563Z" fill="white"/>
<path d="M136.606 457.562V477.92C154.118 484.096 168.313 503.303 168.313 520.819C168.313 521.734 168.266 522.622 168.19 523.491L187.694 530.37C187.774 529.223 187.83 528.061 187.83 526.865C187.83 498.568 164.896 467.54 136.606 457.562Z" fill="#3D4CDF"/>
<path d="M130.102 545.563V564.248" stroke="white" stroke-width="2.42819" stroke-miterlimit="10"/>
<path d="M98.3943 502.665L78.8774 495.781" stroke="white" stroke-width="2.42819" stroke-miterlimit="10"/>
<path d="M212.249 505.575L248.464 512.458" stroke="white" stroke-width="10.368" stroke-miterlimit="10" stroke-linecap="round"/>
<path opacity="0.4" d="M212.249 562.333L248.464 569.216" stroke="white" stroke-width="10.368" stroke-miterlimit="10" stroke-linecap="round"/>
<path d="M212.249 534.532L264.278 544.421" stroke="white" stroke-width="10.368" stroke-miterlimit="10" stroke-linecap="round"/>
<g opacity="0.7">
<path opacity="0.7" d="M865.398 18.6581C834.013 41.7059 776.608 99.8252 651.317 119.135C641.725 120.613 638.133 127.44 638.133 134.983V293.88C638.186 296.084 638.998 298.203 640.431 299.88C641.863 301.556 643.83 302.688 645.999 303.083C677.602 308.405 799.309 277.351 872.09 214.83C879.042 208.859 879.042 198.842 879.042 196.76V26.5856C879.042 19.5253 870.77 14.7135 865.398 18.6581Z" fill="url(#paint3_linear_572_2934)"/>
</g>
<path d="M654.698 147.451V245.732C654.697 246.588 654.889 247.432 655.259 248.203C655.628 248.974 656.167 249.653 656.834 250.188C657.501 250.723 658.28 251.102 659.113 251.295C659.946 251.488 660.812 251.492 661.647 251.305C679.544 247.296 727.956 235.704 758.528 221.277C759.51 220.815 760.331 220.084 760.911 219.17C761.482 218.256 761.794 217.196 761.785 216.115V120.406C761.794 119.449 761.553 118.507 761.089 117.666C760.634 116.826 759.974 116.116 759.162 115.599C758.358 115.082 757.439 114.776 756.484 114.709C755.53 114.642 754.575 114.816 753.7 115.216C736.665 123.065 695.724 140.209 660.114 141.752C658.651 141.821 657.272 142.453 656.263 143.515C655.254 144.576 654.694 145.986 654.698 147.451Z" fill="white"/>
<path d="M659.124 229.912V240.249C659.124 241.031 659.304 241.803 659.651 242.505C659.998 243.207 660.501 243.819 661.123 244.294C661.745 244.769 662.469 245.094 663.236 245.243C664.005 245.393 664.797 245.363 665.551 245.157L719.104 230.512C719.951 230.282 720.719 229.838 721.343 229.222C721.968 228.606 722.414 227.841 722.655 226.998C722.896 226.157 722.914 225.268 722.709 224.417C722.504 223.565 722.084 222.782 721.495 222.141L692.779 191.243C692.261 190.688 691.637 190.255 690.932 189.977C690.227 189.697 689.468 189.579 688.713 189.63C687.958 189.681 687.224 189.899 686.565 190.27C685.904 190.641 685.335 191.154 684.899 191.773L660.054 226.977C659.448 227.836 659.124 228.86 659.124 229.912Z" fill="#3D4CDF"/>
<path opacity="0.6" d="M713.723 205.666L729.794 222.724C730.312 223.273 730.981 223.655 731.712 223.82C732.444 223.986 733.212 223.928 733.917 223.654C738.664 221.799 749.328 217.606 754.726 215.283C755.405 214.99 755.976 214.507 756.386 213.89C756.788 213.273 757.002 212.551 757.002 211.813V195.83C757.002 195.014 756.734 194.221 756.252 193.568L733.658 163.294C733.247 162.75 732.703 162.326 732.078 162.065C731.454 161.804 730.767 161.717 730.097 161.811C729.428 161.907 728.794 162.18 728.259 162.604C727.733 163.028 727.331 163.586 727.09 164.221L712.937 201.738C712.687 202.401 712.625 203.121 712.768 203.815C712.901 204.51 713.241 205.151 713.723 205.666Z" fill="#3D4CDF"/>
<path d="M699.614 179.033C704.38 179.033 708.244 175.17 708.244 170.403C708.244 165.637 704.38 161.774 699.614 161.774C694.849 161.774 690.985 165.637 690.985 170.403C690.985 175.17 694.849 179.033 699.614 179.033Z" fill="#FEBB94"/>
<path d="M786.665 112.009C808.804 100.779 830.114 87.9749 850.424 73.6973" stroke="white" stroke-width="10.368" stroke-miterlimit="10" stroke-linecap="round"/>
<path d="M786.665 149.287C786.665 149.287 801.174 142.214 821.083 130.132" stroke="white" stroke-width="10.368" stroke-miterlimit="10" stroke-linecap="round"/>
<path d="M786.665 185.734C808.804 174.503 830.114 161.7 850.424 147.422" stroke="white" stroke-width="10.368" stroke-miterlimit="10" stroke-linecap="round"/>
<path d="M786.665 226.654C808.804 215.423 830.114 202.619 850.424 188.342" stroke="white" stroke-width="10.368" stroke-miterlimit="10" stroke-linecap="round"/>
<path d="M667.003 279.649C671.355 279.649 674.883 276.12 674.883 271.767C674.883 267.414 671.355 263.885 667.003 263.885C662.651 263.885 659.124 267.414 659.124 271.767C659.124 276.12 662.651 279.649 667.003 279.649Z" fill="white"/>
<path d="M712.696 266.897C717.042 266.897 720.576 263.368 720.576 259.015C720.576 254.662 717.042 251.134 712.696 251.134C708.342 251.134 704.817 254.662 704.817 259.015C704.817 263.368 708.342 266.897 712.696 266.897Z" fill="white"/>
<path d="M753.906 252.817C758.261 252.817 761.785 249.288 761.785 244.935C761.785 240.582 758.261 237.053 753.906 237.053C749.56 237.053 746.026 240.582 746.026 244.935C746.026 249.288 749.56 252.817 753.906 252.817Z" fill="white"/>
<defs>
<linearGradient id="paint0_linear_572_2934" x1="373.176" y1="-682.189" x2="694.6" y2="1310.33" gradientUnits="userSpaceOnUse">
<stop stop-color="white"/>
<stop offset="1" stop-color="#94B9FF"/>
</linearGradient>
<linearGradient id="paint1_linear_572_2934" x1="531.668" y1="417.629" x2="553.645" y2="721.666" gradientUnits="userSpaceOnUse">
<stop stop-color="white"/>
<stop offset="1" stop-color="#94B9FF"/>
</linearGradient>
<linearGradient id="paint2_linear_572_2934" x1="306.403" y1="574.043" x2="334.829" y2="887.378" gradientUnits="userSpaceOnUse">
<stop stop-color="white"/>
<stop offset="1" stop-color="#94B9FF"/>
</linearGradient>
<linearGradient id="paint3_linear_572_2934" x1="729.536" y1="-339.803" x2="910.207" y2="602.367" gradientUnits="userSpaceOnUse">
<stop stop-color="white"/>
<stop offset="1" stop-color="#94B9FF"/>
</linearGradient>
</defs>
</svg>
