<svg width="1617" height="1337" viewBox="0 0 1617 1337" fill="none" xmlns="http://www.w3.org/2000/svg">
<path d="M1261.87 192.893H867.471C858.566 192.893 851.348 200.112 851.348 209.016V487.265C851.348 496.167 858.566 503.386 867.471 503.386H1261.87C1270.76 503.386 1277.98 496.167 1277.98 487.265V209.016C1277.98 200.112 1270.76 192.893 1261.87 192.893Z" fill="#FEBB94"/>
<path d="M908.001 248.84H896.322L894.316 254.538H889.54L899.533 226.61H904.83L914.822 254.538H910.007L908.001 248.84ZM906.716 245.109L902.182 232.147L897.607 245.109H906.716ZM917.642 243.383C917.642 241.163 918.097 239.197 919.007 237.485C919.943 235.772 921.2 234.447 922.779 233.512C924.384 232.549 926.162 232.068 928.116 232.068C929.561 232.068 930.978 232.388 932.371 233.031C933.787 233.645 934.911 234.475 935.741 235.518V224.844H940.356V254.538H935.741V251.207C934.991 252.278 933.948 253.16 932.61 253.856C931.3 254.551 929.788 254.898 928.076 254.898C926.149 254.898 924.384 254.418 922.779 253.455C921.2 252.464 919.943 251.101 919.007 249.361C918.097 247.596 917.642 245.604 917.642 243.383ZM935.741 243.464C935.741 241.938 935.419 240.615 934.778 239.491C934.162 238.367 933.347 237.51 932.33 236.922C931.312 236.333 930.216 236.039 929.039 236.039C927.862 236.039 926.765 236.333 925.749 236.922C924.731 237.485 923.903 238.327 923.26 239.451C922.646 240.547 922.337 241.858 922.337 243.383C922.337 244.908 922.646 246.245 923.26 247.395C923.903 248.546 924.731 249.429 925.749 250.044C926.791 250.633 927.889 250.927 929.039 250.927C930.216 250.927 931.312 250.633 932.33 250.044C933.347 249.456 934.162 248.599 934.778 247.475C935.419 246.326 935.741 244.988 935.741 243.464ZM954.391 254.898C952.651 254.898 951.087 254.591 949.696 253.975C948.331 253.334 947.247 252.479 946.445 251.408C945.642 250.311 945.215 249.094 945.16 247.757H949.895C949.976 248.692 950.418 249.482 951.22 250.123C952.05 250.739 953.079 251.048 954.311 251.048C955.594 251.048 956.584 250.807 957.281 250.324C958.003 249.816 958.363 249.175 958.363 248.398C958.363 247.57 957.962 246.954 957.16 246.552C956.383 246.152 955.14 245.71 953.428 245.229C951.769 244.774 950.418 244.332 949.374 243.904C948.331 243.477 947.421 242.821 946.646 241.938C945.896 241.055 945.522 239.891 945.522 238.448C945.522 237.271 945.869 236.2 946.565 235.237C947.262 234.248 948.25 233.472 949.535 232.91C950.846 232.348 952.344 232.068 954.029 232.068C956.544 232.068 958.564 232.709 960.09 233.994C961.641 235.251 962.469 236.976 962.577 239.169H958.003C957.922 238.179 957.52 237.391 956.798 236.803C956.076 236.214 955.1 235.919 953.869 235.919C952.666 235.919 951.741 236.147 951.1 236.602C950.458 237.057 950.137 237.658 950.137 238.407C950.137 238.996 950.35 239.491 950.778 239.891C951.207 240.293 951.728 240.615 952.344 240.854C952.96 241.068 953.869 241.35 955.073 241.697C956.678 242.126 957.99 242.567 959.006 243.022C960.049 243.449 960.945 244.092 961.694 244.948C962.444 245.803 962.831 246.941 962.859 248.358C962.859 249.615 962.51 250.739 961.815 251.729C961.119 252.718 960.13 253.495 958.845 254.056C957.588 254.619 956.104 254.898 954.391 254.898Z" fill="white"/>
<path d="M1145.92 366.769C1145.92 382.837 1141.15 398.543 1132.22 411.904C1123.3 425.263 1110.61 435.676 1095.76 441.824C1080.91 447.974 1064.58 449.582 1048.82 446.448C1033.06 443.313 1018.58 435.576 1007.22 424.214C995.855 412.852 988.116 398.377 984.98 382.618C981.846 366.859 983.454 350.524 989.605 335.679C995.753 320.834 1006.17 308.146 1019.53 299.22C1032.89 290.293 1048.6 285.528 1064.67 285.528" stroke="white" stroke-width="17.1948" stroke-miterlimit="10"/>
<path d="M1079.8 269.993C1101.35 269.993 1122.02 278.553 1137.25 293.788C1152.49 309.024 1161.05 329.688 1161.05 351.234" stroke="#3D4CDF" stroke-width="17.1948" stroke-miterlimit="10"/>
<path d="M888.774 444.869H936.33" stroke="white" stroke-width="6.72632" stroke-miterlimit="10" stroke-linecap="round"/>
<path opacity="0.4" d="M888.774 471.491H987.053" stroke="white" stroke-width="6.72632" stroke-miterlimit="10" stroke-linecap="round"/>
<path d="M1161.05 445.138H1208.61" stroke="white" stroke-width="6.72632" stroke-miterlimit="10" stroke-linecap="round"/>
<path opacity="0.4" d="M1161.05 471.759H1259.33" stroke="white" stroke-width="6.72632" stroke-miterlimit="10" stroke-linecap="round"/>
<path d="M149.917 167.014H722.453C737.659 167.014 752.243 173.055 762.995 183.806C773.747 194.557 779.788 209.139 779.788 224.344V258.657H92.5811V224.344C92.5811 209.139 98.6221 194.557 109.374 183.806C120.127 173.055 134.71 167.014 149.917 167.014Z" fill="#3D4CDF"/>
<path d="M92.5811 258.657H779.788V906.718C779.788 918.797 774.99 930.381 766.449 938.922C757.906 947.462 746.321 952.261 734.241 952.261H138.129C126.049 952.261 114.463 947.462 105.922 938.922C97.3791 930.381 92.5811 918.797 92.5811 906.718V258.657Z" fill="url(#paint0_linear_577_3163)"/>
<path opacity="0.6" d="M443.026 828.717C574.621 828.717 681.301 722.049 681.301 590.466C681.301 458.884 574.621 352.215 443.026 352.215C311.43 352.215 204.752 458.884 204.752 590.466C204.752 722.049 311.43 828.717 443.026 828.717Z" stroke="white" stroke-width="30" stroke-miterlimit="10"/>
<path d="M156.049 229.174C163.817 229.174 170.114 222.878 170.114 215.111C170.114 207.345 163.817 201.049 156.049 201.049C148.281 201.049 141.985 207.345 141.985 215.111C141.985 222.878 148.281 229.174 156.049 229.174Z" fill="white"/>
<path d="M212.855 229.174C220.623 229.174 226.92 222.878 226.92 215.111C226.92 207.345 220.623 201.049 212.855 201.049C205.087 201.049 198.791 207.345 198.791 215.111C198.791 222.878 205.087 229.174 212.855 229.174Z" fill="white"/>
<path d="M266.229 229.174C273.995 229.174 280.292 222.878 280.292 215.111C280.292 207.345 273.995 201.049 266.229 201.049C258.461 201.049 252.164 207.345 252.164 215.111C252.164 222.878 258.461 229.174 266.229 229.174Z" fill="white"/>
<path d="M908.685 550.955H1481.23C1496.42 550.955 1511.01 556.995 1521.76 567.747C1532.52 578.498 1538.55 593.08 1538.55 608.285V642.598H851.348V608.285C851.348 593.08 857.389 578.498 868.141 567.747C878.895 556.995 893.478 550.955 908.685 550.955Z" fill="#3D4CDF"/>
<path d="M851.348 642.598H1538.55V1290.66C1538.55 1302.74 1533.76 1314.32 1525.22 1322.86C1516.68 1331.4 1505.09 1336.2 1493.01 1336.2H896.896C884.817 1336.2 873.23 1331.4 864.689 1322.86C856.148 1314.32 851.348 1302.74 851.348 1290.66V642.598Z" fill="url(#paint1_linear_577_3163)"/>
<path opacity="0.6" d="M1230.65 1227.65C1362.26 1227.65 1468.93 1120.98 1468.93 989.399C1468.93 857.818 1362.26 751.148 1230.65 751.148C1099.06 751.148 992.38 857.818 992.38 989.399C992.38 1120.98 1099.06 1227.65 1230.65 1227.65Z" stroke="white" stroke-width="30" stroke-miterlimit="10"/>
<path d="M914.817 613.115C922.585 613.115 928.882 606.819 928.882 599.052C928.882 591.286 922.585 584.99 914.817 584.99C907.051 584.99 900.754 591.286 900.754 599.052C900.754 606.819 907.051 613.115 914.817 613.115Z" fill="white"/>
<path d="M971.623 613.115C979.39 613.115 985.686 606.819 985.686 599.052C985.686 591.286 979.39 584.99 971.623 584.99C963.855 584.99 957.559 591.286 957.559 599.052C957.559 606.819 963.855 613.115 971.623 613.115Z" fill="white"/>
<path d="M1024.99 613.115C1032.76 613.115 1039.06 606.819 1039.06 599.052C1039.06 591.286 1032.76 584.99 1024.99 584.99C1017.23 584.99 1010.93 591.286 1010.93 599.052C1010.93 606.819 1017.23 613.115 1024.99 613.115Z" fill="white"/>
<path d="M1125.56 1049.36L1091.67 1336.36H1227.83L1305.53 1051.06L1125.56 1049.36Z" fill="#1F2D49"/>
<path d="M1232.1 1320.67L1216.08 1232.57L1247.83 1136.37H1297.02L1232.1 1320.67Z" fill="#0D1B33"/>
<path d="M1377.77 1051.06C1376.81 1068.29 1376.81 1085.55 1377.77 1102.78C1381.74 1158.45 1370.39 1314.97 1370.49 1336.36H1249.6C1249.09 1306.72 1241.57 1052.28 1241.57 1052.28L1377.77 1051.06Z" fill="#1F2D49"/>
<path d="M1122.98 1069.93L1377.77 1102.78V1051.06L1125.56 1049.36L1122.98 1069.93Z" fill="#0D1B33"/>
<path d="M1171.28 758.282C1178.39 723.178 1161.66 724.081 1156.1 718.501C1156.1 718.501 1135.22 701.285 1119.31 717.332C1102.47 734.308 1005.94 866.173 1005.94 866.173L1066.34 921.72L1077.69 908.173L1107.1 873.101L1138.56 835.616L1142.46 831.349L1184.9 783.291C1184.9 783.291 1167.26 776.762 1171.28 758.282Z" fill="#FEBB94"/>
<path d="M1196.54 764.263C1204.68 739.956 1191.57 713.652 1167.26 705.51C1142.95 697.37 1116.65 710.473 1108.51 734.781C1100.36 759.087 1113.47 785.392 1137.78 793.534C1162.09 801.674 1188.39 788.569 1196.54 764.263Z" fill="#FEBB94"/>
<path d="M1141.91 831.162C1143.12 823.826 1145.56 809.152 1148.18 795.778L1162.12 731.049C1162.12 731.049 1124.69 786.361 1107.45 824.888C1094.68 853.761 1079.86 883.186 1077.41 908.08L1106.82 873.008L1138.28 835.522L1141.91 831.162Z" fill="#FF967C"/>
<path d="M1020.61 695.245C1017.46 665.559 1025.54 664.12 1025.65 648.025C1025.71 632.297 1049.46 603.179 1038.13 603.767C1026.8 604.356 1018.85 615.181 1018.85 615.181C1017.17 601.071 1020.01 577.591 1005.57 568.731C991.127 559.872 987.728 564.16 975.969 567.684C944.579 577.323 962.101 618.856 962.423 632.018C962.707 640.302 977.278 671.287 977.939 677.005L982.58 699.041L1020.61 695.245Z" fill="#FFCCB3"/>
<path d="M1002.72 610.193L998.424 567.583L1002.72 610.193Z" fill="#E56441"/>
<path d="M1002.72 610.193L998.424 567.583" stroke="#E56441" stroke-width="1.20133" stroke-linecap="round"/>
<path d="M988.034 610.666L981.05 569.733L988.034 610.666Z" fill="#E56441"/>
<path d="M988.034 610.666L981.05 569.733" stroke="#E56441" stroke-width="1.20133" stroke-linecap="round"/>
<path d="M970.782 610.761L967.253 586.265L970.782 610.761Z" fill="#E56441"/>
<path d="M970.782 610.761L967.253 586.265" stroke="#E56441" stroke-width="1.20133" stroke-linecap="round"/>
<path d="M994.578 642.723C999.707 630.735 1013.01 619.196 1013.01 619.196L994.578 642.723Z" fill="#E56441"/>
<path d="M994.578 642.723C999.707 630.735 1013.01 619.196 1013.01 619.196" stroke="#E56441" stroke-width="1.20133" stroke-linecap="round"/>
<path d="M1075.6 878.009L1025.38 679.745C1025.03 678.555 1024.25 677.539 1023.19 676.891C1022.13 676.243 1020.88 676.009 1019.66 676.234L981.78 683.453C979.97 683.818 978.362 684.843 977.265 686.329C976.17 687.814 975.665 689.654 975.85 691.49L996.718 897.625L1075.6 878.009Z" fill="#FEBB94"/>
<path d="M1037.29 933.415C1060 933.415 1078.42 915.001 1078.42 892.288C1078.42 869.573 1060 851.161 1037.29 851.161C1014.57 851.161 996.159 869.573 996.159 892.288C996.159 915.001 1014.57 933.415 1037.29 933.415Z" fill="#FEBB94"/>
<path d="M1203.33 684.915C1203.33 684.915 1156.31 698.786 1144.48 703.735C1132.64 708.684 1131.86 728.48 1131.07 742.502C1130.51 752.325 1128.66 900.936 1129.39 994.369C1129.54 1014.33 1125.82 1026.99 1123.43 1038.09C1122.77 1041.04 1122.42 1044.06 1122.37 1047.09C1122.35 1048.15 1122.55 1049.21 1122.94 1050.19C1123.33 1051.18 1123.92 1052.08 1124.66 1052.85C1125.41 1053.61 1126.29 1054.21 1127.27 1054.63C1128.25 1055.05 1129.3 1055.27 1130.36 1055.29L1371.08 1057.53C1371.08 1057.53 1381.76 1059.09 1379.19 1046.91C1376.63 1033.59 1375.23 1020.07 1375.01 1006.51C1372.59 909.47 1372.14 746.95 1371.1 739.257C1369.52 727.71 1381.92 717.766 1368.48 711.952L1303.57 688.341L1203.33 684.915Z" fill="#FEBB94"/>
<path d="M1323.57 792.185C1323.57 792.185 1327.22 926.693 1326.45 971.527C1325.98 999.465 1294.03 1011.3 1293.93 1027.48C1293.89 1037.05 1319.76 1031.09 1331.17 1027.37C1356.85 1019.01 1373.75 1030.37 1373.75 1030.37L1366.9 785.262L1323.57 792.185Z" fill="#FF967C"/>
<path d="M1214.19 637.378L1228.55 712.343L1233.62 717.708C1233.62 717.708 1231.61 720.111 1237.38 714.327C1250.98 700.693 1286.8 684.077 1285.32 678.723C1283.19 671.051 1277.04 623.263 1277.04 623.263L1214.19 637.378Z" fill="#FFCCB3"/>
<path d="M1213.61 642.359H1251.42L1209.88 706.876L1213.61 642.359Z" fill="#FF967C"/>
<path d="M1323.12 609.719C1334.16 582.353 1300.41 578.882 1294.58 578.522C1288.74 578.16 1292.65 533.887 1292.65 533.887C1292.65 533.887 1233 503.842 1216.16 511.002C1216.16 511.002 1191.98 561.052 1180.55 594.318C1169.12 627.583 1174.06 645.485 1186.06 650.328C1201.98 658.364 1222.88 660.917 1237.83 657.221C1264.46 650.638 1281.36 629.387 1281.36 629.387C1281.81 629.323 1282.07 629.292 1282.07 629.292C1282.07 629.292 1312.7 635.564 1323.12 609.719Z" fill="#FFCCB3"/>
<path d="M1307.09 633.768C1328.62 618.743 1346.72 601.945 1350.15 580.626C1357.06 537.67 1332.96 527.287 1332.96 527.287C1348.99 496.848 1312.43 480.406 1293.56 474.269C1231.23 453.985 1193.22 475.996 1190.57 500.117C1189.44 510.219 1191.06 519.685 1196.18 527.449C1196.01 534.895 1196.78 542.331 1198.48 549.582L1208.78 530.513C1210.8 533.102 1213.45 535.129 1216.48 536.4C1250.34 552.532 1285.07 534.649 1285.07 534.649C1271.54 550.294 1271.44 584.932 1272.31 592.167C1273.56 602.598 1280.01 594.977 1280.01 594.977C1286.36 584.723 1309.97 577.243 1316.14 598.513C1320.96 615.087 1277.49 631.398 1277.49 631.398L1281.84 657.222C1289.95 658.881 1288.74 650.317 1290.9 653.175C1293.05 656.035 1297.62 657.875 1298.5 649.103C1299.39 640.332 1307.1 633.758 1307.1 633.758L1307.09 633.768Z" fill="#BC775C"/>
<path d="M1239.64 584.686C1241.59 580.919 1241.17 576.832 1238.7 575.556C1236.24 574.281 1232.66 576.298 1230.71 580.064C1228.76 583.829 1229.18 587.916 1231.65 589.193C1234.12 590.469 1237.7 588.452 1239.64 584.686Z" fill="#080B09"/>
<path d="M1205.76 566.883C1207.71 563.118 1207.28 559.031 1204.82 557.754C1202.35 556.477 1198.77 558.497 1196.82 562.262C1194.87 566.028 1195.3 570.115 1197.76 571.391C1200.23 572.666 1203.81 570.648 1205.76 566.883Z" fill="#080B09"/>
<path d="M1210.04 579.419C1210.04 579.419 1212.2 589.246 1205.69 587.639C1199.53 585.893 1194.96 588.554 1199.78 595.485" stroke="#E56441" stroke-width="1.20133" stroke-linecap="round"/>
<path d="M1198.63 603.632L1198.66 603.643L1198.68 603.651C1202.44 604.957 1209.96 607.564 1214.93 609.381L1214.93 609.384C1215.09 609.442 1215.24 609.542 1215.35 609.674C1215.45 609.807 1215.52 609.966 1215.55 610.137C1215.57 610.306 1215.55 610.479 1215.48 610.637C1215.42 610.788 1215.31 610.921 1215.18 611.019C1213.72 611.954 1211.85 613.029 1209.86 613.857C1207.86 614.695 1205.8 615.253 1203.98 615.205C1202.18 615.158 1200.63 614.531 1199.51 613C1198.36 611.428 1197.58 608.796 1197.6 604.574L1197.6 604.51L1197.59 604.445C1197.57 604.314 1197.59 604.177 1197.64 604.051C1197.69 603.926 1197.77 603.817 1197.87 603.733C1197.98 603.651 1198.1 603.598 1198.24 603.58C1198.37 603.563 1198.51 603.58 1198.63 603.632Z" fill="#E56441" stroke="#E56441"/>
<path d="M1255.75 574.879L1255.2 575.506C1254.47 576.493 1253.38 577.151 1252.17 577.339C1250.96 577.525 1249.73 577.228 1248.73 576.508L1232.03 563.684C1231.2 563.097 1230.61 562.218 1230.4 561.221C1230.18 560.224 1230.35 559.182 1230.86 558.303C1231.15 557.748 1231.55 557.263 1232.05 556.875C1232.54 556.489 1233.11 556.211 1233.71 556.062C1234.32 555.91 1234.95 555.891 1235.57 556.004C1236.18 556.115 1236.77 556.356 1237.28 556.711L1254.54 568.906C1255.02 569.212 1255.43 569.612 1255.76 570.08C1256.08 570.549 1256.3 571.078 1256.41 571.636C1256.53 572.194 1256.53 572.768 1256.41 573.324C1256.3 573.882 1256.07 574.411 1255.75 574.879Z" fill="#080B09"/>
<path d="M1197.03 540.361L1217.77 544.455C1218.38 544.583 1218.96 544.841 1219.46 545.209C1219.97 545.579 1220.39 546.05 1220.7 546.593C1221.01 547.137 1221.2 547.739 1221.26 548.362C1221.32 548.984 1221.24 549.612 1221.04 550.204C1220.76 551.185 1220.12 552.023 1219.25 552.553C1218.38 553.084 1217.34 553.267 1216.34 553.068L1195.53 549.809C1194.33 549.587 1193.26 548.899 1192.56 547.892C1191.86 546.886 1191.59 545.645 1191.8 544.439L1191.87 543.604C1191.99 543.048 1192.22 542.521 1192.54 542.054C1192.87 541.586 1193.28 541.191 1193.77 540.887C1194.25 540.585 1194.79 540.382 1195.35 540.292C1195.91 540.202 1196.48 540.225 1197.03 540.361Z" fill="#080B09"/>
<path d="M1298.47 798.687L1144.6 812.012C1139.82 812.427 1136.28 816.638 1136.7 821.418L1153.44 1014.74C1153.85 1019.52 1158.06 1023.06 1162.84 1022.64L1316.7 1009.32C1321.49 1008.9 1325.03 1004.69 1324.61 999.913L1307.88 806.593C1307.46 801.813 1303.24 798.274 1298.47 798.687Z" fill="#3D4CDF"/>
<path d="M1160.67 834.563L1224.12 829.069" stroke="white" stroke-width="5.04786" stroke-miterlimit="10" stroke-linecap="round"/>
<path d="M1163.11 857.419L1192.03 854.914" stroke="white" stroke-width="5.04786" stroke-miterlimit="10" stroke-linecap="round"/>
<path d="M1372.21 749.788C1348.52 720.134 1337.88 734.336 1329.55 735.061C1329.55 735.061 1301.36 740.314 1303.58 764.154C1305.93 789.381 1347.41 957.493 1347.41 957.493L1434.47 950.951L1430.34 927.769L1421.85 880.023L1412.79 828.973L1411.97 822.895L1401.79 755.734C1401.79 755.734 1384.48 765.625 1372.21 749.788Z" fill="#FEBB94"/>
<path d="M1378.06 800.978C1401.22 786.767 1408.45 756.483 1394.25 733.336C1380.04 710.189 1349.75 702.944 1326.59 717.155C1303.45 731.365 1296.2 761.65 1310.42 784.797C1324.63 807.945 1354.91 815.189 1378.06 800.978Z" fill="#FEBB94"/>
<path d="M1169.66 964.472L1114.77 968.556L1101.79 999.16L1106.23 1036.94C1106.23 1036.94 1115.67 1033.09 1116.65 1019.73C1117.63 1006.36 1161.33 1015.84 1172.75 1001.16" fill="#FFCCB3"/>
<path d="M1379.06 914.969L1166.08 955.114C1164.8 955.408 1163.67 956.165 1162.92 957.239C1162.17 958.315 1161.83 959.63 1161.99 960.934L1167.15 1001.46C1167.42 1003.4 1168.4 1005.17 1169.9 1006.42C1171.4 1007.68 1173.31 1008.33 1175.26 1008.25L1394.66 999.673L1379.06 914.969Z" fill="#FEBB94"/>
<path d="M1391.66 999.999C1415.74 999.999 1435.24 980.489 1435.24 956.422C1435.24 932.356 1415.74 912.845 1391.66 912.845C1367.59 912.845 1348.07 932.356 1348.07 956.422C1348.07 980.489 1367.59 999.999 1391.66 999.999Z" fill="#FEBB94"/>
<path d="M517.937 593.504L592.029 906.346L597.367 952.261H471.027L387.499 750.232L402.928 598.853L517.937 593.504Z" fill="#1F2D49"/>
<path d="M439.502 876.011L457.773 721.443L463.819 934.823L439.502 876.011Z" fill="#0D1B33"/>
<path d="M317.946 592.528C317.946 592.528 283.398 650.556 282.944 699.151C282.264 772.086 277.064 952.261 277.064 952.261H429.494L457.773 721.443L416.93 592.528H317.946Z" fill="#1F2D49"/>
<path d="M517.937 593.504L316.756 595.572L297.205 636.027L521.336 607.86L517.937 593.504Z" fill="#0D1B33"/>
<path d="M749.973 270.849L760.683 248.4C762.82 243.226 766.171 238.642 770.455 235.036C776.994 229.724 786.751 220.354 789.15 212.615C793.225 200.26 812.291 165.101 785.005 147.102C774.91 140.467 777.407 142.012 761.031 145.907C744.654 149.801 745.911 167.41 740.172 180.391C740.172 180.391 735.474 167.926 725.093 164.056C714.711 160.186 728.7 194.776 724.733 209.938C720.768 225.1 727.552 228.997 716.308 256.582L749.973 270.849Z" fill="#FFCCB3"/>
<path d="M763.965 147.317L757.328 180.571L763.965 147.317Z" fill="#E56441"/>
<path d="M763.965 147.317L757.328 180.571" stroke="#E56441" stroke-width="1.20536" stroke-linecap="round"/>
<path d="M782.577 148.845L771.222 185.203L782.577 148.845Z" fill="#E56441"/>
<path d="M782.577 148.845L771.222 185.203" stroke="#E56441" stroke-width="1.20536" stroke-linecap="round"/>
<path d="M798.202 167.633L787.887 190.123L798.202 167.633Z" fill="#E56441"/>
<path d="M798.202 167.633L787.887 190.123" stroke="#E56441" stroke-width="1.20536" stroke-linecap="round"/>
<path d="M745.131 186.494C745.131 186.494 754.367 201.427 756.218 214.397L745.131 186.494Z" fill="#E56441"/>
<path d="M745.131 186.494C745.131 186.494 754.367 201.427 756.218 214.397" stroke="#E56441" stroke-width="1.20536" stroke-linecap="round"/>
<path d="M461.792 301.885C478.049 298.327 502.512 296.314 514.011 303.737L628.497 382.87L717.863 236.83L757.866 258.959L675.633 442.773C663.543 474.1 633.403 473.631 614.985 462.947L555.248 433.75L461.792 301.885Z" fill="#5661AE"/>
<path d="M534.5 377.87C534.5 377.87 534.275 368.454 556.484 404.739L614.985 462.947L555.249 433.75C500.633 411.806 517.718 386.56 534.5 377.87Z" fill="#465393"/>
<path d="M460.595 280.01C460.595 280.01 501.152 296.056 507.344 301.009C513.536 305.961 519.417 346.385 529.942 365.579C540.469 384.772 555.87 420.198 533.377 452.738C510.883 485.277 513.276 511.119 513.276 511.119L518.063 592.746L324.22 596.318C322.514 596.371 320.814 596.063 319.236 595.41C317.658 594.759 316.235 593.78 315.065 592.537C313.892 591.294 312.998 589.818 312.44 588.204C311.881 586.59 311.672 584.876 311.826 583.175C313.979 559.376 323.818 525.954 324.592 488.059C325.64 436.7 326.425 265.092 326.425 265.092L410.867 262.442C427.875 265.374 460.595 280.01 460.595 280.01Z" fill="#5661AE"/>
<path d="M532.068 454.67C532.068 454.67 505.625 460.355 483.677 461.497C461.727 462.638 473.136 479.729 493.291 481.829C513.445 483.93 517.351 485.368 517.351 485.368C521.002 474.579 525.943 464.272 532.068 454.67Z" fill="#465393"/>
<path d="M321.406 524.269L314.619 563.616C314.619 563.616 319.096 575.353 339.978 582.552C360.86 589.75 379.583 587.59 391.822 573.909C404.064 560.229 446.714 497.048 446.714 497.048L321.406 524.269Z" fill="#465393"/>
<path d="M359.658 335.242C359.658 335.242 387.907 360.997 389.57 380.103C391.231 399.212 395.074 452.49 431.378 457.804C475.877 464.317 487.525 470.659 466.897 475.644C446.269 480.629 399.451 472.552 399.451 493.921C399.451 509.129 381.26 520.507 372.121 512.198C362.981 503.891 290.185 377.611 359.658 335.242Z" fill="#465393"/>
<path d="M547.535 298.25L525.498 345.887L565.388 362.942L589.209 308.858L547.535 298.25Z" fill="#96BAFD"/>
<path d="M540.321 321.923L580.769 329.018L575.675 338.565L540.321 326.24V321.923Z" fill="#96BAFD"/>
<path d="M562.928 246.448C552.329 242.412 540.466 247.732 536.432 258.329L532.825 267.802C528.789 278.399 534.11 290.261 544.709 294.295C555.307 298.331 567.17 293.01 571.206 282.414L574.811 272.941C578.847 262.344 573.526 250.482 562.928 246.448Z" fill="#3D4CDF"/>
<path d="M612.006 251.826C668.287 275.119 725.518 255.403 725.518 255.403L670.061 400.566C670.061 400.566 633.188 341.253 584.938 322.915C567.16 316.159 612.006 251.826 612.006 251.826Z" fill="#96BAFD"/>
<path d="M717.392 335.559C732.81 295.068 737.618 259.316 728.129 255.704C718.643 252.093 698.453 281.989 683.037 322.479C667.62 362.97 662.812 398.722 672.299 402.333C681.786 405.945 701.975 376.049 717.392 335.559Z" fill="white"/>
<path d="M717.396 335.554C732.813 295.064 738.731 259.735 730.612 256.644C722.492 253.553 703.412 283.872 687.995 324.362C672.578 364.852 666.661 400.181 674.78 403.273C682.898 406.363 701.978 376.046 717.396 335.554Z" fill="#3D4CDF"/>
<path d="M581.285 240.131L620.133 254.919L593.065 326.01L554.217 311.22C551.829 310.312 549.646 308.942 547.789 307.189C545.931 305.437 544.436 303.334 543.391 301.004C542.346 298.675 541.77 296.162 541.696 293.609C541.622 291.055 542.053 288.514 542.962 286.128L556.19 251.385C557.098 248.999 558.468 246.814 560.221 244.957C561.974 243.1 564.077 241.605 566.407 240.56C568.737 239.515 571.25 238.94 573.803 238.866C576.357 238.792 578.899 239.222 581.285 240.131Z" fill="url(#paint2_linear_577_3163)"/>
<path d="M591.355 259.371L571.732 251.9C570.065 251.265 568.196 252.102 567.561 253.771C566.926 255.44 567.764 257.307 569.433 257.942L589.056 265.413C590.723 266.048 592.592 265.211 593.227 263.542C593.862 261.873 593.024 260.006 591.355 259.371Z" fill="white"/>
<path d="M584.828 272.804L565.205 265.332C563.536 264.697 561.669 265.535 561.033 267.204C560.398 268.873 561.235 270.739 562.904 271.374L582.527 278.846C584.196 279.481 586.063 278.643 586.698 276.974C587.334 275.305 586.496 273.439 584.828 272.804Z" fill="white"/>
<path d="M695.477 306.138L697.879 307.136C701.476 308.631 704.358 311.453 705.929 315.017C707.5 318.582 707.638 322.613 706.315 326.275C705.604 328.24 704.496 330.037 703.059 331.553C701.621 333.069 699.886 334.27 697.961 335.084C696.037 335.898 693.964 336.304 691.875 336.279C689.787 336.253 687.725 335.795 685.821 334.934L684.376 334.282C684.376 334.282 688.651 317.839 695.477 306.138Z" fill="url(#paint3_linear_577_3163)"/>
<path d="M495.963 381.095L514.586 360.101C514.586 360.101 512.894 341.478 514.586 334.367C516.279 327.258 516.277 324.209 521.019 320.484C525.759 316.76 540.321 309.31 540.321 309.31V326.24L584.211 338.261C584.211 338.261 590.628 348.454 580.768 354.024C586.263 362.302 579.492 369.196 579.492 369.196C579.492 369.196 582.971 378.663 574.34 380.473C574.34 380.473 575.872 387.572 566.533 390.573C566.533 390.573 563.76 395.229 552.623 396.622C549.557 397.004 540.322 397.837 540.322 397.837L522.716 415.293L495.963 381.095Z" fill="#FFCCB3"/>
<path d="M500.552 375.923L533.079 405.019L536.742 401.388L502.741 373.455L500.552 375.923Z" fill="#FCBA9F"/>
<path d="M579.894 354.041C579.894 354.041 570.179 353.147 565.585 351.495L579.894 354.041Z" fill="#E56441"/>
<path d="M579.894 354.041C579.894 354.041 570.179 353.147 565.585 351.495" stroke="#E56441" stroke-width="1.20536" stroke-linecap="round"/>
<path d="M578.086 368.907C578.086 368.907 568.37 368.013 563.777 366.36L578.086 368.907Z" fill="#E56441"/>
<path d="M578.086 368.907C578.086 368.907 568.37 368.013 563.777 366.36" stroke="#E56441" stroke-width="1.20536" stroke-linecap="round"/>
<path d="M574.267 380.211C574.267 380.211 564.551 379.317 559.958 377.664L574.267 380.211Z" fill="#E56441"/>
<path d="M574.267 380.211C574.267 380.211 564.551 379.317 559.958 377.664" stroke="#E56441" stroke-width="1.20536" stroke-linecap="round"/>
<path d="M565.585 390.504C565.585 390.504 555.87 389.61 551.276 387.958L565.585 390.504Z" fill="#E56441"/>
<path d="M565.585 390.504C565.585 390.504 555.87 389.61 551.276 387.958" stroke="#E56441" stroke-width="1.20536" stroke-linecap="round"/>
<path d="M369.27 305.275C369.27 305.275 360.806 257.678 322.725 264.749C297.194 269.491 287.193 283.734 290.885 321.703C293.464 348.249 312.706 466.637 319.625 515C326.725 564.637 370.905 573.393 400.726 548.709L539.091 410.396L496.512 372.311L389.52 460.309L369.27 305.275Z" fill="#5661AE"/>
<path fill-rule="evenodd" clip-rule="evenodd" d="M502.731 298.25L464.105 281.413C457.178 315.632 460.14 308.4 455.368 310.975C455.368 310.975 414.616 312.529 404.115 262.813L359.379 264.297C359.379 264.297 346.829 298.51 400.161 315.12C391.772 335.169 421.272 369.465 458.942 330.825C485.047 369.735 502.591 333.441 489.987 319.354C508.828 308.385 502.731 298.25 502.731 298.25Z" fill="white"/>
<path d="M465.73 237.253L463.449 301.059C463.449 301.059 466.57 315.032 452.229 313.481C437.888 311.931 418.582 300.64 407.728 288.237C396.876 275.836 397.616 274.841 402.266 266.703C406.918 258.564 428.757 196.535 428.757 196.535L465.73 237.253Z" fill="#FFCCB3"/>
<path d="M465.403 242.604L438.96 225.765C438.96 225.765 450.676 277.184 463.449 301.059L465.403 242.604Z" fill="#FCBA9F"/>
<path d="M435.859 68.686C436.586 56.43 433.913 44.2125 428.134 33.3809C418.572 16.0958 398.711 -7.81017 368.551 2.48761C338.391 12.7854 316.324 35.955 327.725 68.686C339.127 101.417 370.802 111.892 386.941 108.404C403.08 104.917 435.859 68.686 435.859 68.686Z" fill="#493212"/>
<path d="M445.572 73.2376C443.836 70.3082 441.236 67.9882 438.129 66.5943C435.023 65.2003 431.561 64.8016 428.218 65.4512C416.284 67.6506 403.723 77.0705 393.044 88.3764C382.366 99.6806 382.713 107.885 387.564 112.89C392.416 117.893 445.572 73.2376 445.572 73.2376Z" fill="#3D4CDF"/>
<path d="M534.385 148.031C534.385 148.031 528.02 209.508 498.107 237.5C478.597 255.757 460.709 251.08 434.035 214.545C409.577 181.047 407.427 164.755 407.427 164.755L433.275 106.604C433.275 106.604 537.427 91.7801 534.385 148.031Z" fill="#FFCCB3"/>
<path d="M523.8 135.994C523.8 135.994 509.082 159.421 482.122 159.8C482.122 159.8 465.876 175.022 441.115 167.014C441.115 167.014 451.866 150.707 441.115 144.993C422.859 135.29 416.57 167.644 426.306 178.913C432.923 186.571 433.299 200.454 428.362 208.427C423.426 216.4 416.298 231.177 416.298 231.177C416.298 231.177 401.976 219.471 394.411 211.434C368.097 183.476 363.794 117.569 407.265 86.1143C450.734 54.6582 496.492 79.8231 505.07 86.1143C505.07 86.1143 550.747 94.0904 550.829 141.589C550.898 182.195 521.994 191.856 521.994 191.856L530.621 159.078C530.621 159.078 525.285 159.651 523.8 135.994Z" fill="#493212"/>
<path d="M475.772 212.885L495.169 222.4C495.082 222.498 494.985 222.606 494.879 222.719C494.281 223.357 493.41 224.182 492.313 224.928C490.126 226.413 487.116 227.548 483.584 226.4C478.146 224.066 476.298 220.45 475.756 217.458C475.48 215.935 475.539 214.551 475.669 213.546C475.702 213.3 475.737 213.08 475.772 212.885Z" fill="#E56441" stroke="#E56441"/>
<path d="M521.176 190.98C522.043 187.473 520.814 184.153 518.434 183.565C516.055 182.978 513.422 185.344 512.557 188.853C511.691 192.359 512.918 195.679 515.299 196.266C517.679 196.855 520.309 194.486 521.176 190.98Z" fill="#080B09"/>
<path d="M485.888 182.803C486.755 179.296 485.526 175.976 483.147 175.388C480.767 174.801 478.135 177.167 477.27 180.676C476.403 184.182 477.631 187.502 480.011 188.089C482.391 188.677 485.023 186.309 485.888 182.803Z" fill="#080B09"/>
<path d="M528.989 177.355L511.031 173.233C510.73 173.138 510.476 172.937 510.314 172.667C510.152 172.399 510.092 172.08 510.147 171.77C510.346 171.243 510.65 170.76 511.041 170.354C511.433 169.947 511.903 169.622 512.422 169.402C512.941 169.181 513.501 169.069 514.065 169.071C514.63 169.071 515.188 169.186 515.707 169.41L529.789 175.375C530.961 175.664 530.455 177.717 528.989 177.355Z" fill="#080B09"/>
<path d="M468.691 161.283L492.08 168.611C492.236 167.881 492.238 167.127 492.085 166.395C491.93 165.665 491.627 164.974 491.189 164.368C490.753 163.762 490.194 163.254 489.549 162.877C488.904 162.501 488.189 162.263 487.446 162.18L468.759 159.744C468.173 159.599 467.811 161.066 468.691 161.283Z" fill="#080B09"/>
<path d="M502.704 184.539L505.241 203.474L498.552 206.702" stroke="#E56441" stroke-width="1.22499" stroke-linecap="round"/>
<path d="M756.343 1000.01H113.137C101.785 1000.01 92.5811 1009.21 92.5811 1020.56V1221.4C92.5811 1232.76 101.785 1241.96 113.137 1241.96H756.343C767.695 1241.96 776.899 1232.76 776.899 1221.4V1020.56C776.899 1009.21 767.695 1000.01 756.343 1000.01Z" fill="#3D4CDF"/>
<path d="M241.296 622.75H10.8696C4.86559 622.75 0 627.617 0 633.619V710.575C0 716.576 4.86559 721.443 10.8696 721.443H241.296C247.298 721.443 252.164 716.576 252.164 710.575V633.619C252.164 627.617 247.298 622.75 241.296 622.75Z" fill="#FEBB94"/>
<path d="M305.3 1119.79H321.424C322.833 1119.79 324.185 1119.23 325.18 1118.23C326.177 1117.23 326.737 1115.88 326.737 1114.47C326.737 1113.06 326.177 1111.71 325.18 1110.71C324.185 1109.71 322.833 1109.15 321.424 1109.15H305.3C303.888 1109.15 302.536 1109.71 301.537 1110.71C300.539 1111.7 299.979 1113.06 299.979 1114.47C299.979 1115.88 300.539 1117.23 301.537 1118.23C302.536 1119.23 303.888 1119.79 305.3 1119.79Z" fill="white"/>
<path d="M274.344 1062.07C274.344 1061.22 274.139 1060.38 273.745 1059.62C273.351 1058.86 272.781 1058.21 272.083 1057.72C271.383 1057.23 270.576 1056.91 269.73 1056.8C268.885 1056.69 268.023 1056.78 267.219 1057.07L167.323 1093.03H144.067C142.656 1093.03 141.302 1093.59 140.305 1094.59C139.306 1095.58 138.745 1096.94 138.745 1098.35V1130.59C138.745 1132 139.306 1133.36 140.305 1134.35C141.302 1135.35 142.656 1135.91 144.067 1135.91H162.93V1178.96C162.93 1179.65 163.068 1180.35 163.335 1180.99C163.602 1181.64 163.994 1182.23 164.488 1182.72C164.983 1183.21 165.57 1183.61 166.215 1183.87C166.861 1184.14 167.553 1184.28 168.252 1184.28H196.467C197.166 1184.28 197.859 1184.14 198.504 1183.87C199.15 1183.61 199.737 1183.21 200.231 1182.72C200.724 1182.22 201.117 1181.64 201.384 1180.99C201.652 1180.35 201.789 1179.65 201.789 1178.96V1148.32L267.219 1171.87C268.023 1172.16 268.885 1172.25 269.73 1172.14C270.576 1172.02 271.383 1171.71 272.081 1171.22C272.781 1170.73 273.351 1170.08 273.745 1169.32C274.138 1168.56 274.344 1167.72 274.344 1166.87V1062.07ZM149.39 1125.27V1103.67H162.93V1125.27H149.39ZM191.146 1173.63H173.575V1138.16L191.146 1144.49V1173.63ZM173.575 1126.85V1102.09L263.701 1069.65V1159.29L173.575 1126.85Z" fill="white"/>
<path d="M305.033 1155.04L296.971 1146.98C296.477 1146.49 295.89 1146.09 295.244 1145.83C294.599 1145.56 293.907 1145.42 293.208 1145.42C292.509 1145.42 291.817 1145.56 291.171 1145.83C290.526 1146.09 289.939 1146.49 289.444 1146.98C288.95 1147.47 288.558 1148.06 288.291 1148.71C288.024 1149.35 287.886 1150.04 287.886 1150.74C287.886 1151.44 288.024 1152.13 288.291 1152.78C288.558 1153.43 288.95 1154.01 289.444 1154.51L297.506 1162.57C298.001 1163.06 298.587 1163.45 299.233 1163.72C299.879 1163.99 300.571 1164.13 301.27 1164.13C301.968 1164.13 302.661 1163.99 303.306 1163.72C303.952 1163.45 304.539 1163.06 305.033 1162.57C305.526 1162.07 305.919 1161.49 306.186 1160.84C306.454 1160.19 306.591 1159.5 306.591 1158.8C306.591 1158.11 306.454 1157.41 306.186 1156.77C305.919 1156.12 305.526 1155.54 305.033 1155.04Z" fill="white"/>
<path d="M289.444 1081.96C290.442 1082.96 291.796 1083.52 293.208 1083.52C294.62 1083.52 295.974 1082.96 296.971 1081.96L305.033 1073.9C306.031 1072.9 306.591 1071.55 306.591 1070.14C306.591 1068.72 306.031 1067.37 305.033 1066.37C304.034 1065.37 302.68 1064.81 301.269 1064.81C299.858 1064.81 298.504 1065.37 297.506 1066.37L289.444 1074.43C288.447 1075.43 287.886 1076.78 287.886 1078.2C287.886 1079.61 288.447 1080.96 289.444 1081.96Z" fill="white"/>
<path d="M393.343 1066.35H498.605" stroke="white" stroke-width="14.8881" stroke-miterlimit="10" stroke-linecap="round"/>
<path d="M393.343 1184.19H588.405" stroke="white" stroke-width="14.8881" stroke-miterlimit="10" stroke-linecap="round"/>
<path opacity="0.4" d="M393.343 1125.27H643.033" stroke="white" stroke-width="14.8881" stroke-miterlimit="10" stroke-linecap="round"/>
<path d="M1605.25 786.878H1486.63C1480.15 786.878 1474.89 792.135 1474.89 798.619V906.837C1474.89 913.321 1480.15 918.579 1486.63 918.579H1605.25C1611.74 918.579 1617 913.321 1617 906.837V798.619C1617 792.135 1611.74 786.878 1605.25 786.878Z" fill="#3D4CDF"/>
<path d="M109.391 692.892C107.547 692.892 105.886 692.576 104.41 691.944C102.933 691.285 101.774 690.363 100.93 689.177C100.087 687.99 99.6646 686.607 99.6646 685.025H104.488C104.594 686.212 105.056 687.186 105.873 687.952C106.715 688.715 107.889 689.098 109.391 689.098C110.946 689.098 112.158 688.728 113.028 687.99C113.898 687.226 114.334 686.251 114.334 685.066C114.334 684.143 114.056 683.392 113.502 682.811C112.975 682.233 112.303 681.784 111.486 681.467C110.697 681.152 109.589 680.808 108.166 680.44C106.373 679.966 104.91 679.491 103.778 679.017C102.67 678.516 101.721 677.752 100.93 676.725C100.14 675.696 99.7449 674.326 99.7449 672.613C99.7449 671.031 100.14 669.647 100.93 668.462C101.721 667.276 102.829 666.367 104.252 665.734C105.675 665.102 107.322 664.785 109.193 664.785C111.856 664.785 114.03 665.457 115.717 666.801C117.431 668.12 118.379 669.938 118.564 672.257H113.581C113.502 671.255 113.028 670.4 112.158 669.687C111.288 668.975 110.142 668.62 108.719 668.62C107.428 668.62 106.373 668.949 105.556 669.609C104.739 670.268 104.331 671.216 104.331 672.454C104.331 673.298 104.582 673.996 105.082 674.549C105.609 675.077 106.268 675.498 107.058 675.814C107.849 676.131 108.929 676.474 110.301 676.842C112.12 677.344 113.596 677.844 114.728 678.345C115.889 678.845 116.863 679.623 117.654 680.676C118.471 681.705 118.879 683.088 118.879 684.828C118.879 686.225 118.498 687.543 117.733 688.781C116.995 690.019 115.901 691.021 114.451 691.786C113.028 692.524 111.341 692.892 109.391 692.892ZM135.465 670.478C137.126 670.478 138.602 670.834 139.893 671.546C141.212 672.257 142.239 673.311 142.977 674.708C143.741 676.104 144.124 677.792 144.124 679.768V692.616H139.657V680.44C139.657 678.49 139.168 677.001 138.194 675.974C137.218 674.919 135.886 674.392 134.2 674.392C132.513 674.392 131.169 674.919 130.167 675.974C129.193 677.001 128.705 678.49 128.705 680.44V692.616H124.198V663.362H128.705V673.364C129.469 672.441 130.431 671.729 131.592 671.229C132.777 670.729 134.068 670.478 135.465 670.478ZM148.37 681.627C148.37 679.438 148.819 677.501 149.715 675.814C150.638 674.128 151.876 672.824 153.431 671.901C155.013 670.953 156.753 670.478 158.65 670.478C160.362 670.478 161.853 670.821 163.117 671.506C164.41 672.165 165.437 672.994 166.201 673.996V670.834H170.748V692.616H166.201V689.374C165.437 690.402 164.395 691.259 163.078 691.944C161.76 692.629 160.258 692.971 158.571 692.971C156.7 692.971 154.985 692.497 153.431 691.548C151.876 690.574 150.638 689.23 149.715 687.516C148.819 685.776 148.37 683.813 148.37 681.627ZM166.201 681.705C166.201 680.202 165.886 678.898 165.252 677.792C164.646 676.684 163.842 675.842 162.84 675.261C161.838 674.681 160.758 674.392 159.599 674.392C158.439 674.392 157.359 674.681 156.357 675.261C155.355 675.814 154.538 676.644 153.905 677.752C153.299 678.832 152.996 680.123 152.996 681.627C152.996 683.128 153.299 684.447 153.905 685.578C154.538 686.712 155.355 687.582 156.357 688.188C157.384 688.768 158.465 689.058 159.599 689.058C160.758 689.058 161.838 688.768 162.84 688.188C163.842 687.609 164.646 686.765 165.252 685.659C165.886 684.525 166.201 683.207 166.201 681.705ZM181.175 673.996C181.833 672.89 182.703 672.033 183.783 671.427C184.891 670.793 186.195 670.478 187.699 670.478V675.142H186.551C184.785 675.142 183.441 675.591 182.52 676.487C181.622 677.382 181.175 678.938 181.175 681.152V692.616H176.667V670.834H181.175V673.996ZM211.807 681.191C211.807 682.008 211.753 682.746 211.649 683.405H195.004C195.135 685.144 195.782 686.542 196.941 687.595C198.1 688.649 199.524 689.177 201.21 689.177C203.635 689.177 205.349 688.162 206.351 686.133H211.213C210.554 688.135 209.356 689.783 207.616 691.074C205.902 692.339 203.767 692.971 201.21 692.971C199.128 692.971 197.258 692.51 195.597 691.588C193.963 690.64 192.671 689.321 191.722 687.635C190.8 685.921 190.339 683.945 190.339 681.705C190.339 679.464 190.786 677.501 191.683 675.814C192.605 674.102 193.883 672.784 195.518 671.861C197.178 670.94 199.077 670.478 201.21 670.478C203.267 670.478 205.098 670.925 206.706 671.822C208.314 672.718 209.567 673.983 210.462 675.617C211.358 677.225 211.807 679.083 211.807 681.191ZM207.102 679.768C207.076 678.107 206.483 676.776 205.323 675.776C204.162 674.774 202.727 674.273 201.012 674.273C199.458 674.273 198.128 674.774 197.02 675.776C195.914 676.75 195.254 678.082 195.044 679.768H207.102Z" fill="white"/>
<path d="M66.5718 678.99C65.0121 678.99 63.4733 679.334 62.0631 679.996C60.653 680.66 59.4068 681.627 58.4131 682.828L45.749 675.639C46.5627 673.348 46.5627 670.847 45.749 668.557L58.4115 661.366C60.1047 663.403 62.4973 664.731 65.1214 665.091C67.7456 665.449 70.4083 664.814 72.5854 663.308C74.7642 661.801 76.2981 659.534 76.8866 656.952C77.4751 654.37 77.0764 651.663 75.7675 649.36C74.4571 647.06 72.333 645.331 69.8134 644.518C67.2937 643.704 64.5602 643.865 62.1516 644.966C59.7445 646.068 57.8359 648.032 56.8052 650.47C55.7729 652.909 55.6909 655.645 56.5769 658.14L43.9144 665.332C42.5219 663.652 40.6455 662.443 38.5407 661.869C36.4359 661.295 34.2057 661.383 32.1524 662.123C30.1007 662.862 28.3271 664.218 27.0729 666.002C25.8188 667.787 25.145 669.916 25.145 672.098C25.145 674.278 25.8188 676.406 27.0729 678.193C28.3255 679.977 30.1007 681.331 32.1524 682.072C34.2057 682.812 36.4359 682.9 38.5407 682.326C40.6455 681.752 42.5219 680.543 43.9128 678.863L56.5769 686.053C55.826 688.174 55.7697 690.479 56.4161 692.635C57.0625 694.791 58.3777 696.685 60.1722 698.044C61.9667 699.402 64.1486 700.155 66.3981 700.192C68.6492 700.227 70.8521 699.547 72.6916 698.248C74.5294 696.949 75.9058 695.1 76.623 692.966C77.3385 690.833 77.3578 688.526 76.676 686.381C75.9943 684.236 74.6484 682.363 72.8315 681.035C71.0145 679.705 68.8229 678.99 66.5718 678.99ZM66.5718 647.706C67.9353 647.706 69.2683 648.11 70.4019 648.868C71.5371 649.626 72.4198 650.701 72.9424 651.962C73.465 653.222 73.6017 654.608 73.3347 655.946C73.0694 657.284 72.4118 658.512 71.4486 659.475C70.4839 660.44 69.2554 661.096 67.9176 661.362C66.5798 661.628 65.1938 661.491 63.9331 660.97C62.6725 660.448 61.5968 659.563 60.8395 658.43C60.0822 657.295 59.677 655.962 59.6786 654.599C59.6802 652.772 60.407 651.02 61.6997 649.727C62.9909 648.434 64.7436 647.708 66.5718 647.706ZM35.7574 678.99C34.3939 678.99 33.0609 678.586 31.9273 677.829C30.7937 677.072 29.9093 675.995 29.3883 674.736C28.8658 673.477 28.7291 672.091 28.9944 670.753C29.2613 669.416 29.9174 668.187 30.8805 667.224C31.8453 666.26 33.0737 665.604 34.4115 665.337C35.7477 665.072 37.1338 665.208 38.3944 665.729C39.6534 666.252 40.7291 667.134 41.488 668.268C42.2454 669.401 42.649 670.734 42.649 672.098C42.6474 673.924 41.9206 675.676 40.6278 676.969C39.3366 678.26 37.584 678.987 35.7574 678.99ZM66.5718 696.487C65.2083 696.487 63.8753 696.084 62.7401 695.327C61.6065 694.569 60.7221 693.492 60.2012 692.233C59.6786 690.973 59.5419 689.587 59.8072 688.249C60.0741 686.912 60.7302 685.683 61.6949 684.72C62.6581 683.755 63.8865 683.098 65.2243 682.833C66.5621 682.567 67.9481 682.702 69.2088 683.225C70.4678 683.747 71.5451 684.63 72.3024 685.765C73.0598 686.899 73.4633 688.232 73.4633 689.595C73.4617 691.423 72.735 693.174 71.4422 694.466C70.151 695.757 68.3984 696.484 66.5718 696.487Z" fill="white"/>
<path d="M1501.71 872.737L1522.36 852.091C1523.71 850.74 1525.54 849.983 1527.44 849.983C1529.35 849.983 1531.19 850.74 1532.54 852.091L1548.68 868.239C1550.03 869.588 1551.86 870.347 1553.78 870.347C1555.67 870.347 1557.51 869.588 1558.86 868.239L1585.26 841.844" stroke="white" stroke-width="5.16228" stroke-miterlimit="10" stroke-linecap="round"/>
<path d="M1573.01 837.091H1587.69C1588.35 837.091 1588.99 837.355 1589.46 837.824C1589.92 838.292 1590.18 838.929 1590.18 839.591V852.873" stroke="white" stroke-width="5.16228" stroke-miterlimit="10" stroke-linecap="round"/>
<path d="M1248.2 587.474C1251.9 579.039 1249.71 569.92 1243.29 567.103C1236.87 564.286 1228.67 568.84 1224.97 577.274C1221.26 585.708 1223.46 594.829 1229.88 597.646C1236.29 600.463 1244.5 595.908 1248.2 587.474Z" stroke="#080B09" stroke-miterlimit="10"/>
<path d="M1211.39 571.747C1215.09 563.312 1212.89 554.191 1206.48 551.374C1200.06 548.558 1191.85 553.112 1188.15 561.547C1184.45 569.981 1186.65 579.1 1193.07 581.917C1199.48 584.734 1207.68 580.181 1211.39 571.747Z" stroke="#080B09" stroke-miterlimit="10"/>
<path d="M1211.39 571.754C1211.39 571.754 1220.25 571.597 1224.97 577.274" stroke="#080B09" stroke-miterlimit="10"/>
<path d="M1247.13 589.575H1285.32" stroke="#080B09" stroke-miterlimit="10"/>
<path d="M458.942 330.825C458.942 330.825 461.559 366.1 458.942 394.059" stroke="#96BAFD" stroke-miterlimit="10"/>
<path fill-rule="evenodd" clip-rule="evenodd" d="M1240.27 693.442C1275.93 671.116 1281.84 657.22 1281.84 657.22L1296.86 686.314L1255.2 717.708C1253.54 713.299 1251.49 709.044 1249.1 704.986L1237.38 714.327L1240.27 693.442ZM1197.12 686.128L1212.51 674.616C1212.51 674.616 1211.3 685.282 1227.22 692.535L1228.55 712.343L1220.84 704.867L1210.57 718.419L1197.12 686.128Z" fill="#3D4CDF"/>
<path d="M1237.38 714.327L1240.27 693.442L1249.1 704.986L1237.38 714.327Z" fill="#3D4CDF"/>
<path d="M1227.22 692.535L1220.84 704.867L1228.55 712.343L1227.22 692.535Z" fill="#3D4CDF"/>
<path d="M1228.55 712.343L1233.41 772.365C1233.47 773.204 1233.82 773.995 1234.4 774.609C1234.97 775.223 1235.74 775.625 1236.57 775.747C1237.12 775.828 1237.68 775.786 1238.21 775.624C1238.74 775.46 1239.23 775.181 1239.63 774.807C1240.04 774.434 1240.36 773.972 1240.57 773.46C1240.78 772.947 1240.87 772.394 1240.83 771.84L1237.38 714.327L1233.62 717.708L1228.55 712.343Z" fill="#3D4CDF"/>
<path d="M1249.91 738.494C1252.48 738.494 1254.56 736.415 1254.56 733.852C1254.56 731.288 1252.48 729.209 1249.91 729.209C1247.35 729.209 1245.27 731.288 1245.27 733.852C1245.27 736.415 1247.35 738.494 1249.91 738.494Z" fill="#3D4CDF"/>
<path d="M1251.42 765.836C1253.99 765.836 1256.07 763.758 1256.07 761.194C1256.07 758.63 1253.99 756.551 1251.42 756.551C1248.86 756.551 1246.78 758.63 1246.78 761.194C1246.78 763.758 1248.86 765.836 1251.42 765.836Z" fill="#3D4CDF"/>
<defs>
<linearGradient id="paint0_linear_577_3163" x1="419.076" y1="257.008" x2="579.965" y2="1727.28" gradientUnits="userSpaceOnUse">
<stop stop-color="white"/>
<stop offset="1" stop-color="#94B9FF"/>
</linearGradient>
<linearGradient id="paint1_linear_577_3163" x1="1177.84" y1="640.949" x2="1338.73" y2="2111.22" gradientUnits="userSpaceOnUse">
<stop stop-color="white"/>
<stop offset="1" stop-color="#94B9FF"/>
</linearGradient>
<linearGradient id="paint2_linear_577_3163" x1="590.267" y1="243.356" x2="553.496" y2="400.826" gradientUnits="userSpaceOnUse">
<stop stop-color="white"/>
<stop offset="1" stop-color="#94B9FF"/>
</linearGradient>
<linearGradient id="paint3_linear_577_3163" x1="695.228" y1="306.065" x2="704.293" y2="369.428" gradientUnits="userSpaceOnUse">
<stop stop-color="white"/>
<stop offset="1" stop-color="#94B9FF"/>
</linearGradient>
</defs>
</svg>
