<svg width="867" height="711" viewBox="0 0 867 711" fill="none" xmlns="http://www.w3.org/2000/svg">
<path d="M849.11 0H718.89C710.115 0 703 5.55854 703 12.4166V122.583C703 129.441 710.115 135 718.89 135H849.11C857.885 135 865 129.441 865 122.583V12.4166C865 5.55854 857.885 0 849.11 0Z" fill="#3D4CDF"/>
<path d="M718.4 101.665H751.082" stroke="white" stroke-width="7.4328" stroke-miterlimit="10" stroke-linecap="round"/>
<path opacity="0.4" d="M718.4 116.918H785.94" stroke="white" stroke-width="7.4328" stroke-miterlimit="10" stroke-linecap="round"/>
<path d="M721 38H742.232C743.792 38 745.324 38.3247 746.677 38.9422C748.03 39.5597 749.157 40.449 749.945 41.5201L770.498 69.4812C771.306 70.5793 772.47 71.4856 773.869 72.1051C775.268 72.7236 776.85 73.0323 778.451 72.9973C780.05 72.9634 781.61 72.5877 782.965 71.9102C784.32 71.2328 785.421 70.2786 786.155 69.1465L798.861 49.5166C799.605 48.3665 800.729 47.4013 802.107 46.7219C803.489 46.0434 805.084 45.6767 806.704 45.6627L844 45.345" stroke="white" stroke-width="4" stroke-miterlimit="10" stroke-linecap="round"/>
<path opacity="0.4" d="M721 68H731.441C733.8 68 736.064 67.2631 737.737 65.9483L786.004 28.0517C787.678 26.7369 789.941 26 792.3 26H806.428C808.45 26 810.41 26.5403 811.993 27.5333C813.576 28.5254 814.681 29.9128 815.133 31.467L822.557 56.7403C823.009 58.2945 824.115 59.6808 825.698 60.6739C827.28 61.667 829.24 62.2073 831.25 62.2073H844" stroke="white" stroke-width="4" stroke-miterlimit="10" stroke-linecap="round"/>
<path d="M44.3599 673.384C44.3599 673.384 48.0889 710.974 112.865 710.974H188.8L88.0629 632.65L44.3599 673.384Z" fill="#5661AE"/>
<path d="M195.056 237.75L16.7239 277.263C15.1369 277.603 13.6249 278.23 12.2639 279.114C7.33089 282.369 -1.48012 291.886 0.212883 317.909C2.46888 352.596 44.3609 673.386 44.3609 673.386L215.586 525.152L195.056 237.75Z" fill="#5661AE"/>
<path d="M214.116 236.73L34.4792 276.532C34.4792 276.532 19.1132 282.129 19.2732 316.889C19.4342 351.649 63.4212 672.366 63.4212 672.366L234.646 524.132L214.116 236.73Z" fill="#FEBB94"/>
<path d="M291.863 402.211L309.293 426.604C311.782 430.087 314.981 433.002 318.679 435.157C322.377 437.313 326.49 438.66 330.747 439.109L444.839 451.149L446.573 479.723L307.353 488.175C299.51 488.652 291.669 487.195 284.52 483.934C277.37 480.674 271.13 475.708 266.347 469.473L229.035 420.829L291.863 402.211Z" fill="#FFCCB3"/>
<path d="M302.764 417.467C302.764 417.467 266.897 426.938 256.411 456.519L238.539 430.103L298.91 412.073L302.764 417.467Z" fill="#FF967C"/>
<path d="M215.237 310.195C215.237 310.195 250.137 320.367 259.853 332.113C267.414 341.253 280.268 379.227 290.341 397.516C292.776 401.936 296.23 402.336 293.664 406.68C283.049 424.649 273.952 450.842 256.411 456.519C197.702 447.65 215.237 310.195 215.237 310.195Z" fill="#5661AE"/>
<path d="M252.954 362.23C252.954 362.23 276.246 404.47 279.782 427.17C279.782 427.17 271.489 448.216 265.635 452.497C256.502 459.176 251.487 455.423 251.487 455.423L252.954 362.23Z" fill="#465393"/>
<path d="M131.221 224.871C163.412 224.871 189.507 198.775 189.507 166.585C189.507 134.394 163.412 108.298 131.221 108.298C99.0301 108.298 72.9351 134.394 72.9351 166.585C72.9351 198.775 99.0301 224.871 131.221 224.871Z" fill="#080B09"/>
<path d="M180.605 135.51C180.605 135.51 105.381 122.228 96.5562 213.445C96.5562 213.445 104.092 221.549 114.939 222.435C114.939 222.435 123.748 133.927 185.01 140.766L180.605 135.51Z" fill="#FEBB94"/>
<path d="M180.893 269.037L190.102 303.3C190.102 303.3 260.405 383.066 202.055 412.073C191.799 417.172 142.783 377.988 133.58 369.301C124.376 360.614 128.192 309.297 128.192 309.297L149.325 235.999L180.893 269.037Z" fill="#FFCCB3"/>
<path d="M160.176 377.748C160.176 377.748 194.52 399.336 229.035 379.304C229.035 379.304 223.716 409.044 202.794 418.616C181.871 428.187 160.176 377.748 160.176 377.748Z" fill="#3D4CDF"/>
<path d="M182.706 275.09L164.242 263.012L191.582 308.992L182.706 275.09Z" fill="#FF967C"/>
<path d="M229.444 184.722C229.444 184.722 239.211 236.11 221.757 266.068C210.374 285.605 194.737 286.156 164.242 263.012C136.281 241.79 130.582 229.104 130.582 229.104L137.417 175.681C137.417 175.681 218.251 138.378 229.444 184.722Z" fill="#FFCCB3"/>
<path d="M190.102 303.301C190.102 303.301 224.671 311.838 230.245 315.768C235.819 319.698 242.973 354.097 253.01 370.026C263.047 385.956 276.757 411.125 259.144 440.234C241.531 469.343 243.119 497.197 243.119 497.197L256.449 570.267H107.98C101.774 570.834 98.4727 555.109 98.6577 548.88C99.2657 528.336 101.213 522.211 99.9008 489.636C98.1238 445.488 81.6357 320.243 81.6357 320.243L130.582 302.068C129.077 370.973 169.109 355.934 202.794 418.616C230.367 365.653 190.102 303.301 190.102 303.301Z" fill="#5661AE"/>
<path d="M113.859 355.934C113.859 355.934 121.124 371.076 115.387 386.544C108.936 403.935 101.837 446.313 133.28 448.983C171.82 452.256 155.641 459.243 138.193 464.598C120.744 469.952 127.994 469.517 129.108 487.862C129.901 500.919 94.7999 527.428 98.0329 517.309C115.38 463.017 56.4289 395.931 113.859 355.934Z" fill="#465393"/>
<path d="M197.472 251.316L215.97 254.398C215.901 254.555 215.816 254.739 215.713 254.946C215.379 255.618 214.865 256.51 214.147 257.393C212.713 259.157 210.498 260.852 207.276 260.773C202.231 260.195 199.802 257.672 198.61 255.325C198.007 254.137 197.714 252.982 197.574 252.122C197.522 251.808 197.491 251.535 197.472 251.316Z" fill="#E56441" stroke="#E56441"/>
<path d="M225.682 228.464C227.754 228.363 229.313 225.804 229.163 222.75C229.013 219.697 227.212 217.303 225.14 217.405C223.068 217.506 221.51 220.064 221.659 223.118C221.809 226.172 223.61 228.566 225.682 228.464Z" fill="#080B09"/>
<path d="M195.09 230.4C197.162 230.299 198.72 227.741 198.571 224.687C198.421 221.633 196.62 219.24 194.548 219.342C192.476 219.443 190.917 222.001 191.067 225.055C191.216 228.108 193.017 230.502 195.09 230.4Z" fill="#080B09"/>
<path d="M232.189 209.807L216.63 210.825C216.364 210.82 216.109 210.719 215.912 210.54C215.715 210.362 215.589 210.118 215.558 209.854C215.591 209.377 215.721 208.912 215.939 208.487C216.158 208.062 216.46 207.686 216.827 207.381C217.195 207.076 217.621 206.849 218.079 206.713C218.537 206.577 219.018 206.535 219.492 206.59L232.357 208.007C233.378 207.957 233.465 209.744 232.189 209.807Z" fill="#080B09"/>
<path d="M179.404 211.414L200.145 211.678C200.094 211.048 199.912 210.435 199.61 209.88C199.309 209.325 198.894 208.839 198.393 208.453C197.892 208.068 197.316 207.792 196.702 207.643C196.087 207.494 195.449 207.475 194.827 207.588L179.086 210.15C178.576 210.175 178.639 211.452 179.404 211.414Z" fill="#080B09"/>
<path d="M212.624 222.014L219.278 236.749L214.64 240.99" stroke="#E56441" stroke-width="1.66686" stroke-linecap="round"/>
<path d="M210.353 192.697C199.487 192.772 194.398 190.252 183 195.615C179.403 197.307 176 199 173.937 203.148C171.727 211.49 173.144 223.078 158.441 222.756C158.441 222.756 163.197 206.926 153.094 204.903C135.938 201.468 138.696 229.227 149.325 235.999C156.548 240.601 144.139 273.799 134.908 286.002C103.334 212.216 114.292 204.784 122.501 185.524C136.45 152.794 148.672 142.83 181.693 137.417C181.693 137.417 225.443 138.598 237.042 177.089C246.957 209.994 232.076 222.609 232.076 222.609C232.076 222.609 232.538 198.124 230.116 195.615C226.93 192.314 224.346 192.6 210.353 192.697Z" fill="#080B09"/>
<path d="M741.222 590.979L617.416 612.972L641.785 710.975H721.089C721.089 710.975 758.786 629.947 741.222 590.979Z" fill="#FFCCB3"/>
<path d="M662.178 599.563C662.178 599.563 681.258 605.439 689.134 636.558C697.011 667.678 688.417 710.975 688.417 710.975H700.685C700.685 710.975 744.433 659.6 712.247 594.125L662.178 599.563Z" fill="#FF967C"/>
<path d="M284.404 572.818L408.211 594.813L383.841 692.816H304.537C304.537 692.816 266.84 611.787 284.404 572.818Z" fill="#FFCCB3"/>
<path d="M363.448 581.404C363.448 581.404 344.368 587.28 336.492 618.4C328.616 649.519 337.21 692.817 337.21 692.817H324.941C324.941 692.817 281.194 641.441 313.38 575.966L363.448 581.404Z" fill="#FF967C"/>
<path d="M100.966 546.545C100.966 546.545 79.0261 587.726 81.6361 642.03C84.1161 693.605 112.332 710.975 156.938 710.975L337.21 692.817C337.21 692.817 337.485 599.715 411.002 583.81C411.002 583.81 329.149 524.229 246.354 539.198C205.717 546.545 180.186 555.485 100.966 546.545Z" fill="#1F2D49"/>
<path d="M97.882 532.779C97.882 532.779 214.637 544.977 257.669 512.823L255.745 539.667C255.745 539.667 182.984 580.092 99.599 557.343C99.599 557.343 87.097 548.563 97.882 532.779Z" fill="#3D4CDF"/>
<path d="M454.185 491.565C454.185 491.565 488.869 484.303 503.232 487.63C517.87 490.654 548.678 498.362 543.16 520.948C539.343 537.074 522.507 530.686 522.507 530.686C522.507 530.686 526.889 537.126 520.375 540.064C516.403 541.714 490.777 527.66 490.777 527.66C473.675 533.161 451.359 521.547 451.359 521.547L454.185 491.565Z" fill="#FFCCB3"/>
<path d="M503.531 522.088L522.218 530.7" stroke="#FF967C" stroke-width="2.89316" stroke-linecap="round" stroke-linejoin="round"/>
<path d="M507.71 507.393C512.392 508.314 533.464 518.254 533.464 518.254" stroke="#FF967C" stroke-width="2.89316" stroke-linecap="round" stroke-linejoin="round"/>
<path d="M510.332 496.251C519.717 498.597 528.696 502.341 536.967 507.357" stroke="#FF967C" stroke-width="2.89316" stroke-linecap="round" stroke-linejoin="round"/>
<path d="M299.982 379.305H676.413L866.91 692.818H144.342L299.982 379.305Z" fill="url(#paint0_linear_579_3572)"/>
<path d="M134.446 362.434L118.153 456.118C117.742 458.46 116.449 460.556 114.541 461.975C112.632 463.394 110.253 464.028 107.892 463.747C107.892 463.747 61.9782 460.728 46.6942 459.455C43.0942 459.155 33.3102 450.281 36.3012 435.665C39.0432 415.699 51.8862 369.078 60.0072 343.19C63.7892 330.309 104.232 338.02 104.232 338.02L134.446 362.434Z" fill="#5661AE"/>
<path d="M96.3342 394.496C117.625 394.496 134.884 377.237 134.884 355.946C134.884 334.656 117.625 317.396 96.3342 317.396C75.0442 317.396 57.7842 334.656 57.7842 355.946C57.7842 377.237 75.0442 394.496 96.3342 394.496Z" fill="#5661AE"/>
<path d="M47.7469 464.66L48.3769 457.191L105.537 463.701L104.652 470.057L99.7889 510.139L44.2119 504.144L47.7469 464.66Z" fill="#FFCCB3"/>
<path d="M48.6551 457.127L105.537 463.701L104.652 470.057C91.7271 468.629 62.7491 466.197 47.7471 464.66L48.6551 457.127Z" fill="#FF967C"/>
<path d="M71.7819 533.601C87.2369 533.601 99.7659 521.072 99.7659 505.617C99.7659 490.161 87.2369 477.632 71.7819 477.632C56.3259 477.632 43.7969 490.161 43.7969 505.617C43.7969 521.072 56.3259 533.601 71.7819 533.601Z" fill="#FFCCB3"/>
<path d="M85.5952 529.709L243.528 455.568C243.528 455.568 253.002 421.888 242.7 427.48C232.14 433.196 63.8872 478.677 63.8872 478.677L85.5952 529.709Z" fill="#FFCCB3"/>
<path d="M333.871 459.288L266.724 471.019C262.399 471.775 259.523 468.771 260.302 464.309L280.949 345.951C281.728 341.49 285.865 337.26 290.191 336.504L357.337 324.773C361.663 324.017 364.538 327.021 363.76 331.483L343.112 449.841C342.334 454.302 338.197 458.532 333.871 459.288Z" fill="#3D4CDF"/>
<path d="M336.884 458.76L269.738 470.492C265.412 471.248 262.537 468.243 263.315 463.782L283.963 345.424C284.741 340.962 288.879 336.733 293.204 335.977L360.351 324.245C364.676 323.489 367.552 326.493 366.773 330.955L346.126 449.313C345.347 453.775 341.21 458.004 336.884 458.76Z" fill="#B2CDFF"/>
<path d="M233.172 430.777L240.968 456.191C240.968 456.191 273.266 448.445 280.175 445.053C293.648 438.126 308.136 428.784 309.833 425.232C315.031 416.248 315.643 405.132 315.048 397.368C314.973 396.214 314.614 395.096 314.005 394.113C313.396 393.13 312.554 392.313 311.554 391.732C310.555 391.151 309.427 390.826 308.272 390.784C307.116 390.741 305.968 390.982 304.928 391.488L276.657 405.599C276.657 405.599 272.976 399.38 276.679 394.438C279.065 391.176 275.384 384.958 273.748 383.052C273.103 382.171 269.661 382.144 268.881 383.035C267.565 384.716 269.375 390.555 266.598 394.261C261.87 400.194 266.067 402.77 253.894 412.884C244.264 420.817 233.072 430.533 233.172 430.777Z" fill="#FFCCB3"/>
<path d="M287.848 409.896C295.892 407.185 312.297 397.632 312.297 397.632" stroke="#FF967C" stroke-width="2.09903" stroke-linecap="round" stroke-linejoin="round"/>
<path d="M286.791 420.622C293.265 418.266 310.36 409.003 310.36 409.003" stroke="#FF967C" stroke-width="2.09903" stroke-linecap="round" stroke-linejoin="round"/>
<path d="M290.692 430.181C294.96 428.726 307.652 422.689 307.652 422.689" stroke="#FF967C" stroke-width="2.09903" stroke-linecap="round" stroke-linejoin="round"/>
<path d="M46.7942 454.141C45.4102 459.706 45.5422 465.539 47.1762 471.035C47.1762 471.035 74.6742 484.355 103.729 477.665C105.687 475.99 107.121 473.787 107.859 471.318C108.597 468.85 108.609 466.221 107.892 463.747L46.7942 454.141Z" fill="#5661AE"/>
<path d="M629.892 233.726L626.524 200.292L629.892 233.726Z" fill="#93523E"/>
<path d="M629.892 233.726L626.524 200.292" stroke="#93523E" stroke-width="1.51544" stroke-linecap="round"/>
<path d="M618.373 234.096L612.894 201.98L618.373 234.096Z" fill="#93523E"/>
<path d="M618.373 234.096L612.894 201.98" stroke="#93523E" stroke-width="1.51544" stroke-linecap="round"/>
<path d="M604.839 234.171L602.069 214.95L604.839 234.171Z" fill="#93523E"/>
<path d="M604.839 234.171L602.069 214.95" stroke="#93523E" stroke-width="1.51544" stroke-linecap="round"/>
<path d="M623.507 259.248C627.531 249.842 637.971 240.789 637.971 240.789L623.507 259.248Z" fill="#93523E"/>
<path d="M623.507 259.248C627.531 249.842 637.971 240.789 637.971 240.789" stroke="#93523E" stroke-width="1.51544" stroke-linecap="round"/>
<path d="M131.221 298.791C131.221 298.791 154.739 344.341 178.756 351.832C178.756 351.832 192.254 344.665 190.102 303.3" stroke="white" stroke-miterlimit="10"/>
<path d="M413.574 486.758L321.265 487.279V575.966L458.653 567.959L413.574 486.758Z" fill="white"/>
<path d="M404.836 495.398L420.1 526.755" stroke="#3D4CDF" stroke-width="3.81627" stroke-miterlimit="10" stroke-linecap="round"/>
<path opacity="0.4" d="M389.959 495.402L395.679 507.152" stroke="#3D4CDF" stroke-width="3.81627" stroke-miterlimit="10" stroke-linecap="round"/>
<path opacity="0.4" d="M327.491 495.402L373.146 494.341L376.501 505.509L328.404 507.152L327.491 495.402Z" fill="#3D4CDF"/>
<path opacity="0.4" d="M328.772 513.573L355.576 512.85L358.931 524.017L329.685 525.323L328.772 513.573Z" fill="#3D4CDF"/>
<path opacity="0.4" d="M328.772 533.355L374.426 532.295L377.782 543.462L329.685 545.105L328.772 533.355Z" fill="#3D4CDF"/>
<path opacity="0.4" d="M330.053 551.526L356.857 550.803L360.212 561.97L330.966 563.276L330.053 551.526Z" fill="#3D4CDF"/>
<path d="M251.487 636.557L353.277 572.818L425.445 593.343L338.466 669.793L251.487 636.557Z" fill="#3D4CDF"/>
<path d="M799.41 285.95V293.598C799.41 293.598 802.46 304.584 813.54 306.758C813.54 306.758 815.27 312.821 809.17 313.541C803.08 314.261 785.36 305.304 782.753 304.427C780.134 303.563 778.982 299.949 784.06 297.055C784.06 297.055 785.88 287.142 799.41 285.95Z" fill="white"/>
<path d="M558.69 31.54H564.69" stroke="#5CA4E6" stroke-miterlimit="10"/>
<path d="M668.517 0.146973H322.871C312.772 0.146973 304.584 8.33498 304.584 18.434V241.178C304.584 251.278 312.772 259.465 322.871 259.465H668.517C678.616 259.465 686.804 251.278 686.804 241.178V18.434C686.804 8.33498 678.616 0.146973 668.517 0.146973Z" fill="url(#paint1_linear_579_3572)"/>
<path d="M656.424 193.794H464.408C461.23 193.794 458.654 196.37 458.654 199.548V225.515C458.654 228.693 461.23 231.269 464.408 231.269H656.424C659.602 231.269 662.178 228.693 662.178 225.515V199.548C662.178 196.37 659.602 193.794 656.424 193.794Z" fill="white"/>
<path d="M596.952 209.961V208.468H600.334V221.471H598.679V209.961H596.952ZM603.109 211.741C603.193 210.638 603.618 209.775 604.386 209.151C605.153 208.528 606.148 208.216 607.371 208.216C608.187 208.216 608.888 208.366 609.475 208.666C610.075 208.954 610.525 209.349 610.824 209.853C611.136 210.356 611.292 210.926 611.292 211.561C611.292 212.305 611.076 212.946 610.644 213.486C610.225 214.025 609.673 214.373 608.99 214.529V214.619C609.769 214.811 610.387 215.188 610.842 215.752C611.298 216.315 611.526 217.053 611.526 217.964C611.526 218.647 611.37 219.265 611.058 219.816C610.746 220.356 610.279 220.782 609.655 221.093C609.032 221.405 608.282 221.561 607.407 221.561C606.136 221.561 605.093 221.231 604.278 220.572C603.463 219.9 603.007 218.953 602.911 217.73H604.494C604.578 218.45 604.871 219.037 605.375 219.493C605.878 219.948 606.55 220.176 607.389 220.176C608.228 220.176 608.864 219.96 609.296 219.529C609.739 219.085 609.961 218.515 609.961 217.82C609.961 216.921 609.661 216.273 609.062 215.878C608.462 215.482 607.557 215.284 606.346 215.284H605.932V213.917H606.364C607.467 213.905 608.3 213.726 608.864 213.378C609.427 213.018 609.709 212.467 609.709 211.723C609.709 211.088 609.499 210.578 609.08 210.195C608.672 209.811 608.085 209.619 607.317 209.619C606.574 209.619 605.974 209.811 605.519 210.195C605.063 210.578 604.793 211.094 604.709 211.741H603.109ZM613.538 220.158C615.06 218.935 616.253 217.934 617.117 217.155C617.98 216.363 618.705 215.542 619.293 214.691C619.892 213.827 620.192 212.982 620.192 212.155C620.192 211.376 620 210.764 619.616 210.32C619.245 209.865 618.639 209.637 617.8 209.637C616.985 209.637 616.349 209.895 615.894 210.41C615.45 210.914 615.21 211.591 615.174 212.443H613.592C613.639 211.1 614.047 210.063 614.814 209.331C615.582 208.6 616.571 208.234 617.782 208.234C619.017 208.234 619.994 208.576 620.713 209.259C621.445 209.943 621.811 210.884 621.811 212.083C621.811 213.078 621.511 214.049 620.911 214.996C620.324 215.932 619.652 216.759 618.897 217.478C618.142 218.186 617.176 219.013 616.001 219.96H622.188V221.327H613.538V220.158Z" fill="#3D4CDF"/>
<path d="M431.75 27.6118H331.123C327.35 27.6118 324.291 30.6708 324.291 34.4448V224.437C324.291 228.21 327.35 231.269 331.123 231.269H431.75C435.523 231.269 438.582 228.21 438.582 224.437V34.4448C438.582 30.6708 435.523 27.6118 431.75 27.6118Z" fill="#3D4CDF"/>
<path opacity="0.4" d="M381.437 162.864C397.354 162.864 410.258 149.96 410.258 134.043C410.258 118.125 397.354 105.221 381.437 105.221C365.519 105.221 352.615 118.125 352.615 134.043C352.615 149.96 365.519 162.864 381.437 162.864Z" fill="white"/>
<path d="M372.521 126.108V144.4C372.521 144.907 372.653 145.406 372.904 145.847C373.155 146.287 373.516 146.655 373.952 146.913C374.388 147.172 374.884 147.313 375.391 147.322C375.899 147.33 376.399 147.207 376.844 146.964L393.566 137.817C394.026 137.566 394.41 137.195 394.677 136.744C394.944 136.293 395.085 135.778 395.085 135.254C395.085 134.73 394.944 134.215 394.677 133.764C394.41 133.313 394.026 132.942 393.566 132.691L376.844 123.544C376.399 123.301 375.899 123.178 375.391 123.186C374.884 123.195 374.388 123.336 373.952 123.594C373.516 123.853 373.155 124.221 372.904 124.661C372.653 125.102 372.521 125.6 372.521 126.108Z" fill="white"/>
<path d="M463.816 52.0732H535.702" stroke="white" stroke-width="16.3488" stroke-miterlimit="10" stroke-linecap="round"/>
<path opacity="0.4" d="M463.816 85.6221H612.375" stroke="white" stroke-width="16.3488" stroke-miterlimit="10" stroke-linecap="round"/>
<path d="M464.702 130.089H536.589" stroke="white" stroke-width="16.3488" stroke-miterlimit="10" stroke-linecap="round"/>
<path opacity="0.4" d="M464.702 163.637H613.261" stroke="white" stroke-width="16.3488" stroke-miterlimit="10" stroke-linecap="round"/>
<path d="M490.76 206.123C489.635 205.084 488.159 204.506 486.628 204.506C485.096 204.506 483.621 205.084 482.496 206.123L480.939 207.56L479.382 206.123C478.257 205.084 476.782 204.506 475.25 204.506C473.719 204.506 472.243 205.084 471.119 206.123C470.525 206.661 470.05 207.317 469.725 208.049C469.4 208.781 469.232 209.574 469.232 210.375C469.232 211.176 469.4 211.968 469.725 212.7C470.05 213.433 470.525 214.089 471.119 214.626L480.939 223.728L490.76 214.746C491.38 214.212 491.877 213.55 492.218 212.806C492.559 212.062 492.736 211.253 492.736 210.435C492.736 209.616 492.559 208.807 492.218 208.063C491.877 207.319 491.38 206.657 490.76 206.123Z" fill="#F4608A"/>
<path d="M501.724 211.741C501.808 210.638 502.234 209.775 503.001 209.151C503.769 208.528 504.764 208.216 505.987 208.216C506.802 208.216 507.504 208.366 508.091 208.666C508.691 208.954 509.14 209.349 509.44 209.853C509.752 210.356 509.908 210.926 509.908 211.561C509.908 212.305 509.692 212.946 509.26 213.486C508.84 214.025 508.289 214.373 507.605 214.529V214.619C508.385 214.811 509.002 215.188 509.458 215.752C509.913 216.315 510.141 217.053 510.141 217.964C510.141 218.647 509.985 219.265 509.674 219.816C509.362 220.356 508.894 220.782 508.271 221.093C507.647 221.405 506.898 221.561 506.023 221.561C504.752 221.561 503.709 221.231 502.893 220.572C502.078 219.9 501.623 218.953 501.527 217.73H503.109C503.193 218.45 503.487 219.037 503.991 219.493C504.494 219.948 505.166 220.176 506.005 220.176C506.844 220.176 507.48 219.96 507.911 219.529C508.355 219.085 508.577 218.515 508.577 217.82C508.577 216.921 508.277 216.273 507.677 215.878C507.078 215.482 506.173 215.284 504.962 215.284H504.548V213.917H504.98C506.083 213.905 506.916 213.726 507.48 213.378C508.043 213.018 508.325 212.467 508.325 211.723C508.325 211.088 508.115 210.578 507.695 210.195C507.288 209.811 506.7 209.619 505.933 209.619C505.19 209.619 504.59 209.811 504.134 210.195C503.679 210.578 503.409 211.094 503.325 211.741H501.724ZM514.311 219.205L512.297 224.043H511.2L512.513 219.205H514.311ZM524.207 209.889H517.895V213.989C518.17 213.606 518.578 213.294 519.118 213.054C519.657 212.802 520.239 212.676 520.862 212.676C521.857 212.676 522.667 212.886 523.29 213.306C523.914 213.714 524.357 214.247 524.621 214.907C524.897 215.554 525.035 216.243 525.035 216.975C525.035 217.838 524.873 218.611 524.549 219.295C524.225 219.978 523.728 220.518 523.056 220.913C522.397 221.309 521.576 221.507 520.592 221.507C519.333 221.507 518.314 221.183 517.535 220.536C516.756 219.888 516.282 219.025 516.114 217.946H517.715C517.871 218.629 518.2 219.163 518.704 219.547C519.208 219.93 519.843 220.122 520.61 220.122C521.558 220.122 522.271 219.84 522.751 219.277C523.23 218.701 523.47 217.946 523.47 217.011C523.47 216.076 523.23 215.356 522.751 214.853C522.271 214.337 521.564 214.079 520.628 214.079C519.993 214.079 519.435 214.235 518.956 214.547C518.488 214.847 518.146 215.26 517.931 215.788H516.384V208.45H524.207V209.889ZM527.012 220.158C528.534 218.935 529.727 217.934 530.591 217.155C531.454 216.363 532.179 215.542 532.767 214.691C533.366 213.827 533.666 212.982 533.666 212.155C533.666 211.376 533.474 210.764 533.09 210.32C532.719 209.865 532.113 209.637 531.274 209.637C530.459 209.637 529.823 209.895 529.368 210.41C528.924 210.914 528.684 211.591 528.648 212.443H527.066C527.114 211.1 527.521 210.063 528.289 209.331C529.056 208.6 530.045 208.234 531.256 208.234C532.491 208.234 533.468 208.576 534.188 209.259C534.919 209.943 535.285 210.884 535.285 212.083C535.285 213.078 534.985 214.049 534.385 214.996C533.798 215.932 533.126 216.759 532.371 217.478C531.616 218.186 530.651 219.013 529.476 219.96H535.662V221.327H527.012V220.158ZM545.557 209.745L540.558 221.471H538.903L543.975 209.907H537.033V208.504H545.557V209.745Z" fill="#3D4CDF"/>
<path d="M589.616 212.551C589.616 207.034 583.079 202.562 575.016 202.562C566.953 202.562 560.416 207.034 560.416 212.551C560.416 218.068 566.953 222.54 575.016 222.54C575.593 222.54 576.158 222.511 576.717 222.464C576.803 222.456 576.889 222.468 576.969 222.499C577.05 222.53 577.122 222.578 577.181 222.641C578.217 223.726 580.491 225.405 584.799 225.671C584.907 225.678 585.014 225.656 585.11 225.606C585.206 225.555 585.285 225.48 585.341 225.387C585.396 225.294 585.425 225.188 585.424 225.08C585.422 224.972 585.391 224.866 585.334 224.775C584.581 223.651 583.994 222.425 583.589 221.135C583.556 221.006 583.568 220.87 583.623 220.75C583.678 220.629 583.773 220.531 583.892 220.472C587.368 218.647 589.616 215.781 589.616 212.551Z" fill="#3D4CDF"/>
<path d="M847.286 156H720.501C710.835 156 703 163.835 703 173.501V348.353C703 358.018 710.835 365.854 720.501 365.854H847.286C856.951 365.854 864.787 358.018 864.787 348.353V173.501C864.787 163.835 856.951 156 847.286 156Z" fill="#3D4CDF"/>
<path d="M775.659 285.195L769.017 300.772H766.819L773.556 285.41H764.334V283.546H775.659V285.195ZM781.223 291.789C780.331 291.439 779.646 290.929 779.168 290.26C778.69 289.591 778.452 288.779 778.452 287.823C778.452 286.963 778.667 286.19 779.097 285.506C779.527 284.805 780.164 284.255 781.008 283.857C781.868 283.443 782.903 283.236 784.114 283.236C785.324 283.236 786.352 283.443 787.196 283.857C788.056 284.255 788.701 284.805 789.131 285.506C789.577 286.19 789.8 286.963 789.8 287.823C789.8 288.747 789.553 289.559 789.059 290.26C788.566 290.945 787.889 291.455 787.029 291.789C788.016 292.092 788.797 292.625 789.37 293.39C789.959 294.138 790.254 295.046 790.254 296.113C790.254 297.149 789.999 298.057 789.489 298.837C788.98 299.602 788.255 300.199 787.315 300.629C786.392 301.043 785.324 301.25 784.114 301.25C782.903 301.25 781.836 301.043 780.912 300.629C780.005 300.199 779.296 299.602 778.786 298.837C778.276 298.057 778.022 297.149 778.022 296.113C778.022 295.046 778.308 294.13 778.882 293.366C779.455 292.601 780.235 292.076 781.223 291.789ZM787.698 288.086C787.698 287.114 787.379 286.366 786.742 285.84C786.105 285.314 785.229 285.052 784.114 285.052C783.015 285.052 782.147 285.314 781.51 285.84C780.873 286.366 780.554 287.122 780.554 288.11C780.554 289.002 780.881 289.718 781.534 290.26C782.203 290.801 783.063 291.072 784.114 291.072C785.181 291.072 786.041 290.801 786.694 290.26C787.363 289.702 787.698 288.978 787.698 288.086ZM784.114 292.745C782.935 292.745 781.972 293.023 781.223 293.581C780.474 294.122 780.1 294.943 780.1 296.042C780.1 297.061 780.458 297.881 781.175 298.503C781.908 299.124 782.887 299.434 784.114 299.434C785.34 299.434 786.312 299.124 787.029 298.503C787.745 297.881 788.104 297.061 788.104 296.042C788.104 294.975 787.737 294.162 787.005 293.605C786.272 293.031 785.308 292.745 784.114 292.745ZM792.664 287.393C792.664 286.31 792.99 285.45 793.643 284.813C794.296 284.16 795.132 283.833 796.152 283.833C797.171 283.833 798.007 284.16 798.66 284.813C799.313 285.45 799.64 286.31 799.64 287.393C799.64 288.492 799.313 289.368 798.66 290.021C798.007 290.658 797.171 290.977 796.152 290.977C795.132 290.977 794.296 290.658 793.643 290.021C792.99 289.368 792.664 288.492 792.664 287.393ZM806.616 284.096L796.94 300.772H794.79L804.466 284.096H806.616ZM796.152 285.171C795.61 285.171 795.18 285.362 794.862 285.744C794.559 286.111 794.408 286.66 794.408 287.393C794.408 288.126 794.559 288.683 794.862 289.065C795.18 289.448 795.61 289.639 796.152 289.639C796.693 289.639 797.123 289.448 797.442 289.065C797.761 288.667 797.92 288.11 797.92 287.393C797.92 286.66 797.761 286.111 797.442 285.744C797.123 285.362 796.693 285.171 796.152 285.171ZM801.814 297.475C801.814 296.376 802.141 295.508 802.794 294.871C803.447 294.218 804.283 293.891 805.302 293.891C806.322 293.891 807.15 294.218 807.787 294.871C808.44 295.508 808.767 296.376 808.767 297.475C808.767 298.558 808.44 299.426 807.787 300.079C807.15 300.732 806.322 301.059 805.302 301.059C804.283 301.059 803.447 300.74 802.794 300.103C802.141 299.45 801.814 298.574 801.814 297.475ZM805.278 295.253C804.737 295.253 804.307 295.444 803.988 295.827C803.67 296.193 803.51 296.743 803.51 297.475C803.51 298.192 803.67 298.741 803.988 299.124C804.307 299.49 804.737 299.673 805.278 299.673C805.82 299.673 806.25 299.49 806.569 299.124C806.887 298.741 807.046 298.192 807.046 297.475C807.046 296.743 806.887 296.193 806.569 295.827C806.25 295.444 805.82 295.253 805.278 295.253Z" fill="white"/>
<path d="M783.893 337.6C811.05 337.6 833.064 315.586 833.064 288.43C833.064 261.273 811.05 239.259 783.893 239.259C756.737 239.259 734.722 261.273 734.722 288.43C734.722 315.586 756.737 337.6 783.893 337.6Z" stroke="white" stroke-width="15" stroke-miterlimit="10" stroke-linecap="round"/>
<path d="M833.064 288.43C833.048 301.461 827.86 313.951 818.64 323.159C809.421 332.367 796.923 337.539 783.893 337.539C770.863 337.539 758.366 332.367 749.146 323.159C739.927 313.951 734.739 301.461 734.722 288.43" stroke="#96BAFD" stroke-width="15" stroke-linecap="round" stroke-linejoin="round"/>
<path d="M783.893 239.259C790.351 239.259 796.745 240.53 802.71 243.001C808.676 245.473 814.097 249.094 818.662 253.66C823.228 258.226 826.85 263.647 829.321 269.613C831.792 275.578 833.064 281.972 833.064 288.43" stroke="#FEBB94" stroke-width="15" stroke-linecap="round" stroke-linejoin="round"/>
<path d="M726.422 188.438H759.104" stroke="white" stroke-width="7.4328" stroke-miterlimit="10" stroke-linecap="round"/>
<path opacity="0.4" d="M726.422 203.689H793.963" stroke="white" stroke-width="7.4328" stroke-miterlimit="10" stroke-linecap="round"/>
<path d="M866.91 692.816H144.342V710.974H866.91V692.816Z" fill="#3D4CDF"/>
<path d="M150 234C151.657 234 153 232.657 153 231C153 229.343 151.657 228 150 228C148.343 228 147 229.343 147 231C147 232.657 148.343 234 150 234Z" fill="#5661AE"/>
<defs>
<linearGradient id="paint0_linear_579_3572" x1="418.5" y1="-11.4993" x2="492.953" y2="1052.47" gradientUnits="userSpaceOnUse">
<stop stop-color="white"/>
<stop offset="1" stop-color="#94B9FF"/>
</linearGradient>
<linearGradient id="paint1_linear_579_3572" x1="451.445" y1="-82.3617" x2="510.69" y2="554.31" gradientUnits="userSpaceOnUse">
<stop stop-color="white"/>
<stop offset="1" stop-color="#94B9FF"/>
</linearGradient>
</defs>
</svg>
