<svg width="738" height="458" viewBox="0 0 738 458" fill="none" xmlns="http://www.w3.org/2000/svg">
<rect x="0.5" y="-0.5" width="737" height="457" rx="27.5" transform="matrix(1 0 0 -1 0 457)" fill="url(#paint0_linear)" stroke="#B8CDEB"/>
<rect opacity="0.1" x="25.25" y="21.7084" width="688.75" height="414.833" fill="url(#paint1_linear)"/>
<path d="M714 21.994H25.25V57.5042H714V21.994Z" fill="#4D648D"/>
<path d="M494.281 29.9299C494.281 28.8156 495.228 27.9122 496.396 27.9122H626.07C627.238 27.9122 628.184 28.8156 628.184 29.9299V48.0885C628.184 49.2028 627.238 50.1061 626.07 50.1061H496.396C495.228 50.1061 494.281 49.2028 494.281 48.0885V29.9299Z" fill="white"/>
<mask id="mask0" mask-type="alpha" maskUnits="userSpaceOnUse" x="611" y="33" width="12" height="12">
<path d="M622.111 43.0529L620.029 40.971C619.935 40.877 619.808 40.8248 619.674 40.8248H619.334C619.91 40.0877 620.253 39.1606 620.253 38.152C620.253 35.7527 618.308 33.8086 615.909 33.8086C613.509 33.8086 611.564 35.7527 611.564 38.152C611.564 40.5513 613.509 42.4954 615.909 42.4954C616.917 42.4954 617.845 42.1529 618.582 41.5766V41.9169C618.582 42.0506 618.634 42.178 618.728 42.2719L620.81 44.3538C621.007 44.5501 621.324 44.5501 621.518 44.3538L622.109 43.7629C622.306 43.5666 622.306 43.2492 622.111 43.0529ZM615.909 40.8248C614.432 40.8248 613.235 39.6304 613.235 38.152C613.235 36.6756 614.43 35.4791 615.909 35.4791C617.385 35.4791 618.582 36.6736 618.582 38.152C618.582 39.6283 617.387 40.8248 615.909 40.8248Z" fill="white"/>
</mask>
<g mask="url(#mask0)">
<path d="M622.111 43.0529L620.029 40.971C619.935 40.877 619.808 40.8248 619.674 40.8248H619.334C619.91 40.0877 620.253 39.1606 620.253 38.152C620.253 35.7527 618.308 33.8086 615.909 33.8086C613.509 33.8086 611.564 35.7527 611.564 38.152C611.564 40.5513 613.509 42.4954 615.909 42.4954C616.917 42.4954 617.845 42.1529 618.582 41.5766V41.9169C618.582 42.0506 618.634 42.178 618.728 42.2719L620.81 44.3538C621.007 44.5501 621.324 44.5501 621.518 44.3538L622.109 43.7629C622.306 43.5666 622.306 43.2492 622.111 43.0529ZM615.909 40.8248C614.432 40.8248 613.235 39.6304 613.235 38.152C613.235 36.6756 614.43 35.4791 615.909 35.4791C617.385 35.4791 618.582 36.6736 618.582 38.152C618.582 39.6283 617.387 40.8248 615.909 40.8248Z" fill="black"/>
<path d="M622.257 33.8086H611.564V44.5011H622.257V33.8086Z" fill="#4D648D"/>
</g>
<path fill-rule="evenodd" clip-rule="evenodd" d="M52.4537 36.5844L49.3169 45.5163C48.94 46.5894 47.7951 47.1427 46.7596 46.7521C45.7242 46.3615 45.1903 45.175 45.5672 44.1018L48.704 35.17C49.0808 34.0968 50.2258 33.5435 51.2612 33.9341C52.2967 34.3247 52.8306 35.5113 52.4537 36.5844Z" fill="white"/>
<path fill-rule="evenodd" clip-rule="evenodd" d="M60.7602 34.3452L56.7505 45.449C56.3439 46.5751 55.1085 47.1557 53.9913 46.7458C52.874 46.336 52.298 45.0908 52.7046 43.9647L56.7143 32.8609C57.1209 31.7348 58.3563 31.1542 59.4735 31.5641C60.5908 31.9739 61.1668 33.2191 60.7602 34.3452Z" fill="white"/>
<path fill-rule="evenodd" clip-rule="evenodd" d="M69.0677 33.1021L64.1826 45.476C63.7465 46.5809 62.4214 47.1505 61.2231 46.7484C60.0247 46.3463 59.4068 45.1246 59.843 44.0198L64.728 31.6459C65.1642 30.5411 66.4892 29.9715 67.6876 30.3736C68.8859 30.7757 69.5038 31.9973 69.0677 33.1021Z" fill="white"/>
<path d="M80.5387 43.3132V34.9968H79.7191L77.2817 40.8954L74.7796 34.9968H73.96V43.3132H74.7796V36.9942L76.915 42.005H77.616L79.7191 36.9942V43.3132H80.5387Z" fill="white"/>
<path d="M90.2279 43.3132V42.5189H86.2806V39.5171H89.6455V38.7228H86.2806V35.7911H90.2279V34.9968H85.461V43.3132H90.2279Z" fill="white"/>
<path d="M99.9516 39.155C99.9516 37.8819 99.9516 36.6671 99.2722 35.8728C98.7545 35.2655 98.1182 34.9968 97.2554 34.9968H94.6239V43.3132H97.2554C98.1182 43.3132 98.7545 43.0445 99.2722 42.4372C99.9516 41.6429 99.9516 40.4282 99.9516 39.155ZM99.132 39.155C99.132 40.3114 99.1212 41.3392 98.6251 41.9116C98.2368 42.3788 97.6976 42.5189 97.1152 42.5189H95.4435V35.7911H97.1152C97.6976 35.7911 98.2368 35.9312 98.6251 36.3985C99.1212 36.9708 99.132 37.9987 99.132 39.155Z" fill="white"/>
<path d="M105.396 43.3132V34.9968H104.577V43.3132H105.396Z" fill="white"/>
<path d="M115.99 43.3132V34.9968H115.17V41.6429L111.093 34.9968H110.317V43.3132H111.136V36.6437L115.213 43.3132H115.99Z" fill="white"/>
<path d="M125.679 43.3132V42.5189H121.732V39.5171H125.096V38.7228H121.732V35.7911H125.679V34.9968H120.912V43.3132H125.679Z" fill="white"/>
<path d="M134.551 35.7911V34.9968H129.288V35.7911H131.509V43.3132H132.329V35.7911H134.551Z" fill="white"/>
<path d="M657.328 43.5165C656.722 42.8566 655.588 41.8638 655.588 38.6119C655.588 36.142 653.878 34.1648 651.573 33.6797V33.0172C651.573 32.4555 651.124 32 650.57 32C650.016 32 649.567 32.4555 649.567 33.0172V33.6797C647.262 34.1648 645.553 36.142 645.553 38.6119C645.553 41.8638 644.418 42.8566 643.812 43.5165C643.624 43.7215 643.54 43.9666 643.542 44.2066C643.545 44.728 643.949 45.2239 644.549 45.2239H656.591C657.191 45.2239 657.595 44.728 657.598 44.2066C657.6 43.9666 657.516 43.7212 657.328 43.5165ZM645.661 43.698C646.327 42.8089 647.054 41.3352 647.058 38.6304C647.058 38.624 647.056 38.6183 647.056 38.6119C647.056 36.6455 648.629 35.0517 650.57 35.0517C652.511 35.0517 654.084 36.6455 654.084 38.6119C654.084 38.6183 654.082 38.624 654.082 38.6304C654.086 41.3355 654.814 42.8092 655.479 43.698H645.661ZM650.57 48.2755C651.678 48.2755 652.577 47.3648 652.577 46.2411H648.563C648.563 47.3648 649.462 48.2755 650.57 48.2755Z" fill="white"/>
<g clip-path="url(#clip0)">
<path d="M685.591 42.0148C684.691 42.0148 684.258 42.5234 682.78 42.5234C681.302 42.5234 680.872 42.0148 679.969 42.0148C677.641 42.0148 675.752 43.9284 675.752 46.2871V47.1009C675.752 47.9433 676.427 48.6267 677.258 48.6267H688.302C689.134 48.6267 689.808 47.9433 689.808 47.1009V46.2871C689.808 43.9284 687.919 42.0148 685.591 42.0148ZM688.302 47.1009H677.258V46.2871C677.258 44.774 678.475 43.5406 679.969 43.5406C680.427 43.5406 681.17 44.0492 682.78 44.0492C684.402 44.0492 685.13 43.5406 685.591 43.5406C687.085 43.5406 688.302 44.774 688.302 46.2871V47.1009ZM682.78 41.5062C685.274 41.5062 687.298 39.4558 687.298 36.9287C687.298 34.4015 685.274 32.3512 682.78 32.3512C680.286 32.3512 678.262 34.4015 678.262 36.9287C678.262 39.4558 680.286 41.5062 682.78 41.5062ZM682.78 33.877C684.44 33.877 685.792 35.2471 685.792 36.9287C685.792 38.6103 684.44 39.9803 682.78 39.9803C681.12 39.9803 679.768 38.6103 679.768 36.9287C679.768 35.2471 681.12 33.877 682.78 33.877Z" fill="white"/>
</g>
<rect x="153.235" y="36.0502" width="48.0867" height="8.87755" fill="#8292AF"/>
<rect x="223.516" y="36.0502" width="48.0867" height="8.87755" fill="#70CCFF"/>
<rect x="290.098" y="36.0502" width="48.0867" height="8.87755" fill="white" fill-opacity="0.3"/>
<rect x="358.158" y="36.0502" width="48.0867" height="8.87755" fill="white" fill-opacity="0.3"/>
<rect x="429.179" y="36.0502" width="48.0867" height="8.87755" fill="white" fill-opacity="0.3"/>
<path d="M44.25 147.262C44.25 146.504 44.8638 145.891 45.6211 145.891H147.994C148.751 145.891 149.365 146.504 149.365 147.262V411.421C149.365 412.178 148.751 412.792 147.994 412.792H45.6211C44.8638 412.792 44.25 412.178 44.25 411.421V147.262Z" fill="white"/>
<path fill-rule="evenodd" clip-rule="evenodd" d="M147.994 146.348H45.6211C45.1163 146.348 44.707 146.757 44.707 147.262V411.421C44.707 411.925 45.1163 412.335 45.6211 412.335H147.994C148.499 412.335 148.908 411.925 148.908 411.421V147.262C148.908 146.757 148.499 146.348 147.994 146.348ZM45.6211 145.891C44.8638 145.891 44.25 146.504 44.25 147.262V411.421C44.25 412.178 44.8638 412.792 45.6211 412.792H147.994C148.751 412.792 149.365 412.178 149.365 411.421V147.262C149.365 146.504 148.751 145.891 147.994 145.891H45.6211Z" fill="#B8CDEB"/>
<path d="M153.936 147.262C153.936 146.504 154.549 145.891 155.307 145.891H511.327C512.084 145.891 512.698 146.504 512.698 147.262V411.421C512.698 412.178 512.084 412.792 511.327 412.792H155.307C154.549 412.792 153.936 412.178 153.936 411.421V147.262Z" fill="white"/>
<path fill-rule="evenodd" clip-rule="evenodd" d="M511.327 146.348H155.307C154.802 146.348 154.393 146.757 154.393 147.262V411.421C154.393 411.925 154.802 412.335 155.307 412.335H511.327C511.832 412.335 512.241 411.925 512.241 411.421V147.262C512.241 146.757 511.832 146.348 511.327 146.348ZM155.307 145.891C154.549 145.891 153.936 146.504 153.936 147.262V411.421C153.936 412.178 154.549 412.792 155.307 412.792H511.327C512.084 412.792 512.698 412.178 512.698 411.421V147.262C512.698 146.504 512.084 145.891 511.327 145.891H155.307Z" fill="#B8CDEB"/>
<path d="M518.183 147.262C518.183 146.504 518.796 145.891 519.554 145.891H690.023C690.78 145.891 691.394 146.504 691.394 147.262V411.421C691.394 412.178 690.78 412.792 690.023 412.792H519.554C518.796 412.792 518.183 412.178 518.183 411.421V147.262Z" fill="white"/>
<path fill-rule="evenodd" clip-rule="evenodd" d="M690.023 146.348H519.554C519.049 146.348 518.64 146.757 518.64 147.262V411.421C518.64 411.925 519.049 412.335 519.554 412.335H690.023C690.528 412.335 690.937 411.925 690.937 411.421V147.262C690.937 146.757 690.528 146.348 690.023 146.348ZM519.554 145.891C518.796 145.891 518.183 146.504 518.183 147.262V411.421C518.183 412.178 518.796 412.792 519.554 412.792H690.023C690.78 412.792 691.394 412.178 691.394 411.421V147.262C691.394 146.504 690.78 145.891 690.023 145.891H519.554Z" fill="#B8CDEB"/>
<path d="M53.3906 164.628C53.3906 161.852 55.6414 159.601 58.4179 159.601H122.401C125.177 159.601 127.428 161.852 127.428 164.628C127.428 167.405 125.177 169.656 122.401 169.656H58.4179C55.6414 169.656 53.3906 167.405 53.3906 164.628Z" fill="white"/>
<path d="M53.3906 164.628C53.3906 161.852 55.6414 159.601 58.4179 159.601H122.401C125.177 159.601 127.428 161.852 127.428 164.628C127.428 167.405 125.177 169.656 122.401 169.656H58.4179C55.6414 169.656 53.3906 167.405 53.3906 164.628Z" fill="white"/>
<path d="M53.3906 164.628C53.3906 161.852 55.6414 159.601 58.4179 159.601H122.401C125.177 159.601 127.428 161.852 127.428 164.628C127.428 167.405 125.177 169.656 122.401 169.656H58.4179C55.6414 169.656 53.3906 167.405 53.3906 164.628Z" fill="#E2E9FF"/>
<path d="M53.3906 181.538C53.3906 178.762 55.6414 176.511 58.4179 176.511H107.776C110.553 176.511 112.804 178.762 112.804 181.538C112.804 184.315 110.553 186.566 107.776 186.566H58.4179C55.6414 186.566 53.3906 184.315 53.3906 181.538Z" fill="white"/>
<path d="M53.3906 181.538C53.3906 178.762 55.6414 176.511 58.4179 176.511H107.776C110.553 176.511 112.804 178.762 112.804 181.538C112.804 184.315 110.553 186.566 107.776 186.566H58.4179C55.6414 186.566 53.3906 184.315 53.3906 181.538Z" fill="white"/>
<path d="M53.3906 181.538C53.3906 178.762 55.6414 176.511 58.4179 176.511H107.776C110.553 176.511 112.804 178.762 112.804 181.538C112.804 184.315 110.553 186.566 107.776 186.566H58.4179C55.6414 186.566 53.3906 184.315 53.3906 181.538Z" fill="#E2E9FF"/>
<path d="M53.3906 197.991C53.3906 195.215 55.6414 192.964 58.4179 192.964H122.401C125.177 192.964 127.428 195.215 127.428 197.991C127.428 200.768 125.177 203.018 122.401 203.018H58.4179C55.6414 203.018 53.3906 200.768 53.3906 197.991Z" fill="white"/>
<path d="M53.3906 197.991C53.3906 195.215 55.6414 192.964 58.4179 192.964H122.401C125.177 192.964 127.428 195.215 127.428 197.991C127.428 200.768 125.177 203.018 122.401 203.018H58.4179C55.6414 203.018 53.3906 200.768 53.3906 197.991Z" fill="white"/>
<path d="M53.3906 197.991C53.3906 195.215 55.6414 192.964 58.4179 192.964H122.401C125.177 192.964 127.428 195.215 127.428 197.991C127.428 200.768 125.177 203.018 122.401 203.018H58.4179C55.6414 203.018 53.3906 200.768 53.3906 197.991Z" fill="#E2E9FF"/>
<path d="M53.3906 214.901C53.3906 212.125 55.6414 209.874 58.4179 209.874H107.776C110.553 209.874 112.804 212.125 112.804 214.901C112.804 217.678 110.553 219.929 107.776 219.929H58.4179C55.6414 219.929 53.3906 217.678 53.3906 214.901Z" fill="white"/>
<path d="M53.3906 214.901C53.3906 212.125 55.6414 209.874 58.4179 209.874H107.776C110.553 209.874 112.804 212.125 112.804 214.901C112.804 217.678 110.553 219.929 107.776 219.929H58.4179C55.6414 219.929 53.3906 217.678 53.3906 214.901Z" fill="white"/>
<path d="M53.3906 214.901C53.3906 212.125 55.6414 209.874 58.4179 209.874H107.776C110.553 209.874 112.804 212.125 112.804 214.901C112.804 217.678 110.553 219.929 107.776 219.929H58.4179C55.6414 219.929 53.3906 217.678 53.3906 214.901Z" fill="#E2E9FF"/>
<path d="M53.3906 338.297C53.3906 335.52 55.6414 333.27 58.4179 333.27H122.401C125.177 333.27 127.428 335.52 127.428 338.297C127.428 341.073 125.177 343.324 122.401 343.324H58.4179C55.6414 343.324 53.3906 341.073 53.3906 338.297Z" fill="white"/>
<path d="M53.3906 338.297C53.3906 335.52 55.6414 333.27 58.4179 333.27H122.401C125.177 333.27 127.428 335.52 127.428 338.297C127.428 341.073 125.177 343.324 122.401 343.324H58.4179C55.6414 343.324 53.3906 341.073 53.3906 338.297Z" fill="white"/>
<path d="M53.3906 338.297C53.3906 335.52 55.6414 333.27 58.4179 333.27H122.401C125.177 333.27 127.428 335.52 127.428 338.297C127.428 341.073 125.177 343.324 122.401 343.324H58.4179C55.6414 343.324 53.3906 341.073 53.3906 338.297Z" fill="#E2E9FF"/>
<path d="M53.3906 355.207C53.3906 352.43 55.6414 350.18 58.4179 350.18H107.776C110.553 350.18 112.804 352.43 112.804 355.207C112.804 357.983 110.553 360.234 107.776 360.234H58.4179C55.6414 360.234 53.3906 357.983 53.3906 355.207Z" fill="white"/>
<path d="M53.3906 355.207C53.3906 352.43 55.6414 350.18 58.4179 350.18H107.776C110.553 350.18 112.804 352.43 112.804 355.207C112.804 357.983 110.553 360.234 107.776 360.234H58.4179C55.6414 360.234 53.3906 357.983 53.3906 355.207Z" fill="white"/>
<path d="M53.3906 355.207C53.3906 352.43 55.6414 350.18 58.4179 350.18H107.776C110.553 350.18 112.804 352.43 112.804 355.207C112.804 357.983 110.553 360.234 107.776 360.234H58.4179C55.6414 360.234 53.3906 357.983 53.3906 355.207Z" fill="#E2E9FF"/>
<path d="M53.3906 371.66C53.3906 368.883 55.6414 366.632 58.4179 366.632H122.401C125.177 366.632 127.428 368.883 127.428 371.66C127.428 374.436 125.177 376.687 122.401 376.687H58.4179C55.6414 376.687 53.3906 374.436 53.3906 371.66Z" fill="white"/>
<path d="M53.3906 371.66C53.3906 368.883 55.6414 366.632 58.4179 366.632H122.401C125.177 366.632 127.428 368.883 127.428 371.66C127.428 374.436 125.177 376.687 122.401 376.687H58.4179C55.6414 376.687 53.3906 374.436 53.3906 371.66Z" fill="white"/>
<path d="M53.3906 371.66C53.3906 368.883 55.6414 366.632 58.4179 366.632H122.401C125.177 366.632 127.428 368.883 127.428 371.66C127.428 374.436 125.177 376.687 122.401 376.687H58.4179C55.6414 376.687 53.3906 374.436 53.3906 371.66Z" fill="#E2E9FF"/>
<path d="M53.3906 388.569C53.3906 385.793 55.6414 383.542 58.4179 383.542H107.776C110.553 383.542 112.804 385.793 112.804 388.569C112.804 391.346 110.553 393.597 107.776 393.597H58.4179C55.6414 393.597 53.3906 391.346 53.3906 388.569Z" fill="white"/>
<path d="M53.3906 388.569C53.3906 385.793 55.6414 383.542 58.4179 383.542H107.776C110.553 383.542 112.804 385.793 112.804 388.569C112.804 391.346 110.553 393.597 107.776 393.597H58.4179C55.6414 393.597 53.3906 391.346 53.3906 388.569Z" fill="white"/>
<path d="M53.3906 388.569C53.3906 385.793 55.6414 383.542 58.4179 383.542H107.776C110.553 383.542 112.804 385.793 112.804 388.569C112.804 391.346 110.553 393.597 107.776 393.597H58.4179C55.6414 393.597 53.3906 391.346 53.3906 388.569Z" fill="#E2E9FF"/>
<path d="M161.705 163.715C161.705 160.938 163.956 158.687 166.732 158.687H216.091C218.867 158.687 221.118 160.938 221.118 163.715C221.118 166.491 218.867 168.742 216.091 168.742H166.732C163.956 168.742 161.705 166.491 161.705 163.715Z" fill="white"/>
<path d="M161.705 163.715C161.705 160.938 163.956 158.687 166.732 158.687H216.091C218.867 158.687 221.118 160.938 221.118 163.715C221.118 166.491 218.867 168.742 216.091 168.742H166.732C163.956 168.742 161.705 166.491 161.705 163.715Z" fill="white"/>
<path d="M161.705 163.715C161.705 160.938 163.956 158.687 166.732 158.687H216.091C218.867 158.687 221.118 160.938 221.118 163.715C221.118 166.491 218.867 168.742 216.091 168.742H166.732C163.956 168.742 161.705 166.491 161.705 163.715Z" fill="#E2E9FF"/>
<path d="M161.705 163.715C161.705 160.938 163.956 158.687 166.732 158.687H216.091C218.867 158.687 221.118 160.938 221.118 163.715C221.118 166.491 218.867 168.742 216.091 168.742H166.732C163.956 168.742 161.705 166.491 161.705 163.715Z" fill="white"/>
<path d="M161.705 163.715C161.705 160.938 163.956 158.687 166.732 158.687H216.091C218.867 158.687 221.118 160.938 221.118 163.715C221.118 166.491 218.867 168.742 216.091 168.742H166.732C163.956 168.742 161.705 166.491 161.705 163.715Z" fill="white"/>
<path d="M161.705 163.715C161.705 160.938 163.956 158.687 166.732 158.687H216.091C218.867 158.687 221.118 160.938 221.118 163.715C221.118 166.491 218.867 168.742 216.091 168.742H166.732C163.956 168.742 161.705 166.491 161.705 163.715Z" fill="#E2E9FF"/>
<path d="M161.705 250.092C161.705 247.315 163.956 245.064 166.732 245.064H216.091C218.867 245.064 221.118 247.315 221.118 250.092C221.118 252.868 218.867 255.119 216.091 255.119H166.732C163.956 255.119 161.705 252.868 161.705 250.092Z" fill="white"/>
<path d="M161.705 250.092C161.705 247.315 163.956 245.064 166.732 245.064H216.091C218.867 245.064 221.118 247.315 221.118 250.092C221.118 252.868 218.867 255.119 216.091 255.119H166.732C163.956 255.119 161.705 252.868 161.705 250.092Z" fill="white"/>
<path d="M161.705 250.092C161.705 247.315 163.956 245.064 166.732 245.064H216.091C218.867 245.064 221.118 247.315 221.118 250.092C221.118 252.868 218.867 255.119 216.091 255.119H166.732C163.956 255.119 161.705 252.868 161.705 250.092Z" fill="#E2E9FF"/>
<g filter="url(#filter0_d)">
<path d="M500.359 174.683H162.619C162.114 174.683 161.705 175.092 161.705 175.597V239.123C161.705 239.628 162.114 240.037 162.619 240.037H500.359C500.863 240.037 501.273 239.628 501.273 239.123V175.597C501.273 175.092 500.863 174.683 500.359 174.683Z" fill="black"/>
</g>
<path d="M500.131 174.912H162.849C162.344 174.912 161.935 175.322 161.935 175.827V238.896C161.935 239.4 162.344 239.81 162.849 239.81H500.131C500.636 239.81 501.045 239.4 501.045 238.896V175.827C501.045 175.322 500.636 174.912 500.131 174.912Z" fill="white"/>
<path fill-rule="evenodd" clip-rule="evenodd" d="M162.848 175.14C162.469 175.14 162.162 175.447 162.162 175.826V238.895C162.162 239.273 162.469 239.58 162.848 239.58H500.13C500.509 239.58 500.816 239.273 500.816 238.895V175.826C500.816 175.447 500.509 175.14 500.13 175.14H162.848ZM161.705 175.826C161.705 175.195 162.217 174.683 162.848 174.683H500.13C500.761 174.683 501.273 175.195 501.273 175.826V238.895C501.273 239.526 500.761 240.037 500.13 240.037H162.848C162.217 240.037 161.705 239.526 161.705 238.895V175.826Z" fill="#B8CDEB"/>
<g filter="url(#filter1_d)">
<path d="M500.359 259.232H162.619C162.114 259.232 161.705 259.641 161.705 260.146V279.798C161.705 280.303 162.114 280.712 162.619 280.712H500.359C500.863 280.712 501.273 280.303 501.273 279.798V260.146C501.273 259.641 500.863 259.232 500.359 259.232Z" fill="black"/>
</g>
<path d="M500.131 259.461H162.849C162.344 259.461 161.935 259.87 161.935 260.375V279.57C161.935 280.075 162.344 280.484 162.849 280.484H500.131C500.636 280.484 501.045 280.075 501.045 279.57V260.375C501.045 259.87 500.636 259.461 500.131 259.461Z" fill="white"/>
<path fill-rule="evenodd" clip-rule="evenodd" d="M162.848 259.689C162.469 259.689 162.162 259.996 162.162 260.375V279.57C162.162 279.948 162.469 280.255 162.848 280.255H500.13C500.509 280.255 500.816 279.948 500.816 279.57V260.375C500.816 259.996 500.509 259.689 500.13 259.689H162.848ZM161.705 260.375C161.705 259.744 162.217 259.232 162.848 259.232H500.13C500.761 259.232 501.273 259.744 501.273 260.375V279.57C501.273 280.201 500.761 280.712 500.13 280.712H162.848C162.217 280.712 161.705 280.201 161.705 279.57V260.375Z" fill="#B8CDEB"/>
<g filter="url(#filter2_d)">
<path d="M154.85 123.496H511.784C512.289 123.496 512.698 123.905 512.698 124.41V146.347H153.936V124.41C153.936 123.905 154.345 123.496 154.85 123.496Z" fill="black"/>
</g>
<path fill-rule="evenodd" clip-rule="evenodd" d="M154.165 146.119H512.471V124.411C512.471 124.032 512.164 123.725 511.785 123.725H154.851C154.472 123.725 154.165 124.032 154.165 124.411V146.119Z" fill="url(#paint2_linear)"/>
<path fill-rule="evenodd" clip-rule="evenodd" d="M153.936 124.41C153.936 123.905 154.345 123.496 154.85 123.496H511.784C512.289 123.496 512.698 123.905 512.698 124.41V146.347H153.936V124.41ZM154.85 123.953C154.597 123.953 154.393 124.158 154.393 124.41V145.89H512.241V124.41C512.241 124.158 512.036 123.953 511.784 123.953H154.85Z" fill="#7091F5"/>
<g filter="url(#filter3_d)">
<path d="M504.929 126.696H445.516C445.011 126.696 444.602 127.105 444.602 127.61V142.234C444.602 142.739 445.011 143.148 445.516 143.148H504.929C505.433 143.148 505.843 142.739 505.843 142.234V127.61C505.843 127.105 505.433 126.696 504.929 126.696Z" fill="black"/>
</g>
<path d="M504.929 126.696H445.516C445.011 126.696 444.602 127.105 444.602 127.61V142.234C444.602 142.739 445.011 143.148 445.516 143.148H504.929C505.433 143.148 505.843 142.739 505.843 142.234V127.61C505.843 127.105 505.433 126.696 504.929 126.696Z" fill="#243E6D"/>
<path fill-rule="evenodd" clip-rule="evenodd" d="M445.516 126.924C445.137 126.924 444.83 127.231 444.83 127.61V142.235C444.83 142.613 445.137 142.92 445.516 142.92H504.929C505.307 142.92 505.614 142.613 505.614 142.235V127.61C505.614 127.231 505.307 126.924 504.929 126.924H445.516ZM444.373 127.61C444.373 126.979 444.885 126.467 445.516 126.467H504.929C505.56 126.467 506.071 126.979 506.071 127.61V142.235C506.071 142.866 505.56 143.377 504.929 143.377H445.516C444.885 143.377 444.373 142.866 444.373 142.235V127.61Z" fill="#233D6C"/>
<g filter="url(#filter4_d)">
<path d="M518.64 123.496H690.48C690.985 123.496 691.394 123.905 691.394 124.41V146.347H517.726V124.41C517.726 123.905 518.135 123.496 518.64 123.496Z" fill="black"/>
</g>
<path fill-rule="evenodd" clip-rule="evenodd" d="M517.953 146.119H691.165V124.41C691.165 124.032 690.858 123.725 690.479 123.725H518.639C518.26 123.725 517.953 124.032 517.953 124.41V146.119Z" fill="url(#paint3_linear)"/>
<path fill-rule="evenodd" clip-rule="evenodd" d="M517.726 124.41C517.726 123.905 518.135 123.496 518.64 123.496H690.48C690.985 123.496 691.394 123.905 691.394 124.41V146.347H517.726V124.41ZM518.64 123.953C518.387 123.953 518.183 124.158 518.183 124.41V145.89H690.937V124.41C690.937 124.158 690.732 123.953 690.48 123.953H518.64Z" fill="#7091F5"/>
<path d="M545.972 136.316H545.369V134.213H543.075V136.316H542.476V131.767H543.075V133.723H545.369V131.767H545.972V136.316Z" fill="white"/>
<path d="M547.68 136.316H547.081V131.767H547.68V136.316Z" fill="white"/>
<path d="M550.12 134.288C549.606 134.14 549.231 133.959 548.996 133.745C548.762 133.528 548.646 133.261 548.646 132.945C548.646 132.587 548.789 132.291 549.074 132.058C549.361 131.822 549.734 131.705 550.192 131.705C550.505 131.705 550.783 131.765 551.026 131.886C551.272 132.007 551.462 132.173 551.595 132.386C551.73 132.598 551.798 132.83 551.798 133.082H551.195C551.195 132.807 551.108 132.592 550.933 132.436C550.758 132.277 550.511 132.198 550.192 132.198C549.897 132.198 549.665 132.264 549.499 132.395C549.334 132.524 549.252 132.704 549.252 132.936C549.252 133.121 549.33 133.278 549.486 133.407C549.645 133.534 549.912 133.651 550.289 133.757C550.668 133.863 550.964 133.981 551.176 134.11C551.391 134.237 551.549 134.386 551.651 134.557C551.755 134.728 551.808 134.929 551.808 135.16C551.808 135.529 551.664 135.824 551.376 136.047C551.089 136.268 550.705 136.378 550.224 136.378C549.911 136.378 549.62 136.319 549.349 136.2C549.078 136.079 548.869 135.915 548.721 135.707C548.575 135.498 548.502 135.262 548.502 134.997H549.105C549.105 135.272 549.206 135.49 549.408 135.65C549.612 135.809 549.884 135.888 550.224 135.888C550.54 135.888 550.783 135.823 550.951 135.694C551.12 135.565 551.205 135.389 551.205 135.166C551.205 134.943 551.126 134.771 550.97 134.651C550.814 134.528 550.531 134.407 550.12 134.288Z" fill="white"/>
<path d="M555.722 132.261H554.26V136.316H553.663V132.261H552.204V131.767H555.722V132.261Z" fill="white"/>
<path d="M559.809 134.188C559.809 134.634 559.734 135.024 559.584 135.357C559.434 135.688 559.221 135.941 558.946 136.116C558.671 136.291 558.351 136.378 557.984 136.378C557.626 136.378 557.308 136.291 557.031 136.116C556.754 135.939 556.539 135.688 556.384 135.363C556.232 135.036 556.154 134.658 556.15 134.229V133.901C556.15 133.464 556.226 133.077 556.378 132.742C556.53 132.406 556.745 132.15 557.022 131.973C557.301 131.794 557.62 131.705 557.978 131.705C558.342 131.705 558.663 131.793 558.94 131.97C559.219 132.145 559.434 132.4 559.584 132.736C559.734 133.069 559.809 133.457 559.809 133.901V134.188ZM559.212 133.895C559.212 133.355 559.103 132.942 558.887 132.654C558.67 132.365 558.367 132.22 557.978 132.22C557.599 132.22 557.3 132.365 557.081 132.654C556.865 132.942 556.753 133.342 556.747 133.854V134.188C556.747 134.711 556.856 135.122 557.075 135.422C557.296 135.72 557.599 135.869 557.984 135.869C558.371 135.869 558.671 135.729 558.884 135.447C559.096 135.164 559.206 134.759 559.212 134.232V133.895Z" fill="white"/>
<path d="M562.377 134.476H561.308V136.316H560.705V131.767H562.211C562.723 131.767 563.117 131.884 563.392 132.117C563.669 132.35 563.807 132.69 563.807 133.135C563.807 133.419 563.73 133.666 563.576 133.876C563.424 134.086 563.212 134.244 562.939 134.348L564.007 136.278V136.316H563.364L562.377 134.476ZM561.308 133.985H562.23C562.528 133.985 562.764 133.908 562.939 133.754C563.116 133.6 563.204 133.394 563.204 133.135C563.204 132.854 563.12 132.639 562.951 132.489C562.785 132.339 562.543 132.263 562.227 132.261H561.308V133.985Z" fill="white"/>
<path d="M565.295 136.316H564.695V131.767H565.295V136.316Z" fill="white"/>
<path d="M568.962 135.129H567.057L566.629 136.316H566.01L567.747 131.767H568.272L570.012 136.316H569.397L568.962 135.129ZM567.238 134.635H568.784L568.009 132.508L567.238 134.635Z" fill="white"/>
<path d="M571.227 135.825H573.383V136.316H570.624V131.767H571.227V135.825Z" fill="white"/>
<mask id="mask1" mask-type="alpha" maskUnits="userSpaceOnUse" x="529" y="130" width="10" height="10">
<path d="M538.15 134.571C538.154 137.071 536.165 139.116 533.726 139.118C532.672 139.118 531.704 138.742 530.944 138.113C530.746 137.949 530.731 137.645 530.911 137.461L531.112 137.255C531.266 137.098 531.511 137.08 531.681 137.219C532.242 137.675 532.951 137.947 533.722 137.947C535.538 137.947 537.007 136.44 537.007 134.58C537.007 132.719 535.538 131.213 533.722 131.213C532.851 131.213 532.059 131.56 531.472 132.126L532.378 133.055C532.558 133.24 532.43 133.555 532.176 133.555H529.581C529.423 133.555 529.295 133.424 529.295 133.262V130.602C529.295 130.341 529.603 130.21 529.783 130.395L530.664 131.298C531.459 130.52 532.536 130.042 533.722 130.042C536.165 130.042 538.145 132.069 538.15 134.571ZM534.92 136.013L535.095 135.782C535.241 135.59 535.207 135.314 535.02 135.165L534.294 134.586V132.677C534.294 132.434 534.102 132.237 533.865 132.237H533.58C533.343 132.237 533.151 132.434 533.151 132.677V135.159L534.319 136.09C534.506 136.239 534.775 136.204 534.92 136.013Z" fill="white"/>
</mask>
<g mask="url(#mask1)">
<path d="M538.15 134.571C538.154 137.071 536.165 139.116 533.726 139.118C532.672 139.118 531.704 138.742 530.944 138.113C530.746 137.949 530.731 137.645 530.911 137.461L531.112 137.255C531.266 137.098 531.511 137.08 531.681 137.219C532.242 137.675 532.951 137.947 533.722 137.947C535.538 137.947 537.007 136.44 537.007 134.58C537.007 132.719 535.538 131.213 533.722 131.213C532.851 131.213 532.059 131.56 531.472 132.126L532.378 133.055C532.558 133.24 532.43 133.555 532.176 133.555H529.581C529.423 133.555 529.295 133.424 529.295 133.262V130.602C529.295 130.341 529.603 130.21 529.783 130.395L530.664 131.298C531.459 130.52 532.536 130.042 533.722 130.042C536.165 130.042 538.145 132.069 538.15 134.571ZM534.92 136.013L535.095 135.782C535.241 135.59 535.207 135.314 535.02 135.165L534.294 134.586V132.677C534.294 132.434 534.102 132.237 533.865 132.237H533.58C533.343 132.237 533.151 132.434 533.151 132.677V135.159L534.319 136.09C534.506 136.239 534.775 136.204 534.92 136.013Z" fill="black"/>
<path d="M538.292 129.894H529.151V139.263H538.292V129.894Z" fill="white"/>
</g>
<g opacity="0.523042">
<mask id="mask2" mask-type="alpha" maskUnits="userSpaceOnUse" x="485" y="162" width="8" height="8">
<g opacity="0.523042">
<path opacity="0.523042" d="M491.78 165.676H491.423V164.605C491.423 163.358 490.408 162.344 489.162 162.344C487.915 162.344 486.9 163.358 486.9 164.605V165.676H486.543C486.149 165.676 485.829 165.996 485.829 166.39V169.247C485.829 169.641 486.149 169.961 486.543 169.961H491.78C492.174 169.961 492.494 169.641 492.494 169.247V166.39C492.494 165.996 492.174 165.676 491.78 165.676ZM490.233 165.676H488.09V164.605C488.09 164.014 488.571 163.534 489.162 163.534C489.752 163.534 490.233 164.014 490.233 164.605V165.676Z" fill="white"/>
</g>
</mask>
<g mask="url(#mask2)">
<path opacity="0.523042" d="M491.78 165.676H491.423V164.605C491.423 163.358 490.408 162.344 489.162 162.344C487.915 162.344 486.9 163.358 486.9 164.605V165.676H486.543C486.149 165.676 485.829 165.996 485.829 166.39V169.247C485.829 169.641 486.149 169.961 486.543 169.961H491.78C492.174 169.961 492.494 169.641 492.494 169.247V166.39C492.494 165.996 492.174 165.676 491.78 165.676ZM490.233 165.676H488.09V164.605C488.09 164.014 488.571 163.534 489.162 163.534C489.752 163.534 490.233 164.014 490.233 164.605V165.676Z" fill="black"/>
<g opacity="0.523042">
<g opacity="0.523042">
<path opacity="0.523042" d="M492.971 162.344H485.354V169.961H492.971V162.344Z" fill="#4D648D"/>
</g>
</g>
</g>
</g>
<g opacity="0.523042">
<mask id="mask3" mask-type="alpha" maskUnits="userSpaceOnUse" x="485" y="246" width="8" height="9">
<g opacity="0.523042">
<path opacity="0.523042" d="M491.78 250.225H491.423V249.154C491.423 247.907 490.408 246.893 489.162 246.893C487.915 246.893 486.9 247.907 486.9 249.154V250.225H486.543C486.149 250.225 485.829 250.545 485.829 250.939V253.796C485.829 254.19 486.149 254.51 486.543 254.51H491.78C492.174 254.51 492.494 254.19 492.494 253.796V250.939C492.494 250.545 492.174 250.225 491.78 250.225ZM490.233 250.225H488.09V249.154C488.09 248.563 488.571 248.083 489.162 248.083C489.752 248.083 490.233 248.563 490.233 249.154V250.225Z" fill="white"/>
</g>
</mask>
<g mask="url(#mask3)">
<path opacity="0.523042" d="M491.78 250.225H491.423V249.154C491.423 247.907 490.408 246.893 489.162 246.893C487.915 246.893 486.9 247.907 486.9 249.154V250.225H486.543C486.149 250.225 485.829 250.545 485.829 250.939V253.796C485.829 254.19 486.149 254.51 486.543 254.51H491.78C492.174 254.51 492.494 254.19 492.494 253.796V250.939C492.494 250.545 492.174 250.225 491.78 250.225ZM490.233 250.225H488.09V249.154C488.09 248.563 488.571 248.083 489.162 248.083C489.752 248.083 490.233 248.563 490.233 249.154V250.225Z" fill="black"/>
<g opacity="0.523042">
<g opacity="0.523042">
<path opacity="0.523042" d="M492.971 246.892H485.354V254.509H492.971V246.892Z" fill="#4D648D"/>
</g>
</g>
</g>
</g>
<g opacity="0.523042">
<mask id="mask4" mask-type="alpha" maskUnits="userSpaceOnUse" x="485" y="287" width="8" height="9">
<g opacity="0.523042">
<path opacity="0.523042" d="M491.78 290.9H491.423V289.829C491.423 288.582 490.408 287.568 489.162 287.568C487.915 287.568 486.9 288.582 486.9 289.829V290.9H486.543C486.149 290.9 485.829 291.22 485.829 291.614V294.471C485.829 294.865 486.149 295.185 486.543 295.185H491.78C492.174 295.185 492.494 294.865 492.494 294.471V291.614C492.494 291.22 492.174 290.9 491.78 290.9ZM490.233 290.9H488.09V289.829C488.09 289.238 488.571 288.758 489.162 288.758C489.752 288.758 490.233 289.238 490.233 289.829V290.9Z" fill="white"/>
</g>
</mask>
<g mask="url(#mask4)">
<path opacity="0.523042" d="M491.78 290.9H491.423V289.829C491.423 288.582 490.408 287.568 489.162 287.568C487.915 287.568 486.9 288.582 486.9 289.829V290.9H486.543C486.149 290.9 485.829 291.22 485.829 291.614V294.471C485.829 294.865 486.149 295.185 486.543 295.185H491.78C492.174 295.185 492.494 294.865 492.494 294.471V291.614C492.494 291.22 492.174 290.9 491.78 290.9ZM490.233 290.9H488.09V289.829C488.09 289.238 488.571 288.758 489.162 288.758C489.752 288.758 490.233 289.238 490.233 289.829V290.9Z" fill="black"/>
<g opacity="0.523042">
<g opacity="0.523042">
<path opacity="0.523042" d="M492.971 287.568H485.354V295.185H492.971V287.568Z" fill="#4D648D"/>
</g>
</g>
</g>
</g>
<g filter="url(#filter5_d)">
<path d="M691.394 78.7084H44.707V115.27H691.394V78.7084Z" fill="black"/>
</g>
<path d="M691.169 78.9375H44.9316V115.042H691.169V78.9375Z" fill="white"/>
<path fill-rule="evenodd" clip-rule="evenodd" d="M44.707 78.7084H691.394V115.27H44.707V78.7084ZM45.1561 79.1654V114.813H690.945V79.1654H45.1561Z" fill="white"/>
<path d="M442.237 83.7355H390.142C389.646 83.7355 389.244 84.1447 389.244 84.6495V110.243C389.244 110.748 389.646 111.157 390.142 111.157H442.237C442.733 111.157 443.135 110.748 443.135 110.243V84.6495C443.135 84.1447 442.733 83.7355 442.237 83.7355Z" fill="#E54435" fill-opacity="0.8"/>
<path d="M57.5051 102.93C60.8534 102.93 63.5678 100.168 63.5678 96.7605C63.5678 93.353 60.8534 90.5907 57.5051 90.5907C54.1567 90.5907 51.4424 93.353 51.4424 96.7605C51.4424 100.168 54.1567 102.93 57.5051 102.93Z" fill="white"/>
<path fill-rule="evenodd" clip-rule="evenodd" d="M57.5059 91.048C54.4056 91.048 51.8923 93.6057 51.8923 96.7607C51.8923 99.9158 54.4056 102.474 57.5059 102.474C60.6062 102.474 63.1195 99.9158 63.1195 96.7607C63.1195 93.6057 60.6062 91.048 57.5059 91.048ZM50.9941 96.7607C50.9941 93.1008 53.9096 90.1339 57.5059 90.1339C61.1023 90.1339 64.0177 93.1008 64.0177 96.7607C64.0177 100.421 61.1023 103.388 57.5059 103.388C53.9096 103.388 50.9941 100.421 50.9941 96.7607Z" fill="#7093FF"/>
<path d="M57.6424 96.5201H56.5925V98.3602H56V93.8114H57.4797C57.9832 93.8114 58.37 93.928 58.6401 94.1613C58.9123 94.3946 59.0484 94.7341 59.0484 95.1798C59.0484 95.463 58.9727 95.7099 58.8213 95.9202C58.6719 96.1306 58.4631 96.2878 58.195 96.392L59.2449 98.3227V98.3602H58.6125L57.6424 96.5201ZM56.5925 96.0296H57.4981C57.7908 96.0296 58.0231 95.9525 58.195 95.7984C58.369 95.6443 58.456 95.4381 58.456 95.1798C58.456 94.8986 58.3731 94.683 58.2073 94.5331C58.0436 94.3831 57.8061 94.3071 57.4951 94.305H56.5925V96.0296Z" fill="#4D648D"/>
<path d="M68.9297 104.759C68.9297 102.992 70.362 101.559 72.1288 101.559H153.479C155.246 101.559 156.678 102.992 156.678 104.759C156.678 106.525 155.246 107.958 153.479 107.958H72.1288C70.362 107.958 68.9297 106.525 68.9297 104.759Z" fill="white"/>
<path d="M68.9297 104.759C68.9297 102.992 70.362 101.559 72.1288 101.559H153.479C155.246 101.559 156.678 102.992 156.678 104.759C156.678 106.525 155.246 107.958 153.479 107.958H72.1288C70.362 107.958 68.9297 106.525 68.9297 104.759Z" fill="white"/>
<path d="M68.9297 104.759C68.9297 102.992 70.362 101.559 72.1288 101.559H153.479C155.246 101.559 156.678 102.992 156.678 104.759C156.678 106.525 155.246 107.958 153.479 107.958H72.1288C70.362 107.958 68.9297 106.525 68.9297 104.759Z" fill="#E2E9FF"/>
<path d="M171.759 92.419C171.759 90.6522 173.191 89.2198 174.958 89.2198H231.172C232.939 89.2198 234.371 90.6522 234.371 92.419C234.371 94.1859 232.939 95.6182 231.172 95.6182H174.958C173.191 95.6182 171.759 94.1859 171.759 92.419Z" fill="white"/>
<path d="M171.759 92.419C171.759 90.6522 173.191 89.2198 174.958 89.2198H231.172C232.939 89.2198 234.371 90.6522 234.371 92.419C234.371 94.1859 232.939 95.6182 231.172 95.6182H174.958C173.191 95.6182 171.759 94.1859 171.759 92.419Z" fill="white"/>
<path d="M171.759 92.419C171.759 90.6522 173.191 89.2198 174.958 89.2198H231.172C232.939 89.2198 234.371 90.6522 234.371 92.419C234.371 94.1859 232.939 95.6182 231.172 95.6182H174.958C173.191 95.6182 171.759 94.1859 171.759 92.419Z" fill="#E2E9FF"/>
<path d="M279.159 92.419C279.159 90.6522 280.591 89.2198 282.358 89.2198H338.572C340.339 89.2198 341.771 90.6522 341.771 92.419C341.771 94.1859 340.339 95.6182 338.572 95.6182H282.358C280.591 95.6182 279.159 94.1859 279.159 92.419Z" fill="white"/>
<path d="M279.159 92.419C279.159 90.6522 280.591 89.2198 282.358 89.2198H338.572C340.339 89.2198 341.771 90.6522 341.771 92.419C341.771 94.1859 340.339 95.6182 338.572 95.6182H282.358C280.591 95.6182 279.159 94.1859 279.159 92.419Z" fill="white"/>
<path d="M279.159 92.419C279.159 90.6522 280.591 89.2198 282.358 89.2198H338.572C340.339 89.2198 341.771 90.6522 341.771 92.419C341.771 94.1859 340.339 95.6182 338.572 95.6182H282.358C280.591 95.6182 279.159 94.1859 279.159 92.419Z" fill="#E2E9FF"/>
<path d="M171.759 104.302C171.759 102.535 173.191 101.103 174.958 101.103H262.249C264.016 101.103 265.448 102.535 265.448 104.302C265.448 106.069 264.016 107.501 262.249 107.501H174.958C173.191 107.501 171.759 106.069 171.759 104.302Z" fill="white"/>
<path d="M171.759 104.302C171.759 102.535 173.191 101.103 174.958 101.103H262.249C264.016 101.103 265.448 102.535 265.448 104.302C265.448 106.069 264.016 107.501 262.249 107.501H174.958C173.191 107.501 171.759 106.069 171.759 104.302Z" fill="white"/>
<path d="M171.759 104.302C171.759 102.535 173.191 101.103 174.958 101.103H262.249C264.016 101.103 265.448 102.535 265.448 104.302C265.448 106.069 264.016 107.501 262.249 107.501H174.958C173.191 107.501 171.759 106.069 171.759 104.302Z" fill="#E2E9FF"/>
<path d="M279.159 104.302C279.159 102.535 280.591 101.103 282.358 101.103H369.65C371.416 101.103 372.849 102.535 372.849 104.302C372.849 106.069 371.416 107.501 369.65 107.501H282.358C280.591 107.501 279.159 106.069 279.159 104.302Z" fill="white"/>
<path d="M279.159 104.302C279.159 102.535 280.591 101.103 282.358 101.103H369.65C371.416 101.103 372.849 102.535 372.849 104.302C372.849 106.069 371.416 107.501 369.65 107.501H282.358C280.591 107.501 279.159 106.069 279.159 104.302Z" fill="white"/>
<path d="M279.159 104.302C279.159 102.535 280.591 101.103 282.358 101.103H369.65C371.416 101.103 372.849 102.535 372.849 104.302C372.849 106.069 371.416 107.501 369.65 107.501H282.358C280.591 107.501 279.159 106.069 279.159 104.302Z" fill="#E2E9FF"/>
<path d="M463.34 92.419C463.34 90.6522 464.772 89.2198 466.539 89.2198H522.753C524.52 89.2198 525.952 90.6522 525.952 92.419C525.952 94.1859 524.52 95.6182 522.753 95.6182H466.539C464.772 95.6182 463.34 94.1859 463.34 92.419Z" fill="white"/>
<path d="M463.34 92.419C463.34 90.6522 464.772 89.2198 466.539 89.2198H522.753C524.52 89.2198 525.952 90.6522 525.952 92.419C525.952 94.1859 524.52 95.6182 522.753 95.6182H466.539C464.772 95.6182 463.34 94.1859 463.34 92.419Z" fill="white"/>
<path d="M463.34 92.419C463.34 90.6522 464.772 89.2198 466.539 89.2198H522.753C524.52 89.2198 525.952 90.6522 525.952 92.419C525.952 94.1859 524.52 95.6182 522.753 95.6182H466.539C464.772 95.6182 463.34 94.1859 463.34 92.419Z" fill="#E2E9FF"/>
<path d="M463.34 104.302C463.34 102.535 464.772 101.103 466.539 101.103H553.83C555.597 101.103 557.029 102.535 557.029 104.302C557.029 106.069 555.597 107.501 553.83 107.501H466.539C464.772 107.501 463.34 106.069 463.34 104.302Z" fill="white"/>
<path d="M463.34 104.302C463.34 102.535 464.772 101.103 466.539 101.103H553.83C555.597 101.103 557.029 102.535 557.029 104.302C557.029 106.069 555.597 107.501 553.83 107.501H466.539C464.772 107.501 463.34 106.069 463.34 104.302Z" fill="white"/>
<path d="M463.34 104.302C463.34 102.535 464.772 101.103 466.539 101.103H553.83C555.597 101.103 557.029 102.535 557.029 104.302C557.029 106.069 555.597 107.501 553.83 107.501H466.539C464.772 107.501 463.34 106.069 463.34 104.302Z" fill="#E2E9FF"/>
<path d="M578.509 92.419C578.509 90.6522 579.941 89.2198 581.708 89.2198H637.922C639.689 89.2198 641.121 90.6522 641.121 92.419C641.121 94.1859 639.689 95.6182 637.922 95.6182H581.708C579.941 95.6182 578.509 94.1859 578.509 92.419Z" fill="white"/>
<path d="M578.509 92.419C578.509 90.6522 579.941 89.2198 581.708 89.2198H637.922C639.689 89.2198 641.121 90.6522 641.121 92.419C641.121 94.1859 639.689 95.6182 637.922 95.6182H581.708C579.941 95.6182 578.509 94.1859 578.509 92.419Z" fill="white"/>
<path d="M578.509 92.419C578.509 90.6522 579.941 89.2198 581.708 89.2198H637.922C639.689 89.2198 641.121 90.6522 641.121 92.419C641.121 94.1859 639.689 95.6182 637.922 95.6182H581.708C579.941 95.6182 578.509 94.1859 578.509 92.419Z" fill="#E2E9FF"/>
<path d="M578.509 104.302C578.509 102.535 579.941 101.103 581.708 101.103H668.999C670.766 101.103 672.198 102.535 672.198 104.302C672.198 106.069 670.766 107.501 668.999 107.501H581.708C579.941 107.501 578.509 106.069 578.509 104.302Z" fill="white"/>
<path d="M578.509 104.302C578.509 102.535 579.941 101.103 581.708 101.103H668.999C670.766 101.103 672.198 102.535 672.198 104.302C672.198 106.069 670.766 107.501 668.999 107.501H581.708C579.941 107.501 578.509 106.069 578.509 104.302Z" fill="white"/>
<path d="M578.509 104.302C578.509 102.535 579.941 101.103 581.708 101.103H668.999C670.766 101.103 672.198 102.535 672.198 104.302C672.198 106.069 670.766 107.501 668.999 107.501H581.708C579.941 107.501 578.509 106.069 578.509 104.302Z" fill="#E2E9FF"/>
<g opacity="0.5">
<path d="M398.442 93.1046C398.442 91.9687 399.363 91.048 400.499 91.048H434.776C435.911 91.048 436.832 91.9687 436.832 93.1046C436.832 94.2404 435.911 95.1612 434.776 95.1612H400.499C399.363 95.1612 398.442 94.2404 398.442 93.1046Z" fill="white"/>
<path d="M398.442 93.1046C398.442 91.9687 399.363 91.048 400.499 91.048H434.776C435.911 91.048 436.832 91.9687 436.832 93.1046C436.832 94.2404 435.911 95.1612 434.776 95.1612H400.499C399.363 95.1612 398.442 94.2404 398.442 93.1046Z" fill="white"/>
<path d="M398.442 93.1046C398.442 91.9687 399.363 91.048 400.499 91.048H434.776C435.911 91.048 436.832 91.9687 436.832 93.1046C436.832 94.2404 435.911 95.1612 434.776 95.1612H400.499C399.363 95.1612 398.442 94.2404 398.442 93.1046Z" fill="#E2E9FF"/>
</g>
<g opacity="0.5">
<path d="M402.556 102.245C402.556 101.109 403.476 100.188 404.612 100.188H428.377C429.513 100.188 430.434 101.109 430.434 102.245C430.434 103.381 429.513 104.301 428.377 104.301H404.612C403.476 104.301 402.556 103.381 402.556 102.245Z" fill="white"/>
<path d="M402.556 102.245C402.556 101.109 403.476 100.188 404.612 100.188H428.377C429.513 100.188 430.434 101.109 430.434 102.245C430.434 103.381 429.513 104.301 428.377 104.301H404.612C403.476 104.301 402.556 103.381 402.556 102.245Z" fill="white"/>
<path d="M402.556 102.245C402.556 101.109 403.476 100.188 404.612 100.188H428.377C429.513 100.188 430.434 101.109 430.434 102.245C430.434 103.381 429.513 104.301 428.377 104.301H404.612C403.476 104.301 402.556 103.381 402.556 102.245Z" fill="#E2E9FF"/>
</g>
<g filter="url(#filter6_d)">
<path d="M45.164 123.496H148.451C148.956 123.496 149.365 123.905 149.365 124.41V146.347H44.25V124.41C44.25 123.905 44.6592 123.496 45.164 123.496Z" fill="black"/>
</g>
<path fill-rule="evenodd" clip-rule="evenodd" d="M44.4785 146.119H149.137V124.41C149.137 124.032 148.83 123.725 148.451 123.725H45.164C44.7854 123.725 44.4785 124.032 44.4785 124.41V146.119Z" fill="url(#paint4_linear)"/>
<path fill-rule="evenodd" clip-rule="evenodd" d="M44.25 124.41C44.25 123.905 44.6592 123.496 45.164 123.496H148.451C148.956 123.496 149.365 123.905 149.365 124.41V146.347H44.25V124.41ZM45.164 123.953C44.9116 123.953 44.707 124.158 44.707 124.41V145.89H148.908V124.41C148.908 124.158 148.704 123.953 148.451 123.953H45.164Z" fill="#7091F5"/>
<path d="M67.8557 135.563H65.9499L65.5219 136.75H64.9033L66.6404 132.201H67.1652L68.9054 136.75H68.2899L67.8557 135.563ZM66.1311 135.069H67.6776L66.9028 132.942L66.1311 135.069Z" fill="white"/>
<path d="M72.8262 135.307C72.77 135.788 72.5919 136.16 72.292 136.422C71.9942 136.683 71.5974 136.813 71.1017 136.813C70.5643 136.813 70.1332 136.62 69.8083 136.235C69.4854 135.849 69.324 135.334 69.324 134.688V134.251C69.324 133.828 69.399 133.456 69.549 133.136C69.701 132.815 69.9155 132.569 70.1926 132.398C70.4696 132.225 70.7903 132.139 71.1548 132.139C71.638 132.139 72.0254 132.274 72.317 132.545C72.6086 132.814 72.7783 133.187 72.8262 133.664H72.2233C72.1712 133.301 72.0577 133.039 71.8827 132.876C71.7099 132.714 71.4672 132.633 71.1548 132.633C70.7716 132.633 70.4706 132.774 70.2519 133.057C70.0353 133.341 69.927 133.744 69.927 134.266V134.707C69.927 135.201 70.0301 135.593 70.2363 135.885C70.4425 136.176 70.731 136.322 71.1017 136.322C71.4349 136.322 71.6901 136.247 71.8671 136.097C72.0462 135.945 72.1649 135.682 72.2233 135.307H72.8262Z" fill="white"/>
<path d="M76.9939 135.307C76.9376 135.788 76.7596 136.16 76.4596 136.422C76.1618 136.683 75.765 136.813 75.2693 136.813C74.732 136.813 74.3008 136.62 73.9759 136.235C73.6531 135.849 73.4917 135.334 73.4917 134.688V134.251C73.4917 133.828 73.5667 133.456 73.7166 133.136C73.8687 132.815 74.0832 132.569 74.3602 132.398C74.6372 132.225 74.958 132.139 75.3224 132.139C75.8057 132.139 76.1931 132.274 76.4846 132.545C76.7762 132.814 76.946 133.187 76.9939 133.664H76.3909C76.3388 133.301 76.2253 133.039 76.0504 132.876C75.8775 132.714 75.6349 132.633 75.3224 132.633C74.9392 132.633 74.6383 132.774 74.4196 133.057C74.203 133.341 74.0946 133.744 74.0946 134.266V134.707C74.0946 135.201 74.1977 135.593 74.4039 135.885C74.6101 136.176 74.8986 136.322 75.2693 136.322C75.6026 136.322 75.8577 136.247 76.0348 136.097C76.2139 135.945 76.3326 135.682 76.3909 135.307H76.9939Z" fill="white"/>
<path d="M78.4591 136.75H77.8593V132.201H78.4591V136.75Z" fill="white"/>
<path d="M83.0579 134.623C83.0579 135.068 82.9829 135.458 82.833 135.791C82.683 136.122 82.4706 136.375 82.1956 136.55C81.9207 136.725 81.6 136.813 81.2334 136.813C80.8752 136.813 80.5575 136.725 80.2805 136.55C80.0035 136.373 79.7879 136.122 79.6338 135.797C79.4818 135.47 79.4037 135.092 79.3995 134.663V134.335C79.3995 133.898 79.4755 133.511 79.6276 133.176C79.7796 132.841 79.9941 132.585 80.2711 132.408C80.5502 132.228 80.8689 132.139 81.2271 132.139C81.5916 132.139 81.9124 132.227 82.1894 132.404C82.4685 132.579 82.683 132.835 82.833 133.17C82.9829 133.503 83.0579 133.892 83.0579 134.335V134.623ZM82.4612 134.329C82.4612 133.79 82.3529 133.376 82.1363 133.089C81.9197 132.799 81.6166 132.654 81.2271 132.654C80.8481 132.654 80.5492 132.799 80.3305 133.089C80.1139 133.376 80.0025 133.776 79.9962 134.288V134.623C79.9962 135.145 80.1056 135.557 80.3243 135.857C80.545 136.155 80.8481 136.303 81.2334 136.303C81.6208 136.303 81.9207 136.163 82.1332 135.882C82.3456 135.598 82.4549 135.193 82.4612 134.666V134.329Z" fill="white"/>
<path d="M87.4536 136.75H86.8507L84.5606 133.245V136.75H83.9577V132.201H84.5606L86.8569 135.722V132.201H87.4536V136.75Z" fill="white"/>
<path d="M91.0902 134.648H89.1188V136.26H91.4088V136.75H88.519V132.201H91.3776V132.695H89.1188V134.157H91.0902V134.648Z" fill="white"/>
<path d="M93.4958 134.723C92.9813 134.575 92.6064 134.394 92.3711 134.179C92.1378 133.962 92.0212 133.696 92.0212 133.379C92.0212 133.021 92.1638 132.725 92.4492 132.492C92.7366 132.257 93.1094 132.139 93.5676 132.139C93.8801 132.139 94.1581 132.199 94.4018 132.32C94.6476 132.441 94.8371 132.608 94.9704 132.82C95.1058 133.032 95.1735 133.265 95.1735 133.517H94.5705C94.5705 133.242 94.483 133.026 94.3081 132.87C94.1331 132.712 93.8863 132.633 93.5676 132.633C93.2719 132.633 93.0407 132.698 92.8741 132.829C92.7095 132.958 92.6273 133.139 92.6273 133.37C92.6273 133.555 92.7054 133.712 92.8616 133.842C93.0199 133.969 93.2875 134.085 93.6645 134.191C94.0436 134.298 94.3393 134.415 94.5518 134.545C94.7663 134.672 94.9246 134.821 95.0266 134.991C95.1308 135.162 95.1828 135.363 95.1828 135.594C95.1828 135.963 95.0391 136.259 94.7517 136.482C94.4643 136.702 94.08 136.813 93.5989 136.813C93.2865 136.813 92.9949 136.753 92.7241 136.635C92.4533 136.514 92.244 136.349 92.0962 136.141C91.9504 135.933 91.8775 135.696 91.8775 135.432H92.4804C92.4804 135.707 92.5814 135.924 92.7835 136.085C92.9876 136.243 93.2594 136.322 93.5989 136.322C93.9155 136.322 94.1581 136.258 94.3268 136.128C94.4955 135.999 94.5799 135.823 94.5799 135.601C94.5799 135.378 94.5018 135.206 94.3456 135.085C94.1894 134.962 93.9061 134.841 93.4958 134.723Z" fill="white"/>
<mask id="mask5" mask-type="alpha" maskUnits="userSpaceOnUse" x="52" y="130" width="8" height="10">
<path d="M59.1024 132.351V138.635C59.1024 139.109 58.7188 139.492 58.2455 139.492H53.104C52.6307 139.492 52.2471 139.109 52.2471 138.635V132.351C52.2471 131.878 52.6307 131.494 53.104 131.494H54.5322C54.5322 130.864 55.0447 130.352 55.6747 130.352C56.3048 130.352 56.8173 130.864 56.8173 131.494H58.2455C58.7188 131.494 59.1024 131.878 59.1024 132.351ZM55.6747 131.066C55.4381 131.066 55.2463 131.258 55.2463 131.494C55.2463 131.731 55.4381 131.923 55.6747 131.923C55.9114 131.923 56.1032 131.731 56.1032 131.494C56.1032 131.258 55.9114 131.066 55.6747 131.066ZM57.3886 133.101V132.744C57.3886 132.685 57.3406 132.637 57.2815 132.637H54.068C54.0089 132.637 53.9609 132.685 53.9609 132.744V133.101C53.9609 133.16 54.0089 133.208 54.068 133.208H57.2815C57.3406 133.208 57.3886 133.16 57.3886 133.101Z" fill="white"/>
</mask>
<g mask="url(#mask5)">
<path d="M59.1024 132.351V138.635C59.1024 139.109 58.7188 139.492 58.2455 139.492H53.104C52.6307 139.492 52.2471 139.109 52.2471 138.635V132.351C52.2471 131.878 52.6307 131.494 53.104 131.494H54.5322C54.5322 130.864 55.0447 130.352 55.6747 130.352C56.3048 130.352 56.8173 130.864 56.8173 131.494H58.2455C58.7188 131.494 59.1024 131.878 59.1024 132.351ZM55.6747 131.066C55.4381 131.066 55.2463 131.258 55.2463 131.494C55.2463 131.731 55.4381 131.923 55.6747 131.923C55.9114 131.923 56.1032 131.731 56.1032 131.494C56.1032 131.258 55.9114 131.066 55.6747 131.066ZM57.3886 133.101V132.744C57.3886 132.685 57.3406 132.637 57.2815 132.637H54.068C54.0089 132.637 53.9609 132.685 53.9609 132.744V133.101C53.9609 133.16 54.0089 133.208 54.068 133.208H57.2815C57.3406 133.208 57.3886 133.16 57.3886 133.101Z" fill="black"/>
<path d="M60.2449 130.352H51.1045V139.492H60.2449V130.352Z" fill="white"/>
</g>
<g filter="url(#filter7_d)">
<path d="M684.995 155.945H522.752V172.398H684.995V155.945Z" fill="black"/>
</g>
<path d="M684.995 155.945H522.752V172.398H684.995V155.945Z" fill="#4D648D"/>
<path d="M684.995 155.945H522.752V172.398H684.995V155.945Z" fill="url(#paint5_linear)"/>
<g opacity="0.3">
<path d="M529.151 164.4C529.151 162.254 530.891 160.515 533.036 160.515H605.703C607.848 160.515 609.587 162.254 609.587 164.4C609.587 166.545 607.848 168.285 605.703 168.285H533.036C530.891 168.285 529.151 166.545 529.151 164.4Z" fill="white"/>
<path d="M529.151 164.4C529.151 162.254 530.891 160.515 533.036 160.515H605.703C607.848 160.515 609.587 162.254 609.587 164.4C609.587 166.545 607.848 168.285 605.703 168.285H533.036C530.891 168.285 529.151 166.545 529.151 164.4Z" fill="white"/>
<path d="M529.151 164.4C529.151 162.254 530.891 160.515 533.036 160.515H605.703C607.848 160.515 609.587 162.254 609.587 164.4C609.587 166.545 607.848 168.285 605.703 168.285H533.036C530.891 168.285 529.151 166.545 529.151 164.4Z" fill="#E2E9FF" fill-opacity="0.3"/>
</g>
<g opacity="0.3">
<path d="M451.914 133.779C451.914 131.634 453.653 129.895 455.799 129.895H496.931C499.076 129.895 500.815 131.634 500.815 133.779C500.815 135.925 499.076 137.664 496.931 137.664H455.799C453.653 137.664 451.914 135.925 451.914 133.779Z" fill="white"/>
<path d="M451.914 133.779C451.914 131.634 453.653 129.895 455.799 129.895H496.931C499.076 129.895 500.815 131.634 500.815 133.779C500.815 135.925 499.076 137.664 496.931 137.664H455.799C453.653 137.664 451.914 135.925 451.914 133.779Z" fill="white"/>
<path d="M451.914 133.779C451.914 131.634 453.653 129.895 455.799 129.895H496.931C499.076 129.895 500.815 131.634 500.815 133.779C500.815 135.925 499.076 137.664 496.931 137.664H455.799C453.653 137.664 451.914 135.925 451.914 133.779Z" fill="#E2E9FF" fill-opacity="0.3"/>
</g>
<mask id="mask6" mask-type="alpha" maskUnits="userSpaceOnUse" x="673" y="162" width="6" height="5">
<path d="M675.554 166.342L673.126 163.914C672.958 163.746 672.958 163.474 673.126 163.308L673.529 162.905C673.697 162.737 673.968 162.737 674.135 162.905L675.855 164.626L677.576 162.905C677.744 162.737 678.016 162.737 678.182 162.905L678.585 163.308C678.753 163.476 678.753 163.748 678.585 163.914L676.157 166.342C675.993 166.509 675.722 166.509 675.554 166.342Z" fill="white"/>
</mask>
<g mask="url(#mask6)">
<path d="M675.554 166.342L673.126 163.914C672.958 163.746 672.958 163.474 673.126 163.308L673.529 162.905C673.697 162.737 673.968 162.737 674.135 162.905L675.855 164.626L677.576 162.905C677.744 162.737 678.016 162.737 678.182 162.905L678.585 163.308C678.753 163.476 678.753 163.748 678.585 163.914L676.157 166.342C675.993 166.509 675.722 166.509 675.554 166.342Z" fill="black"/>
<path d="M680.428 160.047L671.287 160.047L671.287 169.188L680.428 169.188L680.428 160.047Z" fill="white"/>
</g>
<g filter="url(#filter8_d)">
<path d="M684.995 174.683H522.752V191.136H684.995V174.683Z" fill="black"/>
</g>
<path d="M684.995 174.683H522.752V191.136H684.995V174.683Z" fill="#4D648D"/>
<path d="M684.995 174.683H522.752V191.136H684.995V174.683Z" fill="url(#paint6_linear)"/>
<g opacity="0.3">
<path d="M529.151 183.138C529.151 180.993 530.891 179.253 533.036 179.253H605.703C607.848 179.253 609.587 180.993 609.587 183.138C609.587 185.283 607.848 187.023 605.703 187.023H533.036C530.891 187.023 529.151 185.283 529.151 183.138Z" fill="white"/>
<path d="M529.151 183.138C529.151 180.993 530.891 179.253 533.036 179.253H605.703C607.848 179.253 609.587 180.993 609.587 183.138C609.587 185.283 607.848 187.023 605.703 187.023H533.036C530.891 187.023 529.151 185.283 529.151 183.138Z" fill="white"/>
<path d="M529.151 183.138C529.151 180.993 530.891 179.253 533.036 179.253H605.703C607.848 179.253 609.587 180.993 609.587 183.138C609.587 185.283 607.848 187.023 605.703 187.023H533.036C530.891 187.023 529.151 185.283 529.151 183.138Z" fill="#E2E9FF" fill-opacity="0.3"/>
</g>
<mask id="mask7" mask-type="alpha" maskUnits="userSpaceOnUse" x="673" y="181" width="6" height="5">
<path d="M675.554 185.08L673.126 182.652C672.958 182.484 672.958 182.212 673.126 182.046L673.529 181.643C673.697 181.475 673.968 181.475 674.135 181.643L675.855 183.364L677.576 181.643C677.744 181.475 678.016 181.475 678.182 181.643L678.585 182.046C678.753 182.214 678.753 182.486 678.585 182.652L676.157 185.08C675.993 185.247 675.722 185.247 675.554 185.08Z" fill="white"/>
</mask>
<g mask="url(#mask7)">
<path d="M675.554 185.08L673.126 182.652C672.958 182.484 672.958 182.212 673.126 182.046L673.529 181.643C673.697 181.475 673.968 181.475 674.135 181.643L675.855 183.364L677.576 181.643C677.744 181.475 678.016 181.475 678.182 181.643L678.585 182.046C678.753 182.214 678.753 182.486 678.585 182.652L676.157 185.08C675.993 185.247 675.722 185.247 675.554 185.08Z" fill="black"/>
<path d="M680.428 178.785L671.287 178.785L671.287 187.926L680.428 187.926L680.428 178.785Z" fill="white"/>
</g>
<mask id="mask8" mask-type="alpha" maskUnits="userSpaceOnUse" x="677" y="223" width="7" height="4">
<path d="M680.125 226.669L677.697 224.241C677.529 224.073 677.529 223.801 677.697 223.635L678.101 223.232C678.268 223.064 678.54 223.064 678.706 223.232L680.427 224.953L682.148 223.232C682.316 223.064 682.587 223.064 682.753 223.232L683.156 223.635C683.324 223.803 683.324 224.075 683.156 224.241L680.728 226.669C680.564 226.836 680.293 226.836 680.125 226.669Z" fill="white"/>
</mask>
<g mask="url(#mask8)">
<path d="M680.125 226.669L677.697 224.241C677.529 224.073 677.529 223.801 677.697 223.635L678.101 223.232C678.268 223.064 678.54 223.064 678.706 223.232L680.427 224.953L682.148 223.232C682.316 223.064 682.587 223.064 682.753 223.232L683.156 223.635C683.324 223.803 683.324 224.075 683.156 224.241L680.728 226.669C680.564 226.836 680.293 226.836 680.125 226.669Z" fill="black"/>
<path d="M684.997 220.375L675.856 220.375L675.856 229.515L684.997 229.515L684.997 220.375Z" fill="white"/>
</g>
<mask id="mask9" mask-type="alpha" maskUnits="userSpaceOnUse" x="677" y="244" width="7" height="4">
<path d="M680.125 247.691L677.697 245.263C677.529 245.096 677.529 244.824 677.697 244.658L678.101 244.255C678.268 244.087 678.54 244.087 678.706 244.255L680.427 245.976L682.148 244.255C682.316 244.087 682.587 244.087 682.753 244.255L683.156 244.658C683.324 244.826 683.324 245.097 683.156 245.263L680.728 247.691C680.564 247.859 680.293 247.859 680.125 247.691Z" fill="white"/>
</mask>
<g mask="url(#mask9)">
<path d="M680.125 247.691L677.697 245.263C677.529 245.096 677.529 244.824 677.697 244.658L678.101 244.255C678.268 244.087 678.54 244.087 678.706 244.255L680.427 245.976L682.148 244.255C682.316 244.087 682.587 244.087 682.753 244.255L683.156 244.658C683.324 244.826 683.324 245.097 683.156 245.263L680.728 247.691C680.564 247.859 680.293 247.859 680.125 247.691Z" fill="black"/>
<path d="M684.997 241.398L675.856 241.398L675.856 250.538L684.997 250.538L684.997 241.398Z" fill="white"/>
</g>
<mask id="mask10" mask-type="alpha" maskUnits="userSpaceOnUse" x="677" y="265" width="7" height="4">
<path d="M680.125 268.715L677.697 266.287C677.529 266.119 677.529 265.847 677.697 265.681L678.101 265.278C678.268 265.11 678.54 265.11 678.706 265.278L680.427 266.999L682.148 265.278C682.316 265.11 682.587 265.11 682.753 265.278L683.156 265.681C683.324 265.849 683.324 266.121 683.156 266.287L680.728 268.715C680.564 268.882 680.293 268.882 680.125 268.715Z" fill="white"/>
</mask>
<g mask="url(#mask10)">
<path d="M680.125 268.715L677.697 266.287C677.529 266.119 677.529 265.847 677.697 265.681L678.101 265.278C678.268 265.11 678.54 265.11 678.706 265.278L680.427 266.999L682.148 265.278C682.316 265.11 682.587 265.11 682.753 265.278L683.156 265.681C683.324 265.849 683.324 266.121 683.156 266.287L680.728 268.715C680.564 268.882 680.293 268.882 680.125 268.715Z" fill="black"/>
<path d="M684.997 262.421L675.856 262.421L675.856 271.561L684.997 271.561L684.997 262.421Z" fill="white"/>
</g>
<mask id="mask11" mask-type="alpha" maskUnits="userSpaceOnUse" x="677" y="286" width="7" height="4">
<path d="M680.125 289.738L677.697 287.31C677.529 287.142 677.529 286.871 677.697 286.704L678.101 286.301C678.268 286.133 678.54 286.133 678.706 286.301L680.427 288.022L682.148 286.301C682.316 286.133 682.587 286.133 682.753 286.301L683.156 286.704C683.324 286.872 683.324 287.144 683.156 287.31L680.728 289.738C680.564 289.905 680.293 289.905 680.125 289.738Z" fill="white"/>
</mask>
<g mask="url(#mask11)">
<path d="M680.125 289.738L677.697 287.31C677.529 287.142 677.529 286.871 677.697 286.704L678.101 286.301C678.268 286.133 678.54 286.133 678.706 286.301L680.427 288.022L682.148 286.301C682.316 286.133 682.587 286.133 682.753 286.301L683.156 286.704C683.324 286.872 683.324 287.144 683.156 287.31L680.728 289.738C680.564 289.905 680.293 289.905 680.125 289.738Z" fill="black"/>
<path d="M684.997 283.444L675.856 283.444L675.856 292.584L684.997 292.584L684.997 283.444Z" fill="white"/>
</g>
<path d="M685.027 387.655H668.283C667.543 387.655 666.943 388.255 666.943 388.995V405.739C666.943 406.479 667.543 407.079 668.283 407.079H685.027C685.767 407.079 686.367 406.479 686.367 405.739V388.995C686.367 388.255 685.767 387.655 685.027 387.655Z" fill="#6BBF59"/>
<path fill-rule="evenodd" clip-rule="evenodd" d="M685.027 388.325H668.283C667.913 388.325 667.613 388.625 667.613 388.995V405.739C667.613 406.109 667.913 406.409 668.283 406.409H685.027C685.397 406.409 685.697 406.109 685.697 405.739V388.995C685.697 388.625 685.397 388.325 685.027 388.325ZM668.283 387.655H685.027C685.767 387.655 686.367 388.255 686.367 388.995V405.739C686.367 406.479 685.767 407.079 685.027 407.079H668.283C667.543 407.079 666.943 406.479 666.943 405.739V388.995C666.943 388.255 667.543 387.655 668.283 387.655Z" fill="#6BBF59"/>
<mask id="mask12" mask-type="alpha" maskUnits="userSpaceOnUse" x="672" y="392" width="10" height="10">
<path d="M681.093 398.117V396.617C681.093 396.356 680.883 396.146 680.622 396.146H677.918V393.442C677.918 393.182 677.708 392.972 677.447 392.972H675.948C675.687 392.972 675.477 393.182 675.477 393.442V396.146H672.773C672.512 396.146 672.302 396.356 672.302 396.617V398.117C672.302 398.377 672.512 398.587 672.773 398.587H675.477V401.291C675.477 401.552 675.687 401.762 675.948 401.762H677.447C677.708 401.762 677.918 401.552 677.918 401.291V398.587H680.622C680.883 398.587 681.093 398.377 681.093 398.117Z" fill="white"/>
</mask>
<g mask="url(#mask12)">
<path d="M681.093 398.117V396.617C681.093 396.356 680.883 396.146 680.622 396.146H677.918V393.442C677.918 393.182 677.708 392.972 677.447 392.972H675.948C675.687 392.972 675.477 393.182 675.477 393.442V396.146H672.773C672.512 396.146 672.302 396.356 672.302 396.617V398.117C672.302 398.377 672.512 398.587 672.773 398.587H675.477V401.291C675.477 401.552 675.687 401.762 675.948 401.762H677.447C677.708 401.762 677.918 401.552 677.918 401.291V398.587H680.622C680.883 398.587 681.093 398.377 681.093 398.117Z" fill="black"/>
<path d="M681.719 392.344H671.673V402.39H681.719V392.344Z" fill="white"/>
</g>
<path d="M77.8191 97.446H76.8028L74.1959 93.2967V97.446H73.1797V91.5976H74.1959L76.8109 95.763V91.5976H77.8191V97.446Z" fill="#4D648D"/>
<path d="M79.9641 97.446H78.988V93.0999H79.9641V97.446ZM78.9277 91.9712C78.9277 91.8212 78.9746 91.6967 79.0683 91.5976C79.1647 91.4985 79.3013 91.449 79.478 91.449C79.6548 91.449 79.7913 91.4985 79.8877 91.5976C79.9841 91.6967 80.0323 91.8212 80.0323 91.9712C80.0323 92.1184 79.9841 92.2416 79.8877 92.3407C79.7913 92.4371 79.6548 92.4853 79.478 92.4853C79.3013 92.4853 79.1647 92.4371 79.0683 92.3407C78.9746 92.2416 78.9277 92.1184 78.9277 91.9712Z" fill="#4D648D"/>
<path d="M80.8478 95.2408C80.8478 94.5714 81.0031 94.0344 81.3137 93.6301C81.6243 93.2231 82.0407 93.0195 82.5629 93.0195C83.0235 93.0195 83.3957 93.1802 83.6796 93.5016V91.2762H84.6557V97.446H83.772L83.7238 96.9962C83.4319 97.3496 83.0423 97.5264 82.5549 97.5264C82.0461 97.5264 81.6337 97.3215 81.3177 96.9118C81.0044 96.5021 80.8478 95.9451 80.8478 95.2408ZM81.8238 95.3252C81.8238 95.767 81.9082 96.1125 82.0769 96.3615C82.2483 96.6079 82.4906 96.7311 82.8039 96.7311C83.2029 96.7311 83.4948 96.553 83.6796 96.1968V94.3411C83.5002 93.9929 83.211 93.8189 82.812 93.8189C82.496 93.8189 82.2523 93.9447 82.0809 94.1965C81.9095 94.4455 81.8238 94.8217 81.8238 95.3252Z" fill="#4D648D"/>
<path d="M86.7123 97.446H85.7362V93.0999H86.7123V97.446ZM85.6759 91.9712C85.6759 91.8212 85.7228 91.6967 85.8165 91.5976C85.9129 91.4985 86.0495 91.449 86.2262 91.449C86.403 91.449 86.5396 91.4985 86.636 91.5976C86.7324 91.6967 86.7806 91.8212 86.7806 91.9712C86.7806 92.1184 86.7324 92.2416 86.636 92.3407C86.5396 92.4371 86.403 92.4853 86.2262 92.4853C86.0495 92.4853 85.9129 92.4371 85.8165 92.3407C85.7228 92.2416 85.6759 92.1184 85.6759 91.9712Z" fill="#4D648D"/>
<path d="M90.3756 97.446C90.3328 97.363 90.2953 97.2278 90.2631 97.0404C89.9525 97.3644 89.5722 97.5264 89.1224 97.5264C88.6859 97.5264 88.3297 97.4019 88.0539 97.1528C87.7781 96.9038 87.6402 96.5958 87.6402 96.229C87.6402 95.7657 87.8115 95.4109 88.1543 95.1645C88.4998 94.9155 88.9925 94.7909 89.6325 94.7909H90.231V94.5058C90.231 94.2808 90.1681 94.1014 90.0422 93.9675C89.9163 93.8309 89.7249 93.7626 89.4678 93.7626C89.2455 93.7626 89.0634 93.8189 88.9215 93.9313C88.7796 94.0411 88.7086 94.1817 88.7086 94.3531H87.7325C87.7325 94.1148 87.8115 93.8925 87.9695 93.6863C88.1275 93.4775 88.3418 93.3141 88.6122 93.1963C88.8854 93.0784 89.1893 93.0195 89.524 93.0195C90.0328 93.0195 90.4385 93.1481 90.7411 93.4051C91.0437 93.6595 91.199 94.0184 91.2071 94.4817V96.4418C91.2071 96.8328 91.262 97.1448 91.3718 97.3778V97.446H90.3756ZM89.3031 96.7431C89.4959 96.7431 89.6767 96.6962 89.8454 96.6025C90.0168 96.5088 90.1453 96.3829 90.231 96.2249V95.4055H89.7048C89.3433 95.4055 89.0715 95.4684 88.8894 95.5943C88.7073 95.7202 88.6162 95.8982 88.6162 96.1285C88.6162 96.316 88.6778 96.4659 88.801 96.5784C88.9269 96.6882 89.0942 96.7431 89.3031 96.7431Z" fill="#4D648D"/>
<path d="M96.4329 96.1727L97.9191 91.5976H99.0358L96.931 97.446H95.9469L93.8501 91.5976H94.9628L96.4329 96.1727Z" fill="#4D648D"/>
<path d="M102.016 97.446C101.973 97.363 101.936 97.2278 101.904 97.0404C101.593 97.3644 101.213 97.5264 100.763 97.5264C100.327 97.5264 99.9704 97.4019 99.6946 97.1528C99.4188 96.9038 99.2808 96.5958 99.2808 96.229C99.2808 95.7657 99.4522 95.4109 99.795 95.1645C100.14 94.9155 100.633 94.7909 101.273 94.7909H101.872V94.5058C101.872 94.2808 101.809 94.1014 101.683 93.9675C101.557 93.8309 101.366 93.7626 101.108 93.7626C100.886 93.7626 100.704 93.8189 100.562 93.9313C100.42 94.0411 100.349 94.1817 100.349 94.3531H99.3732C99.3732 94.1148 99.4522 93.8925 99.6102 93.6863C99.7682 93.4775 99.9824 93.3141 100.253 93.1963C100.526 93.0784 100.83 93.0195 101.165 93.0195C101.674 93.0195 102.079 93.1481 102.382 93.4051C102.684 93.6595 102.84 94.0184 102.848 94.4817V96.4418C102.848 96.8328 102.903 97.1448 103.012 97.3778V97.446H102.016ZM100.944 96.7431C101.137 96.7431 101.317 96.6962 101.486 96.6025C101.657 96.5088 101.786 96.3829 101.872 96.2249V95.4055H101.345C100.984 95.4055 100.712 95.4684 100.53 95.5943C100.348 95.7202 100.257 95.8982 100.257 96.1285C100.257 96.316 100.319 96.4659 100.442 96.5784C100.568 96.6882 100.735 96.7431 100.944 96.7431Z" fill="#4D648D"/>
<path d="M104.908 97.446H103.932V91.2762H104.908V97.446Z" fill="#4D648D"/>
<path d="M105.792 95.2408C105.792 94.5714 105.947 94.0344 106.258 93.6301C106.569 93.2231 106.985 93.0195 107.507 93.0195C107.968 93.0195 108.34 93.1802 108.624 93.5016V91.2762H109.6V97.446H108.716L108.668 96.9962C108.376 97.3496 107.987 97.5264 107.499 97.5264C106.99 97.5264 106.578 97.3215 106.262 96.9118C105.949 96.5021 105.792 95.9451 105.792 95.2408ZM106.768 95.3252C106.768 95.767 106.853 96.1125 107.021 96.3615C107.193 96.6079 107.435 96.7311 107.748 96.7311C108.147 96.7311 108.439 96.553 108.624 96.1968V94.3411C108.444 93.9929 108.155 93.8189 107.756 93.8189C107.44 93.8189 107.197 93.9447 107.025 94.1965C106.854 94.4455 106.768 94.8217 106.768 95.3252Z" fill="#4D648D"/>
<path d="M112.532 97.5264C111.914 97.5264 111.412 97.3322 111.026 96.9439C110.643 96.553 110.452 96.0335 110.452 95.3854V95.2649C110.452 94.8311 110.535 94.4442 110.701 94.1041C110.869 93.7613 111.105 93.4949 111.408 93.3047C111.71 93.1146 112.048 93.0195 112.42 93.0195C113.012 93.0195 113.468 93.2083 113.79 93.5859C114.114 93.9635 114.276 94.4977 114.276 95.1886V95.5823H111.436C111.465 95.9411 111.584 96.2249 111.793 96.4338C112.005 96.6427 112.27 96.7471 112.588 96.7471C113.036 96.7471 113.4 96.5664 113.681 96.2049L114.207 96.707C114.033 96.9667 113.8 97.1689 113.508 97.3135C113.219 97.4554 112.894 97.5264 112.532 97.5264ZM112.416 93.8028C112.148 93.8028 111.931 93.8965 111.765 94.084C111.602 94.2714 111.497 94.5325 111.452 94.8673H113.312V94.795C113.29 94.4683 113.203 94.2219 113.05 94.0559C112.898 93.8872 112.686 93.8028 112.416 93.8028ZM112.637 91.2762H113.749L112.637 92.4933H111.853L112.637 91.2762Z" fill="#4D648D"/>
<path d="M117.473 96.2651C117.473 96.091 117.401 95.9585 117.256 95.8674C117.114 95.7764 116.877 95.6961 116.545 95.6264C116.213 95.5568 115.936 95.4684 115.714 95.3613C115.226 95.1257 114.983 94.7842 114.983 94.337C114.983 93.9621 115.14 93.6488 115.456 93.3971C115.772 93.1454 116.174 93.0195 116.662 93.0195C117.181 93.0195 117.6 93.1481 117.919 93.4051C118.24 93.6622 118.401 93.9956 118.401 94.4053H117.425C117.425 94.2179 117.355 94.0626 117.216 93.9394C117.077 93.8135 116.892 93.7506 116.662 93.7506C116.447 93.7506 116.272 93.8001 116.135 93.8992C116.001 93.9983 115.934 94.1308 115.934 94.2969C115.934 94.4468 115.997 94.5633 116.123 94.6463C116.249 94.7294 116.504 94.8137 116.886 94.8994C117.269 94.9824 117.569 95.0828 117.786 95.2007C118.006 95.3158 118.168 95.4551 118.272 95.6184C118.379 95.7818 118.433 95.9799 118.433 96.2129C118.433 96.6039 118.271 96.9212 117.947 97.1649C117.623 97.4059 117.198 97.5264 116.674 97.5264C116.317 97.5264 116 97.4621 115.722 97.3336C115.443 97.205 115.226 97.0283 115.071 96.8034C114.916 96.5784 114.838 96.3361 114.838 96.0763H115.786C115.799 96.3066 115.886 96.4847 116.047 96.6106C116.208 96.7337 116.421 96.7953 116.686 96.7953C116.943 96.7953 117.138 96.7471 117.272 96.6507C117.406 96.5516 117.473 96.4231 117.473 96.2651Z" fill="#4D648D"/>
<defs>
<filter id="filter0_d" x="157.705" y="172.683" width="347.568" height="73.3542" filterUnits="userSpaceOnUse" color-interpolation-filters="sRGB">
<feFlood flood-opacity="0" result="BackgroundImageFix"/>
<feColorMatrix in="SourceAlpha" type="matrix" values="0 0 0 0 0 0 0 0 0 0 0 0 0 0 0 0 0 0 127 0"/>
<feOffset dy="2"/>
<feGaussianBlur stdDeviation="2"/>
<feColorMatrix type="matrix" values="0 0 0 0 0 0 0 0 0 0 0 0 0 0 0 0 0 0 0.0285457 0"/>
<feBlend mode="normal" in2="BackgroundImageFix" result="effect1_dropShadow"/>
<feBlend mode="normal" in="SourceGraphic" in2="effect1_dropShadow" result="shape"/>
</filter>
<filter id="filter1_d" x="157.705" y="257.232" width="347.568" height="29.48" filterUnits="userSpaceOnUse" color-interpolation-filters="sRGB">
<feFlood flood-opacity="0" result="BackgroundImageFix"/>
<feColorMatrix in="SourceAlpha" type="matrix" values="0 0 0 0 0 0 0 0 0 0 0 0 0 0 0 0 0 0 127 0"/>
<feOffset dy="2"/>
<feGaussianBlur stdDeviation="2"/>
<feColorMatrix type="matrix" values="0 0 0 0 0 0 0 0 0 0 0 0 0 0 0 0 0 0 0.0285457 0"/>
<feBlend mode="normal" in2="BackgroundImageFix" result="effect1_dropShadow"/>
<feBlend mode="normal" in="SourceGraphic" in2="effect1_dropShadow" result="shape"/>
</filter>
<filter id="filter2_d" x="136.936" y="107.496" width="392.763" height="56.8511" filterUnits="userSpaceOnUse" color-interpolation-filters="sRGB">
<feFlood flood-opacity="0" result="BackgroundImageFix"/>
<feColorMatrix in="SourceAlpha" type="matrix" values="0 0 0 0 0 0 0 0 0 0 0 0 0 0 0 0 0 0 127 0"/>
<feOffset dy="1"/>
<feGaussianBlur stdDeviation="8.5"/>
<feColorMatrix type="matrix" values="0 0 0 0 0 0 0 0 0 0 0 0 0 0 0 0 0 0 0.145542 0"/>
<feBlend mode="normal" in2="BackgroundImageFix" result="effect1_dropShadow"/>
<feBlend mode="normal" in="SourceGraphic" in2="effect1_dropShadow" result="shape"/>
</filter>
<filter id="filter3_d" x="440.602" y="124.696" width="69.241" height="24.4528" filterUnits="userSpaceOnUse" color-interpolation-filters="sRGB">
<feFlood flood-opacity="0" result="BackgroundImageFix"/>
<feColorMatrix in="SourceAlpha" type="matrix" values="0 0 0 0 0 0 0 0 0 0 0 0 0 0 0 0 0 0 127 0"/>
<feOffset dy="2"/>
<feGaussianBlur stdDeviation="2"/>
<feColorMatrix type="matrix" values="0 0 0 0 0 0 0 0 0 0 0 0 0 0 0 0 0 0 0.131529 0"/>
<feBlend mode="normal" in2="BackgroundImageFix" result="effect1_dropShadow"/>
<feBlend mode="normal" in="SourceGraphic" in2="effect1_dropShadow" result="shape"/>
</filter>
<filter id="filter4_d" x="500.726" y="107.496" width="207.669" height="56.8511" filterUnits="userSpaceOnUse" color-interpolation-filters="sRGB">
<feFlood flood-opacity="0" result="BackgroundImageFix"/>
<feColorMatrix in="SourceAlpha" type="matrix" values="0 0 0 0 0 0 0 0 0 0 0 0 0 0 0 0 0 0 127 0"/>
<feOffset dy="1"/>
<feGaussianBlur stdDeviation="8.5"/>
<feColorMatrix type="matrix" values="0 0 0 0 0 0 0 0 0 0 0 0 0 0 0 0 0 0 0.145542 0"/>
<feBlend mode="normal" in2="BackgroundImageFix" result="effect1_dropShadow"/>
<feBlend mode="normal" in="SourceGraphic" in2="effect1_dropShadow" result="shape"/>
</filter>
<filter id="filter5_d" x="27.707" y="62.7084" width="680.687" height="70.5618" filterUnits="userSpaceOnUse" color-interpolation-filters="sRGB">
<feFlood flood-opacity="0" result="BackgroundImageFix"/>
<feColorMatrix in="SourceAlpha" type="matrix" values="0 0 0 0 0 0 0 0 0 0 0 0 0 0 0 0 0 0 127 0"/>
<feOffset dy="1"/>
<feGaussianBlur stdDeviation="8.5"/>
<feColorMatrix type="matrix" values="0 0 0 0 0 0 0 0 0 0 0 0 0 0 0 0 0 0 0.145542 0"/>
<feBlend mode="normal" in2="BackgroundImageFix" result="effect1_dropShadow"/>
<feBlend mode="normal" in="SourceGraphic" in2="effect1_dropShadow" result="shape"/>
</filter>
<filter id="filter6_d" x="27.25" y="107.496" width="139.115" height="56.8511" filterUnits="userSpaceOnUse" color-interpolation-filters="sRGB">
<feFlood flood-opacity="0" result="BackgroundImageFix"/>
<feColorMatrix in="SourceAlpha" type="matrix" values="0 0 0 0 0 0 0 0 0 0 0 0 0 0 0 0 0 0 127 0"/>
<feOffset dy="1"/>
<feGaussianBlur stdDeviation="8.5"/>
<feColorMatrix type="matrix" values="0 0 0 0 0 0 0 0 0 0 0 0 0 0 0 0 0 0 0.145542 0"/>
<feBlend mode="normal" in2="BackgroundImageFix" result="effect1_dropShadow"/>
<feBlend mode="normal" in="SourceGraphic" in2="effect1_dropShadow" result="shape"/>
</filter>
<filter id="filter7_d" x="518.752" y="153.945" width="170.243" height="24.4528" filterUnits="userSpaceOnUse" color-interpolation-filters="sRGB">
<feFlood flood-opacity="0" result="BackgroundImageFix"/>
<feColorMatrix in="SourceAlpha" type="matrix" values="0 0 0 0 0 0 0 0 0 0 0 0 0 0 0 0 0 0 127 0"/>
<feOffset dy="2"/>
<feGaussianBlur stdDeviation="2"/>
<feColorMatrix type="matrix" values="0 0 0 0 0 0 0 0 0 0 0 0 0 0 0 0 0 0 0.0933949 0"/>
<feBlend mode="normal" in2="BackgroundImageFix" result="effect1_dropShadow"/>
<feBlend mode="normal" in="SourceGraphic" in2="effect1_dropShadow" result="shape"/>
</filter>
<filter id="filter8_d" x="518.752" y="172.683" width="170.243" height="24.4528" filterUnits="userSpaceOnUse" color-interpolation-filters="sRGB">
<feFlood flood-opacity="0" result="BackgroundImageFix"/>
<feColorMatrix in="SourceAlpha" type="matrix" values="0 0 0 0 0 0 0 0 0 0 0 0 0 0 0 0 0 0 127 0"/>
<feOffset dy="2"/>
<feGaussianBlur stdDeviation="2"/>
<feColorMatrix type="matrix" values="0 0 0 0 0 0 0 0 0 0 0 0 0 0 0 0 0 0 0.0933949 0"/>
<feBlend mode="normal" in2="BackgroundImageFix" result="effect1_dropShadow"/>
<feBlend mode="normal" in="SourceGraphic" in2="effect1_dropShadow" result="shape"/>
</filter>
<linearGradient id="paint0_linear" x1="369" y1="0" x2="144.769" y2="414.563" gradientUnits="userSpaceOnUse">
<stop stop-color="#FDFDFF"/>
<stop offset="1" stop-color="white"/>
</linearGradient>
<linearGradient id="paint1_linear" x1="26.3537" y1="22.8875" x2="395.304" y2="633.933" gradientUnits="userSpaceOnUse">
<stop stop-color="#7DB8FF"/>
<stop offset="0.0621" stop-color="#7CB6FF"/>
<stop offset="1" stop-color="#7194FF"/>
</linearGradient>
<linearGradient id="paint2_linear" x1="125.305" y1="134.73" x2="240.819" y2="190.036" gradientUnits="userSpaceOnUse">
<stop stop-color="#A1C0FF"/>
<stop offset="1" stop-color="#7093FF"/>
</linearGradient>
<linearGradient id="paint3_linear" x1="504.002" y1="134.102" x2="539.282" y2="168.949" gradientUnits="userSpaceOnUse">
<stop stop-color="#A1C0FF"/>
<stop offset="1" stop-color="#7093FF"/>
</linearGradient>
<linearGradient id="paint4_linear" x1="36.0489" y1="132.684" x2="48.7676" y2="153.404" gradientUnits="userSpaceOnUse">
<stop stop-color="#A1C0FF"/>
<stop offset="1" stop-color="#7093FF"/>
</linearGradient>
<linearGradient id="paint5_linear" x1="577.509" y1="152.303" x2="577.743" y2="160.792" gradientUnits="userSpaceOnUse">
<stop stop-color="#7093FF"/>
<stop offset="1" stop-color="#243F6D"/>
</linearGradient>
<linearGradient id="paint6_linear" x1="577.509" y1="171.041" x2="577.743" y2="179.53" gradientUnits="userSpaceOnUse">
<stop stop-color="#7093FF"/>
<stop offset="1" stop-color="#243F6D"/>
</linearGradient>
<clipPath id="clip0">
<rect x="675.752" y="32.3512" width="14.0561" height="16.2755" fill="white"/>
</clipPath>
</defs>
</svg>
