<svg width="1242" height="1232" viewBox="0 0 1242 1232" fill="none" xmlns="http://www.w3.org/2000/svg">
<path d="M642.704 1098.84C934.049 1098.84 1170.23 862.675 1170.23 571.354C1170.23 280.034 934.049 43.873 642.704 43.873C351.358 43.873 115.175 280.034 115.175 571.354C115.175 862.675 351.358 1098.84 642.704 1098.84Z" stroke="#D1E8F7" stroke-width="1.91649" stroke-miterlimit="10"/>
<path d="M213.549 280.212C223.811 280.212 232.13 271.894 232.13 261.633C232.13 251.371 223.811 243.055 213.549 243.055C203.288 243.055 194.969 251.371 194.969 261.633C194.969 271.894 203.288 280.212 213.549 280.212Z" fill="#FEBB94"/>
<path d="M1170.23 610.022C1180.49 610.022 1188.82 601.705 1188.82 591.444C1188.82 581.183 1180.49 572.864 1170.23 572.864C1159.97 572.864 1151.65 581.183 1151.65 591.444C1151.65 601.705 1159.97 610.022 1170.23 610.022Z" fill="#5661AE"/>
<path d="M664.341 1117.41C674.602 1117.41 682.921 1109.1 682.921 1098.84C682.921 1088.58 674.602 1080.26 664.341 1080.26C654.079 1080.26 645.76 1088.58 645.76 1098.84C645.76 1109.1 654.079 1117.41 664.341 1117.41Z" fill="#3D4CDF"/>
<path d="M654.925 968.316C872.261 968.316 1048.45 792.146 1048.45 574.829C1048.45 357.51 872.261 181.341 654.925 181.341C437.588 181.341 261.402 357.51 261.402 574.829C261.402 792.146 437.588 968.316 654.925 968.316Z" stroke="#D1E8F7" stroke-width="1.42966" stroke-miterlimit="10"/>
<path d="M1041.7 667.95C1049.36 667.95 1055.56 661.745 1055.56 654.091C1055.56 646.436 1049.36 640.231 1041.7 640.231C1034.05 640.231 1027.84 646.436 1027.84 654.091C1027.84 661.745 1034.05 667.95 1041.7 667.95Z" fill="#FEBB94"/>
<path d="M289.939 736.562C297.595 736.562 303.8 730.357 303.8 722.702C303.8 715.049 297.595 708.844 289.939 708.844C282.285 708.844 276.08 715.049 276.08 722.702C276.08 730.357 282.285 736.562 289.939 736.562Z" fill="#5661AE"/>
<path d="M478.653 236.513C486.309 236.513 492.514 230.308 492.514 222.653C492.514 214.999 486.309 208.794 478.653 208.794C470.999 208.794 464.793 214.999 464.793 222.653C464.793 230.308 470.999 236.513 478.653 236.513Z" fill="#3D4CDF"/>
<path d="M859.739 1010.56H405.282C385.565 1010.56 371.119 994.582 373.015 974.867L450.594 167.9C452.488 148.185 470.007 132.203 489.724 132.203H944.181C963.897 132.203 978.344 148.185 976.448 167.9L898.869 974.867C896.974 994.582 879.454 1010.56 859.739 1010.56Z" fill="#3D4CDF"/>
<path d="M827.71 1010.56H373.253C353.538 1010.56 339.092 994.582 340.986 974.867L418.565 167.9C420.461 148.185 437.98 132.203 457.697 132.203H912.154C931.869 132.203 946.315 148.185 944.421 167.9L866.842 974.867C864.946 994.582 847.427 1010.56 827.71 1010.56Z" fill="url(#paint0_linear_578_3302)"/>
<path d="M810.488 983.737H395.635C377.363 983.737 363.974 968.927 365.73 950.657L438.654 192.111C440.412 173.84 456.647 159.03 474.919 159.03H889.772C908.044 159.03 921.433 173.84 919.677 192.111L846.753 950.657C844.995 968.927 828.76 983.737 810.488 983.737Z" fill="white"/>
<path d="M843.757 504.104L398.725 503.709C396.907 503.759 395.1 503.419 393.423 502.714C391.748 502.01 390.24 500.955 389.005 499.622C387.768 498.289 386.831 496.707 386.254 494.983C385.678 493.258 385.476 491.43 385.663 489.621L409.655 223.234C410.089 219.389 411.916 215.838 414.79 213.248C417.662 210.656 421.383 209.208 425.252 209.171L870.283 209.567C872.101 209.518 873.909 209.856 875.586 210.561C877.261 211.267 878.769 212.32 880.004 213.654C881.241 214.988 882.178 216.569 882.754 218.294C883.331 220.017 883.533 221.845 883.346 223.654L859.353 490.043C858.92 493.886 857.093 497.438 854.219 500.029C851.346 502.619 847.625 504.069 843.757 504.104Z" fill="url(#paint1_linear_578_3302)"/>
<path d="M829.744 791.14H641.647C640.26 791.168 638.882 790.896 637.608 790.346C636.334 789.796 635.194 788.978 634.263 787.949C633.334 786.919 632.635 785.703 632.216 784.379C631.795 783.057 631.666 781.66 631.832 780.283L654.671 542.712C655 539.766 656.389 537.041 658.579 535.043C660.769 533.046 663.609 531.914 666.573 531.855H854.672C856.059 531.827 857.436 532.098 858.709 532.649C859.983 533.199 861.123 534.017 862.054 535.046C862.985 536.076 863.684 537.292 864.103 538.614C864.522 539.938 864.653 541.335 864.485 542.712L841.646 780.283C841.317 783.228 839.928 785.953 837.738 787.95C835.55 789.947 832.708 791.081 829.744 791.14Z" fill="url(#paint2_linear_578_3302)"/>
<path d="M784.901 660.083C806.115 639.868 808.423 607.86 790.058 588.593C771.692 569.326 739.609 570.095 718.396 590.31C697.184 610.526 694.875 642.533 713.241 661.801C731.606 681.068 763.689 680.299 784.901 660.083Z" stroke="#EF6A77" stroke-width="11.6898" stroke-miterlimit="10"/>
<path d="M727.803 671.928C710.206 664.33 699.053 646.268 701.078 625.196C703.763 597.269 728.58 574.63 756.51 574.63" stroke="white" stroke-width="11.6898" stroke-miterlimit="10" stroke-linecap="round"/>
<path d="M723.628 715.396H762.325" stroke="white" stroke-width="5.98374" stroke-miterlimit="10" stroke-linecap="round"/>
<path d="M719.414 759.218H758.113" stroke="white" stroke-width="5.98374" stroke-miterlimit="10" stroke-linecap="round"/>
<path opacity="0.4" d="M700.906 737.06H780.881" stroke="white" stroke-width="5.98374" stroke-miterlimit="10" stroke-linecap="round"/>
<path d="M599.712 791.14H411.614C410.227 791.168 408.849 790.896 407.575 790.346C406.303 789.796 405.162 788.978 404.23 787.949C403.301 786.919 402.602 785.703 402.183 784.379C401.762 783.057 401.633 781.66 401.799 780.283L424.638 542.712C424.968 539.766 426.356 537.041 428.546 535.043C430.736 533.046 433.577 531.914 436.54 531.855H624.639C626.026 531.827 627.403 532.098 628.677 532.649C629.95 533.199 631.09 534.017 632.021 535.046C632.952 536.076 633.651 537.292 634.07 538.614C634.489 539.938 634.62 541.335 634.453 542.712L611.613 780.283C611.284 783.228 609.896 785.953 607.705 787.95C605.517 789.947 602.675 791.081 599.712 791.14Z" fill="#FEBB94"/>
<path d="M554.869 660.083C576.081 639.868 578.389 607.86 560.024 588.593C541.66 569.326 509.575 570.095 488.362 590.31C467.15 610.526 464.842 642.533 483.207 661.801C501.572 681.068 533.657 680.299 554.869 660.083Z" stroke="#EF6A77" stroke-width="11.6898" stroke-miterlimit="10"/>
<path d="M572.186 625.196C569.502 653.123 544.685 675.762 516.755 675.762C488.825 675.762 468.36 653.123 471.046 625.196C473.73 597.269 498.547 574.63 526.477 574.63" stroke="white" stroke-width="11.6898" stroke-miterlimit="10" stroke-linecap="round"/>
<path d="M493.596 715.396H532.293" stroke="white" stroke-width="5.98374" stroke-miterlimit="10" stroke-linecap="round"/>
<path d="M489.381 759.218H528.081" stroke="white" stroke-width="5.98374" stroke-miterlimit="10" stroke-linecap="round"/>
<path opacity="0.4" d="M470.874 737.06H550.849" stroke="white" stroke-width="5.98374" stroke-miterlimit="10" stroke-linecap="round"/>
<path d="M813.977 961.062H394.71C393.395 961.087 392.09 960.831 390.884 960.309C389.676 959.787 388.595 959.012 387.713 958.037C386.832 957.062 386.17 955.909 385.771 954.654C385.374 953.401 385.251 952.078 385.408 950.772L397.92 820.635C398.232 817.844 399.549 815.26 401.624 813.367C403.699 811.474 406.391 810.401 409.2 810.345H828.466C829.781 810.318 831.085 810.576 832.293 811.098C833.499 811.62 834.58 812.393 835.462 813.37C836.344 814.345 837.005 815.498 837.404 816.751C837.801 818.006 837.925 819.329 837.767 820.635L825.256 950.772C824.943 953.563 823.628 956.146 821.553 958.039C819.478 959.933 816.784 961.006 813.977 961.062Z" fill="url(#paint3_linear_578_3302)"/>
<path d="M423.907 930.888L429.821 869.365" stroke="white" stroke-width="11.6898" stroke-miterlimit="10" stroke-linecap="round"/>
<path d="M467.305 887.79L463.161 930.888" stroke="white" stroke-width="11.6898" stroke-miterlimit="10" stroke-linecap="round"/>
<path d="M505.143 902.509L502.415 930.888" stroke="white" stroke-width="11.6898" stroke-miterlimit="10" stroke-linecap="round"/>
<path d="M549.119 853.377L541.668 930.888" stroke="white" stroke-width="11.6898" stroke-miterlimit="10" stroke-linecap="round"/>
<path d="M583.65 902.509L580.922 930.888" stroke="white" stroke-width="11.6898" stroke-miterlimit="10" stroke-linecap="round"/>
<path d="M627.298 856.801L620.175 930.888" stroke="white" stroke-width="11.6898" stroke-miterlimit="10" stroke-linecap="round"/>
<path d="M662.387 900.126L659.429 930.888" stroke="white" stroke-width="11.6898" stroke-miterlimit="10" stroke-linecap="round"/>
<path d="M700.258 914.501L698.683 930.888" stroke="white" stroke-width="11.6898" stroke-miterlimit="10" stroke-linecap="round"/>
<path d="M743.85 869.365L737.936 930.888" stroke="white" stroke-width="11.6898" stroke-miterlimit="10" stroke-linecap="round"/>
<path d="M785.356 845.94L777.189 930.888" stroke="white" stroke-width="11.6898" stroke-miterlimit="10" stroke-linecap="round"/>
<path d="M434.772 463.256L458.335 500.163C459.399 501.829 459.76 503.847 459.343 505.778C458.923 507.711 457.76 509.398 456.102 510.476L452.294 512.949C445.92 517.091 438.258 518.778 430.734 517.697C423.209 516.614 416.333 512.838 411.383 507.067L380.115 470.606L434.772 463.256Z" fill="#FFCCB3"/>
<path d="M416.793 477.458C416.793 477.458 425.518 507.413 443.046 517.023C447.597 515.261 451.969 513.068 456.102 510.475L436.448 477.458" fill="#FCBA9F"/>
<path d="M13.686 612.169L106.238 567.82C114.959 563.642 122.332 557.1 127.521 548.94L216.93 408.306C222.496 399.551 230.569 392.672 240.099 388.568L368.875 333.093L341.305 541.563L340.82 549.264C340.82 549.264 306.76 637.471 223.278 669.516L89.8075 751.145L13.686 612.169Z" fill="#FFCCB3"/>
<path d="M114.407 562.927C114.407 562.927 158.188 672.194 223.279 669.516L181.72 694.933C181.72 694.933 40.6628 668.769 93.4643 573.725L114.407 562.927Z" fill="#FCBA9F"/>
<path d="M348.942 371.673C348.942 371.673 303.411 399.261 305.826 463.255L360.504 442.824L348.942 371.673Z" fill="#FCBA9F"/>
<path d="M463.32 463.256L486.882 500.163C487.946 501.829 488.308 503.847 487.89 505.778C487.472 507.711 486.307 509.398 484.65 510.476L480.842 512.949C474.467 517.091 466.806 518.778 459.281 517.697C451.756 516.614 444.88 512.838 439.931 507.067L408.664 470.606L463.32 463.256Z" fill="#FFCCB3"/>
<path d="M811.66 477.81L366.629 477.414C364.811 477.463 363.003 477.124 361.328 476.418C359.651 475.714 358.145 474.66 356.908 473.327C355.671 471.993 354.734 470.412 354.157 468.687C353.581 466.962 353.379 465.135 353.566 463.326L377.558 196.938C377.994 193.093 379.819 189.542 382.693 186.952C385.566 184.362 389.287 182.912 393.156 182.875L838.187 183.272C840.004 183.222 841.812 183.562 843.489 184.266C845.164 184.971 846.672 186.025 847.907 187.358C849.144 188.692 850.081 190.274 850.658 191.998C851.234 193.723 851.436 195.551 851.251 197.358L827.258 463.747C826.823 467.591 824.996 471.143 822.124 473.733C819.25 476.323 815.528 477.773 811.66 477.81Z" fill="#3D4CDF"/>
<path d="M396.094 340.912C396.094 340.912 436.042 332.834 446.793 351.578C457.544 370.321 466.814 405.52 495.419 400.983C524.024 396.445 545.92 304.417 574.041 305.257C602.163 306.096 592.248 366.369 622.858 367.21C653.466 368.051 648.022 333.543 668.423 334.505C693.17 335.671 683.945 407.176 716.212 408.019C748.479 408.862 753.744 313.568 802.523 315.24" stroke="white" stroke-width="7.56507" stroke-miterlimit="10" stroke-linecap="round"/>
<path d="M418.815 227.49L497.112 227.559" stroke="white" stroke-width="11.9991" stroke-miterlimit="10" stroke-linecap="round"/>
<path opacity="0.4" d="M415.583 263.378L577.389 263.523" stroke="white" stroke-width="11.9991" stroke-miterlimit="10" stroke-linecap="round"/>
<path d="M264.085 476.489L321.174 451.344L379.556 411.496C394.91 401.017 426.974 396.296 438.517 410.865C450.259 425.684 437.07 454.998 422.829 467.432L368.875 514.543L340.818 549.264L264.085 476.489Z" fill="#FFCCB3"/>
<path d="M380.115 426.628C380.115 426.628 387.822 456.345 407.805 461.487L428.999 443.582C431.148 441.982 432.949 439.961 434.291 437.643C435.634 435.324 436.49 432.756 436.808 430.097C437.126 427.437 436.899 424.74 436.14 422.17C435.381 419.601 434.108 417.212 432.396 415.152C429.405 411.552 425.234 409.131 420.624 408.322C416.015 407.515 411.267 408.371 407.231 410.738L380.115 426.628Z" stroke="#FF967C" stroke-width="3" stroke-linecap="round"/>
<path d="M109.755 564.146C109.755 564.146 98.6914 643.262 194.969 688.565C194.969 688.565 125.808 752.002 99.1429 762.669C72.4797 773.334 -27.7032 664.33 7.92921 602.461C17.922 585.111 109.755 564.146 109.755 564.146Z" fill="#3D4CDF"/>
<path d="M474.552 480.85C474.552 480.85 437.027 481.615 423.965 488.451L414.537 477.457L472.387 477.458L474.552 480.85Z" fill="#FCBA9F"/>
<path d="M1165.49 477.81H898.673C878.574 477.81 863.723 461.517 865.503 441.42L901.302 37.1635C903.081 17.0678 920.817 0.775391 940.916 0.775391H1207.73C1227.84 0.775391 1242.68 17.0678 1240.9 37.1635L1205.1 441.42C1203.32 461.517 1185.58 477.81 1165.49 477.81Z" fill="#FEBB94"/>
<path d="M1127.29 229.042C1169.55 188.626 1173.8 124.516 1136.81 85.8499C1099.81 47.1836 1035.57 48.6014 993.323 89.0178C951.075 129.434 946.815 193.544 983.811 232.21C1020.81 270.878 1085.05 269.458 1127.29 229.042Z" fill="white"/>
<path d="M1065.96 162.176L1132.94 223.258C1132.94 223.258 1148.18 206.881 1152.72 195.177L1065.96 162.176Z" fill="url(#paint4_linear_578_3302)"/>
<path d="M1070.42 44.8423L1060.9 152.317C1060.69 154.274 1061.06 156.251 1061.96 158.004C1062.86 159.756 1064.25 161.206 1065.96 162.176L1156.84 212.766C1156.84 212.766 1210.81 62.226 1070.42 44.8423Z" fill="#3D4CDF"/>
<path d="M928.177 334.727H1038.71" stroke="white" stroke-width="12" stroke-miterlimit="10" stroke-linecap="round"/>
<path d="M920.085 426.104H1030.62" stroke="white" stroke-width="12" stroke-miterlimit="10" stroke-linecap="round"/>
<path opacity="0.4" d="M924.177 379.899H1152.61" stroke="white" stroke-width="12" stroke-miterlimit="10" stroke-linecap="round"/>
<path d="M837.354 775.623C837.354 775.623 872.985 766.121 891.948 786.538C891.948 786.538 926.034 780.35 939.892 799.31C939.892 799.31 970.11 801.06 978.862 813.385C986.139 814.389 993.021 817.303 998.806 821.831C1004.59 826.358 1009.07 832.338 1011.8 839.16C1020.06 858.634 1013.05 971.218 1004.84 1011.56C1002.78 1021.65 1003.49 1032.11 1006.88 1041.83L1027.77 1101.86L883.218 1162.29L848.9 1072.78C848.9 1072.78 807.127 1005.66 801.158 993.725C795.191 981.792 805.306 882.765 784.934 820.903L837.354 775.623Z" fill="#FFCCB3"/>
<path d="M867.544 1121.41L863.375 1110.53C863.375 1110.53 938.38 1105.74 1006.87 1041.83L1013.43 1060.66C1013.43 1060.66 1004.97 1099.54 966.448 1117.87C927.928 1136.2 867.544 1121.41 867.544 1121.41Z" fill="#FCBA9F"/>
<path d="M867.544 1121.41C867.544 1121.41 958.335 1129.68 1013.43 1060.66C1013.43 1060.66 1033.77 1071.32 1065 1149.39C1074.59 1173.36 914.405 1258.73 888.505 1223.25C888.505 1223.25 866.146 1175.95 867.544 1121.41Z" fill="#5661AE"/>
<path d="M793.817 858.246C793.817 858.246 790.686 874.86 775.879 874.861C766.219 874.861 724.346 862.211 696.397 853.417C688.793 851.024 680.635 851.024 673.031 853.417C665.427 855.81 658.741 860.481 653.878 866.796L652.179 869.002C651.335 870.095 650.723 871.348 650.377 872.686C650.032 874.023 649.963 875.416 650.171 876.78C650.38 878.145 650.864 879.454 651.594 880.626C652.323 881.8 653.284 882.812 654.416 883.601C678.078 900.119 741.972 944.949 750.144 953.12C760.201 963.175 816.203 1019.55 816.203 1019.55L793.817 858.246Z" fill="#FFCCB3"/>
<path d="M790.418 841.602C790.418 841.602 820.684 882.564 816.204 891.531C811.723 900.498 764.793 873.082 764.793 873.082C764.793 873.082 802.663 882.823 790.418 841.602Z" fill="#FCBA9F"/>
<path d="M784.933 820.903L734.006 666.261C732.26 660.956 731.595 655.354 732.054 649.788C732.513 644.223 734.085 638.805 736.677 633.859C739.268 628.911 742.828 624.534 747.142 620.988C751.457 617.443 756.44 614.798 761.796 613.214C766.18 611.919 770.885 612.269 775.029 614.201C779.172 616.134 782.465 619.513 784.288 623.705L855.733 787.922L784.933 820.903Z" fill="#FFCCB3"/>
<path d="M762.849 753.842C764.292 756.213 766.21 758.26 768.481 759.854C770.753 761.45 773.329 762.557 776.05 763.11" stroke="#FF967C" stroke-width="3" stroke-linecap="round"/>
<path d="M781.172 674.676C787.369 671.931 794.204 668.094 797.144 663.615L778.181 618.593C777.775 617.622 777.167 616.75 776.398 616.032C775.629 615.315 774.717 614.769 773.721 614.431C772.726 614.092 771.669 613.97 770.622 614.072C769.575 614.173 768.562 614.495 767.65 615.017C760.901 618.912 751.994 625.939 751.648 636.028L764.474 667.942C765.104 669.501 766.041 670.916 767.229 672.104C768.417 673.293 769.834 674.229 771.391 674.857C772.951 675.487 774.62 675.794 776.301 675.763C777.981 675.732 779.638 675.362 781.172 674.676Z" stroke="#FF967C" stroke-width="3" stroke-linecap="round"/>
<path d="M849.987 774.712L867.545 813.385" stroke="#FF967C" stroke-width="3" stroke-linecap="round"/>
<path d="M892.65 787.33C901.572 800.119 906.354 815.339 906.349 830.934" stroke="#FF967C" stroke-width="3" stroke-linecap="round"/>
<path d="M940.73 800.033C940.73 800.033 949.568 820.301 950.298 836.329" stroke="#FF967C" stroke-width="3" stroke-linecap="round"/>
<path d="M980.099 814.587C983.58 823.14 984.93 832.411 984.032 841.601" stroke="#FF967C" stroke-width="3" stroke-linecap="round"/>
<path d="M691.812 902.509C691.812 902.509 702.27 889.229 698.683 882.568C695.095 875.907 679.138 866.487 669.916 867.512C665.515 868.175 661.269 869.621 657.38 871.783C656.673 872.152 656.075 872.701 655.646 873.374C655.216 874.046 654.969 874.819 654.93 875.616C654.891 876.413 655.061 877.207 655.422 877.917C655.786 878.629 656.327 879.234 656.995 879.67L691.812 902.509Z" stroke="#FF967C" stroke-width="3" stroke-linecap="round"/>
<path d="M511.972 1064.44H193.368C192.053 1064.46 190.748 1064.21 189.541 1063.68C188.333 1063.16 187.252 1062.39 186.371 1061.41C185.488 1060.44 184.827 1059.28 184.429 1058.03C184.031 1056.78 183.907 1055.45 184.066 1054.15L196.577 924.009C196.889 921.218 198.205 918.635 200.281 916.742C202.356 914.85 205.048 913.776 207.857 913.72H526.463C527.778 913.694 529.082 913.951 530.289 914.473C531.496 914.994 532.577 915.769 533.46 916.744C534.341 917.72 535.003 918.873 535.401 920.126C535.798 921.381 535.922 922.705 535.764 924.009L523.254 1054.15C522.94 1056.94 521.624 1059.52 519.549 1061.41C517.475 1063.31 514.782 1064.38 511.972 1064.44Z" fill="#FEBB94"/>
<path d="M223.278 947.658H419.904" stroke="#EF6A77" stroke-width="11.6898" stroke-miterlimit="10" stroke-linecap="round"/>
<path d="M223.278 947.658H359.914" stroke="white" stroke-width="11.6898" stroke-miterlimit="10" stroke-linecap="round"/>
<path d="M220.337 989.079H416.962" stroke="#EF6A77" stroke-width="11.6898" stroke-miterlimit="10" stroke-linecap="round"/>
<path d="M220.337 989.079H302.027" stroke="white" stroke-width="11.6898" stroke-miterlimit="10" stroke-linecap="round"/>
<path d="M213.908 1030.5H410.533" stroke="#EF6A77" stroke-width="11.6898" stroke-miterlimit="10" stroke-linecap="round"/>
<path d="M213.908 1030.5H263.865" stroke="white" stroke-width="11.6898" stroke-miterlimit="10" stroke-linecap="round"/>
<path d="M489.505 959.405C495.994 959.405 501.254 954.145 501.254 947.658C501.254 941.169 495.994 935.91 489.505 935.91C483.017 935.91 477.757 941.169 477.757 947.658C477.757 954.145 483.017 959.405 489.505 959.405Z" fill="white"/>
<path d="M485.695 999.014C492.185 999.014 497.444 993.754 497.444 987.267C497.444 980.778 492.185 975.519 485.695 975.519C479.206 975.519 473.946 980.778 473.946 987.267C473.946 993.754 479.206 999.014 485.695 999.014Z" fill="white"/>
<path d="M481.443 1042.25C487.931 1042.25 493.192 1036.99 493.192 1030.5C493.192 1024.01 487.931 1018.75 481.443 1018.75C474.954 1018.75 469.694 1024.01 469.694 1030.5C469.694 1036.99 474.954 1042.25 481.443 1042.25Z" fill="white"/>
<defs>
<linearGradient id="paint0_linear_578_3302" x1="572.807" y1="-147.271" x2="990.213" y2="1944.65" gradientUnits="userSpaceOnUse">
<stop stop-color="white"/>
<stop offset="1" stop-color="#94B9FF"/>
</linearGradient>
<linearGradient id="paint1_linear_578_3302" x1="622.111" y1="208.469" x2="662.583" y2="838.543" gradientUnits="userSpaceOnUse">
<stop stop-color="white"/>
<stop offset="1" stop-color="#94B9FF"/>
</linearGradient>
<linearGradient id="paint2_linear_578_3302" x1="742.364" y1="531.236" x2="808.564" y2="1079.45" gradientUnits="userSpaceOnUse">
<stop stop-color="white"/>
<stop offset="1" stop-color="#94B9FF"/>
</linearGradient>
<linearGradient id="paint3_linear_578_3302" x1="600.323" y1="809.984" x2="611.983" y2="1132.88" gradientUnits="userSpaceOnUse">
<stop stop-color="white"/>
<stop offset="1" stop-color="#94B9FF"/>
</linearGradient>
<linearGradient id="paint4_linear_578_3302" x1="1107.18" y1="162.031" x2="1117.13" y2="292.3" gradientUnits="userSpaceOnUse">
<stop stop-color="white"/>
<stop offset="1" stop-color="#94B9FF"/>
</linearGradient>
</defs>
</svg>
