<svg id="Capa_1" data-name="Capa 1" xmlns="http://www.w3.org/2000/svg" xmlns:xlink="http://www.w3.org/1999/xlink" viewBox="0 0 610 368"><defs><style>.cls-1,.cls-13,.cls-34{fill:#fff;}.cls-2,.cls-5{fill:none;}.cls-3{opacity:0.4;}.cls-4{fill:url(#Degradado_sin_nombre);}.cls-5{stroke:#b8cdeb;}.cls-41,.cls-6{fill:#b8cdeb;}.cls-10,.cls-13,.cls-21,.cls-25,.cls-46,.cls-47,.cls-48,.cls-6,.cls-7,.cls-8{fill-rule:evenodd;}.cls-7{fill:url(#Degradado_sin_nombre_2);}.cls-8{fill:#7091f5;}.cls-10,.cls-21,.cls-22,.cls-9{fill:#4d648d;}.cls-11,.cls-27{fill:#e2e9ff;}.cls-11{fill-opacity:0.3;}.cls-12,.cls-32,.cls-40{fill:#7093ff;}.cls-12{fill-opacity:0.05;}.cls-14{mask:url(#mask);}.cls-15{fill:#6bbf59;}.cls-16{mask:url(#mask-2);}.cls-17{fill:#e54435;}.cls-18{mask:url(#mask-3);}.cls-19{mask:url(#mask-4);}.cls-20{mask:url(#mask-5);}.cls-21{stroke:#4d648d;}.cls-21,.cls-25{stroke-linecap:round;stroke-linejoin:round;stroke-width:0.5px;}.cls-22{fill-opacity:0.33;}.cls-23{mask:url(#mask-6);}.cls-24,.cls-25{fill:#c4ccd9;}.cls-25{stroke:#c4ccd9;}.cls-26{mask:url(#mask-7);}.cls-28{mask:url(#mask-8);}.cls-29{mask:url(#mask-9);}.cls-30{mask:url(#mask-10);}.cls-31{mask:url(#mask-11);}.cls-32{opacity:0.2;}.cls-32,.cls-34{isolation:isolate;}.cls-33{fill:url(#Degradado_sin_nombre_3);}.cls-34,.cls-44{opacity:0.8;}.cls-35{fill:#1487e3;}.cls-36{fill:#70d4ff;}.cls-37{fill:#7194ff;}.cls-38{fill:#b2d0e9;}.cls-39{fill:#a1c0ff;}.cls-42{fill:#4aafff;}.cls-43{fill:#e0e0e0;}.cls-45{fill:url(#Degradado_sin_nombre_4);}.cls-46{fill:url(#Degradado_sin_nombre_5);}.cls-47{fill:url(#Degradado_sin_nombre_6);}.cls-48{fill:url(#Degradado_sin_nombre_7);}.cls-49{fill:url(#Degradado_sin_nombre_8);}.cls-50{mask:url(#mask-12);}.cls-51{fill:url(#Degradado_sin_nombre_9);}.cls-52{fill:url(#Degradado_sin_nombre_10);}.cls-53{fill:url(#Degradado_sin_nombre_11);}.cls-54{clip-path:url(#clip-path);}.cls-55{fill:#243f6d;}.cls-56{fill:#bbbcbe;}.cls-57{fill:#1f385b;}.cls-58{fill:#68bde8;}.cls-59{fill:#f4f5fa;}.cls-60{fill:#e7eef6;}.cls-61{fill:#f7acac;}.cls-62{fill:#c4cbd9;}.cls-63{fill:#f9beb6;}.cls-64{fill:#2d3a52;}.cls-65{fill:#384967;}.cls-66{fill:#7098ff;}.cls-67{fill:#7a8291;}.cls-68{fill:#b2b3b5;}.cls-69{fill:#ededed;}.cls-70{fill:#b1b1b1;}</style><linearGradient id="Degradado_sin_nombre" x1="215.83" y1="727.03" x2="318.11" y2="477.02" gradientTransform="translate(111 -612.89)" gradientUnits="userSpaceOnUse"><stop offset="0" stop-color="#fff"/><stop offset="1" stop-color="#edf3fc"/></linearGradient><linearGradient id="Degradado_sin_nombre_2" x1="110.31" y1="403.6" x2="257.93" y2="361.54" gradientTransform="matrix(1, 0, 0, -1, 0, 367.89)" gradientUnits="userSpaceOnUse"><stop offset="0" stop-color="#a1c0ff"/><stop offset="1" stop-color="#7093ff"/></linearGradient><mask id="mask" x="249.34" y="50.67" width="5.12" height="5.12" maskUnits="userSpaceOnUse"><g id="mask0"><path class="cls-1" d="M251.8,54l1.45-1.5a.28.28,0,0,0,0-.38l-.24-.25a.25.25,0,0,0-.36,0l-1,1.07-1-1.07a.25.25,0,0,0-.36,0l-.24.25a.28.28,0,0,0,0,.38l1.45,1.5A.25.25,0,0,0,251.8,54Z"/></g></mask><mask id="mask-2" x="453.72" y="113.29" width="6.83" height="6.83" maskUnits="userSpaceOnUse"><g id="mask1"><path class="cls-1" d="M457.14,113.29a3.42,3.42,0,1,0,3.41,3.42A3.42,3.42,0,0,0,457.14,113.29Zm1.67,4.31a.16.16,0,0,1,0,.24l-.54.54a.16.16,0,0,1-.24,0l-.89-.9-.9.9a.15.15,0,0,1-.23,0l-.55-.54a.18.18,0,0,1,0-.24l.91-.89-.91-.9a.17.17,0,0,1,0-.23L456,115a.17.17,0,0,1,.23,0l.9.91.9-.91a.17.17,0,0,1,.23,0l.55.55a.17.17,0,0,1,0,.23l-.91.9Z"/></g></mask><mask id="mask-3" x="453.72" y="144.03" width="6.83" height="6.83" maskUnits="userSpaceOnUse"><g id="mask2"><path class="cls-1" d="M457.14,144a3.42,3.42,0,1,0,3.41,3.42A3.42,3.42,0,0,0,457.14,144Zm1.67,4.32a.15.15,0,0,1,0,.23l-.54.55a.18.18,0,0,1-.24,0l-.89-.91-.9.91a.17.17,0,0,1-.23,0l-.55-.55a.17.17,0,0,1,0-.23l.91-.9-.91-.9a.17.17,0,0,1,0-.23l.55-.55a.17.17,0,0,1,.23,0l.9.91.9-.9a.15.15,0,0,1,.23,0l.55.54a.17.17,0,0,1,0,.23l-.91.9Z"/></g></mask><mask id="mask-4" x="453.72" y="174.21" width="6.83" height="6.83" maskUnits="userSpaceOnUse"><g id="mask3"><path class="cls-1" d="M457.14,174.21a3.42,3.42,0,1,0,3.41,3.41A3.42,3.42,0,0,0,457.14,174.21Zm1.67,4.31a.15.15,0,0,1,0,.23l-.54.55a.18.18,0,0,1-.24,0l-.89-.91-.9.91a.17.17,0,0,1-.23,0l-.55-.55a.17.17,0,0,1,0-.23l.91-.9-.91-.89a.18.18,0,0,1,0-.24L456,176a.15.15,0,0,1,.23,0l.9.9.9-.9a.15.15,0,0,1,.23,0l.55.54a.18.18,0,0,1,0,.24l-.91.89Z"/></g></mask><mask id="mask-5" x="489.2" y="83.12" width="6.26" height="6.26" maskUnits="userSpaceOnUse"><g id="mask4"><path class="cls-1" d="M495.37,88.52l-1.21-1.21a.29.29,0,0,0-.21-.09h-.2a2.5,2.5,0,0,0,.54-1.56,2.54,2.54,0,1,0-2.54,2.54,2.5,2.5,0,0,0,1.56-.54v.2a.29.29,0,0,0,.09.21l1.21,1.21a.29.29,0,0,0,.42,0l.34-.34A.29.29,0,0,0,495.37,88.52Zm-3.62-1.3a1.56,1.56,0,1,1,1.56-1.56A1.56,1.56,0,0,1,491.75,87.22Z"/></g></mask><mask id="mask-6" x="489.2" y="112.72" width="6.26" height="6.26" maskUnits="userSpaceOnUse"><g id="mask5"><path class="cls-1" d="M495.37,118.13l-1.21-1.22a.29.29,0,0,0-.21-.09h-.2a2.5,2.5,0,0,0,.54-1.56,2.54,2.54,0,1,0-2.54,2.54,2.5,2.5,0,0,0,1.56-.54v.2a.27.27,0,0,0,.09.21l1.21,1.22a.31.31,0,0,0,.42,0l.34-.35A.28.28,0,0,0,495.37,118.13Zm-3.62-1.31a1.56,1.56,0,1,1,1.56-1.56A1.56,1.56,0,0,1,491.75,116.82Z"/></g></mask><mask id="mask-7" x="489.2" y="97.35" width="6.26" height="6.26" maskUnits="userSpaceOnUse"><g id="mask6"><path class="cls-1" d="M495.37,102.76l-1.21-1.22a.29.29,0,0,0-.21-.09h-.2a2.5,2.5,0,0,0,.54-1.56,2.54,2.54,0,1,0-2.54,2.54,2.5,2.5,0,0,0,1.56-.54v.2a.29.29,0,0,0,.09.21l1.21,1.22a.31.31,0,0,0,.42,0l.34-.35A.28.28,0,0,0,495.37,102.76Zm-3.62-1.31a1.56,1.56,0,1,1,1.56-1.56A1.56,1.56,0,0,1,491.75,101.45Z"/></g></mask><mask id="mask-8" x="489.2" y="128.66" width="6.26" height="6.26" maskUnits="userSpaceOnUse"><g id="mask7"><path class="cls-1" d="M495.37,134.07l-1.21-1.22a.33.33,0,0,0-.21-.09h-.2a2.5,2.5,0,0,0,.54-1.56,2.54,2.54,0,1,0-2.54,2.54,2.5,2.5,0,0,0,1.56-.54v.2a.27.27,0,0,0,.09.21l1.21,1.22a.31.31,0,0,0,.42,0l.34-.35A.28.28,0,0,0,495.37,134.07Zm-3.62-1.31a1.56,1.56,0,1,1,1.56-1.56A1.56,1.56,0,0,1,491.75,132.76Z"/></g></mask><mask id="mask-9" x="489.2" y="143.46" width="6.26" height="6.26" maskUnits="userSpaceOnUse"><g id="mask8"><path class="cls-1" d="M495.37,148.87l-1.21-1.22a.32.32,0,0,0-.21-.08h-.2a2.51,2.51,0,1,0-.44.44v.2a.27.27,0,0,0,.09.2l1.21,1.22a.31.31,0,0,0,.42,0l.34-.35A.28.28,0,0,0,495.37,148.87Zm-3.62-1.3a1.57,1.57,0,1,1,1.56-1.57A1.56,1.56,0,0,1,491.75,147.57Z"/></g></mask><mask id="mask-10" x="489.2" y="158.84" width="6.26" height="6.26" maskUnits="userSpaceOnUse"><g id="mask9"><path class="cls-1" d="M495.37,164.24,494.16,163a.32.32,0,0,0-.21-.08h-.2a2.5,2.5,0,0,0,.54-1.56,2.53,2.53,0,1,0-1,2v.2a.27.27,0,0,0,.09.2l1.21,1.22a.29.29,0,0,0,.42,0l.34-.34A.29.29,0,0,0,495.37,164.24Zm-3.62-1.3a1.57,1.57,0,1,1,1.56-1.56A1.56,1.56,0,0,1,491.75,162.94Z"/></g></mask><mask id="mask-11" x="489.2" y="174.21" width="6.26" height="6.26" maskUnits="userSpaceOnUse"><g id="mask10"><path class="cls-1" d="M495.37,179.61l-1.21-1.22a.32.32,0,0,0-.21-.08h-.2a2.5,2.5,0,0,0,.54-1.56,2.54,2.54,0,1,0-2.54,2.54,2.5,2.5,0,0,0,1.56-.54v.2a.29.29,0,0,0,.09.21l1.21,1.21a.29.29,0,0,0,.42,0l.34-.34A.29.29,0,0,0,495.37,179.61Zm-3.62-1.3a1.57,1.57,0,1,1,1.56-1.56A1.56,1.56,0,0,1,491.75,178.31Z"/></g></mask><linearGradient id="Degradado_sin_nombre_3" x1="340.99" y1="76.38" x2="352.99" y2="9.38" gradientTransform="matrix(1, 0, 0, -1, 0, 367.89)" gradientUnits="userSpaceOnUse"><stop offset="0" stop-color="#1c2b46" stop-opacity="0.76"/><stop offset="0.86" stop-color="#243f6d"/></linearGradient><linearGradient id="Degradado_sin_nombre_4" x1="545.05" y1="179.97" x2="648.98" y2="73.96" gradientTransform="matrix(1, 0, 0, -1, 0, 367.89)" xlink:href="#Degradado_sin_nombre"/><linearGradient id="Degradado_sin_nombre_5" x1="489.62" y1="254.11" x2="491.88" y2="249.41" gradientTransform="matrix(1, 0, 0, -1, 0, 367.89)" gradientUnits="userSpaceOnUse"><stop offset="0" stop-color="#7093ff"/><stop offset="1" stop-color="#243f6d"/></linearGradient><linearGradient id="Degradado_sin_nombre_6" x1="495.29" y1="255.58" x2="497.9" y2="250.37" xlink:href="#Degradado_sin_nombre_5"/><linearGradient id="Degradado_sin_nombre_7" x1="501.07" y1="256.75" x2="503.98" y2="251.1" xlink:href="#Degradado_sin_nombre_5"/><linearGradient id="Degradado_sin_nombre_8" x1="546" y1="97.89" x2="546" y2="15.15" gradientTransform="matrix(1, 0, 0, -1, 0, 367.89)" gradientUnits="userSpaceOnUse"><stop offset="0" stop-color="#fff" stop-opacity="0.84"/><stop offset="1" stop-color="#fff" stop-opacity="0"/></linearGradient><mask id="mask-12" x="41.99" y="144" width="556.41" height="164" maskUnits="userSpaceOnUse"><g id="mask11"><ellipse cx="332" cy="225.5" rx="240" ry="24.5"/></g></mask><linearGradient id="Degradado_sin_nombre_9" x1="320.19" y1="223.89" x2="320.19" y2="64.25" xlink:href="#Degradado_sin_nombre_8"/><linearGradient id="Degradado_sin_nombre_10" x1="58.5" y1="117.89" x2="58.5" y2="21.52" xlink:href="#Degradado_sin_nombre_8"/><linearGradient id="Degradado_sin_nombre_11" x1="95.5" y1="101.89" x2="95.5" y2="21.1" xlink:href="#Degradado_sin_nombre_8"/><clipPath id="clip-path"><rect class="cls-2" x="224" y="102" width="167" height="228.74"/></clipPath></defs><title>Specs-Doctor</title><g class="cls-3"><rect class="cls-4" x="111.5" y="0.5" width="429.96" height="229" rx="19.5"/><rect class="cls-5" x="111.5" y="0.5" width="429.96" height="229" rx="19.5"/></g><path class="cls-1" d="M125.23,18.48a.9.9,0,0,1,1-.83H527.35a.89.89,0,0,1,.95.83V209.24a.89.89,0,0,1-.95.83H126.18a.9.9,0,0,1-1-.83Z"/><path class="cls-6" d="M527.35,17.93H126.18a.6.6,0,0,0-.63.55V209.24a.6.6,0,0,0,.63.56H527.35a.61.61,0,0,0,.64-.56V18.48A.6.6,0,0,0,527.35,17.93Zm-401.17-.28a.9.9,0,0,0-1,.83V209.24a.9.9,0,0,0,1,.83H527.35a.89.89,0,0,0,.95-.83V18.48a.89.89,0,0,0-.95-.83Z"/><path class="cls-7" d="M125.23,34.16H528.3v-16a.48.48,0,0,0-.48-.5H125.71a.49.49,0,0,0-.48.5Z"/><path class="cls-8" d="M528.3,18.15a.48.48,0,0,0-.48-.5H125.71a.49.49,0,0,0-.48.5v16H528.3ZM528,33.83V18.15a.18.18,0,0,0-.17-.17H125.71a.17.17,0,0,0-.16.17V33.83Z"/><path class="cls-1" d="M135.09,26.21v1.63h-.75V23.45H136a1.65,1.65,0,0,1,1.15.39,1.29,1.29,0,0,1,.42,1,1.27,1.27,0,0,1-.41,1,1.74,1.74,0,0,1-1.17.36Zm0-.61h.9a.91.91,0,0,0,.61-.19.73.73,0,0,0,.21-.56.74.74,0,0,0-.8-.78h-.92Z"/><path class="cls-1" d="M140,27.84a1.23,1.23,0,0,1-.08-.31,1.19,1.19,0,0,1-1.63.09.9.9,0,0,1-.31-.7.92.92,0,0,1,.38-.79,1.81,1.81,0,0,1,1.09-.28h.44v-.22a.53.53,0,0,0-.14-.4.54.54,0,0,0-.42-.15.63.63,0,0,0-.4.12.38.38,0,0,0-.16.32h-.72a.79.79,0,0,1,.18-.5,1.1,1.1,0,0,1,.47-.37,1.6,1.6,0,0,1,.67-.13,1.3,1.3,0,0,1,.9.29,1,1,0,0,1,.34.8v1.47a1.66,1.66,0,0,0,.12.7v.06Zm-.79-.53a.83.83,0,0,0,.4-.11.69.69,0,0,0,.28-.28v-.61h-.39a1,1,0,0,0-.6.14.47.47,0,0,0-.2.4.46.46,0,0,0,.14.34A.53.53,0,0,0,139.24,27.31Z"/><path class="cls-1" d="M142.71,27.31a.64.64,0,0,0,.45-.16.54.54,0,0,0,.19-.39H144a1,1,0,0,1-.18.57,1.25,1.25,0,0,1-.47.41,1.45,1.45,0,0,1-.65.16,1.36,1.36,0,0,1-1.07-.45,1.77,1.77,0,0,1-.39-1.22v-.07a1.72,1.72,0,0,1,.39-1.19,1.35,1.35,0,0,1,1.07-.45,1.29,1.29,0,0,1,.93.34,1.2,1.2,0,0,1,.37.89h-.67a.67.67,0,0,0-.19-.46.61.61,0,0,0-.45-.18.64.64,0,0,0-.54.25,1.36,1.36,0,0,0-.19.78v.12a1.32,1.32,0,0,0,.19.79A.6.6,0,0,0,142.71,27.31Z"/><path class="cls-1" d="M145.33,27.84h-.71V24.58h.71Zm-.76-4.11a.4.4,0,0,1,.1-.28.43.43,0,0,1,.31-.11.41.41,0,0,1,.3.11.4.4,0,0,1,.1.28.39.39,0,0,1-.1.28.41.41,0,0,1-.3.11.43.43,0,0,1-.31-.11A.39.39,0,0,1,144.57,23.73Z"/><path class="cls-1" d="M147.53,27.9a1.49,1.49,0,0,1-1.11-.44,1.61,1.61,0,0,1-.42-1.17V26.2a2.05,2.05,0,0,1,.18-.87,1.37,1.37,0,0,1,1.27-.81,1.26,1.26,0,0,1,1,.42,1.83,1.83,0,0,1,.36,1.2v.3h-2.1a1,1,0,0,0,.27.64.8.8,0,0,0,.58.23,1,1,0,0,0,.81-.4l.38.37a1.26,1.26,0,0,1-.51.46A1.66,1.66,0,0,1,147.53,27.9Zm-.08-2.79a.64.64,0,0,0-.49.21,1.24,1.24,0,0,0-.23.58h1.37v0a.84.84,0,0,0-.19-.55A.58.58,0,0,0,147.45,25.11Z"/><path class="cls-1" d="M150,24.58l0,.37a1.12,1.12,0,0,1,.93-.43c.66,0,1,.39,1,1.16v2.16h-.72V25.73a.67.67,0,0,0-.14-.46.53.53,0,0,0-.43-.15.67.67,0,0,0-.64.4v2.32h-.72V24.58Z"/><path class="cls-1" d="M153.65,23.79v.79h.57v.54h-.57v1.82a.48.48,0,0,0,.07.27.37.37,0,0,0,.26.08,1.15,1.15,0,0,0,.26,0v.57a2.14,2.14,0,0,1-.48.07c-.55,0-.83-.31-.83-.93V25.12h-.52v-.54h.52v-.79Z"/><path class="cls-1" d="M156.18,27.9a1.49,1.49,0,0,1-1.11-.44,1.61,1.61,0,0,1-.42-1.17V26.2a2.05,2.05,0,0,1,.18-.87,1.46,1.46,0,0,1,.52-.6,1.37,1.37,0,0,1,.75-.21,1.26,1.26,0,0,1,1,.42,1.83,1.83,0,0,1,.36,1.2v.3h-2.1a1,1,0,0,0,.27.64.8.8,0,0,0,.58.23,1,1,0,0,0,.81-.4l.39.37a1.29,1.29,0,0,1-.52.46A1.66,1.66,0,0,1,156.18,27.9Zm-.08-2.79a.6.6,0,0,0-.48.21,1.07,1.07,0,0,0-.24.58h1.38v0a.84.84,0,0,0-.2-.55A.58.58,0,0,0,156.1,25.11Z"/><path class="cls-1" d="M159.82,27a.33.33,0,0,0-.16-.3,1.53,1.53,0,0,0-.52-.18,2.42,2.42,0,0,1-.61-.2.82.82,0,0,1-.54-.76.85.85,0,0,1,.35-.71,1.35,1.35,0,0,1,.88-.28,1.36,1.36,0,0,1,.93.29.91.91,0,0,1,.36.75h-.72a.43.43,0,0,0-.16-.35.55.55,0,0,0-.41-.14.59.59,0,0,0-.38.11.34.34,0,0,0-.15.3.3.3,0,0,0,.14.26,2.15,2.15,0,0,0,.56.19,2.41,2.41,0,0,1,.66.22.88.88,0,0,1,.36.32.78.78,0,0,1,.12.44.88.88,0,0,1-.36.72,1.52,1.52,0,0,1-.94.27,1.6,1.6,0,0,1-.7-.15,1.18,1.18,0,0,1-.48-.4,1,1,0,0,1-.17-.54h.7a.51.51,0,0,0,.19.4.77.77,0,0,0,.47.14.71.71,0,0,0,.43-.11A.34.34,0,0,0,159.82,27Z"/><path class="cls-9" d="M517.27,45H464.19a.73.73,0,0,0-.79.65V56.84a.73.73,0,0,0,.79.66h53.08a.73.73,0,0,0,.78-.66V45.63A.72.72,0,0,0,517.27,45Z"/><path class="cls-10" d="M517.27,45.3H464.19c-.3,0-.45.19-.45.33V56.84c0,.14.15.33.45.33h53.08a.4.4,0,0,0,.44-.33V45.63A.4.4,0,0,0,517.27,45.3ZM464.19,45h53.08a.72.72,0,0,1,.78.65V56.84a.73.73,0,0,1-.78.66H464.19a.73.73,0,0,1-.79-.66V45.63A.73.73,0,0,1,464.19,45Z"/><rect class="cls-11" x="474.79" y="47.82" width="32.45" height="6.28" rx="3.14"/><path class="cls-10" d="M134.71,64.9h382.4a1,1,0,0,1,.95,1V78.56H133.77V65.93A1,1,0,0,1,134.71,64.9Z"/><path class="cls-1" d="M153.79,71.64H153v1.49h-.44V69.46h1.11a1.25,1.25,0,0,1,.87.28,1.07,1.07,0,0,1,.3.82,1,1,0,0,1-.17.6,1,1,0,0,1-.47.38L155,73.1v0h-.47Zm-.79-.39h.68a.74.74,0,0,0,.52-.19.76.76,0,0,0,0-1,.77.77,0,0,0-.53-.19H153Z"/><path class="cls-1" d="M157.82,69.46V72a1.21,1.21,0,0,1-.3.85,1.16,1.16,0,0,1-.8.37h-.12a1.16,1.16,0,0,1-.87-.33,1.19,1.19,0,0,1-.33-.89v-2.5h.43v2.48a.91.91,0,0,0,.2.62.85.85,0,0,0,1.14,0,.86.86,0,0,0,.2-.62V69.46Z"/><path class="cls-1" d="M161.08,73.13h-.44L159,70.3v2.83h-.45V69.46H159l1.69,2.84V69.46h.43Z"/><path class="cls-1" d="M163.05,73.44h-.36l1.39-4h.37Z"/><path class="cls-1" d="M166.14,73.13V69.46h1a1.44,1.44,0,0,1,.77.21,1.37,1.37,0,0,1,.51.6,2,2,0,0,1,.19.9v.23a2.14,2.14,0,0,1-.18.91,1.35,1.35,0,0,1-.53.6,1.52,1.52,0,0,1-.78.22Zm.44-3.28v2.88h.47a1,1,0,0,0,.79-.35,1.52,1.52,0,0,0,.28-1v-.21a1.53,1.53,0,0,0-.27-1,.9.9,0,0,0-.75-.36Z"/><path class="cls-1" d="M171.8,73.13h-.44l-1.69-2.83v2.83h-.44V69.46h.44l1.69,2.84V69.46h.44Z"/><path class="cls-1" d="M173.06,73.13h-.45V69.46h.45Z"/><path class="cls-1" d="M214.37,72.83h-.45l-1.7-2.47v2.47h-.45v-3.2h.45l1.71,2.48V69.63h.44Z"/><path class="cls-1" d="M215,71.62a1.33,1.33,0,0,1,.14-.63,1,1,0,0,1,.41-.43,1.15,1.15,0,0,1,.59-.15,1.1,1.1,0,0,1,.83.33,1.29,1.29,0,0,1,.32.9v0a1.38,1.38,0,0,1-.14.62,1.11,1.11,0,0,1-.4.43,1.23,1.23,0,0,1-.61.15,1.1,1.1,0,0,1-.83-.33,1.25,1.25,0,0,1-.31-.89Zm.43,0a1,1,0,0,0,.19.63.64.64,0,0,0,.52.24.62.62,0,0,0,.52-.24,1.06,1.06,0,0,0,.2-.68,1,1,0,0,0-.2-.63.61.61,0,0,0-.52-.25.64.64,0,0,0-.52.24A1.07,1.07,0,0,0,215.42,71.67Z"/><path class="cls-1" d="M218.23,70.45v.27a.92.92,0,0,1,.74-.31.72.72,0,0,1,.72.38,1.12,1.12,0,0,1,.33-.28,1,1,0,0,1,.48-.1.74.74,0,0,1,.84.83v1.59h-.43V71.26a.52.52,0,0,0-.12-.38.62.62,0,0,0-.42-.13.61.61,0,0,0-.4.14.57.57,0,0,0-.18.36v1.58h-.43V71.27a.47.47,0,0,0-.54-.52.58.58,0,0,0-.58.34v1.74h-.43V70.45Z"/><path class="cls-1" d="M224.13,71.67a1.33,1.33,0,0,1-.26.87.86.86,0,0,1-.71.33.88.88,0,0,1-.74-.32l0,.28H222V69.46h.43v1.25a.92.92,0,0,1,.72-.3.86.86,0,0,1,.72.33,1.33,1.33,0,0,1,.26.89Zm-.43,0a1,1,0,0,0-.17-.64.57.57,0,0,0-.49-.23.65.65,0,0,0-.61.38v1a.67.67,0,0,0,.62.38.56.56,0,0,0,.48-.23A1.08,1.08,0,0,0,223.7,71.62Z"/><path class="cls-1" d="M225.9,70.82l-.21,0a.57.57,0,0,0-.58.34v1.69h-.43V70.45h.42v.28a.66.66,0,0,1,.6-.32.5.5,0,0,1,.19,0Z"/><path class="cls-1" d="M227.29,72.87a1.14,1.14,0,0,1-.83-.31,1.18,1.18,0,0,1-.32-.85v-.08a1.46,1.46,0,0,1,.14-.63,1.11,1.11,0,0,1,.4-.43,1,1,0,0,1,.56-.16,1,1,0,0,1,.77.3,1.3,1.3,0,0,1,.27.88v.17h-1.71a.81.81,0,0,0,.22.56.68.68,0,0,0,.53.22.8.8,0,0,0,.39-.09,1,1,0,0,0,.27-.23l.26.19A1.06,1.06,0,0,1,227.29,72.87Zm0-2.13a.6.6,0,0,0-.44.18.79.79,0,0,0-.21.5h1.26v0a.87.87,0,0,0-.18-.48A.58.58,0,0,0,227.24,70.74Z"/><path class="cls-1" d="M294.09,70H293v2.81h-.44V70h-1.09v-.35h2.62Z"/><path class="cls-1" d="M295.34,72.87a1.12,1.12,0,0,1-.83-.31,1.11,1.11,0,0,1-.33-.84v-.07a1.26,1.26,0,0,1,.15-.62.93.93,0,0,1,.4-.43,1,1,0,0,1,.56-.16,1,1,0,0,1,.76.3,1.25,1.25,0,0,1,.27.86v.17h-1.71a.81.81,0,0,0,.22.56.72.72,0,0,0,.53.21.8.8,0,0,0,.39-.08,1,1,0,0,0,.27-.23l.27.19A1.09,1.09,0,0,1,295.34,72.87Zm0-2.1a.57.57,0,0,0-.44.18.8.8,0,0,0-.22.49h1.26v0a.69.69,0,0,0-.18-.47A.56.56,0,0,0,295.29,70.77Z"/><path class="cls-1" d="M297.29,72.83h-.43V69.5h.43Z"/><path class="cls-1" d="M299,72.87a1.12,1.12,0,0,1-.83-.31,1.14,1.14,0,0,1-.32-.84v-.07A1.38,1.38,0,0,1,298,71a1,1,0,0,1,.4-.43,1,1,0,0,1,.56-.16,1,1,0,0,1,.76.3,1.2,1.2,0,0,1,.28.86v.17H298.3a.81.81,0,0,0,.22.56.71.71,0,0,0,.53.21.74.74,0,0,0,.38-.08,1,1,0,0,0,.28-.23l.26.19A1.07,1.07,0,0,1,299,72.87Zm0-2.1a.6.6,0,0,0-.44.18.86.86,0,0,0-.22.49h1.27v0a.8.8,0,0,0-.18-.47A.58.58,0,0,0,299,70.77Zm.21-1.27h.52l-.62.64h-.35Z"/><path class="cls-1" d="M300.72,72.83v-2h-.4v-.31h.4v-.24a.78.78,0,0,1,.21-.58.86.86,0,0,1,.62-.2,1.43,1.43,0,0,1,.29,0l0,.33a.86.86,0,0,0-.23,0,.39.39,0,0,0-.44.44v.24h.54v.31h-.54v2Z"/><path class="cls-1" d="M302.05,71.63a1.34,1.34,0,0,1,.14-.61,1.06,1.06,0,0,1,.41-.43,1.15,1.15,0,0,1,.59-.15,1.1,1.1,0,0,1,.83.33,1.24,1.24,0,0,1,.32.88v0a1.38,1.38,0,0,1-.14.62,1,1,0,0,1-.4.42,1.21,1.21,0,0,1-.6.15,1.1,1.1,0,0,1-.83-.33,1.18,1.18,0,0,1-.32-.88Zm.43.05a1,1,0,0,0,.19.63.64.64,0,0,0,.53.23.65.65,0,0,0,.52-.23,1.06,1.06,0,0,0,.19-.68.91.91,0,0,0-.2-.62.67.67,0,0,0-1,0A1,1,0,0,0,302.48,71.68Z"/><path class="cls-1" d="M305.29,70.48v.3a.94.94,0,0,1,.76-.34c.53,0,.8.28.8.84v1.55h-.43V71.28a.49.49,0,0,0-.13-.38.5.5,0,0,0-.37-.12.71.71,0,0,0-.62.38v1.67h-.43V70.48Z"/><path class="cls-1" d="M307.4,71.63a1.34,1.34,0,0,1,.14-.61,1,1,0,0,1,.41-.43,1.15,1.15,0,0,1,.59-.15,1.1,1.1,0,0,1,.83.33,1.24,1.24,0,0,1,.32.88v0a1.38,1.38,0,0,1-.14.62,1,1,0,0,1-.41.42,1.16,1.16,0,0,1-.6.15,1.1,1.1,0,0,1-.83-.33,1.21,1.21,0,0,1-.31-.88Zm.43.05a1,1,0,0,0,.19.63.64.64,0,0,0,.52.23.67.67,0,0,0,.53-.23,1.12,1.12,0,0,0,.19-.68,1,1,0,0,0-.2-.62.63.63,0,0,0-.52-.24A.64.64,0,0,0,308,71,1,1,0,0,0,307.83,71.68Z"/><path class="cls-1" d="M371.91,71.35h-1.44v1.13h1.67v.35H370v-3.2h2.08V70h-1.65v1h1.44Z"/><path class="cls-1" d="M373,70.45v.27a.92.92,0,0,1,.73-.31.72.72,0,0,1,.71.38.9.9,0,0,1,.78-.38.74.74,0,0,1,.83.83v1.59h-.42V71.26a.52.52,0,0,0-.12-.38.57.57,0,0,0-.41-.13.6.6,0,0,0-.39.14.57.57,0,0,0-.18.36v1.58h-.42V71.27a.47.47,0,0,0-.53-.52.57.57,0,0,0-.57.34v1.74h-.42V70.45Z"/><path class="cls-1" d="M378.24,72.83a1.3,1.3,0,0,1-.06-.25,1,1,0,0,1-.7.29.87.87,0,0,1-.6-.2.64.64,0,0,1-.23-.5.66.66,0,0,1,.29-.58,1.5,1.5,0,0,1,.83-.2h.4V71.2a.45.45,0,0,0-.13-.34.55.55,0,0,0-.39-.12.61.61,0,0,0-.38.11.31.31,0,0,0-.15.26h-.42a.52.52,0,0,1,.13-.34,1,1,0,0,1,.35-.27,1.35,1.35,0,0,1,.5-.09,1.07,1.07,0,0,1,.67.2.76.76,0,0,1,.25.57v1.09a1.45,1.45,0,0,0,.08.52v0Zm-.7-.31a.86.86,0,0,0,.38-.1.57.57,0,0,0,.25-.26v-.49h-.32c-.52,0-.78.15-.78.44a.35.35,0,0,0,.13.3A.53.53,0,0,0,377.54,72.52Z"/><path class="cls-1" d="M379.72,72.83h-.42V70.45h.42Zm-.46-3a.23.23,0,0,1,.06-.16.24.24,0,0,1,.19-.07.25.25,0,0,1,.19.07.23.23,0,0,1,.06.16.25.25,0,0,1-.06.17.29.29,0,0,1-.19.06.27.27,0,0,1-.19-.06A.25.25,0,0,1,379.26,69.82Z"/><path class="cls-1" d="M380.85,72.83h-.42V69.46h.42Z"/><path class="cls-1" d="M444.68,71.48a1.47,1.47,0,0,1-.05.41.84.84,0,0,1-.16.29l-.32.37a.72.72,0,0,0-.24.46v.09a.53.53,0,0,0,.14.39.52.52,0,0,0,.38.14.54.54,0,0,0,.38-.14.44.44,0,0,0,.15-.35h.42a.83.83,0,0,1-.26.63,1.13,1.13,0,0,1-1.39,0,.89.89,0,0,1-.24-.66,1.26,1.26,0,0,1,.37-.83l.25-.26a.85.85,0,0,0,.15-.54Zm0-.75a.24.24,0,0,1-.07.18.22.22,0,0,1-.18.08.23.23,0,0,1-.19-.08.24.24,0,0,1-.07-.18.22.22,0,0,1,.07-.17.22.22,0,0,1,.19-.07.21.21,0,0,1,.18.07A.22.22,0,0,1,444.7,70.73Z"/><path class="cls-1" d="M447.86,71.5H446.4v1.22h1.7v.38H446V69.65h2.13V70H446.4v1.11h1.46Z"/><path class="cls-1" d="M450,72.42a.33.33,0,0,0-.13-.28,1.34,1.34,0,0,0-.46-.17,2.16,2.16,0,0,1-.51-.17.75.75,0,0,1-.28-.24.57.57,0,0,1-.09-.32.67.67,0,0,1,.26-.54,1.13,1.13,0,0,1,1.35,0,.72.72,0,0,1,.27.58H450a.39.39,0,0,0-.15-.31.61.61,0,0,0-.74,0,.33.33,0,0,0-.14.27.27.27,0,0,0,.13.24,1.32,1.32,0,0,0,.44.16,1.86,1.86,0,0,1,.52.17.84.84,0,0,1,.3.25.63.63,0,0,1,.09.35.66.66,0,0,1-.27.55,1.09,1.09,0,0,1-.69.2A1.3,1.3,0,0,1,449,73a1,1,0,0,1-.36-.31.72.72,0,0,1-.13-.42h.43a.47.47,0,0,0,.17.35.71.71,0,0,0,.43.13.69.69,0,0,0,.38-.1A.32.32,0,0,0,450,72.42Z"/><path class="cls-1" d="M451.61,69.91v.62h.47v.34h-.47v1.59a.37.37,0,0,0,.06.23.29.29,0,0,0,.22.08l.2,0v.36a1.24,1.24,0,0,1-.33,0,.52.52,0,0,1-.43-.17.78.78,0,0,1-.15-.51V70.87h-.45v-.34h.45v-.62Z"/><path class="cls-1" d="M454.13,73.1a.91.91,0,0,1-.06-.27,1,1,0,0,1-.71.31.87.87,0,0,1-.61-.21.68.68,0,0,1-.24-.54.74.74,0,0,1,.3-.63,1.43,1.43,0,0,1,.83-.22h.42v-.2a.48.48,0,0,0-.13-.36.5.5,0,0,0-.4-.14.6.6,0,0,0-.38.12.33.33,0,0,0-.16.28h-.43a.69.69,0,0,1,.13-.37.92.92,0,0,1,.36-.28,1.26,1.26,0,0,1,.51-.11,1,1,0,0,1,.68.23.82.82,0,0,1,.25.61V72.5a1.46,1.46,0,0,0,.09.56v0Zm-.71-.34a.75.75,0,0,0,.38-.1.63.63,0,0,0,.26-.28v-.53h-.33c-.53,0-.79.16-.79.47a.42.42,0,0,0,.13.33A.56.56,0,0,0,453.42,72.76Zm.39-3.3h.52l-.62.69h-.34Z"/><path class="cls-1" d="M457.89,73.1a.67.67,0,0,1-.06-.27,1,1,0,0,1-.72.31.89.89,0,0,1-.61-.21.71.71,0,0,1-.23-.54.76.76,0,0,1,.29-.63,1.45,1.45,0,0,1,.84-.22h.42v-.2a.49.49,0,0,0-.14-.36.48.48,0,0,0-.39-.14.65.65,0,0,0-.39.12.35.35,0,0,0-.15.28h-.43a.62.62,0,0,1,.13-.37.92.92,0,0,1,.36-.28,1.18,1.18,0,0,1,.5-.11,1,1,0,0,1,.68.23.79.79,0,0,1,.26.61V72.5a1.71,1.71,0,0,0,.08.56v0Zm-.72-.34a.76.76,0,0,0,.39-.1.63.63,0,0,0,.26-.28v-.53h-.34c-.52,0-.78.16-.78.47a.42.42,0,0,0,.13.33A.55.55,0,0,0,457.17,72.76Z"/><path class="cls-1" d="M459.92,72.79a.61.61,0,0,0,.41-.15.53.53,0,0,0,.19-.35h.4a.82.82,0,0,1-.15.42,1,1,0,0,1-.36.32,1,1,0,0,1-.49.11,1,1,0,0,1-.81-.34,1.45,1.45,0,0,1-.3-1v-.08a1.56,1.56,0,0,1,.13-.66,1,1,0,0,1,.39-.45,1,1,0,0,1,.59-.17,1,1,0,0,1,.7.26.93.93,0,0,1,.3.67h-.4a.63.63,0,0,0-.19-.4.57.57,0,0,0-.41-.17.59.59,0,0,0-.5.25,1.13,1.13,0,0,0-.18.69v.08a1.13,1.13,0,0,0,.18.69A.57.57,0,0,0,459.92,72.79Z"/><path class="cls-1" d="M462,69.91v.62h.47v.34H462v1.59a.32.32,0,0,0,.07.23.26.26,0,0,0,.21.08l.2,0v.36a1.24,1.24,0,0,1-.33,0,.52.52,0,0,1-.43-.17.78.78,0,0,1-.15-.51V70.87h-.45v-.34h.45v-.62Z"/><path class="cls-1" d="M463.42,73.1H463V70.53h.43ZM463,69.85a.28.28,0,0,1,.06-.18.22.22,0,0,1,.19-.07.24.24,0,0,1,.19.07.3.3,0,0,1,0,.36.24.24,0,0,1-.19.07A.22.22,0,0,1,463,70,.28.28,0,0,1,463,69.85Z"/><path class="cls-1" d="M464.93,72.5l.62-2H466l-.9,2.57h-.32l-.91-2.57h.44Z"/><path class="cls-1" d="M466.26,71.79a1.51,1.51,0,0,1,.14-.68,1.06,1.06,0,0,1,.4-.46,1.07,1.07,0,0,1,.59-.17,1.06,1.06,0,0,1,.83.37,1.41,1.41,0,0,1,.32,1v0a1.51,1.51,0,0,1-.15.68,1.05,1.05,0,0,1-.4.46,1.07,1.07,0,0,1-.59.16,1.05,1.05,0,0,1-.83-.36,1.4,1.4,0,0,1-.31-1Zm.42,0a1.11,1.11,0,0,0,.2.69.62.62,0,0,0,.52.26.64.64,0,0,0,.52-.26,1.3,1.3,0,0,0,.19-.74,1.1,1.1,0,0,0-.2-.68.61.61,0,0,0-.52-.27.62.62,0,0,0-.51.26A1.23,1.23,0,0,0,466.68,71.84Z"/><path class="cls-1" d="M469.58,72.13a1.36,1.36,0,0,1,.06-.45,1.12,1.12,0,0,1,.24-.36l.3-.32a.72.72,0,0,0,.19-.49.56.56,0,0,0-.13-.39.46.46,0,0,0-.36-.14.56.56,0,0,0-.39.13.46.46,0,0,0-.14.34h-.43a.87.87,0,0,1,.27-.62,1,1,0,0,1,.69-.23.94.94,0,0,1,.68.24.89.89,0,0,1,.24.66,1.2,1.2,0,0,1-.37.82l-.26.25a.83.83,0,0,0-.16.56Zm0,.75a.28.28,0,0,1,.06-.18.29.29,0,0,1,.38,0,.29.29,0,0,1,.07.18.24.24,0,0,1-.07.17.25.25,0,0,1-.44-.17Z"/><path class="cls-12" d="M133.77,78.56H518.06V93.37H133.77Z"/><path class="cls-1" d="M465.68,100.2a2,2,0,1,1-2-1.71A1.87,1.87,0,0,1,465.68,100.2Z"/><path class="cls-9" d="M156.75,86.78a1.92,1.92,0,0,1-.26,1.1,1.09,1.09,0,0,1-1.61,0,1.78,1.78,0,0,1-.26-1v-.57a1.89,1.89,0,0,1,.25-1.09.94.94,0,0,1,.81-.35.93.93,0,0,1,.8.34,1.85,1.85,0,0,1,.27,1.06Zm-.43-.58a1.42,1.42,0,0,0-.16-.78.59.59,0,0,0-1,0,1.55,1.55,0,0,0-.16.75v.68a1.61,1.61,0,0,0,.16.79.54.54,0,0,0,.48.26.53.53,0,0,0,.48-.24,1.64,1.64,0,0,0,.16-.77Z"/><path class="cls-9" d="M157.35,88a.29.29,0,0,1,.06-.19.27.27,0,0,1,.2-.07.24.24,0,0,1,.2.07.25.25,0,0,1,.07.19.22.22,0,0,1-.07.17.24.24,0,0,1-.2.07.27.27,0,0,1-.2-.07A.25.25,0,0,1,157.35,88Z"/><path class="cls-9" d="M160.66,86.78a1.92,1.92,0,0,1-.25,1.1,1.09,1.09,0,0,1-1.61,0,1.86,1.86,0,0,1-.27-1v-.57a1.88,1.88,0,0,1,.26-1.09.94.94,0,0,1,.81-.35.93.93,0,0,1,.8.34,1.78,1.78,0,0,1,.26,1.06Zm-.42-.58a1.52,1.52,0,0,0-.16-.78.59.59,0,0,0-1,0,1.55,1.55,0,0,0-.16.75v.68a1.51,1.51,0,0,0,.16.79.54.54,0,0,0,.48.26.52.52,0,0,0,.47-.24,1.51,1.51,0,0,0,.17-.77Z"/><path class="cls-9" d="M163.33,86.78a1.92,1.92,0,0,1-.26,1.1,1.08,1.08,0,0,1-1.6,0,1.78,1.78,0,0,1-.27-1v-.57a1.88,1.88,0,0,1,.26-1.09.94.94,0,0,1,.8-.35,1,1,0,0,1,.81.34,1.85,1.85,0,0,1,.26,1.06Zm-.43-.58a1.53,1.53,0,0,0-.15-.78.54.54,0,0,0-.49-.25.53.53,0,0,0-.48.25,1.45,1.45,0,0,0-.15.75v.68a1.51,1.51,0,0,0,.16.79.58.58,0,0,0,1,0,1.52,1.52,0,0,0,.16-.77Z"/><path class="cls-9" d="M166,86.78a1.92,1.92,0,0,1-.26,1.1,1.09,1.09,0,0,1-1.61,0,1.78,1.78,0,0,1-.26-1v-.57a1.89,1.89,0,0,1,.25-1.09.94.94,0,0,1,.81-.35.93.93,0,0,1,.8.34,1.85,1.85,0,0,1,.27,1.06Zm-.43-.58a1.42,1.42,0,0,0-.16-.78.59.59,0,0,0-1,0,1.55,1.55,0,0,0-.16.75v.68a1.61,1.61,0,0,0,.16.79.54.54,0,0,0,.48.26.51.51,0,0,0,.47-.24,1.51,1.51,0,0,0,.17-.77Z"/><path class="cls-9" d="M166.6,88a.29.29,0,0,1,.06-.19.26.26,0,0,1,.2-.07.24.24,0,0,1,.2.07.25.25,0,0,1,.07.19.22.22,0,0,1-.07.17.24.24,0,0,1-.2.07.26.26,0,0,1-.2-.07A.25.25,0,0,1,166.6,88Z"/><path class="cls-9" d="M169.91,86.78a1.92,1.92,0,0,1-.25,1.1.94.94,0,0,1-.81.36.92.92,0,0,1-.8-.35,1.86,1.86,0,0,1-.27-1v-.57a1.88,1.88,0,0,1,.26-1.09.94.94,0,0,1,.81-.35.93.93,0,0,1,.8.34,1.78,1.78,0,0,1,.26,1.06Zm-.43-.58a1.53,1.53,0,0,0-.15-.78.59.59,0,0,0-1,0,1.44,1.44,0,0,0-.16.75v.68a1.51,1.51,0,0,0,.16.79.54.54,0,0,0,.48.26.52.52,0,0,0,.47-.24,1.43,1.43,0,0,0,.16-.77Z"/><path class="cls-9" d="M172.58,86.78a1.92,1.92,0,0,1-.26,1.1,1.08,1.08,0,0,1-1.6,0,1.78,1.78,0,0,1-.27-1v-.57a1.81,1.81,0,0,1,.26-1.09.94.94,0,0,1,.8-.35.92.92,0,0,1,.8.34,1.77,1.77,0,0,1,.27,1.06Zm-.43-.58a1.53,1.53,0,0,0-.15-.78.55.55,0,0,0-.49-.25.53.53,0,0,0-.48.25,1.45,1.45,0,0,0-.15.75v.68a1.51,1.51,0,0,0,.16.79.58.58,0,0,0,1,0,1.52,1.52,0,0,0,.16-.77Z"/><path class="cls-9" d="M177.73,87H176.6v-.35h1.13Z"/><path class="cls-9" d="M211.77,88.39V85h1a1.6,1.6,0,0,1,.79.2,1.41,1.41,0,0,1,.54.57,1.74,1.74,0,0,1,.19.84v.17a1.86,1.86,0,0,1-.19.84,1.37,1.37,0,0,1-.55.57,1.64,1.64,0,0,1-.81.19Zm.58-2.9v2.43h.39a.89.89,0,0,0,.71-.28,1.29,1.29,0,0,0,.25-.84v-.18a1.28,1.28,0,0,0-.24-.84.83.83,0,0,0-.69-.29Z"/><path class="cls-9" d="M216.32,88.39a.7.7,0,0,1-.07-.23.93.93,0,0,1-1.27.06.68.68,0,0,1-.24-.53.72.72,0,0,1,.3-.62,1.46,1.46,0,0,1,.85-.21h.35v-.17a.4.4,0,0,0-.45-.43.52.52,0,0,0-.31.1.3.3,0,0,0-.12.24h-.57a.64.64,0,0,1,.14-.38.81.81,0,0,1,.37-.28,1.29,1.29,0,0,1,.53-.11,1.05,1.05,0,0,1,.7.23.77.77,0,0,1,.27.62v1.13a1.32,1.32,0,0,0,.09.54v0Zm-.62-.4a.59.59,0,0,0,.31-.09.52.52,0,0,0,.23-.21v-.48h-.31a.86.86,0,0,0-.47.11.36.36,0,0,0-.16.31.33.33,0,0,0,.11.26A.44.44,0,0,0,215.7,88Z"/><path class="cls-9" d="M217.91,85.88l0,.29a.93.93,0,0,1,.73-.34c.52,0,.79.3.8.9v1.66h-.56V86.77a.53.53,0,0,0-.11-.36.42.42,0,0,0-.34-.11.54.54,0,0,0-.5.3v1.79h-.57V85.88Z"/><path class="cls-9" d="M220.63,88.39h-.56V85.88h.56ZM220,85.23a.29.29,0,0,1,.08-.22.32.32,0,0,1,.23-.08.33.33,0,0,1,.24.08.29.29,0,0,1,.09.22.29.29,0,0,1-.09.21.3.3,0,0,1-.24.09.29.29,0,0,1-.23-.09A.28.28,0,0,1,220,85.23Z"/><path class="cls-9" d="M222.36,88.44a1.15,1.15,0,0,1-.87-.34,1.22,1.22,0,0,1-.34-.9v-.07a1.47,1.47,0,0,1,.15-.67,1.08,1.08,0,0,1,.41-.46,1.06,1.06,0,0,1,.58-.17,1,1,0,0,1,.79.33,1.38,1.38,0,0,1,.29.93v.23h-1.65a.79.79,0,0,0,.21.49.63.63,0,0,0,.46.18.78.78,0,0,0,.63-.31l.3.29a1,1,0,0,1-.4.35A1.28,1.28,0,0,1,222.36,88.44Zm-.07-2.15a.48.48,0,0,0-.38.16.93.93,0,0,0-.18.45h1.08v0a.81.81,0,0,0-.15-.43A.5.5,0,0,0,222.29,86.29Z"/><path class="cls-9" d="M224.4,88.39h-.56V84.83h.56Z"/><path class="cls-9" d="M226.52,88.39a1.2,1.2,0,0,1-.06-.23.87.87,0,0,1-.66.28.86.86,0,0,1-.62-.22.68.68,0,0,1-.24-.53.72.72,0,0,1,.3-.62,1.46,1.46,0,0,1,.85-.21h.35v-.17a.45.45,0,0,0-.11-.31.42.42,0,0,0-.33-.12.53.53,0,0,0-.32.1.3.3,0,0,0-.12.24H225a.64.64,0,0,1,.14-.38.87.87,0,0,1,.37-.28,1.32,1.32,0,0,1,.53-.11,1,1,0,0,1,.7.23.74.74,0,0,1,.27.62v1.13a1.16,1.16,0,0,0,.1.54v0Zm-.62-.4a.56.56,0,0,0,.31-.09.52.52,0,0,0,.23-.21v-.48h-.31a.88.88,0,0,0-.47.11.37.37,0,0,0-.15.31.33.33,0,0,0,.1.26A.44.44,0,0,0,225.9,88Z"/><path class="cls-9" d="M230.72,87.61h-1.31l-.27.78h-.61L229.8,85h.53l1.28,3.38H231Zm-1.14-.48h1l-.49-1.4Z"/><path class="cls-9" d="M292.85,86.41h.95v.4h-.95v1h-.43v-1h-.95v-.4h.95v-1h.43Z"/><path class="cls-9" d="M294.48,86.53l.17-1.66h1.74v.39H295l-.11.91a1.1,1.1,0,0,1,.57-.14,1,1,0,0,1,.74.3,1.17,1.17,0,0,1,.27.81,1.13,1.13,0,0,1-.29.81,1,1,0,0,1-.79.29,1.09,1.09,0,0,1-.73-.24.94.94,0,0,1-.32-.68h.4a.68.68,0,0,0,.21.43.63.63,0,0,0,.44.15.63.63,0,0,0,.48-.2.87.87,0,0,0,.17-.56.76.76,0,0,0-.19-.53.62.62,0,0,0-.49-.21.64.64,0,0,0-.44.13l-.12.09Z"/><path class="cls-9" d="M298.65,84.87v.36h-.08a1.12,1.12,0,0,0-.8.29,1.26,1.26,0,0,0-.35.8,1,1,0,0,1,.74-.3.88.88,0,0,1,.7.3,1.3,1.3,0,0,1,0,1.61,1.07,1.07,0,0,1-1.55-.05,1.47,1.47,0,0,1-.31-.95v-.16a2.18,2.18,0,0,1,.4-1.4,1.49,1.49,0,0,1,1.19-.5Zm-.57,1.5a.74.74,0,0,0-.66.45V87a1.05,1.05,0,0,0,.19.66.55.55,0,0,0,.47.25.54.54,0,0,0,.45-.21.81.81,0,0,0,.17-.55.86.86,0,0,0-.17-.55A.54.54,0,0,0,298.08,86.37Z"/><path class="cls-9" d="M303,85.11l-1.4,3.09h-.45l1.4-3h-1.84v-.35H303Z"/><path class="cls-9" d="M306.34,86.74A1.11,1.11,0,0,1,306,87a1,1,0,0,1-.41.1.91.91,0,0,1-.85-.54,1.39,1.39,0,0,1-.12-.57,1.32,1.32,0,0,1,.13-.6.91.91,0,0,1,.36-.41,1,1,0,0,1,.56-.14.94.94,0,0,1,.79.37,1.59,1.59,0,0,1,.29,1v.12a2.13,2.13,0,0,1-.39,1.42,1.51,1.51,0,0,1-1.18.46h-.08v-.36h.09a1.16,1.16,0,0,0,.82-.27A1.17,1.17,0,0,0,306.34,86.74Zm-.67,0a.75.75,0,0,0,.67-.46v-.17a1.15,1.15,0,0,0-.18-.67.58.58,0,0,0-.93,0,.89.89,0,0,0-.17.56.94.94,0,0,0,.17.57A.54.54,0,0,0,305.67,86.74Z"/><path class="cls-9" d="M309.56,85.11l-1.41,3.09h-.45l1.4-3h-1.84v-.35h2.3Z"/><path class="cls-9" d="M311.7,86.74a1.11,1.11,0,0,1-.32.25,1,1,0,0,1-.42.1.9.9,0,0,1-.51-.15.91.91,0,0,1-.33-.39A1.39,1.39,0,0,1,310,86a1.32,1.32,0,0,1,.13-.6.91.91,0,0,1,.36-.41,1,1,0,0,1,.56-.14.94.94,0,0,1,.79.37,1.53,1.53,0,0,1,.29,1v.12a2.13,2.13,0,0,1-.39,1.42,1.51,1.51,0,0,1-1.18.46h-.08v-.36h.09a1.16,1.16,0,0,0,.82-.27A1.17,1.17,0,0,0,311.7,86.74Zm-.66,0a.7.7,0,0,0,.39-.13.78.78,0,0,0,.27-.33v-.17a1.15,1.15,0,0,0-.18-.67.58.58,0,0,0-.93,0,.89.89,0,0,0-.17.56.94.94,0,0,0,.17.57A.55.55,0,0,0,311,86.74Z"/><path class="cls-9" d="M314.79,85.74a.74.74,0,0,1-.14.44,1,1,0,0,1-.36.31,1,1,0,0,1,.42.32.86.86,0,0,1,.15.49.88.88,0,0,1-.29.69A1.36,1.36,0,0,1,313,88a.93.93,0,0,1-.14-1.18,1,1,0,0,1,.41-.33.79.79,0,0,1-.35-.3.76.76,0,0,1-.13-.44.87.87,0,0,1,.27-.67,1.05,1.05,0,0,1,.73-.24,1.08,1.08,0,0,1,.72.24A.88.88,0,0,1,314.79,85.74Zm-.36,1.55a.58.58,0,0,0-.18-.45.64.64,0,0,0-.47-.18.68.68,0,0,0-.47.17.65.65,0,0,0-.17.46.57.57,0,0,0,.17.45.69.69,0,0,0,.48.16.7.7,0,0,0,.47-.16A.57.57,0,0,0,314.43,87.29Zm-.64-2.12a.59.59,0,0,0-.42.16.57.57,0,0,0-.15.42.58.58,0,0,0,.15.41.57.57,0,0,0,.42.15.56.56,0,0,0,.41-.15.58.58,0,0,0,.15-.41.57.57,0,0,0-.16-.42A.58.58,0,0,0,313.79,85.17Z"/><path class="cls-9" d="M370.44,85.87v.27a1,1,0,0,1,.75-.32.7.7,0,0,1,.72.4,1,1,0,0,1,.33-.29,1.06,1.06,0,0,1,.48-.11.77.77,0,0,1,.85.86v1.66h-.44V86.71a.58.58,0,0,0-.12-.4.54.54,0,0,0-.42-.13.61.61,0,0,0-.4.14.62.62,0,0,0-.18.38v1.64h-.43V86.72a.48.48,0,0,0-.54-.54.58.58,0,0,0-.58.36v1.8H370V85.87Z"/><path class="cls-9" d="M375.79,88.34a.57.57,0,0,1-.06-.26,1,1,0,0,1-.72.31.91.91,0,0,1-.62-.21.68.68,0,0,1-.23-.52.7.7,0,0,1,.29-.6,1.43,1.43,0,0,1,.85-.22h.42v-.19a.49.49,0,0,0-.14-.36.58.58,0,0,0-.4-.13.6.6,0,0,0-.38.12.31.31,0,0,0-.16.27h-.43a.54.54,0,0,1,.13-.35.92.92,0,0,1,.36-.28,1.25,1.25,0,0,1,.51-.1,1,1,0,0,1,.68.22.74.74,0,0,1,.26.58v1.14a1.4,1.4,0,0,0,.09.55v0Zm-.72-.32a.78.78,0,0,0,.39-.1.61.61,0,0,0,.26-.27v-.51h-.34c-.53,0-.79.15-.79.46a.39.39,0,0,0,.13.31A.56.56,0,0,0,375.07,88Z"/><path class="cls-9" d="M377.3,88.34h-.43V85.87h.43Zm-.47-3.13a.24.24,0,0,1,.06-.17.26.26,0,0,1,.19-.08.26.26,0,0,1,.2.08.27.27,0,0,1,0,.34.26.26,0,0,1-.2.07.25.25,0,0,1-.19-.07A.24.24,0,0,1,376.83,85.21Z"/><path class="cls-9" d="M378.46,88.34H378V84.83h.43Z"/><path class="cls-9" d="M382.88,87.19a1.51,1.51,0,0,1-.28.88.82.82,0,0,1-.67.32.53.53,0,0,1-.56-.38,1.14,1.14,0,0,1-.29.29.69.69,0,0,1-.34.09.56.56,0,0,1-.5-.27,1.15,1.15,0,0,1-.12-.73,1.94,1.94,0,0,1,.17-.67,1.27,1.27,0,0,1,.37-.47.75.75,0,0,1,.46-.17,1.16,1.16,0,0,1,.34,0,1.33,1.33,0,0,1,.34.19l-.12,1.27c0,.35.07.53.3.53a.48.48,0,0,0,.42-.26,1.3,1.3,0,0,0,.18-.67,1.89,1.89,0,0,0-.34-1.35,1.41,1.41,0,0,0-1.16-.47,1.54,1.54,0,0,0-.83.23,1.64,1.64,0,0,0-.58.66,2.67,2.67,0,0,0-.23,1,2.35,2.35,0,0,0,.14,1,1.28,1.28,0,0,0,.51.63,1.5,1.5,0,0,0,.83.23,1.52,1.52,0,0,0,.42-.06,1.08,1.08,0,0,0,.36-.13l.08.27a1,1,0,0,1-.38.14,2,2,0,0,1-.48.06,1.83,1.83,0,0,1-1-.26,1.58,1.58,0,0,1-.63-.74,2.52,2.52,0,0,1-.18-1.13,2.73,2.73,0,0,1,.29-1.13,1.84,1.84,0,0,1,1.7-1.05,1.88,1.88,0,0,1,1,.25,1.62,1.62,0,0,1,.62.74A2.69,2.69,0,0,1,382.88,87.19Zm-2.39.2a.93.93,0,0,0,.06.5.32.32,0,0,0,.3.17.45.45,0,0,0,.27-.11.86.86,0,0,0,.21-.34v0l.11-1.15a.54.54,0,0,0-.73.2A1.66,1.66,0,0,0,380.49,87.39Z"/><path class="cls-9" d="M383.85,85.87v.27a1,1,0,0,1,.75-.32.7.7,0,0,1,.72.4,1,1,0,0,1,.33-.29,1.06,1.06,0,0,1,.48-.11.76.76,0,0,1,.84.86v1.66h-.43V86.71a.58.58,0,0,0-.12-.4.54.54,0,0,0-.42-.13.61.61,0,0,0-.4.14.62.62,0,0,0-.18.38v1.64H385V86.72a.48.48,0,0,0-.54-.54.57.57,0,0,0-.58.36v1.8h-.44V85.87Z"/><path class="cls-9" d="M389.2,88.34a.57.57,0,0,1-.06-.26,1,1,0,0,1-.72.31.91.91,0,0,1-.62-.21.65.65,0,0,1-.23-.52.7.7,0,0,1,.29-.6,1.43,1.43,0,0,1,.85-.22h.42v-.19a.49.49,0,0,0-.14-.36.57.57,0,0,0-.39-.13.61.61,0,0,0-.39.12.31.31,0,0,0-.16.27h-.43a.54.54,0,0,1,.13-.35.92.92,0,0,1,.36-.28,1.25,1.25,0,0,1,.51-.1,1,1,0,0,1,.68.22.74.74,0,0,1,.26.58v1.14a1.4,1.4,0,0,0,.09.55v0Zm-.72-.32a.72.72,0,0,0,.38-.1.64.64,0,0,0,.27-.27v-.51h-.34c-.53,0-.79.15-.79.46a.39.39,0,0,0,.13.31A.56.56,0,0,0,388.48,88Z"/><path class="cls-9" d="M390.71,88.34h-.44V85.87h.44Zm-.47-3.13a.24.24,0,0,1,.06-.17.26.26,0,0,1,.19-.08.23.23,0,0,1,.19.08.24.24,0,0,1,0,.34.22.22,0,0,1-.19.07.25.25,0,0,1-.19-.07A.24.24,0,0,1,390.24,85.21Z"/><path class="cls-9" d="M391.87,88.34h-.43V84.83h.43Z"/><path class="cls-9" d="M392.57,88.12a.24.24,0,0,1,.07-.18.24.24,0,0,1,.2-.07.26.26,0,0,1,.2.07.27.27,0,0,1,0,.36.26.26,0,0,1-.2.07.24.24,0,0,1-.2-.07A.24.24,0,0,1,392.57,88.12Z"/><path class="cls-9" d="M394.83,88a.65.65,0,0,0,.41-.13.49.49,0,0,0,.19-.35h.41a.79.79,0,0,1-.15.41,1,1,0,0,1-.37.31,1.14,1.14,0,0,1-.49.11,1.05,1.05,0,0,1-.82-.34,1.32,1.32,0,0,1-.3-.92v-.07a1.51,1.51,0,0,1,.14-.65,1,1,0,0,1,.38-.43,1.08,1.08,0,0,1,.6-.16,1,1,0,0,1,.71.25.87.87,0,0,1,.3.65h-.41a.56.56,0,0,0-.19-.4.58.58,0,0,0-.41-.15.62.62,0,0,0-.51.23,1.09,1.09,0,0,0-.18.67v.08a1,1,0,0,0,.18.66A.59.59,0,0,0,394.83,88Z"/><path class="cls-9" d="M396.79,88.34h-.43V84.83h.43Z"/><path class="cls-1" d="M463.17,116.23l-.68-.71-.23.24.91.95,1.94-2-.23-.24Z"/><path class="cls-13" d="M464.67,113.86a.2.2,0,0,1,.14.06l.24.26a.21.21,0,0,1,0,.29L463,116.65a.2.2,0,0,1-.15.06.2.2,0,0,1-.14-.06l-1-1a.21.21,0,0,1,0-.29l.24-.26a.2.2,0,0,1,.14-.06.2.2,0,0,1,.15.06l.57.61,1.67-1.77A.2.2,0,0,1,464.67,113.86Zm-1.81,2.34h0Z"/><path class="cls-1" d="M464.46,26.41H463l-.32.87h-.46L463.55,24h.39l1.3,3.32h-.46Zm-1.29-.36h1.15l-.57-1.55Z"/><path class="cls-1" d="M468.16,26.84a1,1,0,0,1-.48.37,2,2,0,0,1-.72.12,1.47,1.47,0,0,1-.73-.19,1.34,1.34,0,0,1-.5-.55,2,2,0,0,1-.18-.81v-.29a1.74,1.74,0,0,1,.36-1.17,1.45,1.45,0,0,1,1.85-.14,1.13,1.13,0,0,1,.4.75h-.45a.73.73,0,0,0-.8-.66.83.83,0,0,0-.68.31,1.53,1.53,0,0,0-.23.9v.27a1.43,1.43,0,0,0,.26.89.84.84,0,0,0,.7.33,1.42,1.42,0,0,0,.44-.06.57.57,0,0,0,.31-.18V26h-.78v-.35h1.23Z"/><path class="cls-1" d="M470.14,25.94h-.79v1.34h-.45V24H470a1.36,1.36,0,0,1,.88.25A1,1,0,0,1,471,25.5a1.05,1.05,0,0,1-.48.34l.8,1.41v0h-.48Zm-.79-.36H470a.77.77,0,0,0,.52-.17.56.56,0,0,0,.2-.45.59.59,0,0,0-.19-.48.77.77,0,0,0-.54-.16h-.68Z"/><path class="cls-1" d="M473.74,25.74h-1.46v1.18H474v.36h-2.15V24H474v.36h-1.68v1.07h1.46Z"/><path class="cls-1" d="M477,26.84a1,1,0,0,1-.48.37,1.92,1.92,0,0,1-.71.12,1.51,1.51,0,0,1-.74-.19,1.25,1.25,0,0,1-.49-.55,1.73,1.73,0,0,1-.18-.81v-.29a1.79,1.79,0,0,1,.35-1.17,1.46,1.46,0,0,1,1.86-.14,1.16,1.16,0,0,1,.39.75h-.44a.74.74,0,0,0-.8-.66.81.81,0,0,0-.68.31,1.46,1.46,0,0,0-.23.9v.27a1.37,1.37,0,0,0,.26.89.83.83,0,0,0,.7.33,1.46,1.46,0,0,0,.44-.06.61.61,0,0,0,.31-.18V26h-.78v-.35H477Z"/><path class="cls-1" d="M479.64,26.41h-1.41l-.32.87h-.46L478.74,24h.39l1.29,3.32H480Zm-1.28-.36h1.15l-.57-1.55Z"/><path class="cls-1" d="M482.12,25.94h-.79v1.34h-.45V24H482a1.31,1.31,0,0,1,.87.25.91.91,0,0,1,.31.75.94.94,0,0,1-.17.54,1,1,0,0,1-.47.34l.79,1.41v0h-.48Zm-.79-.36H482a.8.8,0,0,0,.53-.17.55.55,0,0,0,.19-.45.62.62,0,0,0-.18-.48.81.81,0,0,0-.54-.16h-.68Z"/><path class="cls-1" d="M485.43,26v1.3H485V24h1.24a1.23,1.23,0,0,1,.87.28,1,1,0,0,1,0,1.48,1.34,1.34,0,0,1-.88.26Zm0-.36h.8a.8.8,0,0,0,.55-.16A.59.59,0,0,0,487,25a.62.62,0,0,0-.19-.48.71.71,0,0,0-.52-.18h-.83Z"/><path class="cls-1" d="M489.53,26.41h-1.41l-.32.87h-.46L488.63,24H489l1.29,3.32h-.45Zm-1.28-.36h1.15l-.57-1.55Z"/><path class="cls-1" d="M493.23,26.23a1.21,1.21,0,0,1-.4.81,1.31,1.31,0,0,1-.88.29,1.21,1.21,0,0,1-1-.43,1.67,1.67,0,0,1-.36-1.13v-.32a1.89,1.89,0,0,1,.17-.81,1.27,1.27,0,0,1,.48-.54,1.3,1.3,0,0,1,.71-.19A1.16,1.16,0,0,1,493.23,25h-.45a1,1,0,0,0-.25-.58.78.78,0,0,0-.55-.18.84.84,0,0,0-.67.31,1.43,1.43,0,0,0-.24.89v.32a1.46,1.46,0,0,0,.23.86A.77.77,0,0,0,492,27a.74.74,0,0,0,.83-.74Z"/><path class="cls-1" d="M494.32,27.28h-.45V24h.45Z"/><path class="cls-1" d="M497,25.74h-1.46v1.18h1.7v.36h-2.15V24h2.13v.36h-1.68v1.07H497Z"/><path class="cls-1" d="M500.43,27.28H500l-1.71-2.56v2.56h-.44V24h.44L500,26.53V24h.44Z"/><path class="cls-1" d="M503.49,24.32H502.4v3H502v-3h-1.08V24h2.61Z"/><path class="cls-1" d="M505.9,25.74h-1.46v1.18h1.7v.36H504V24h2.13v.36h-1.68v1.07h1.46Z"/><path class="cls-1" d="M507.69,25.8a2.07,2.07,0,0,1-.83-.4.73.73,0,0,1-.26-.58.8.8,0,0,1,.31-.65,1.31,1.31,0,0,1,.83-.26,1.35,1.35,0,0,1,.62.13,1,1,0,0,1,.43.37.9.9,0,0,1,.15.51h-.45a.62.62,0,0,0-.19-.47.8.8,0,0,0-.56-.18.78.78,0,0,0-.51.15.46.46,0,0,0-.18.39.43.43,0,0,0,.17.35,2,2,0,0,0,.6.25,2.66,2.66,0,0,1,.66.26.93.93,0,0,1,.35.33.78.78,0,0,1,.12.44.75.75,0,0,1-.33.64,1.32,1.32,0,0,1-.85.25,1.75,1.75,0,0,1-.65-.13,1.16,1.16,0,0,1-.47-.36.89.89,0,0,1-.16-.52h.45a.55.55,0,0,0,.22.47,1,1,0,0,0,.61.18.94.94,0,0,0,.54-.14.49.49,0,0,0,.19-.39.45.45,0,0,0-.18-.38A2,2,0,0,0,507.69,25.8Z"/><path class="cls-13" d="M517.38,20.26h-63a.34.34,0,0,0-.34.34v10a.34.34,0,0,0,.34.34h63a.34.34,0,0,0,.34-.34v-10A.34.34,0,0,0,517.38,20.26Zm-63-.33a.68.68,0,0,0-.68.67v10a.68.68,0,0,0,.68.67h63a.67.67,0,0,0,.67-.67v-10a.67.67,0,0,0-.67-.67Z"/><path class="cls-1" d="M379.48,26.23a1.17,1.17,0,0,1-.4.81,1.32,1.32,0,0,1-.89.29,1.18,1.18,0,0,1-1-.43,1.67,1.67,0,0,1-.37-1.13v-.32a1.89,1.89,0,0,1,.17-.81,1.27,1.27,0,0,1,1.2-.73,1.24,1.24,0,0,1,.87.3,1.18,1.18,0,0,1,.38.82H379a1,1,0,0,0-.25-.58.78.78,0,0,0-.55-.18.83.83,0,0,0-.67.31,1.43,1.43,0,0,0-.24.89v.32a1.39,1.39,0,0,0,.23.86.75.75,0,0,0,.64.32.91.91,0,0,0,.58-.17.9.9,0,0,0,.26-.57Z"/><path class="cls-1" d="M382,26.41h-1.42l-.32.87h-.46L381.06,24h.39l1.31,3.32h-.46Zm-1.29-.36h1.16l-.58-1.55Z"/><path class="cls-1" d="M384.46,25.94h-.8v1.34h-.45V24h1.12a1.37,1.37,0,0,1,.89.25.94.94,0,0,1,.31.75.88.88,0,0,1-.18.54,1,1,0,0,1-.47.34l.8,1.41v0h-.48Zm-.8-.36h.69a.8.8,0,0,0,.53-.17.56.56,0,0,0,.2-.45.62.62,0,0,0-.19-.48.81.81,0,0,0-.54-.16h-.69Z"/><path class="cls-1" d="M388.67,26.84a1,1,0,0,1-.49.37,1.94,1.94,0,0,1-.72.12,1.47,1.47,0,0,1-.73-.19,1.27,1.27,0,0,1-.5-.55,1.73,1.73,0,0,1-.18-.81v-.29a1.79,1.79,0,0,1,.35-1.17,1.29,1.29,0,0,1,1-.41,1.3,1.3,0,0,1,.86.27,1.17,1.17,0,0,1,.4.75h-.45a.74.74,0,0,0-.8-.66.83.83,0,0,0-.69.31,1.53,1.53,0,0,0-.23.9v.27a1.37,1.37,0,0,0,.26.89.85.85,0,0,0,.71.33,1.51,1.51,0,0,0,.44-.06.61.61,0,0,0,.31-.18V26h-.79v-.35h1.24Z"/><path class="cls-1" d="M391.29,26.41h-1.42l-.32.87h-.46L390.38,24h.39l1.31,3.32h-.47ZM390,26.05h1.16l-.58-1.55Z"/><path class="cls-1" d="M394.3,24l1.11,2.71L396.52,24h.58v3.32h-.45V26l0-1.4-1.11,2.69h-.35l-1.11-2.68.05,1.39v1.29h-.45V24Z"/><path class="cls-1" d="M399.81,26.41h-1.43l-.31.87h-.47L398.9,24h.39l1.3,3.32h-.46Zm-1.29-.36h1.15l-.57-1.55Z"/><path class="cls-1" d="M402.05,25.8a2.19,2.19,0,0,1-.84-.4.77.77,0,0,1-.26-.58.81.81,0,0,1,.32-.65,1.29,1.29,0,0,1,.83-.26,1.39,1.39,0,0,1,.63.13,1,1,0,0,1,.42.37.9.9,0,0,1,.15.51h-.45a.58.58,0,0,0-.19-.47.8.8,0,0,0-.56-.18.78.78,0,0,0-.51.15.44.44,0,0,0-.19.39.44.44,0,0,0,.18.35,1.84,1.84,0,0,0,.6.25,2.66,2.66,0,0,1,.66.26.86.86,0,0,1,.35.33.78.78,0,0,1,.12.44.76.76,0,0,1-.32.64,1.35,1.35,0,0,1-.86.25,1.8,1.8,0,0,1-.66-.13,1.06,1.06,0,0,1-.46-.36.9.9,0,0,1-.17-.52h.45a.56.56,0,0,0,.23.47.94.94,0,0,0,.61.18.91.91,0,0,0,.54-.14.47.47,0,0,0,.19-.39.45.45,0,0,0-.18-.38A2,2,0,0,0,402.05,25.8Z"/><path class="cls-1" d="M404.37,27.28h-.45V24h.45Z"/><path class="cls-1" d="M406.31,26.7l1-2.74h.49l-1.26,3.32h-.39L404.86,24h.49Z"/><path class="cls-1" d="M409.93,26.41h-1.42l-.32.87h-.46L409,24h.4l1.29,3.32h-.45Zm-1.29-.36h1.16l-.58-1.55Z"/><path class="cls-1" d="M412.36,27.28V24h1a1.55,1.55,0,0,1,.78.19,1.29,1.29,0,0,1,.52.54,1.68,1.68,0,0,1,.19.82v.21a1.77,1.77,0,0,1-.18.82,1.28,1.28,0,0,1-.53.55,1.72,1.72,0,0,1-.8.19Zm.44-3v2.6h.48a1,1,0,0,0,.8-.31,1.3,1.3,0,0,0,.29-.9v-.19a1.3,1.3,0,0,0-.27-.88,1,1,0,0,0-.77-.32Z"/><path class="cls-1" d="M417.41,25.74h-1.47v1.18h1.71v.36h-2.16V24h2.14v.36h-1.69v1.07h1.47Z"/><path class="cls-1" d="M419.84,26v1.3h-.45V24h1.26a1.25,1.25,0,0,1,.87.28.93.93,0,0,1,.32.73,1,1,0,0,1-.31.75,1.37,1.37,0,0,1-.89.26Zm0-.36h.81a.82.82,0,0,0,.55-.16.59.59,0,0,0,.19-.48.62.62,0,0,0-.19-.48.74.74,0,0,0-.53-.18h-.83Z"/><path class="cls-1" d="M424,26.41h-1.42l-.32.87h-.46l1.3-3.32h.39l1.3,3.32h-.46Zm-1.28-.36h1.15l-.58-1.55Z"/><path class="cls-1" d="M427.68,26.23a1.21,1.21,0,0,1-.4.81,1.34,1.34,0,0,1-.89.29,1.21,1.21,0,0,1-1-.43,1.67,1.67,0,0,1-.36-1.13v-.32a1.89,1.89,0,0,1,.17-.81,1.2,1.2,0,0,1,.48-.54,1.34,1.34,0,0,1,.72-.19,1.24,1.24,0,0,1,.87.3,1.27,1.27,0,0,1,.38.82h-.45a1,1,0,0,0-.26-.58.77.77,0,0,0-.54-.18.85.85,0,0,0-.68.31,1.43,1.43,0,0,0-.24.89v.32a1.46,1.46,0,0,0,.23.86.77.77,0,0,0,.65.32.86.86,0,0,0,.57-.17,1,1,0,0,0,.27-.57Z"/><path class="cls-1" d="M428.77,27.28h-.45V24h.45Z"/><path class="cls-1" d="M431.51,25.74H430v1.18h1.71v.36h-2.16V24h2.14v.36H430v1.07h1.47Z"/><path class="cls-1" d="M434.92,27.28h-.45l-1.71-2.56v2.56h-.45V24h.45l1.71,2.57V24h.45Z"/><path class="cls-1" d="M438,24.32H436.9v3h-.45v-3h-1.09V24H438Z"/><path class="cls-1" d="M440.42,25.74H439v1.18h1.7v.36H438.5V24h2.13v.36H439v1.07h1.47Z"/><path class="cls-1" d="M442.21,25.8a2.19,2.19,0,0,1-.84-.4.77.77,0,0,1-.26-.58.81.81,0,0,1,.32-.65,1.32,1.32,0,0,1,.84-.26,1.38,1.38,0,0,1,.62.13,1,1,0,0,1,.43.37.9.9,0,0,1,.15.51H443a.59.59,0,0,0-.2-.47.78.78,0,0,0-.55-.18.81.81,0,0,0-.52.15.46.46,0,0,0-.18.39.43.43,0,0,0,.17.35,2,2,0,0,0,.6.25,2.66,2.66,0,0,1,.66.26,1,1,0,0,1,.36.33.87.87,0,0,1,.11.44.74.74,0,0,1-.32.64,1.33,1.33,0,0,1-.86.25,1.75,1.75,0,0,1-.65-.13,1.09,1.09,0,0,1-.47-.36.89.89,0,0,1-.16-.52h.45a.55.55,0,0,0,.22.47,1,1,0,0,0,.61.18.89.89,0,0,0,.54-.14.47.47,0,0,0,.19-.39.47.47,0,0,0-.17-.38A2.16,2.16,0,0,0,442.21,25.8Z"/><path class="cls-13" d="M448.49,20.26H371.85a.34.34,0,0,0-.34.34v10a.34.34,0,0,0,.34.34h76.64a.34.34,0,0,0,.34-.34v-10A.34.34,0,0,0,448.49,20.26Zm-76.64-.33a.68.68,0,0,0-.68.67v10a.68.68,0,0,0,.68.67h76.64a.68.68,0,0,0,.68-.67v-10a.68.68,0,0,0-.68-.67Z"/><g class="cls-14"><path d="M251.8,54l1.45-1.5a.28.28,0,0,0,0-.38l-.24-.25a.25.25,0,0,0-.36,0l-1,1.07-1-1.07a.25.25,0,0,0-.36,0l-.24.25a.28.28,0,0,0,0,.38l1.45,1.5A.25.25,0,0,0,251.8,54Z"/><path class="cls-9" d="M249.34,50.67h5.13v5.12h-5.13Z"/></g><path class="cls-9" d="M138.9,88.24h-.57V85.36l-1.14.32v-.39l1.62-.46h.09Z"/><path class="cls-9" d="M139.47,102.47h-2.22v-.3l1.17-1.3a2.27,2.27,0,0,0,.36-.48.75.75,0,0,0,.1-.38.59.59,0,0,0-.16-.43.58.58,0,0,0-.43-.17.68.68,0,0,0-.5.18.73.73,0,0,0-.17.51h-.43a1,1,0,0,1,.3-.75,1.12,1.12,0,0,1,.8-.29,1.06,1.06,0,0,1,.75.25.83.83,0,0,1,.27.65,2,2,0,0,1-.63,1.19l-.91,1h1.7Z"/><path class="cls-12" d="M133.77,108.74H518.06v15.37H133.77Z"/><path class="cls-12" d="M133.77,139.48H518.06v15.37H133.77Z"/><path class="cls-12" d="M133.77,169.65H518.06V185H133.77Z"/><path class="cls-15" d="M460.55,100.39A3.42,3.42,0,1,1,457.14,97,3.41,3.41,0,0,1,460.55,100.39Z"/><path class="cls-1" d="M456.45,101.49l-.91-1.19-.3.4,1.21,1.58L459,98.89l-.3-.4Z"/><path class="cls-13" d="M458.45,98.49a.27.27,0,0,1,.19.08l.32.34a.29.29,0,0,1,0,.39l-2.74,2.9a.27.27,0,0,1-.38,0l-1.28-1.35a.29.29,0,0,1,0-.39l.32-.34a.27.27,0,0,1,.38,0l.77.81,2.23-2.36A.27.27,0,0,1,458.45,98.49ZM456,101.61Z"/><path class="cls-15" d="M460.55,86.16a3.42,3.42,0,1,1-3.41-3.42A3.41,3.41,0,0,1,460.55,86.16Z"/><path class="cls-1" d="M456.45,87.26l-.91-1.19-.3.4,1.21,1.58,2.59-3.4-.3-.39Z"/><path class="cls-13" d="M458.45,84.26a.27.27,0,0,1,.19.08l.32.34a.29.29,0,0,1,0,.39L456.22,88a.27.27,0,0,1-.38,0l-1.28-1.35a.29.29,0,0,1,0-.39l.32-.34a.25.25,0,0,1,.38,0l.77.81,2.23-2.36A.27.27,0,0,1,458.45,84.26ZM456,87.38Z"/><path class="cls-1" d="M465.68,130.66a2,2,0,1,1-2-2A2,2,0,0,1,465.68,130.66Z"/><path class="cls-1" d="M465.68,161.11a2,2,0,1,1-2-1.7A1.86,1.86,0,0,1,465.68,161.11Z"/><path class="cls-1" d="M465.68,191.57a2,2,0,1,1-2-2A2,2,0,0,1,465.68,191.57Z"/><g class="cls-16"><path d="M457.14,113.29a3.42,3.42,0,1,0,3.41,3.42A3.42,3.42,0,0,0,457.14,113.29Zm1.67,4.31a.16.16,0,0,1,0,.24l-.54.54a.16.16,0,0,1-.24,0l-.89-.9-.9.9a.15.15,0,0,1-.23,0l-.55-.54a.18.18,0,0,1,0-.24l.91-.89-.91-.9a.17.17,0,0,1,0-.23L456,115a.17.17,0,0,1,.23,0l.9.91.9-.91a.17.17,0,0,1,.23,0l.55.55a.17.17,0,0,1,0,.23l-.91.9Z"/><path class="cls-17" d="M460.55,113.29h-6.83v6.83h6.83Z"/></g><path class="cls-15" d="M460.55,131.7a3.42,3.42,0,1,1-3.41-3.42A3.41,3.41,0,0,1,460.55,131.7Z"/><path class="cls-1" d="M456.45,132.8l-.91-1.19-.3.4,1.21,1.59,2.59-3.4-.3-.4Z"/><path class="cls-13" d="M458.45,129.8a.27.27,0,0,1,.19.08l.32.34a.29.29,0,0,1,0,.39l-2.74,2.9a.25.25,0,0,1-.38,0l-1.28-1.35a.29.29,0,0,1,0-.39l.32-.34a.27.27,0,0,1,.38,0l.77.82,2.23-2.37A.27.27,0,0,1,458.45,129.8ZM456,132.92Z"/><g class="cls-18"><path d="M457.14,144a3.42,3.42,0,1,0,3.41,3.42A3.42,3.42,0,0,0,457.14,144Zm1.67,4.32a.15.15,0,0,1,0,.23l-.54.55a.18.18,0,0,1-.24,0l-.89-.91-.9.91a.17.17,0,0,1-.23,0l-.55-.55a.17.17,0,0,1,0-.23l.91-.9-.91-.9a.17.17,0,0,1,0-.23l.55-.55a.17.17,0,0,1,.23,0l.9.91.9-.9a.15.15,0,0,1,.23,0l.55.54a.17.17,0,0,1,0,.23l-.91.9Z"/><path class="cls-17" d="M460.55,144h-6.83v6.84h6.83Z"/></g><path class="cls-15" d="M460.55,162.44a3.42,3.42,0,1,1-3.41-3.41A3.42,3.42,0,0,1,460.55,162.44Z"/><path class="cls-1" d="M456.45,163.55l-.91-1.19-.3.39,1.21,1.59,2.59-3.4-.3-.4Z"/><path class="cls-13" d="M458.45,160.54a.25.25,0,0,1,.19.09l.32.34a.28.28,0,0,1,0,.38l-2.74,2.91a.27.27,0,0,1-.38,0l-1.28-1.36a.29.29,0,0,1,0-.39l.32-.34a.27.27,0,0,1,.38,0l.77.82,2.23-2.36A.25.25,0,0,1,458.45,160.54ZM456,163.66Z"/><g class="cls-19"><path d="M457.14,174.21a3.42,3.42,0,1,0,3.41,3.41A3.42,3.42,0,0,0,457.14,174.21Zm1.67,4.31a.15.15,0,0,1,0,.23l-.54.55a.18.18,0,0,1-.24,0l-.89-.91-.9.91a.17.17,0,0,1-.23,0l-.55-.55a.17.17,0,0,1,0-.23l.91-.9-.91-.89a.18.18,0,0,1,0-.24L456,176a.15.15,0,0,1,.23,0l.9.9.9-.9a.15.15,0,0,1,.23,0l.55.54a.18.18,0,0,1,0,.24l-.91.89Z"/><path class="cls-17" d="M460.55,174.21h-6.83V181h6.83Z"/></g><g class="cls-20"><path class="cls-9" d="M495.47,83.12H489.2v6.26h6.27Z"/></g><path class="cls-21" d="M506.6,83.75a.41.41,0,0,1,.58,0,.38.38,0,0,1,.12.28.38.38,0,0,1-.12.29l-2.91,2.91-.77.19.19-.76Zm.29-.63a1,1,0,0,0-.65.27l-2.95,3a.19.19,0,0,0-.07.12l-.31,1.24A.26.26,0,0,0,503,88a.25.25,0,0,0,.24.07l1.25-.31a.24.24,0,0,0,.12-.07l3-3a.92.92,0,0,0-.65-1.56Zm-4.48.22a.87.87,0,0,0-.61.26.86.86,0,0,0-.25.61v4.3a.9.9,0,0,0,.25.62.86.86,0,0,0,.61.25h4.3a.89.89,0,0,0,.62-.25.9.9,0,0,0,.25-.62V86.36a.25.25,0,0,0-.25-.25.26.26,0,0,0-.26.25v2.15a.34.34,0,0,1-.36.36h-4.3a.35.35,0,0,1-.25-.1.36.36,0,0,1-.11-.26v-4.3a.38.38,0,0,1,.36-.36h2.15a.26.26,0,0,0,.26-.25.26.26,0,0,0-.26-.26Z"/><rect class="cls-22" x="150.28" y="97.35" width="34.73" height="6.26" rx="3.13"/><g class="cls-23"><path class="cls-24" d="M495.47,112.72H489.2V119h6.27Z"/></g><path class="cls-25" d="M506.6,113.35a.41.41,0,0,1,.58.58l-2.91,2.91-.77.19.19-.77Zm.29-.63a1,1,0,0,0-.65.27l-2.95,3a.19.19,0,0,0-.07.12l-.31,1.25a.24.24,0,0,0,.3.3l1.25-.31a.19.19,0,0,0,.12-.07l3-3a.92.92,0,0,0-.65-1.56Zm-4.48.23a.86.86,0,0,0-.61.25.9.9,0,0,0-.25.62v4.3a.85.85,0,0,0,.86.86h4.3a.89.89,0,0,0,.62-.25.86.86,0,0,0,.25-.61V116a.26.26,0,0,0-.25-.26.26.26,0,0,0-.26.26v2.15a.35.35,0,0,1-.1.25.36.36,0,0,1-.26.11h-4.3a.38.38,0,0,1-.36-.36v-4.3a.36.36,0,0,1,.11-.26.35.35,0,0,1,.25-.1h2.15a.26.26,0,0,0,.26-.26.26.26,0,0,0-.26-.25Z"/><g class="cls-26"><path class="cls-24" d="M495.47,97.35H489.2v6.26h6.27Z"/></g><path class="cls-25" d="M506.6,98a.41.41,0,0,1,.58,0,.38.38,0,0,1,.12.29.38.38,0,0,1-.12.28l-2.91,2.91-.77.2.19-.77Zm.29-.63a1,1,0,0,0-.65.27l-2.95,3a.19.19,0,0,0-.07.12l-.31,1.24a.28.28,0,0,0,.06.25.27.27,0,0,0,.24.06l1.25-.31a.19.19,0,0,0,.12-.07l3-3a.92.92,0,0,0-.65-1.56Zm-4.48.23a.86.86,0,0,0-.61.25.89.89,0,0,0-.25.62v4.3a.85.85,0,0,0,.86.86h4.3a.89.89,0,0,0,.62-.25.86.86,0,0,0,.25-.61V100.6a.25.25,0,0,0-.25-.26.26.26,0,0,0-.26.26v2.15a.35.35,0,0,1-.1.25.36.36,0,0,1-.26.11h-4.3a.38.38,0,0,1-.36-.36v-4.3a.36.36,0,0,1,.11-.26.36.36,0,0,1,.25-.11h2.15a.25.25,0,1,0,0-.5Z"/><rect class="cls-27" x="150.28" y="112.72" width="42.13" height="6.26" rx="3.13"/><g class="cls-28"><path class="cls-24" d="M495.47,128.66H489.2v6.27h6.27Z"/></g><path class="cls-25" d="M506.6,129.29a.41.41,0,0,1,.58.58l-2.91,2.91-.77.19.19-.77Zm.29-.63a1,1,0,0,0-.65.27l-2.95,3a.19.19,0,0,0-.07.12l-.31,1.25a.27.27,0,0,0,.06.24.24.24,0,0,0,.24.06l1.25-.31a.23.23,0,0,0,.12-.06l3-3a.91.91,0,0,0,.27-.64.93.93,0,0,0-.27-.65A.91.91,0,0,0,506.89,128.66Zm-4.48.23a.86.86,0,0,0-.61.25.9.9,0,0,0-.25.62v4.3a.86.86,0,0,0,.25.61.87.87,0,0,0,.61.26h4.3a.9.9,0,0,0,.62-.26.86.86,0,0,0,.25-.61v-2.15a.26.26,0,0,0-.25-.26.26.26,0,0,0-.26.26v2.15a.35.35,0,0,1-.1.25.36.36,0,0,1-.26.11h-4.3a.38.38,0,0,1-.36-.36v-4.3a.36.36,0,0,1,.11-.26.35.35,0,0,1,.25-.1h2.15a.26.26,0,0,0,.26-.26.26.26,0,0,0-.26-.25Z"/><path class="cls-27" d="M153.41,128.66H179.6a3.14,3.14,0,0,1,3.13,3.14h0a3.13,3.13,0,0,1-3.13,3.13H153.41a3.13,3.13,0,0,1-3.13-3.13h0A3.14,3.14,0,0,1,153.41,128.66Z"/><g class="cls-29"><path class="cls-24" d="M495.47,143.46H489.2v6.27h6.27Z"/></g><path class="cls-25" d="M506.6,144.09a.41.41,0,0,1,.58,0,.41.41,0,0,1,0,.58l-2.91,2.91-.77.19.19-.77Zm.29-.62a.94.94,0,0,0-.65.26l-2.95,3a.25.25,0,0,0-.07.12l-.31,1.25a.26.26,0,0,0,.06.24.28.28,0,0,0,.24.07l1.25-.32a.23.23,0,0,0,.12-.06l3-3a.92.92,0,0,0,0-1.3A.91.91,0,0,0,506.89,143.47Zm-4.48.22a.83.83,0,0,0-.61.26.86.86,0,0,0-.25.61v4.3a.86.86,0,0,0,.25.61.83.83,0,0,0,.61.26h4.3a.87.87,0,0,0,.87-.87v-2.15a.25.25,0,0,0-.25-.25.26.26,0,0,0-.26.25v2.15a.33.33,0,0,1-.1.25.36.36,0,0,1-.26.11h-4.3a.36.36,0,0,1-.25-.11.34.34,0,0,1-.11-.25v-4.3a.36.36,0,0,1,.11-.26.39.39,0,0,1,.25-.1h2.15a.26.26,0,0,0,.26-.25.26.26,0,0,0-.26-.26Z"/><path class="cls-27" d="M153.41,144h35.87a3.14,3.14,0,0,1,3.13,3.14h0a3.13,3.13,0,0,1-3.13,3.13H153.41a3.13,3.13,0,0,1-3.13-3.13h0A3.14,3.14,0,0,1,153.41,144Z"/><g class="cls-30"><path class="cls-24" d="M495.47,158.84H489.2v6.26h6.27Z"/></g><path class="cls-25" d="M506.6,159.46a.41.41,0,0,1,.58,0,.41.41,0,0,1,0,.58L504.27,163l-.77.19.19-.77Zm.29-.62a.94.94,0,0,0-.65.26l-2.95,3a.25.25,0,0,0-.07.12l-.31,1.25a.26.26,0,0,0,.06.24.28.28,0,0,0,.24.07l1.25-.31a.35.35,0,0,0,.12-.07l3-3a.93.93,0,0,0,.27-.65,1,1,0,0,0-.27-.65A.91.91,0,0,0,506.89,158.84Zm-4.48.22a.83.83,0,0,0-.61.26.86.86,0,0,0-.25.61v4.3a.86.86,0,0,0,.25.61.83.83,0,0,0,.61.26h4.3a.87.87,0,0,0,.87-.87v-2.15a.25.25,0,0,0-.25-.25.26.26,0,0,0-.26.25v2.15a.35.35,0,0,1-.1.26.4.4,0,0,1-.26.1h-4.3a.39.39,0,0,1-.25-.1.36.36,0,0,1-.11-.26v-4.3a.33.33,0,0,1,.11-.25.36.36,0,0,1,.25-.11h2.15a.26.26,0,0,0,.26-.25.26.26,0,0,0-.26-.26Z"/><g class="cls-31"><path class="cls-24" d="M495.47,174.21H489.2v6.26h6.27Z"/></g><path class="cls-25" d="M506.6,174.83a.44.44,0,0,1,.58,0,.41.41,0,0,1,0,.58l-2.91,2.91-.77.19.19-.76Zm.29-.62a.91.91,0,0,0-.65.27l-2.95,3a.19.19,0,0,0-.07.11l-.31,1.25a.26.26,0,0,0,.06.24.28.28,0,0,0,.24.07l1.25-.31a.24.24,0,0,0,.12-.07l3-3a.91.91,0,0,0,0-1.29A.88.88,0,0,0,506.89,174.21Zm-4.48.22a.83.83,0,0,0-.61.26.86.86,0,0,0-.25.61v4.3a.9.9,0,0,0,.25.62.86.86,0,0,0,.61.25h4.3a.89.89,0,0,0,.62-.25.9.9,0,0,0,.25-.62v-2.15a.25.25,0,0,0-.25-.25.26.26,0,0,0-.26.25v2.15a.35.35,0,0,1-.1.26.4.4,0,0,1-.26.1h-4.3a.39.39,0,0,1-.25-.1.36.36,0,0,1-.11-.26v-4.3a.34.34,0,0,1,.11-.25.36.36,0,0,1,.25-.11h2.15a.26.26,0,0,0,.26-.25.26.26,0,0,0-.26-.26Z"/><path class="cls-27" d="M153.41,158.84h32.45A3.14,3.14,0,0,1,189,162h0a3.14,3.14,0,0,1-3.14,3.13H153.41a3.13,3.13,0,0,1-3.13-3.13h0A3.13,3.13,0,0,1,153.41,158.84Z"/><rect class="cls-22" x="211.77" y="97.35" width="47.25" height="6.26" rx="3.13"/><rect class="cls-27" x="211.77" y="112.72" width="47.25" height="6.26" rx="3.13"/><path class="cls-27" d="M139.75,49.53H243.93a3.14,3.14,0,0,1,3.14,3.13h0a3.14,3.14,0,0,1-3.14,3.13H139.75a3.13,3.13,0,0,1-3.13-3.13h0A3.13,3.13,0,0,1,139.75,49.53Z"/><path class="cls-27" d="M270.12,49.53H374.3a3.14,3.14,0,0,1,3.14,3.13h0a3.14,3.14,0,0,1-3.14,3.13H270.12A3.13,3.13,0,0,1,267,52.66h0A3.13,3.13,0,0,1,270.12,49.53Z"/><path class="cls-27" d="M214.9,128.66h50.67a3.14,3.14,0,0,1,3.13,3.14h0a3.13,3.13,0,0,1-3.13,3.13H214.9a3.13,3.13,0,0,1-3.13-3.13h0A3.14,3.14,0,0,1,214.9,128.66Z"/><path class="cls-27" d="M153.41,174.78h38.15a3.13,3.13,0,0,1,3.13,3.13h0a3.13,3.13,0,0,1-3.13,3.13H153.41a3.13,3.13,0,0,1-3.13-3.13h0A3.13,3.13,0,0,1,153.41,174.78Z"/><path class="cls-27" d="M214.9,174.78h50.67a3.13,3.13,0,0,1,3.13,3.13h0a3.13,3.13,0,0,1-3.13,3.13H214.9a3.13,3.13,0,0,1-3.13-3.13h0A3.13,3.13,0,0,1,214.9,174.78Z"/><path class="cls-27" d="M214.9,144h38.71a3.14,3.14,0,0,1,3.13,3.14h0a3.13,3.13,0,0,1-3.13,3.13H214.9a3.13,3.13,0,0,1-3.13-3.13h0A3.14,3.14,0,0,1,214.9,144Z"/><path class="cls-27" d="M214.9,158.84h50.67A3.13,3.13,0,0,1,268.7,162h0a3.13,3.13,0,0,1-3.13,3.13H214.9a3.13,3.13,0,0,1-3.13-3.13h0A3.13,3.13,0,0,1,214.9,158.84Z"/><rect class="cls-22" x="291.47" y="97.35" width="44.98" height="6.26" rx="3.13"/><rect class="cls-27" x="291.47" y="112.72" width="39.28" height="6.26" rx="3.13"/><path class="cls-27" d="M294.6,128.66h42.13a3.14,3.14,0,0,1,3.13,3.14h0a3.13,3.13,0,0,1-3.13,3.13H294.6a3.13,3.13,0,0,1-3.13-3.13h0A3.14,3.14,0,0,1,294.6,128.66Z"/><path class="cls-27" d="M294.6,174.78h43.84a3.13,3.13,0,0,1,3.13,3.13h0a3.13,3.13,0,0,1-3.13,3.13H294.6a3.13,3.13,0,0,1-3.13-3.13h0A3.13,3.13,0,0,1,294.6,174.78Z"/><path class="cls-27" d="M294.6,144h42.13a3.14,3.14,0,0,1,3.13,3.14h0a3.13,3.13,0,0,1-3.13,3.13H294.6a3.13,3.13,0,0,1-3.13-3.13h0A3.14,3.14,0,0,1,294.6,144Z"/><path class="cls-27" d="M294.6,158.84H335a3.13,3.13,0,0,1,3.13,3.13h0A3.13,3.13,0,0,1,335,165.1H294.6a3.13,3.13,0,0,1-3.13-3.13h0A3.13,3.13,0,0,1,294.6,158.84Z"/><rect class="cls-22" x="369.46" y="97.35" width="52.95" height="6.26" rx="3.13"/><rect class="cls-27" x="369.46" y="112.72" width="46.68" height="6.26" rx="3.13"/><path class="cls-27" d="M372.6,128.66h50.66a3.15,3.15,0,0,1,3.14,3.14h0a3.14,3.14,0,0,1-3.14,3.13H372.6a3.14,3.14,0,0,1-3.14-3.13h0A3.15,3.15,0,0,1,372.6,128.66Z"/><path class="cls-27" d="M372.6,174.78h52.94a3.13,3.13,0,0,1,3.13,3.13h0a3.13,3.13,0,0,1-3.13,3.13H372.6a3.14,3.14,0,0,1-3.14-3.13h0A3.14,3.14,0,0,1,372.6,174.78Z"/><path class="cls-27" d="M372.6,144h50.66a3.15,3.15,0,0,1,3.14,3.14h0a3.14,3.14,0,0,1-3.14,3.13H372.6a3.14,3.14,0,0,1-3.14-3.13h0A3.15,3.15,0,0,1,372.6,144Z"/><path class="cls-27" d="M372.6,158.84h49a3.13,3.13,0,0,1,3.13,3.13h0a3.13,3.13,0,0,1-3.13,3.13h-49a3.14,3.14,0,0,1-3.14-3.13h0A3.14,3.14,0,0,1,372.6,158.84Z"/><path class="cls-9" d="M137.92,116.75h.34a.69.69,0,0,0,.51-.18.66.66,0,0,0,.19-.48q0-.69-.63-.69a.66.66,0,0,0-.48.19.69.69,0,0,0-.17.48h-.46a1,1,0,0,1,.31-.76,1.09,1.09,0,0,1,.8-.31,1,1,0,0,1,1.08,1.1.91.91,0,0,1-.15.49.93.93,0,0,1-.41.35.86.86,0,0,1,.45.34.94.94,0,0,1,.17.57,1.11,1.11,0,0,1-.32.83,1.29,1.29,0,0,1-1.64,0,1,1,0,0,1-.32-.78h.46a.67.67,0,0,0,.18.49.7.7,0,0,0,.5.18.69.69,0,0,0,.51-.18.81.81,0,0,0,.17-.54.68.68,0,0,0-.19-.52.86.86,0,0,0-.56-.19h-.34Z"/><path class="cls-9" d="M137.32,147.42l.18-1.68h1.86v.4h-1.47l-.11.92a1.23,1.23,0,0,1,.61-.15,1,1,0,0,1,.79.31,1.14,1.14,0,0,1,.29.82,1.07,1.07,0,0,1-.31.82,1.14,1.14,0,0,1-.84.3,1.16,1.16,0,0,1-.78-.25.93.93,0,0,1-.35-.68h.43a.67.67,0,0,0,.23.43.7.7,0,0,0,.47.15.63.63,0,0,0,.5-.21.87.87,0,0,0,0-1.1.69.69,0,0,0-.53-.2.8.8,0,0,0-.47.12l-.12.09Z"/><path class="cls-9" d="M137.32,178.17l.18-1.69h1.86v.4h-1.47l-.11.92a1.23,1.23,0,0,1,.61-.15,1.07,1.07,0,0,1,.79.31,1.14,1.14,0,0,1,.29.82,1.07,1.07,0,0,1-.31.82,1.14,1.14,0,0,1-.84.3,1.16,1.16,0,0,1-.78-.25.93.93,0,0,1-.35-.68h.43a.7.7,0,0,0,.23.44.75.75,0,0,0,.47.14.65.65,0,0,0,.5-.2.79.79,0,0,0,.19-.56.77.77,0,0,0-.2-.55.72.72,0,0,0-.53-.2.8.8,0,0,0-.47.12l-.12.09Z"/><path class="cls-9" d="M139,132.07h.44v.35H139v.8h-.4v-.8h-1.44v-.25l1.41-2.37H139Zm-1.39,0h1V130.4l0,.09Z"/><path class="cls-9" d="M139,160.54v.37h-.08a1.26,1.26,0,0,0-.86.29,1.18,1.18,0,0,0-.36.81,1,1,0,0,1,.77-.3.93.93,0,0,1,.75.31,1.26,1.26,0,0,1,0,1.63,1.17,1.17,0,0,1-1.65-.06,1.44,1.44,0,0,1-.32-1v-.16a2.13,2.13,0,0,1,.42-1.42,1.64,1.64,0,0,1,1.27-.51Zm-.6,1.52a.8.8,0,0,0-.43.13.68.68,0,0,0-.28.33v.16a1.07,1.07,0,0,0,.2.67.61.61,0,0,0,.5.26.59.59,0,0,0,.49-.22.86.86,0,0,0,.17-.55.82.82,0,0,0-.18-.56A.56.56,0,0,0,138.36,162.06Z"/><path class="cls-1" d="M489.55,72.06h-1.34l-.28.77h-.62l1.31-3.29h.54l1.3,3.29h-.62Zm-1.17-.46h1l-.5-1.36Z"/><path class="cls-1" d="M491.86,72.43a.56.56,0,0,0,.36-.12.41.41,0,0,0,.15-.29h.54a.68.68,0,0,1-.15.42.92.92,0,0,1-.38.32,1.26,1.26,0,0,1-.51.11,1.14,1.14,0,0,1-.86-.33,1.28,1.28,0,0,1-.31-.92v-.05a1.26,1.26,0,0,1,.31-.9,1.11,1.11,0,0,1,.85-.33,1.08,1.08,0,0,1,.75.25.9.9,0,0,1,.3.67h-.54a.54.54,0,0,0-.15-.35.52.52,0,0,0-.36-.13.5.5,0,0,0-.43.19,1,1,0,0,0-.16.59v.09a1,1,0,0,0,.15.59A.52.52,0,0,0,491.86,72.43Z"/><path class="cls-1" d="M494.4,72.43a.52.52,0,0,0,.36-.12.39.39,0,0,0,.16-.29h.54a.82.82,0,0,1-.15.42.92.92,0,0,1-.38.32,1.27,1.27,0,0,1-.52.11,1.11,1.11,0,0,1-.85-.33,1.29,1.29,0,0,1-.32-.92v-.05a1.31,1.31,0,0,1,.31-.9,1.14,1.14,0,0,1,.86-.33,1.07,1.07,0,0,1,.74.25.87.87,0,0,1,.31.67h-.54a.5.5,0,0,0-.16-.35.48.48,0,0,0-.36-.13A.51.51,0,0,0,494,71a1,1,0,0,0-.15.59v.09a1,1,0,0,0,.15.59A.5.5,0,0,0,494.4,72.43Z"/><path class="cls-1" d="M496.51,72.83h-.58V70.38h.58Zm-.61-3.08a.25.25,0,0,1,.08-.21.32.32,0,0,1,.24-.08.29.29,0,0,1,.24.08.26.26,0,0,1,.09.21.29.29,0,0,1-.09.21.33.33,0,0,1-.24.08A.36.36,0,0,1,496,70,.28.28,0,0,1,495.9,69.75Z"/><path class="cls-1" d="M497,71.58a1.34,1.34,0,0,1,.15-.64,1.08,1.08,0,0,1,.42-.45,1.26,1.26,0,0,1,.62-.15,1.14,1.14,0,0,1,.85.32,1.24,1.24,0,0,1,.35.84v.13a1.38,1.38,0,0,1-.15.65,1.08,1.08,0,0,1-.41.44,1.3,1.3,0,0,1-.63.15,1.15,1.15,0,0,1-.87-.34,1.28,1.28,0,0,1-.33-.92Zm.58,0a.94.94,0,0,0,.16.59.55.55,0,0,0,.46.21.54.54,0,0,0,.45-.21,1.06,1.06,0,0,0,.17-.64.93.93,0,0,0-.17-.58.53.53,0,0,0-.46-.22.57.57,0,0,0-.45.21A1,1,0,0,0,497.61,71.63Z"/><path class="cls-1" d="M500.44,70.38l0,.29a.94.94,0,0,1,.75-.33c.53,0,.81.29.82.87v1.62h-.58V71.24a.48.48,0,0,0-.11-.34.46.46,0,0,0-.34-.11.56.56,0,0,0-.52.3v1.74h-.58V70.38Z"/><path class="cls-1" d="M503.75,72.87a1.21,1.21,0,0,1-.89-.33,1.15,1.15,0,0,1-.34-.87V71.6a1.38,1.38,0,0,1,.15-.65,1,1,0,0,1,.41-.45,1.12,1.12,0,0,1,.6-.16,1,1,0,0,1,.81.32,1.3,1.3,0,0,1,.29.9v.22H503.1a.76.76,0,0,0,.21.48.7.7,0,0,0,.47.17.81.81,0,0,0,.65-.3l.31.28a1,1,0,0,1-.41.34A1.4,1.4,0,0,1,503.75,72.87Zm-.07-2.09a.5.5,0,0,0-.39.16.85.85,0,0,0-.18.44h1.1v0a.62.62,0,0,0-.16-.42A.5.5,0,0,0,503.68,70.78Z"/><path class="cls-1" d="M506.67,72.16a.23.23,0,0,0-.13-.22,1.34,1.34,0,0,0-.42-.14,2.2,2.2,0,0,1-.49-.15.61.61,0,0,1-.43-.57.63.63,0,0,1,.28-.53,1.13,1.13,0,0,1,.71-.21,1.2,1.2,0,0,1,.74.21.7.7,0,0,1,.29.57h-.58a.31.31,0,0,0-.12-.26.46.46,0,0,0-.33-.11.57.57,0,0,0-.31.08.27.27,0,0,0-.12.23.21.21,0,0,0,.11.19,1.4,1.4,0,0,0,.45.14,2.36,2.36,0,0,1,.53.17.79.79,0,0,1,.29.24.59.59,0,0,1,.1.33.65.65,0,0,1-.29.54,1.3,1.3,0,0,1-.75.2,1.29,1.29,0,0,1-.57-.11.88.88,0,0,1-.38-.3.67.67,0,0,1-.14-.4h.56a.38.38,0,0,0,.16.3.6.6,0,0,0,.37.1.65.65,0,0,0,.35-.08A.26.26,0,0,0,506.67,72.16Z"/><path class="cls-9" d="M523.75,78.56H522V97.92h1.71Z"/><path class="cls-32" d="M523.75,85.4H522V185.59h1.71Z"/><path class="cls-33" d="M312.9,267,225,269.26V323.7l61,44.15H476.41Z"/><path class="cls-34" d="M111.28,249.53H8.16A7.17,7.17,0,0,1,1,242.37V149.16A7.17,7.17,0,0,1,8.16,142H111.28a7.17,7.17,0,0,1,7.16,7.16v93.21A7.17,7.17,0,0,1,111.28,249.53Z"/><path class="cls-35" d="M77.5,158.5h27.62a1.87,1.87,0,0,0,1.87-1.87,1.89,1.89,0,0,0-1.87-1.88H77.5a1.88,1.88,0,0,0,0,3.75Z"/><path class="cls-36" d="M77.5,165h27.62a1.87,1.87,0,0,0,0-3.74H77.5a1.87,1.87,0,0,0,0,3.74Z"/><path class="cls-36" d="M77.5,171.49h27.62a1.88,1.88,0,0,0,0-3.75H77.5a1.88,1.88,0,0,0,0,3.75Z"/><path class="cls-37" d="M66.26,168.74A27.3,27.3,0,0,0,39.8,150.67a26.6,26.6,0,0,0-8.36,1.6A27.21,27.21,0,0,0,15,187.09c.21.57.44,1.16.67,1.69a26.71,26.71,0,0,0,4.23,6.78,27.24,27.24,0,0,0,46.4-26.82ZM47.48,197.15a20.4,20.4,0,0,1-22.43-6,19.35,19.35,0,0,1-3.16-5.09c-.18-.41-.36-.84-.51-1.28A20.43,20.43,0,0,1,40,157.5a20.42,20.42,0,0,1,7.47,39.65Z"/><path class="cls-9" d="M21.09,171.85l-6.51-2a27.16,27.16,0,0,1,16.83-17.53,27.66,27.66,0,0,1,8.37-1.59l.2,6.83a20.43,20.43,0,0,0-18.89,14.32Z"/><path class="cls-38" d="M21.86,186.06l-6.26,2.72c-.23-.56-.46-1.12-.66-1.69a27.16,27.16,0,0,1-.36-17.3l6.51,2a20.42,20.42,0,0,0,.26,13C21.53,185.24,21.68,185.65,21.86,186.06Z"/><path class="cls-39" d="M19.84,195.59a27.8,27.8,0,0,1-4.24-6.78l6.27-2.72A20.85,20.85,0,0,0,25,191.17Z"/><path class="cls-40" d="M89.87,185.4a11.27,11.27,0,0,0-14.8,15.42,11,11,0,0,0,5.15,5l.7.31a11.1,11.1,0,0,0,3.21.75,11.28,11.28,0,0,0,5.74-21.43Zm2.83,13.8a8.44,8.44,0,0,1-8.32,4.8,8.61,8.61,0,0,1-2.41-.56l-.51-.23a8.46,8.46,0,1,1,11.24-4Z"/><path class="cls-9" d="M77.58,199.51l-2.49,1.31a11.25,11.25,0,0,1-.2-10.06,10.6,10.6,0,0,1,2-2.9l2.06,1.93A8,8,0,0,0,77.43,192,8.37,8.37,0,0,0,77.58,199.51Z"/><path class="cls-41" d="M82,203.44l-1,2.62c-.23-.11-.46-.18-.69-.31a11.17,11.17,0,0,1-5.16-4.95l2.49-1.31a8.54,8.54,0,0,0,3.88,3.72Z"/><path class="cls-42" d="M84.15,206.83a11.17,11.17,0,0,1-3.21-.75l1-2.62a9,9,0,0,0,2.41.57Z"/><path class="cls-42" d="M81.58,214.24h-21v-.41H81.17V204.9h.41Z"/><path class="cls-43" d="M71.63,209.47H60.54V212H71.63Z"/><path class="cls-34" d="M143.92,266.7H48.66a4.82,4.82,0,0,1-4.83-4.82v-37a4.83,4.83,0,0,1,4.83-4.83h95.26a4.83,4.83,0,0,1,4.83,4.83v37A4.82,4.82,0,0,1,143.92,266.7Z"/><path class="cls-43" d="M64,229.59H59.31v30.85H64Z"/><path class="cls-43" d="M75.5,235.85H70.86v24.59H75.5Z"/><path class="cls-43" d="M87.05,231.26H82.41v29.2h4.64Z"/><path class="cls-43" d="M98.6,240.37H94v20.09H98.6Z"/><path class="cls-43" d="M110.15,232.21H105.5v28.25h4.65Z"/><path class="cls-43" d="M121.72,228h-4.64v32.51h4.64Z"/><path class="cls-43" d="M133.27,226.18h-4.64v34.28h4.64Z"/><path class="cls-40" d="M64,241.09H59.31v19.35H64Z"/><path class="cls-40" d="M75.5,245H70.86v15.43H75.5Z"/><path class="cls-40" d="M87.05,242.14H82.41v18.32h4.64Z"/><path class="cls-40" d="M98.6,247.84H94v12.6H98.6Z"/><path class="cls-40" d="M110.15,242.73H105.5v17.73h4.65Z"/><path class="cls-40" d="M121.72,240.06h-4.64v20.4h4.64Z"/><path class="cls-40" d="M133.27,238.93h-4.64v21.51h4.64Z"/><g class="cls-44"><path class="cls-45" d="M491.11,269.84H599a10.11,10.11,0,0,0,10.1-10.1V116.1A10.11,10.11,0,0,0,599,106H491.11A10.12,10.12,0,0,0,481,116.1V259.74A10.12,10.12,0,0,0,491.11,269.84Z"/></g><path class="cls-42" d="M593.76,119.66H560.82v3.74h32.94Z"/><path class="cls-9" d="M593.76,127.91H569.58v3.74h24.18Z"/><path class="cls-9" d="M593.81,136.12H534.34v3.74h59.47Z"/><path class="cls-42" d="M536.91,159.83h-40.8v3.74h40.8Z"/><path class="cls-9" d="M551.35,168.08H496.11v3.74h55.24Z"/><path class="cls-9" d="M569.76,176.33H496.11v3.75h73.65Z"/><path class="cls-42" d="M541.06,200.05H496.11v3.74h44.95Z"/><path class="cls-9" d="M558.25,208.3H496.11V212h62.14Z"/><path class="cls-9" d="M555.81,216.55h-59.7v3.74h59.7Z"/><path class="cls-10" d="M496,117.52l-2.79,7.66A1.78,1.78,0,0,1,489.9,124l2.8-7.66a1.77,1.77,0,0,1,3.33,1.21Z"/><path class="cls-46" d="M496,117.52l-2.79,7.66A1.78,1.78,0,0,1,489.9,124l2.8-7.66a1.77,1.77,0,0,1,3.33,1.21Z"/><path class="cls-10" d="M502.48,116.11l-3.31,9.07a1.78,1.78,0,0,1-3.34-1.21l3.31-9.07a1.78,1.78,0,0,1,3.34,1.21Z"/><path class="cls-47" d="M502.48,116.11l-3.31,9.07a1.78,1.78,0,0,1-3.34-1.21l3.31-9.07a1.78,1.78,0,0,1,3.34,1.21Z"/><path class="cls-10" d="M508.93,115l-3.75,10.3a1.78,1.78,0,1,1-3.34-1.22l3.76-10.3a1.77,1.77,0,1,1,3.33,1.22Z"/><path class="cls-48" d="M508.93,115l-3.75,10.3a1.78,1.78,0,1,1-3.34-1.22l3.76-10.3a1.77,1.77,0,1,1,3.33,1.22Z"/><g class="cls-3"><rect class="cls-49" x="483" y="270" width="126" height="85" rx="10"/></g><g class="cls-50"><rect class="cls-51" x="41.99" y="144" width="556.41" height="164" rx="10"/></g><g class="cls-3"><rect class="cls-52" y="250" width="117" height="99" rx="10"/></g><g class="cls-3"><rect class="cls-53" x="42" y="266" width="107" height="83" rx="10"/></g><g class="cls-54"><path class="cls-55" d="M364.15,309.48s7,3.13,10.09,4.21,14.6-.1,15.78.78,1.37,4.71-.49,5.3-15.48,4-20.29,3.53-13.13,2.74-15.09,2.35S352,314,352.39,311.44,364.15,309.48,364.15,309.48Z"/><path class="cls-56" d="M362.58,305l1.66,4.51s-8.42,3-11.66,2l-1.08-4.6Z"/><path class="cls-57" d="M277.51,224.8s30.09.29,33.71.78c4,.59,19.61,1.08,21.47,3.92,19,28.82,31.46,76.06,31.46,76.06-3,3-8.43,3.62-15.1,2.94,0,0-14.6-28.13-20.67-42.73-5.49-13.14-10.2-16.47-21.66-16.18s-48.22-2.25-69.49-4.8Z"/><path class="cls-55" d="M345.33,313.4s6.57,4,9.6,5.48,14.51,1.67,15.59,2.85.78,4.8-1.08,5.19S353.66,329,349,327.8s-13.33,1.08-15.29.4-.88-11.77-.2-14.31C334.16,311.53,345.33,313.4,345.33,313.4Z"/><path class="cls-56" d="M344.35,308.79l1,4.7s-8.72,1.87-11.86.59l-.59-4.7Z"/><path class="cls-27" d="M311.22,251.26H224v79.48h87.22Z"/><path class="cls-55" d="M277,224.21s30.09.3,33.71.79c4,.58,20,.78,21.47,3.92,10.88,22.05,13.32,80.65,13.32,80.65-3.72,2.36-8.52,2.75-14,1.67,0,0-6.86-29.79-9-44s-4.9-16.27-16.36-16-56.55,11.76-69.29-8.62Z"/><path class="cls-58" d="M274.37,155.31s8.92,19.12,8.14,26.27-8.33,26.75-8.92,30.77,3.33,11.76,3.33,11.76l-40.08,18.53a106.84,106.84,0,0,1,0-25.19c1.66-13.53,2.84-28,4.6-35.58,6.08-26,22.15-36.85,22.15-36.85Z"/><path class="cls-59" d="M273.59,212.35c2.94-8,3.43-20.48,3.43-20.48l-1.66-11.07-13.92-37.05-7.74,11.37a73.45,73.45,0,0,0-12.35,26.66c-1.77,7.64-4.51,28.71-5,35.87s-7.64,33.61-7.64,33.61c22.54,5.39,10.38,18.72,38.9,20.88C267.61,272.14,273.1,216.37,273.59,212.35Z"/><path class="cls-60" d="M251.05,173.45c.1-3.73,2.25-19.7,11.27-18.63s8,11.86,7.16,20.1c-.89,8.52-5.3,29.49-3.93,30.57s13.14,3.33,15.39,3.73,16.27,3.92,17.35,4.21-2.06,6.67-2.06,6.67-38.52-1.08-45-4.12S251.05,173.45,251.05,173.45Z"/><path class="cls-61" d="M297.4,214.41a23.08,23.08,0,0,0,4.22.79c1.37.09,7.94-2.46,9.9-2.16s15.09,6.66,15.68,7.06-.39,1.27-.39,1.27l-30.68-1.08Z"/><path class="cls-62" d="M284.76,219.61l-.19,4.7,51,2.06.2-4.71Z"/><path class="cls-62" d="M348.37,176.87,331.12,224.8l4.41,1.57,17.25-47.93Z"/><path class="cls-61" d="M277,146.69c-.29.78-.69,2.16-1,3.23a43.1,43.1,0,0,0-2.16,8.24c-.09,3.23-10.29-13-10.29-13s1,1.57,3.24-10C269.57,139.63,271.53,140.42,277,146.69Z"/><path class="cls-63" d="M297.7,125.23s.29,1.07-.59,3.72c-.29.88-2.45,4.71-2.74,5.49s.29,4.51.58,6.37a1.17,1.17,0,0,1-.78,1.27,5.46,5.46,0,0,0-1.86.79,10.23,10.23,0,0,1-5.29,6.56c-10.88,5.2-18.62-3.62-20.19-14.21,1.27-5.39,3-17.15,7.35-22.34C278.69,107.59,297.7,125.23,297.7,125.23Z"/><path class="cls-61" d="M263.59,145s15.39,24.8,15,21.27c-.3-2.74-6.76-16-6.76-16Z"/><path class="cls-55" d="M261.93,113.47a6.13,6.13,0,0,1-3.43-4.22s4.9-.78,5.68.39a12.74,12.74,0,0,1,0-7.64s4.22,1.18,4.22,6.86C268.4,109,271,115.82,261.93,113.47Z"/><path class="cls-55" d="M267.22,111.7c1.47,3.33,7.74,10.59,15.88,12a6.1,6.1,0,0,1-1.57,4.8c-2,2-4.8.59-4.8.59a12.39,12.39,0,0,1-.69,4.11,4.49,4.49,0,0,1-3.43,0c-3.92-1.07-5.19,3.73-6.08,2.85-2.35-3.92-6.46-18.13-2-22.35Z"/><path class="cls-55" d="M266.14,113.17c1.47,3.33,8.92,9.21,17.06,10.59,2.35-1,4.7,2.54,13,2.84s13.62-13.43,10.39-18.72c-1,4.7-4.9,4.31-6.86,3.72s-4-3.92-10.78-6.07c-7.06-2.26-18.92-1-22,7Z"/><path class="cls-63" d="M275.06,129.24c-.2-1.07-.1-4.5-4.61-3.82-4.11,1.77,0,10.78.69,11.08S276.43,138.07,275.06,129.24Z"/><path class="cls-60" d="M275.45,205.79l-2-23.72-8.92-16.47,2.26-5.29-6.57-6.86,1.18-10.19,3.82-.1,14.8,36Z"/><path class="cls-64" d="M278,190.69c-.29-.09-.78.59-.88,1a14.47,14.47,0,0,0,0,5.79c.19.88.49,1.27.78,1.27l1.57-.49v-7Z"/><path class="cls-65" d="M280,192.36a13.45,13.45,0,0,1,0,4.9,2.09,2.09,0,0,1-.29.78c-.3.4-.59.1-.88-.88a13.45,13.45,0,0,1,0-4.9,2,2,0,0,1,.29-.78C279.37,191,279.77,191.38,280,192.36Z"/><path class="cls-66" d="M263.6,142.38c-.4-1.08.39-1.57,1.17-2.16.3-.19.88-.19,1.08-.39l-.59,3.14A1,1,0,0,1,263.6,142.38Z"/><path class="cls-9" d="M277.51,158.16c-14.9-.89-16.07-12.35-16.07-12.45-.1-1.57,1.47-3.53,2-4.12l1,1.38c-.79,1-1.57,2.15-1.47,2.64,0,.1,1,9.9,14.7,10.78Z"/><path class="cls-9" d="M280.35,192.65l-.88-.49c0-.09,3.53-11.17,2.84-19.21a33.14,33.14,0,0,0-5.09-14.6l.78-.78A35.52,35.52,0,0,1,283.29,173C284,181.29,280.45,192.26,280.35,192.65Z"/><path class="cls-67" d="M280.94,194h0v-.79c0-.1,0-.1-.1-.19s0-.1-.1-.1,0-.1-.09-.1h-.49v-.1a.1.1,0,0,1,.1-.1.09.09,0,0,1,.09-.09l.1-.1h-1.08v4.21h1.18v-.39H281v-2.16l-.1-.09Z"/><path class="cls-68" d="M280.94,193a9.87,9.87,0,0,1,0,3.43c-.1.29-.1.49-.2.59-.19.29-.48.09-.58-.59a9.87,9.87,0,0,1,0-3.43c.1-.3.1-.49.19-.59C280.55,192.07,280.84,192.26,280.94,193Z"/><path class="cls-67" d="M280.84,193.54a4.68,4.68,0,0,1,0,2.35.54.54,0,0,1-.19.39c-.1.2-.3,0-.4-.39a4.92,4.92,0,0,1,0-2.35.52.52,0,0,1,.2-.4C280.55,193,280.74,193.05,280.84,193.54Z"/><path class="cls-69" d="M278.78,157l.2.69-1.86,1.56-1.18-1.17-2.84-.39.1-1.87,3.82.59C277.22,156.29,278.49,156.2,278.78,157Z"/><path class="cls-70" d="M280.45,193.34v2.25a.36.36,0,0,0-.1-.29v-.78a1.44,1.44,0,0,1,.1-.69.34.34,0,0,1,.1-.29v-.1Z"/></g><path class="cls-9" d="M180.58,86.78a1.92,1.92,0,0,1-.26,1.1,1.08,1.08,0,0,1-1.6,0,1.78,1.78,0,0,1-.27-1v-.57a1.81,1.81,0,0,1,.26-1.09.94.94,0,0,1,.8-.35.92.92,0,0,1,.8.34,1.77,1.77,0,0,1,.27,1.06Zm-.43-.58a1.53,1.53,0,0,0-.15-.78.55.55,0,0,0-.49-.25.53.53,0,0,0-.48.25,1.45,1.45,0,0,0-.15.75v.68a1.51,1.51,0,0,0,.16.79.58.58,0,0,0,1,0,1.52,1.52,0,0,0,.16-.77Z"/><path class="cls-9" d="M175.58,86.78a1.92,1.92,0,0,1-.26,1.1,1.08,1.08,0,0,1-1.6,0,1.78,1.78,0,0,1-.27-1v-.57a1.81,1.81,0,0,1,.26-1.09.94.94,0,0,1,.8-.35.92.92,0,0,1,.8.34,1.77,1.77,0,0,1,.27,1.06Zm-.43-.58a1.53,1.53,0,0,0-.15-.78.55.55,0,0,0-.49-.25.53.53,0,0,0-.48.25,1.45,1.45,0,0,0-.15.75v.68a1.51,1.51,0,0,0,.16.79.58.58,0,0,0,1,0,1.52,1.52,0,0,0,.16-.77Z"/></svg>