<svg width="855" height="855" viewBox="0 0 855 855" fill="none" xmlns="http://www.w3.org/2000/svg">
<rect opacity="0.1" x="90.25" y="179.708" width="688.75" height="414.833" fill="url(#paint0_linear_679_6471)"/>
<path d="M779 179.994H90.25V215.504H779V179.994Z" fill="#4D648D"/>
<path d="M559.281 187.93C559.281 186.815 560.228 185.912 561.396 185.912H691.07C692.238 185.912 693.184 186.815 693.184 187.93V206.088C693.184 207.203 692.238 208.106 691.07 208.106H561.396C560.228 208.106 559.281 207.203 559.281 206.088V187.93Z" fill="white"/>
<mask id="mask0_679_6471" style="mask-type:alpha" maskUnits="userSpaceOnUse" x="676" y="191" width="12" height="12">
<path d="M687.111 201.053L685.029 198.971C684.935 198.877 684.808 198.825 684.674 198.825H684.334C684.91 198.087 685.253 197.16 685.253 196.152C685.253 193.752 683.308 191.808 680.909 191.808C678.509 191.808 676.564 193.752 676.564 196.152C676.564 198.551 678.509 200.495 680.909 200.495C681.917 200.495 682.845 200.153 683.582 199.576V199.917C683.582 200.05 683.634 200.178 683.728 200.272L685.81 202.354C686.007 202.55 686.324 202.55 686.518 202.354L687.109 201.763C687.306 201.566 687.306 201.249 687.111 201.053ZM680.909 198.825C679.432 198.825 678.235 197.63 678.235 196.152C678.235 194.675 679.43 193.479 680.909 193.479C682.385 193.479 683.582 194.673 683.582 196.152C683.582 197.628 682.387 198.825 680.909 198.825Z" fill="white"/>
</mask>
<g mask="url(#mask0_679_6471)">
<path d="M687.111 201.053L685.029 198.971C684.935 198.877 684.808 198.825 684.674 198.825H684.334C684.91 198.087 685.253 197.16 685.253 196.152C685.253 193.752 683.308 191.808 680.909 191.808C678.509 191.808 676.564 193.752 676.564 196.152C676.564 198.551 678.509 200.495 680.909 200.495C681.917 200.495 682.845 200.153 683.582 199.576V199.917C683.582 200.05 683.634 200.178 683.728 200.272L685.81 202.354C686.007 202.55 686.324 202.55 686.518 202.354L687.109 201.763C687.306 201.566 687.306 201.249 687.111 201.053ZM680.909 198.825C679.432 198.825 678.235 197.63 678.235 196.152C678.235 194.675 679.43 193.479 680.909 193.479C682.385 193.479 683.582 194.673 683.582 196.152C683.582 197.628 682.387 198.825 680.909 198.825Z" fill="black"/>
<path d="M687.257 191.808H676.564V202.501H687.257V191.808Z" fill="#4D648D"/>
</g>
<path fill-rule="evenodd" clip-rule="evenodd" d="M117.453 194.584L114.316 203.516C113.939 204.589 112.794 205.143 111.759 204.752C110.723 204.362 110.189 203.175 110.566 202.102L113.703 193.17C114.08 192.097 115.225 191.544 116.26 191.934C117.296 192.325 117.83 193.511 117.453 194.584Z" fill="white"/>
<path fill-rule="evenodd" clip-rule="evenodd" d="M125.76 192.345L121.751 203.449C121.344 204.575 120.109 205.156 118.991 204.746C117.874 204.336 117.298 203.091 117.705 201.965L121.714 190.861C122.121 189.735 123.356 189.154 124.474 189.564C125.591 189.974 126.167 191.219 125.76 192.345Z" fill="white"/>
<path fill-rule="evenodd" clip-rule="evenodd" d="M134.068 191.102L129.183 203.476C128.746 204.581 127.421 205.15 126.223 204.748C125.025 204.346 124.407 203.125 124.843 202.02L129.728 189.646C130.164 188.541 131.489 187.971 132.688 188.374C133.886 188.776 134.504 189.997 134.068 191.102Z" fill="white"/>
<path d="M145.538 201.313V192.997H144.718L142.281 198.895L139.779 192.997H138.959V201.313H139.779V194.994L141.914 200.005H142.615L144.718 194.994V201.313H145.538Z" fill="white"/>
<path d="M155.227 201.313V200.519H151.28V197.517H154.645V196.723H151.28V193.791H155.227V192.997H150.46V201.313H155.227Z" fill="white"/>
<path d="M164.951 197.155C164.951 195.882 164.951 194.667 164.271 193.873C163.754 193.265 163.117 192.997 162.254 192.997H159.623V201.313H162.254C163.117 201.313 163.754 201.045 164.271 200.437C164.951 199.643 164.951 198.428 164.951 197.155ZM164.131 197.155C164.131 198.311 164.12 199.339 163.624 199.912C163.236 200.379 162.697 200.519 162.114 200.519H160.443V193.791H162.114C162.697 193.791 163.236 193.931 163.624 194.398C164.12 194.971 164.131 195.999 164.131 197.155Z" fill="white"/>
<path d="M170.395 201.313V192.997H169.576V201.313H170.395Z" fill="white"/>
<path d="M180.989 201.313V192.997H180.169V199.643L176.092 192.997H175.316V201.313H176.135V194.644L180.212 201.313H180.989Z" fill="white"/>
<path d="M190.678 201.313V200.519H186.731V197.517H190.095V196.723H186.731V193.791H190.678V192.997H185.911V201.313H190.678Z" fill="white"/>
<path d="M199.55 193.791V192.997H194.287V193.791H196.508V201.313H197.328V193.791H199.55Z" fill="white"/>
<path d="M722.327 201.517C721.721 200.857 720.587 199.864 720.587 196.612C720.587 194.142 718.877 192.165 716.572 191.68V191.017C716.572 190.456 716.123 190 715.569 190C715.015 190 714.566 190.456 714.566 191.017V191.68C712.261 192.165 710.552 194.142 710.552 196.612C710.552 199.864 709.417 200.857 708.811 201.517C708.623 201.722 708.539 201.967 708.541 202.207C708.544 202.728 708.948 203.224 709.548 203.224H721.59C722.19 203.224 722.594 202.728 722.597 202.207C722.599 201.967 722.515 201.721 722.327 201.517V201.517ZM710.66 201.698C711.326 200.809 712.053 199.335 712.057 196.63C712.057 196.624 712.055 196.618 712.055 196.612C712.055 194.646 713.628 193.052 715.569 193.052C717.51 193.052 719.083 194.646 719.083 196.612C719.083 196.618 719.081 196.624 719.081 196.63C719.085 199.336 719.813 200.809 720.478 201.698H710.66ZM715.569 206.276C716.677 206.276 717.576 205.365 717.576 204.241H713.562C713.562 205.365 714.461 206.276 715.569 206.276Z" fill="white"/>
<g clip-path="url(#clip0_679_6471)">
<path d="M750.591 200.015C749.691 200.015 749.258 200.523 747.78 200.523C746.302 200.523 745.872 200.015 744.969 200.015C742.641 200.015 740.752 201.928 740.752 204.287V205.101C740.752 205.943 741.427 206.627 742.258 206.627H753.302C754.134 206.627 754.808 205.943 754.808 205.101V204.287C754.808 201.928 752.919 200.015 750.591 200.015ZM753.302 205.101H742.258V204.287C742.258 202.774 743.475 201.54 744.969 201.54C745.427 201.54 746.17 202.049 747.78 202.049C749.402 202.049 750.13 201.54 750.591 201.54C752.085 201.54 753.302 202.774 753.302 204.287V205.101ZM747.78 199.506C750.274 199.506 752.298 197.456 752.298 194.929C752.298 192.401 750.274 190.351 747.78 190.351C745.286 190.351 743.262 192.401 743.262 194.929C743.262 197.456 745.286 199.506 747.78 199.506ZM747.78 191.877C749.44 191.877 750.792 193.247 750.792 194.929C750.792 196.61 749.44 197.98 747.78 197.98C746.12 197.98 744.768 196.61 744.768 194.929C744.768 193.247 746.12 191.877 747.78 191.877Z" fill="white"/>
</g>
<rect x="218.234" y="194.05" width="48.0867" height="8.87755" fill="#8292AF"/>
<rect x="288.516" y="194.05" width="48.0867" height="8.87755" fill="#70CCFF"/>
<rect x="355.098" y="194.05" width="48.0867" height="8.87755" fill="white" fill-opacity="0.3"/>
<rect x="423.158" y="194.05" width="48.0867" height="8.87755" fill="white" fill-opacity="0.3"/>
<rect x="494.18" y="194.05" width="48.0867" height="8.87755" fill="white" fill-opacity="0.3"/>
<path d="M109.25 305.261C109.25 304.504 109.864 303.89 110.621 303.89H212.994C213.751 303.89 214.365 304.504 214.365 305.261V569.42C214.365 570.178 213.751 570.791 212.994 570.791H110.621C109.864 570.791 109.25 570.178 109.25 569.42V305.261Z" fill="white"/>
<path fill-rule="evenodd" clip-rule="evenodd" d="M212.994 304.347H110.621C110.116 304.347 109.707 304.757 109.707 305.261V569.42C109.707 569.925 110.116 570.334 110.621 570.334H212.994C213.499 570.334 213.908 569.925 213.908 569.42V305.261C213.908 304.757 213.499 304.347 212.994 304.347ZM110.621 303.89C109.864 303.89 109.25 304.504 109.25 305.261V569.42C109.25 570.178 109.864 570.791 110.621 570.791H212.994C213.751 570.791 214.365 570.178 214.365 569.42V305.261C214.365 304.504 213.751 303.89 212.994 303.89H110.621Z" fill="#B8CDEB"/>
<path d="M218.936 305.261C218.936 304.504 219.549 303.89 220.307 303.89H576.327C577.084 303.89 577.698 304.504 577.698 305.261V569.42C577.698 570.178 577.084 570.791 576.327 570.791H220.307C219.549 570.791 218.936 570.178 218.936 569.42V305.261Z" fill="white"/>
<path fill-rule="evenodd" clip-rule="evenodd" d="M576.327 304.347H220.307C219.802 304.347 219.393 304.757 219.393 305.261V569.42C219.393 569.925 219.802 570.334 220.307 570.334H576.327C576.832 570.334 577.241 569.925 577.241 569.42V305.261C577.241 304.757 576.832 304.347 576.327 304.347ZM220.307 303.89C219.549 303.89 218.936 304.504 218.936 305.261V569.42C218.936 570.178 219.549 570.791 220.307 570.791H576.327C577.084 570.791 577.698 570.178 577.698 569.42V305.261C577.698 304.504 577.084 303.89 576.327 303.89H220.307Z" fill="#B8CDEB"/>
<path d="M583.182 305.261C583.182 304.504 583.795 303.89 584.553 303.89H755.022C755.779 303.89 756.393 304.504 756.393 305.261V569.42C756.393 570.178 755.779 570.791 755.022 570.791H584.553C583.795 570.791 583.182 570.178 583.182 569.42V305.261Z" fill="white"/>
<path fill-rule="evenodd" clip-rule="evenodd" d="M755.022 304.347H584.553C584.048 304.347 583.639 304.757 583.639 305.261V569.42C583.639 569.925 584.048 570.334 584.553 570.334H755.022C755.527 570.334 755.936 569.925 755.936 569.42V305.261C755.936 304.757 755.527 304.347 755.022 304.347ZM584.553 303.89C583.795 303.89 583.182 304.504 583.182 305.261V569.42C583.182 570.178 583.795 570.791 584.553 570.791H755.022C755.779 570.791 756.393 570.178 756.393 569.42V305.261C756.393 304.504 755.779 303.89 755.022 303.89H584.553Z" fill="#B8CDEB"/>
<path d="M118.391 322.628C118.391 319.852 120.641 317.601 123.418 317.601H187.401C190.177 317.601 192.428 319.852 192.428 322.628V322.628C192.428 325.405 190.177 327.656 187.401 327.656H123.418C120.641 327.656 118.391 325.405 118.391 322.628V322.628Z" fill="white"/>
<path d="M118.391 322.628C118.391 319.852 120.641 317.601 123.418 317.601H187.401C190.177 317.601 192.428 319.852 192.428 322.628V322.628C192.428 325.405 190.177 327.656 187.401 327.656H123.418C120.641 327.656 118.391 325.405 118.391 322.628V322.628Z" fill="white"/>
<path d="M118.391 322.628C118.391 319.852 120.641 317.601 123.418 317.601H187.401C190.177 317.601 192.428 319.852 192.428 322.628V322.628C192.428 325.405 190.177 327.656 187.401 327.656H123.418C120.641 327.656 118.391 325.405 118.391 322.628V322.628Z" fill="#E2E9FF"/>
<path d="M118.391 339.538C118.391 336.762 120.641 334.511 123.418 334.511H172.776C175.553 334.511 177.804 336.762 177.804 339.538V339.538C177.804 342.315 175.553 344.565 172.776 344.565H123.418C120.641 344.565 118.391 342.315 118.391 339.538V339.538Z" fill="white"/>
<path d="M118.391 339.538C118.391 336.762 120.641 334.511 123.418 334.511H172.776C175.553 334.511 177.804 336.762 177.804 339.538V339.538C177.804 342.315 175.553 344.565 172.776 344.565H123.418C120.641 344.565 118.391 342.315 118.391 339.538V339.538Z" fill="white"/>
<path d="M118.391 339.538C118.391 336.762 120.641 334.511 123.418 334.511H172.776C175.553 334.511 177.804 336.762 177.804 339.538V339.538C177.804 342.315 175.553 344.565 172.776 344.565H123.418C120.641 344.565 118.391 342.315 118.391 339.538V339.538Z" fill="#E2E9FF"/>
<path d="M118.391 355.991C118.391 353.215 120.641 350.964 123.418 350.964H187.401C190.177 350.964 192.428 353.215 192.428 355.991V355.991C192.428 358.768 190.177 361.018 187.401 361.018H123.418C120.641 361.018 118.391 358.768 118.391 355.991V355.991Z" fill="white"/>
<path d="M118.391 355.991C118.391 353.215 120.641 350.964 123.418 350.964H187.401C190.177 350.964 192.428 353.215 192.428 355.991V355.991C192.428 358.768 190.177 361.018 187.401 361.018H123.418C120.641 361.018 118.391 358.768 118.391 355.991V355.991Z" fill="white"/>
<path d="M118.391 355.991C118.391 353.215 120.641 350.964 123.418 350.964H187.401C190.177 350.964 192.428 353.215 192.428 355.991V355.991C192.428 358.768 190.177 361.018 187.401 361.018H123.418C120.641 361.018 118.391 358.768 118.391 355.991V355.991Z" fill="#E2E9FF"/>
<path d="M118.391 372.901C118.391 370.125 120.641 367.874 123.418 367.874H172.776C175.553 367.874 177.804 370.125 177.804 372.901V372.901C177.804 375.677 175.553 377.928 172.776 377.928H123.418C120.641 377.928 118.391 375.677 118.391 372.901V372.901Z" fill="white"/>
<path d="M118.391 372.901C118.391 370.125 120.641 367.874 123.418 367.874H172.776C175.553 367.874 177.804 370.125 177.804 372.901V372.901C177.804 375.677 175.553 377.928 172.776 377.928H123.418C120.641 377.928 118.391 375.677 118.391 372.901V372.901Z" fill="white"/>
<path d="M118.391 372.901C118.391 370.125 120.641 367.874 123.418 367.874H172.776C175.553 367.874 177.804 370.125 177.804 372.901V372.901C177.804 375.677 175.553 377.928 172.776 377.928H123.418C120.641 377.928 118.391 375.677 118.391 372.901V372.901Z" fill="#E2E9FF"/>
<path d="M118.391 496.297C118.391 493.52 120.641 491.27 123.418 491.27H187.401C190.177 491.27 192.428 493.52 192.428 496.297V496.297C192.428 499.073 190.177 501.324 187.401 501.324H123.418C120.641 501.324 118.391 499.073 118.391 496.297V496.297Z" fill="white"/>
<path d="M118.391 496.297C118.391 493.52 120.641 491.27 123.418 491.27H187.401C190.177 491.27 192.428 493.52 192.428 496.297V496.297C192.428 499.073 190.177 501.324 187.401 501.324H123.418C120.641 501.324 118.391 499.073 118.391 496.297V496.297Z" fill="white"/>
<path d="M118.391 496.297C118.391 493.52 120.641 491.27 123.418 491.27H187.401C190.177 491.27 192.428 493.52 192.428 496.297V496.297C192.428 499.073 190.177 501.324 187.401 501.324H123.418C120.641 501.324 118.391 499.073 118.391 496.297V496.297Z" fill="#E2E9FF"/>
<path d="M118.391 513.207C118.391 510.43 120.641 508.179 123.418 508.179H172.776C175.553 508.179 177.804 510.43 177.804 513.207V513.207C177.804 515.983 175.553 518.234 172.776 518.234H123.418C120.641 518.234 118.391 515.983 118.391 513.207V513.207Z" fill="white"/>
<path d="M118.391 513.207C118.391 510.43 120.641 508.179 123.418 508.179H172.776C175.553 508.179 177.804 510.43 177.804 513.207V513.207C177.804 515.983 175.553 518.234 172.776 518.234H123.418C120.641 518.234 118.391 515.983 118.391 513.207V513.207Z" fill="white"/>
<path d="M118.391 513.207C118.391 510.43 120.641 508.179 123.418 508.179H172.776C175.553 508.179 177.804 510.43 177.804 513.207V513.207C177.804 515.983 175.553 518.234 172.776 518.234H123.418C120.641 518.234 118.391 515.983 118.391 513.207V513.207Z" fill="#E2E9FF"/>
<path d="M118.391 529.659C118.391 526.883 120.641 524.632 123.418 524.632H187.401C190.177 524.632 192.428 526.883 192.428 529.659V529.659C192.428 532.436 190.177 534.687 187.401 534.687H123.418C120.641 534.687 118.391 532.436 118.391 529.659V529.659Z" fill="white"/>
<path d="M118.391 529.659C118.391 526.883 120.641 524.632 123.418 524.632H187.401C190.177 524.632 192.428 526.883 192.428 529.659V529.659C192.428 532.436 190.177 534.687 187.401 534.687H123.418C120.641 534.687 118.391 532.436 118.391 529.659V529.659Z" fill="white"/>
<path d="M118.391 529.659C118.391 526.883 120.641 524.632 123.418 524.632H187.401C190.177 524.632 192.428 526.883 192.428 529.659V529.659C192.428 532.436 190.177 534.687 187.401 534.687H123.418C120.641 534.687 118.391 532.436 118.391 529.659V529.659Z" fill="#E2E9FF"/>
<path d="M118.391 546.569C118.391 543.793 120.641 541.542 123.418 541.542H172.776C175.553 541.542 177.804 543.793 177.804 546.569V546.569C177.804 549.346 175.553 551.597 172.776 551.597H123.418C120.641 551.597 118.391 549.346 118.391 546.569V546.569Z" fill="white"/>
<path d="M118.391 546.569C118.391 543.793 120.641 541.542 123.418 541.542H172.776C175.553 541.542 177.804 543.793 177.804 546.569V546.569C177.804 549.346 175.553 551.597 172.776 551.597H123.418C120.641 551.597 118.391 549.346 118.391 546.569V546.569Z" fill="white"/>
<path d="M118.391 546.569C118.391 543.793 120.641 541.542 123.418 541.542H172.776C175.553 541.542 177.804 543.793 177.804 546.569V546.569C177.804 549.346 175.553 551.597 172.776 551.597H123.418C120.641 551.597 118.391 549.346 118.391 546.569V546.569Z" fill="#E2E9FF"/>
<path d="M226.705 321.714C226.705 318.938 228.956 316.687 231.732 316.687H281.091C283.867 316.687 286.118 318.938 286.118 321.714V321.714C286.118 324.491 283.867 326.742 281.091 326.742H231.732C228.956 326.742 226.705 324.491 226.705 321.714V321.714Z" fill="white"/>
<path d="M226.705 321.714C226.705 318.938 228.956 316.687 231.732 316.687H281.091C283.867 316.687 286.118 318.938 286.118 321.714V321.714C286.118 324.491 283.867 326.742 281.091 326.742H231.732C228.956 326.742 226.705 324.491 226.705 321.714V321.714Z" fill="white"/>
<path d="M226.705 321.714C226.705 318.938 228.956 316.687 231.732 316.687H281.091C283.867 316.687 286.118 318.938 286.118 321.714V321.714C286.118 324.491 283.867 326.742 281.091 326.742H231.732C228.956 326.742 226.705 324.491 226.705 321.714V321.714Z" fill="#E2E9FF"/>
<path d="M226.705 321.714C226.705 318.938 228.956 316.687 231.732 316.687H281.091C283.867 316.687 286.118 318.938 286.118 321.714V321.714C286.118 324.491 283.867 326.742 281.091 326.742H231.732C228.956 326.742 226.705 324.491 226.705 321.714V321.714Z" fill="white"/>
<path d="M226.705 321.714C226.705 318.938 228.956 316.687 231.732 316.687H281.091C283.867 316.687 286.118 318.938 286.118 321.714V321.714C286.118 324.491 283.867 326.742 281.091 326.742H231.732C228.956 326.742 226.705 324.491 226.705 321.714V321.714Z" fill="white"/>
<path d="M226.705 321.714C226.705 318.938 228.956 316.687 231.732 316.687H281.091C283.867 316.687 286.118 318.938 286.118 321.714V321.714C286.118 324.491 283.867 326.742 281.091 326.742H231.732C228.956 326.742 226.705 324.491 226.705 321.714V321.714Z" fill="#E2E9FF"/>
<path d="M226.705 408.091C226.705 405.315 228.956 403.064 231.732 403.064H281.091C283.867 403.064 286.118 405.315 286.118 408.091V408.091C286.118 410.868 283.867 413.119 281.091 413.119H231.732C228.956 413.119 226.705 410.868 226.705 408.091V408.091Z" fill="white"/>
<path d="M226.705 408.091C226.705 405.315 228.956 403.064 231.732 403.064H281.091C283.867 403.064 286.118 405.315 286.118 408.091V408.091C286.118 410.868 283.867 413.119 281.091 413.119H231.732C228.956 413.119 226.705 410.868 226.705 408.091V408.091Z" fill="white"/>
<path d="M226.705 408.091C226.705 405.315 228.956 403.064 231.732 403.064H281.091C283.867 403.064 286.118 405.315 286.118 408.091V408.091C286.118 410.868 283.867 413.119 281.091 413.119H231.732C228.956 413.119 226.705 410.868 226.705 408.091V408.091Z" fill="#E2E9FF"/>
<g filter="url(#filter0_d_679_6471)">
<path d="M565.359 332.683H227.619C227.114 332.683 226.705 333.092 226.705 333.597V397.123C226.705 397.628 227.114 398.037 227.619 398.037H565.359C565.863 398.037 566.273 397.628 566.273 397.123V333.597C566.273 333.092 565.863 332.683 565.359 332.683Z" fill="black"/>
</g>
<path d="M565.132 332.912H227.85C227.345 332.912 226.936 333.322 226.936 333.826V396.895C226.936 397.4 227.345 397.81 227.85 397.81H565.132C565.637 397.81 566.046 397.4 566.046 396.895V333.826C566.046 333.322 565.637 332.912 565.132 332.912Z" fill="white"/>
<path fill-rule="evenodd" clip-rule="evenodd" d="M227.848 333.14C227.469 333.14 227.162 333.447 227.162 333.826V396.895C227.162 397.273 227.469 397.58 227.848 397.58H565.13C565.509 397.58 565.816 397.273 565.816 396.895V333.826C565.816 333.447 565.509 333.14 565.13 333.14H227.848ZM226.705 333.826C226.705 333.195 227.217 332.683 227.848 332.683H565.13C565.761 332.683 566.273 333.195 566.273 333.826V396.895C566.273 397.526 565.761 398.037 565.13 398.037H227.848C227.217 398.037 226.705 397.526 226.705 396.895V333.826Z" fill="#B8CDEB"/>
<g filter="url(#filter1_d_679_6471)">
<path d="M565.359 417.232H227.619C227.114 417.232 226.705 417.641 226.705 418.146V437.798C226.705 438.303 227.114 438.712 227.619 438.712H565.359C565.863 438.712 566.273 438.303 566.273 437.798V418.146C566.273 417.641 565.863 417.232 565.359 417.232Z" fill="black"/>
</g>
<path d="M565.132 417.461H227.85C227.345 417.461 226.936 417.87 226.936 418.375V437.57C226.936 438.075 227.345 438.484 227.85 438.484H565.132C565.637 438.484 566.046 438.075 566.046 437.57V418.375C566.046 417.87 565.637 417.461 565.132 417.461Z" fill="white"/>
<path fill-rule="evenodd" clip-rule="evenodd" d="M227.848 417.689C227.469 417.689 227.162 417.996 227.162 418.375V437.57C227.162 437.948 227.469 438.255 227.848 438.255H565.13C565.509 438.255 565.816 437.948 565.816 437.57V418.375C565.816 417.996 565.509 417.689 565.13 417.689H227.848ZM226.705 418.375C226.705 417.744 227.217 417.232 227.848 417.232H565.13C565.761 417.232 566.273 417.744 566.273 418.375V437.57C566.273 438.201 565.761 438.712 565.13 438.712H227.848C227.217 438.712 226.705 438.201 226.705 437.57V418.375Z" fill="#B8CDEB"/>
<g filter="url(#filter2_d_679_6471)">
<path d="M219.85 281.496H576.784C577.289 281.496 577.698 281.905 577.698 282.41V304.347H218.936V282.41C218.936 281.905 219.345 281.496 219.85 281.496Z" fill="black"/>
</g>
<path fill-rule="evenodd" clip-rule="evenodd" d="M219.166 304.119H577.472V282.411C577.472 282.032 577.165 281.725 576.786 281.725H219.852C219.473 281.725 219.166 282.032 219.166 282.411V304.119Z" fill="url(#paint1_linear_679_6471)"/>
<path fill-rule="evenodd" clip-rule="evenodd" d="M218.936 282.41C218.936 281.905 219.345 281.496 219.85 281.496H576.784C577.289 281.496 577.698 281.905 577.698 282.41V304.347H218.936V282.41ZM219.85 281.953C219.597 281.953 219.393 282.158 219.393 282.41V303.89H577.241V282.41C577.241 282.158 577.036 281.953 576.784 281.953H219.85Z" fill="#7091F5"/>
<g filter="url(#filter3_d_679_6471)">
<path d="M569.929 284.696H510.516C510.011 284.696 509.602 285.105 509.602 285.61V300.234C509.602 300.739 510.011 301.148 510.516 301.148H569.929C570.433 301.148 570.843 300.739 570.843 300.234V285.61C570.843 285.105 570.433 284.696 569.929 284.696Z" fill="black"/>
</g>
<path d="M569.929 284.696H510.516C510.011 284.696 509.602 285.105 509.602 285.61V300.234C509.602 300.739 510.011 301.148 510.516 301.148H569.929C570.433 301.148 570.843 300.739 570.843 300.234V285.61C570.843 285.105 570.433 284.696 569.929 284.696Z" fill="#243E6D"/>
<path fill-rule="evenodd" clip-rule="evenodd" d="M510.516 284.924C510.137 284.924 509.83 285.231 509.83 285.61V300.234C509.83 300.613 510.137 300.92 510.516 300.92H569.929C570.307 300.92 570.614 300.613 570.614 300.234V285.61C570.614 285.231 570.307 284.924 569.929 284.924H510.516ZM509.373 285.61C509.373 284.979 509.885 284.467 510.516 284.467H569.929C570.56 284.467 571.071 284.979 571.071 285.61V300.234C571.071 300.865 570.56 301.377 569.929 301.377H510.516C509.885 301.377 509.373 300.865 509.373 300.234V285.61Z" fill="#233D6C"/>
<g filter="url(#filter4_d_679_6471)">
<path d="M583.639 281.496H755.479C755.984 281.496 756.393 281.905 756.393 282.41V304.347H582.725V282.41C582.725 281.905 583.134 281.496 583.639 281.496Z" fill="black"/>
</g>
<path fill-rule="evenodd" clip-rule="evenodd" d="M582.953 304.119H756.165V282.41C756.165 282.032 755.858 281.725 755.479 281.725H583.639C583.26 281.725 582.953 282.032 582.953 282.41V304.119Z" fill="url(#paint2_linear_679_6471)"/>
<path fill-rule="evenodd" clip-rule="evenodd" d="M582.725 282.41C582.725 281.905 583.134 281.496 583.639 281.496H755.479C755.984 281.496 756.393 281.905 756.393 282.41V304.347H582.725V282.41ZM583.639 281.953C583.386 281.953 583.182 282.158 583.182 282.41V303.89H755.936V282.41C755.936 282.158 755.731 281.953 755.479 281.953H583.639Z" fill="#7091F5"/>
<path d="M610.971 294.316H610.368V292.213H608.074V294.316H607.475V289.767H608.074V291.723H610.368V289.767H610.971V294.316Z" fill="white"/>
<path d="M612.679 294.316H612.08V289.767H612.679V294.316Z" fill="white"/>
<path d="M615.119 292.288C614.605 292.14 614.23 291.959 613.995 291.744C613.761 291.528 613.645 291.261 613.645 290.945C613.645 290.586 613.788 290.291 614.073 290.057C614.36 289.822 614.733 289.704 615.191 289.704C615.504 289.704 615.782 289.765 616.025 289.886C616.271 290.006 616.461 290.173 616.594 290.385C616.729 290.598 616.797 290.83 616.797 291.082H616.194C616.194 290.807 616.107 290.592 615.932 290.435C615.757 290.277 615.51 290.198 615.191 290.198C614.896 290.198 614.664 290.264 614.498 290.395C614.333 290.524 614.251 290.704 614.251 290.935C614.251 291.121 614.329 291.278 614.485 291.407C614.644 291.534 614.911 291.651 615.288 291.757C615.667 291.863 615.963 291.981 616.175 292.11C616.39 292.237 616.548 292.386 616.65 292.557C616.754 292.728 616.807 292.928 616.807 293.16C616.807 293.528 616.663 293.824 616.375 294.047C616.088 294.268 615.704 294.378 615.223 294.378C614.91 294.378 614.619 294.319 614.348 294.2C614.077 294.079 613.868 293.915 613.72 293.706C613.574 293.498 613.501 293.262 613.501 292.997H614.104C614.104 293.272 614.205 293.49 614.407 293.65C614.611 293.808 614.883 293.888 615.223 293.888C615.539 293.888 615.782 293.823 615.95 293.694C616.119 293.565 616.204 293.389 616.204 293.166C616.204 292.943 616.125 292.771 615.969 292.65C615.813 292.528 615.53 292.407 615.119 292.288Z" fill="white"/>
<path d="M620.721 290.26H619.259V294.316H618.662V290.26H617.203V289.767H620.721V290.26Z" fill="white"/>
<path d="M624.808 292.188C624.808 292.634 624.733 293.023 624.583 293.357C624.433 293.688 624.22 293.941 623.945 294.116C623.67 294.291 623.35 294.378 622.983 294.378C622.625 294.378 622.307 294.291 622.03 294.116C621.753 293.939 621.538 293.688 621.383 293.363C621.231 293.036 621.153 292.658 621.149 292.229V291.901C621.149 291.463 621.225 291.077 621.377 290.742C621.529 290.406 621.744 290.15 622.021 289.973C622.3 289.794 622.619 289.704 622.977 289.704C623.341 289.704 623.662 289.793 623.939 289.97C624.218 290.145 624.433 290.4 624.583 290.735C624.733 291.069 624.808 291.457 624.808 291.901V292.188ZM624.211 291.894C624.211 291.355 624.103 290.942 623.886 290.654C623.669 290.365 623.366 290.22 622.977 290.22C622.598 290.22 622.299 290.365 622.08 290.654C621.864 290.942 621.752 291.341 621.746 291.854V292.188C621.746 292.711 621.855 293.122 622.074 293.422C622.295 293.72 622.598 293.869 622.983 293.869C623.37 293.869 623.67 293.728 623.883 293.447C624.095 293.164 624.205 292.759 624.211 292.232V291.894Z" fill="white"/>
<path d="M627.376 292.475H626.307V294.316H625.704V289.767H627.21C627.722 289.767 628.116 289.883 628.391 290.117C628.668 290.35 628.806 290.69 628.806 291.135C628.806 291.418 628.729 291.665 628.575 291.876C628.423 292.086 628.211 292.243 627.938 292.347L629.006 294.278V294.316H628.363L627.376 292.475ZM626.307 291.985H627.229C627.527 291.985 627.763 291.908 627.938 291.754C628.115 291.6 628.204 291.393 628.204 291.135C628.204 290.854 628.119 290.638 627.95 290.489C627.784 290.339 627.542 290.263 627.226 290.26H626.307V291.985Z" fill="white"/>
<path d="M630.294 294.316H629.694V289.767H630.294V294.316Z" fill="white"/>
<path d="M633.961 293.128H632.056L631.628 294.316H631.009L632.746 289.767H633.271L635.011 294.316H634.396L633.961 293.128ZM632.237 292.635H633.783L633.009 290.507L632.237 292.635Z" fill="white"/>
<path d="M636.226 293.825H638.382V294.316H635.623V289.767H636.226V293.825Z" fill="white"/>
<mask id="mask1_679_6471" style="mask-type:alpha" maskUnits="userSpaceOnUse" x="594" y="288" width="10" height="10">
<path d="M603.15 292.571C603.154 295.071 601.165 297.116 598.726 297.118C597.672 297.118 596.704 296.742 595.944 296.113C595.746 295.949 595.731 295.645 595.911 295.461L596.112 295.255C596.266 295.098 596.511 295.08 596.681 295.219C597.242 295.675 597.951 295.947 598.722 295.947C600.538 295.947 602.007 294.44 602.007 292.58C602.007 290.719 600.538 289.213 598.722 289.213C597.851 289.213 597.059 289.56 596.472 290.126L597.378 291.055C597.558 291.24 597.43 291.555 597.176 291.555H594.581C594.423 291.555 594.295 291.424 594.295 291.262V288.602C594.295 288.341 594.603 288.21 594.783 288.395L595.664 289.298C596.459 288.52 597.536 288.042 598.722 288.042C601.165 288.042 603.145 290.069 603.15 292.571ZM599.92 294.013L600.095 293.782C600.241 293.59 600.207 293.314 600.02 293.165L599.294 292.586V290.677C599.294 290.434 599.102 290.237 598.865 290.237H598.58C598.343 290.237 598.151 290.434 598.151 290.677V293.159L599.319 294.09C599.506 294.239 599.775 294.204 599.92 294.013Z" fill="white"/>
</mask>
<g mask="url(#mask1_679_6471)">
<path d="M603.15 292.571C603.154 295.071 601.165 297.116 598.726 297.118C597.672 297.118 596.704 296.742 595.944 296.113C595.746 295.949 595.731 295.645 595.911 295.461L596.112 295.255C596.266 295.098 596.511 295.08 596.681 295.219C597.242 295.675 597.951 295.947 598.722 295.947C600.538 295.947 602.007 294.44 602.007 292.58C602.007 290.719 600.538 289.213 598.722 289.213C597.851 289.213 597.059 289.56 596.472 290.126L597.378 291.055C597.558 291.24 597.43 291.555 597.176 291.555H594.581C594.423 291.555 594.295 291.424 594.295 291.262V288.602C594.295 288.341 594.603 288.21 594.783 288.395L595.664 289.298C596.459 288.52 597.536 288.042 598.722 288.042C601.165 288.042 603.145 290.069 603.15 292.571ZM599.92 294.013L600.095 293.782C600.241 293.59 600.207 293.314 600.02 293.165L599.294 292.586V290.677C599.294 290.434 599.102 290.237 598.865 290.237H598.58C598.343 290.237 598.151 290.434 598.151 290.677V293.159L599.319 294.09C599.506 294.239 599.775 294.204 599.92 294.013Z" fill="black"/>
<path d="M603.293 287.894H594.152V297.263H603.293V287.894Z" fill="white"/>
</g>
<g opacity="0.523042">
<mask id="mask2_679_6471" style="mask-type:alpha" maskUnits="userSpaceOnUse" x="550" y="320" width="8" height="8">
<g opacity="0.523042">
<path opacity="0.523042" d="M556.781 323.676H556.424V322.605C556.424 321.358 555.409 320.344 554.163 320.344C552.916 320.344 551.901 321.358 551.901 322.605V323.676H551.544C551.15 323.676 550.83 323.996 550.83 324.39V327.246C550.83 327.641 551.15 327.961 551.544 327.961H556.781C557.175 327.961 557.495 327.641 557.495 327.246V324.39C557.495 323.996 557.175 323.676 556.781 323.676ZM555.234 323.676H553.091V322.605C553.091 322.014 553.572 321.534 554.163 321.534C554.753 321.534 555.234 322.014 555.234 322.605V323.676Z" fill="white"/>
</g>
</mask>
<g mask="url(#mask2_679_6471)">
<path opacity="0.523042" d="M556.781 323.676H556.424V322.605C556.424 321.358 555.409 320.344 554.163 320.344C552.916 320.344 551.901 321.358 551.901 322.605V323.676H551.544C551.15 323.676 550.83 323.996 550.83 324.39V327.246C550.83 327.641 551.15 327.961 551.544 327.961H556.781C557.175 327.961 557.495 327.641 557.495 327.246V324.39C557.495 323.996 557.175 323.676 556.781 323.676ZM555.234 323.676H553.091V322.605C553.091 322.014 553.572 321.534 554.163 321.534C554.753 321.534 555.234 322.014 555.234 322.605V323.676Z" fill="black"/>
<g opacity="0.523042">
<g opacity="0.523042">
<path opacity="0.523042" d="M557.973 320.344H550.355V327.961H557.973V320.344Z" fill="#4D648D"/>
</g>
</g>
</g>
</g>
<g opacity="0.523042">
<mask id="mask3_679_6471" style="mask-type:alpha" maskUnits="userSpaceOnUse" x="550" y="404" width="8" height="9">
<g opacity="0.523042">
<path opacity="0.523042" d="M556.781 408.225H556.424V407.154C556.424 405.907 555.409 404.893 554.163 404.893C552.916 404.893 551.901 405.907 551.901 407.154V408.225H551.544C551.15 408.225 550.83 408.545 550.83 408.939V411.796C550.83 412.19 551.15 412.51 551.544 412.51H556.781C557.175 412.51 557.495 412.19 557.495 411.796V408.939C557.495 408.545 557.175 408.225 556.781 408.225ZM555.234 408.225H553.091V407.154C553.091 406.563 553.572 406.083 554.163 406.083C554.753 406.083 555.234 406.563 555.234 407.154V408.225Z" fill="white"/>
</g>
</mask>
<g mask="url(#mask3_679_6471)">
<path opacity="0.523042" d="M556.781 408.225H556.424V407.154C556.424 405.907 555.409 404.893 554.163 404.893C552.916 404.893 551.901 405.907 551.901 407.154V408.225H551.544C551.15 408.225 550.83 408.545 550.83 408.939V411.796C550.83 412.19 551.15 412.51 551.544 412.51H556.781C557.175 412.51 557.495 412.19 557.495 411.796V408.939C557.495 408.545 557.175 408.225 556.781 408.225ZM555.234 408.225H553.091V407.154C553.091 406.563 553.572 406.083 554.163 406.083C554.753 406.083 555.234 406.563 555.234 407.154V408.225Z" fill="black"/>
<g opacity="0.523042">
<g opacity="0.523042">
<path opacity="0.523042" d="M557.973 404.892H550.355V412.509H557.973V404.892Z" fill="#4D648D"/>
</g>
</g>
</g>
</g>
<g opacity="0.523042">
<mask id="mask4_679_6471" style="mask-type:alpha" maskUnits="userSpaceOnUse" x="550" y="445" width="8" height="9">
<g opacity="0.523042">
<path opacity="0.523042" d="M556.781 448.9H556.424V447.829C556.424 446.582 555.409 445.568 554.163 445.568C552.916 445.568 551.901 446.582 551.901 447.829V448.9H551.544C551.15 448.9 550.83 449.22 550.83 449.614V452.471C550.83 452.865 551.15 453.185 551.544 453.185H556.781C557.175 453.185 557.495 452.865 557.495 452.471V449.614C557.495 449.22 557.175 448.9 556.781 448.9ZM555.234 448.9H553.091V447.829C553.091 447.238 553.572 446.758 554.163 446.758C554.753 446.758 555.234 447.238 555.234 447.829V448.9Z" fill="white"/>
</g>
</mask>
<g mask="url(#mask4_679_6471)">
<path opacity="0.523042" d="M556.781 448.9H556.424V447.829C556.424 446.582 555.409 445.568 554.163 445.568C552.916 445.568 551.901 446.582 551.901 447.829V448.9H551.544C551.15 448.9 550.83 449.22 550.83 449.614V452.471C550.83 452.865 551.15 453.185 551.544 453.185H556.781C557.175 453.185 557.495 452.865 557.495 452.471V449.614C557.495 449.22 557.175 448.9 556.781 448.9ZM555.234 448.9H553.091V447.829C553.091 447.238 553.572 446.758 554.163 446.758C554.753 446.758 555.234 447.238 555.234 447.829V448.9Z" fill="black"/>
<g opacity="0.523042">
<g opacity="0.523042">
<path opacity="0.523042" d="M557.973 445.568H550.355V453.185H557.973V445.568Z" fill="#4D648D"/>
</g>
</g>
</g>
</g>
<g filter="url(#filter5_d_679_6471)">
<path d="M756.394 236.708H109.707V273.27H756.394V236.708Z" fill="black"/>
</g>
<path d="M756.169 236.937H109.932V273.042H756.169V236.937Z" fill="white"/>
<path fill-rule="evenodd" clip-rule="evenodd" d="M109.707 236.708H756.394V273.27H109.707V236.708ZM110.156 237.165V272.813H755.945V237.165H110.156Z" fill="white"/>
<path d="M507.237 241.735H455.142C454.646 241.735 454.244 242.145 454.244 242.649V268.243C454.244 268.747 454.646 269.157 455.142 269.157H507.237C507.733 269.157 508.135 268.747 508.135 268.243V242.649C508.135 242.145 507.733 241.735 507.237 241.735Z" fill="#E54435" fill-opacity="0.8"/>
<path d="M122.504 260.93C125.852 260.93 128.567 258.168 128.567 254.76C128.567 251.353 125.852 248.591 122.504 248.591C119.156 248.591 116.441 251.353 116.441 254.76C116.441 258.168 119.156 260.93 122.504 260.93Z" fill="white"/>
<path fill-rule="evenodd" clip-rule="evenodd" d="M122.506 249.048C119.406 249.048 116.892 251.606 116.892 254.761C116.892 257.916 119.406 260.473 122.506 260.473C125.606 260.473 128.12 257.916 128.12 254.761C128.12 251.606 125.606 249.048 122.506 249.048ZM115.994 254.761C115.994 251.101 118.91 248.134 122.506 248.134C126.102 248.134 129.018 251.101 129.018 254.761C129.018 258.421 126.102 261.387 122.506 261.387C118.91 261.387 115.994 258.421 115.994 254.761Z" fill="#7093FF"/>
<path d="M122.642 254.52H121.592V256.36H121V251.811H122.48C122.983 251.811 123.37 251.928 123.64 252.161C123.912 252.394 124.048 252.734 124.048 253.18C124.048 253.463 123.973 253.71 123.821 253.92C123.672 254.13 123.463 254.288 123.195 254.392L124.245 256.323V256.36H123.613L122.642 254.52ZM121.592 254.029H122.498C122.791 254.029 123.023 253.952 123.195 253.798C123.369 253.644 123.456 253.438 123.456 253.18C123.456 252.898 123.373 252.683 123.207 252.533C123.044 252.383 122.806 252.307 122.495 252.305H121.592V254.029Z" fill="#4D648D"/>
<path d="M133.93 262.758C133.93 260.992 135.362 259.559 137.129 259.559H218.479C220.246 259.559 221.678 260.992 221.678 262.758V262.758C221.678 264.525 220.246 265.958 218.479 265.958H137.129C135.362 265.958 133.93 264.525 133.93 262.758V262.758Z" fill="white"/>
<path d="M133.93 262.758C133.93 260.992 135.362 259.559 137.129 259.559H218.479C220.246 259.559 221.678 260.992 221.678 262.758V262.758C221.678 264.525 220.246 265.958 218.479 265.958H137.129C135.362 265.958 133.93 264.525 133.93 262.758V262.758Z" fill="white"/>
<path d="M133.93 262.758C133.93 260.992 135.362 259.559 137.129 259.559H218.479C220.246 259.559 221.678 260.992 221.678 262.758V262.758C221.678 264.525 220.246 265.958 218.479 265.958H137.129C135.362 265.958 133.93 264.525 133.93 262.758V262.758Z" fill="#E2E9FF"/>
<path d="M236.76 250.419C236.76 248.652 238.192 247.22 239.959 247.22H296.173C297.94 247.22 299.372 248.652 299.372 250.419V250.419C299.372 252.186 297.94 253.618 296.173 253.618H239.959C238.192 253.618 236.76 252.186 236.76 250.419V250.419Z" fill="white"/>
<path d="M236.76 250.419C236.76 248.652 238.192 247.22 239.959 247.22H296.173C297.94 247.22 299.372 248.652 299.372 250.419V250.419C299.372 252.186 297.94 253.618 296.173 253.618H239.959C238.192 253.618 236.76 252.186 236.76 250.419V250.419Z" fill="white"/>
<path d="M236.76 250.419C236.76 248.652 238.192 247.22 239.959 247.22H296.173C297.94 247.22 299.372 248.652 299.372 250.419V250.419C299.372 252.186 297.94 253.618 296.173 253.618H239.959C238.192 253.618 236.76 252.186 236.76 250.419V250.419Z" fill="#E2E9FF"/>
<path d="M344.16 250.419C344.16 248.652 345.592 247.22 347.359 247.22H403.573C405.34 247.22 406.772 248.652 406.772 250.419V250.419C406.772 252.186 405.34 253.618 403.573 253.618H347.359C345.592 253.618 344.16 252.186 344.16 250.419V250.419Z" fill="white"/>
<path d="M344.16 250.419C344.16 248.652 345.592 247.22 347.359 247.22H403.573C405.34 247.22 406.772 248.652 406.772 250.419V250.419C406.772 252.186 405.34 253.618 403.573 253.618H347.359C345.592 253.618 344.16 252.186 344.16 250.419V250.419Z" fill="white"/>
<path d="M344.16 250.419C344.16 248.652 345.592 247.22 347.359 247.22H403.573C405.34 247.22 406.772 248.652 406.772 250.419V250.419C406.772 252.186 405.34 253.618 403.573 253.618H347.359C345.592 253.618 344.16 252.186 344.16 250.419V250.419Z" fill="#E2E9FF"/>
<path d="M236.76 262.302C236.76 260.535 238.192 259.103 239.959 259.103H327.25C329.017 259.103 330.449 260.535 330.449 262.302V262.302C330.449 264.069 329.017 265.501 327.25 265.501H239.959C238.192 265.501 236.76 264.069 236.76 262.302V262.302Z" fill="white"/>
<path d="M236.76 262.302C236.76 260.535 238.192 259.103 239.959 259.103H327.25C329.017 259.103 330.449 260.535 330.449 262.302V262.302C330.449 264.069 329.017 265.501 327.25 265.501H239.959C238.192 265.501 236.76 264.069 236.76 262.302V262.302Z" fill="white"/>
<path d="M236.76 262.302C236.76 260.535 238.192 259.103 239.959 259.103H327.25C329.017 259.103 330.449 260.535 330.449 262.302V262.302C330.449 264.069 329.017 265.501 327.25 265.501H239.959C238.192 265.501 236.76 264.069 236.76 262.302V262.302Z" fill="#E2E9FF"/>
<path d="M344.16 262.302C344.16 260.535 345.592 259.103 347.359 259.103H434.651C436.417 259.103 437.85 260.535 437.85 262.302V262.302C437.85 264.069 436.417 265.501 434.651 265.501H347.359C345.592 265.501 344.16 264.069 344.16 262.302V262.302Z" fill="white"/>
<path d="M344.16 262.302C344.16 260.535 345.592 259.103 347.359 259.103H434.651C436.417 259.103 437.85 260.535 437.85 262.302V262.302C437.85 264.069 436.417 265.501 434.651 265.501H347.359C345.592 265.501 344.16 264.069 344.16 262.302V262.302Z" fill="white"/>
<path d="M344.16 262.302C344.16 260.535 345.592 259.103 347.359 259.103H434.651C436.417 259.103 437.85 260.535 437.85 262.302V262.302C437.85 264.069 436.417 265.501 434.651 265.501H347.359C345.592 265.501 344.16 264.069 344.16 262.302V262.302Z" fill="#E2E9FF"/>
<path d="M528.34 250.419C528.34 248.652 529.772 247.22 531.539 247.22H587.753C589.52 247.22 590.952 248.652 590.952 250.419V250.419C590.952 252.186 589.52 253.618 587.753 253.618H531.539C529.772 253.618 528.34 252.186 528.34 250.419V250.419Z" fill="white"/>
<path d="M528.34 250.419C528.34 248.652 529.772 247.22 531.539 247.22H587.753C589.52 247.22 590.952 248.652 590.952 250.419V250.419C590.952 252.186 589.52 253.618 587.753 253.618H531.539C529.772 253.618 528.34 252.186 528.34 250.419V250.419Z" fill="white"/>
<path d="M528.34 250.419C528.34 248.652 529.772 247.22 531.539 247.22H587.753C589.52 247.22 590.952 248.652 590.952 250.419V250.419C590.952 252.186 589.52 253.618 587.753 253.618H531.539C529.772 253.618 528.34 252.186 528.34 250.419V250.419Z" fill="#E2E9FF"/>
<path d="M528.34 262.302C528.34 260.535 529.772 259.103 531.539 259.103H618.83C620.597 259.103 622.029 260.535 622.029 262.302V262.302C622.029 264.069 620.597 265.501 618.83 265.501H531.539C529.772 265.501 528.34 264.069 528.34 262.302V262.302Z" fill="white"/>
<path d="M528.34 262.302C528.34 260.535 529.772 259.103 531.539 259.103H618.83C620.597 259.103 622.029 260.535 622.029 262.302V262.302C622.029 264.069 620.597 265.501 618.83 265.501H531.539C529.772 265.501 528.34 264.069 528.34 262.302V262.302Z" fill="white"/>
<path d="M528.34 262.302C528.34 260.535 529.772 259.103 531.539 259.103H618.83C620.597 259.103 622.029 260.535 622.029 262.302V262.302C622.029 264.069 620.597 265.501 618.83 265.501H531.539C529.772 265.501 528.34 264.069 528.34 262.302V262.302Z" fill="#E2E9FF"/>
<path d="M643.51 250.419C643.51 248.652 644.942 247.22 646.709 247.22H702.923C704.69 247.22 706.122 248.652 706.122 250.419V250.419C706.122 252.186 704.69 253.618 702.923 253.618H646.709C644.942 253.618 643.51 252.186 643.51 250.419V250.419Z" fill="white"/>
<path d="M643.51 250.419C643.51 248.652 644.942 247.22 646.709 247.22H702.923C704.69 247.22 706.122 248.652 706.122 250.419V250.419C706.122 252.186 704.69 253.618 702.923 253.618H646.709C644.942 253.618 643.51 252.186 643.51 250.419V250.419Z" fill="white"/>
<path d="M643.51 250.419C643.51 248.652 644.942 247.22 646.709 247.22H702.923C704.69 247.22 706.122 248.652 706.122 250.419V250.419C706.122 252.186 704.69 253.618 702.923 253.618H646.709C644.942 253.618 643.51 252.186 643.51 250.419V250.419Z" fill="#E2E9FF"/>
<path d="M643.51 262.302C643.51 260.535 644.942 259.103 646.709 259.103H734C735.767 259.103 737.199 260.535 737.199 262.302V262.302C737.199 264.069 735.767 265.501 734 265.501H646.709C644.942 265.501 643.51 264.069 643.51 262.302V262.302Z" fill="white"/>
<path d="M643.51 262.302C643.51 260.535 644.942 259.103 646.709 259.103H734C735.767 259.103 737.199 260.535 737.199 262.302V262.302C737.199 264.069 735.767 265.501 734 265.501H646.709C644.942 265.501 643.51 264.069 643.51 262.302V262.302Z" fill="white"/>
<path d="M643.51 262.302C643.51 260.535 644.942 259.103 646.709 259.103H734C735.767 259.103 737.199 260.535 737.199 262.302V262.302C737.199 264.069 735.767 265.501 734 265.501H646.709C644.942 265.501 643.51 264.069 643.51 262.302V262.302Z" fill="#E2E9FF"/>
<g opacity="0.5">
<path d="M463.441 251.104C463.441 249.969 464.362 249.048 465.498 249.048H499.775C500.911 249.048 501.831 249.969 501.831 251.104V251.104C501.831 252.24 500.911 253.161 499.775 253.161H465.498C464.362 253.161 463.441 252.24 463.441 251.104V251.104Z" fill="white"/>
<path d="M463.441 251.104C463.441 249.969 464.362 249.048 465.498 249.048H499.775C500.911 249.048 501.831 249.969 501.831 251.104V251.104C501.831 252.24 500.911 253.161 499.775 253.161H465.498C464.362 253.161 463.441 252.24 463.441 251.104V251.104Z" fill="white"/>
<path d="M463.441 251.104C463.441 249.969 464.362 249.048 465.498 249.048H499.775C500.911 249.048 501.831 249.969 501.831 251.104V251.104C501.831 252.24 500.911 253.161 499.775 253.161H465.498C464.362 253.161 463.441 252.24 463.441 251.104V251.104Z" fill="#E2E9FF"/>
</g>
<g opacity="0.5">
<path d="M467.557 260.245C467.557 259.109 468.477 258.188 469.613 258.188H493.378C494.514 258.188 495.435 259.109 495.435 260.245V260.245C495.435 261.38 494.514 262.301 493.378 262.301H469.613C468.477 262.301 467.557 261.38 467.557 260.245V260.245Z" fill="white"/>
<path d="M467.557 260.245C467.557 259.109 468.477 258.188 469.613 258.188H493.378C494.514 258.188 495.435 259.109 495.435 260.245V260.245C495.435 261.38 494.514 262.301 493.378 262.301H469.613C468.477 262.301 467.557 261.38 467.557 260.245V260.245Z" fill="white"/>
<path d="M467.557 260.245C467.557 259.109 468.477 258.188 469.613 258.188H493.378C494.514 258.188 495.435 259.109 495.435 260.245V260.245C495.435 261.38 494.514 262.301 493.378 262.301H469.613C468.477 262.301 467.557 261.38 467.557 260.245V260.245Z" fill="#E2E9FF"/>
</g>
<g filter="url(#filter6_d_679_6471)">
<path d="M110.164 281.496H213.451C213.956 281.496 214.365 281.905 214.365 282.41V304.347H109.25V282.41C109.25 281.905 109.659 281.496 110.164 281.496Z" fill="black"/>
</g>
<path fill-rule="evenodd" clip-rule="evenodd" d="M109.479 304.119H214.137V282.41C214.137 282.032 213.83 281.725 213.451 281.725H110.164C109.785 281.725 109.479 282.032 109.479 282.41V304.119Z" fill="url(#paint3_linear_679_6471)"/>
<path fill-rule="evenodd" clip-rule="evenodd" d="M109.25 282.41C109.25 281.905 109.659 281.496 110.164 281.496H213.451C213.956 281.496 214.365 281.905 214.365 282.41V304.347H109.25V282.41ZM110.164 281.953C109.912 281.953 109.707 282.158 109.707 282.41V303.89H213.908V282.41C213.908 282.158 213.704 281.953 213.451 281.953H110.164Z" fill="#7091F5"/>
<path d="M132.857 293.563H130.951L130.523 294.75H129.904L131.641 290.201H132.166L133.906 294.75H133.291L132.857 293.563ZM131.132 293.069H132.679L131.904 290.942L131.132 293.069Z" fill="white"/>
<path d="M137.827 293.307C137.771 293.788 137.593 294.16 137.293 294.422C136.995 294.683 136.598 294.813 136.103 294.813C135.565 294.813 135.134 294.62 134.809 294.235C134.486 293.849 134.325 293.334 134.325 292.688V292.251C134.325 291.828 134.4 291.456 134.55 291.136C134.702 290.815 134.917 290.569 135.194 290.398C135.471 290.225 135.791 290.139 136.156 290.139C136.639 290.139 137.026 290.274 137.318 290.545C137.61 290.814 137.779 291.187 137.827 291.664H137.224C137.172 291.301 137.059 291.039 136.884 290.876C136.711 290.714 136.468 290.633 136.156 290.633C135.773 290.633 135.472 290.774 135.253 291.057C135.036 291.341 134.928 291.744 134.928 292.266V292.707C134.928 293.201 135.031 293.593 135.237 293.885C135.443 294.176 135.732 294.322 136.103 294.322C136.436 294.322 136.691 294.247 136.868 294.097C137.047 293.945 137.166 293.682 137.224 293.307H137.827Z" fill="white"/>
<path d="M141.995 293.307C141.939 293.788 141.761 294.16 141.461 294.422C141.163 294.683 140.766 294.813 140.27 294.813C139.733 294.813 139.302 294.62 138.977 294.235C138.654 293.849 138.493 293.334 138.493 292.688V292.251C138.493 291.828 138.568 291.456 138.718 291.136C138.87 290.815 139.084 290.569 139.361 290.398C139.638 290.225 139.959 290.139 140.323 290.139C140.807 290.139 141.194 290.274 141.486 290.545C141.777 290.814 141.947 291.187 141.995 291.664H141.392C141.34 291.301 141.226 291.039 141.051 290.876C140.878 290.714 140.636 290.633 140.323 290.633C139.94 290.633 139.639 290.774 139.421 291.057C139.204 291.341 139.096 291.744 139.096 292.266V292.707C139.096 293.201 139.199 293.593 139.405 293.885C139.611 294.176 139.9 294.322 140.27 294.322C140.604 294.322 140.859 294.247 141.036 294.097C141.215 293.945 141.334 293.682 141.392 293.307H141.995Z" fill="white"/>
<path d="M143.46 294.75H142.86V290.201H143.46V294.75Z" fill="white"/>
<path d="M148.059 292.623C148.059 293.068 147.984 293.458 147.834 293.791C147.684 294.122 147.472 294.375 147.197 294.55C146.922 294.725 146.601 294.813 146.234 294.813C145.876 294.813 145.559 294.725 145.281 294.55C145.004 294.373 144.789 294.122 144.635 293.797C144.483 293.47 144.405 293.092 144.4 292.663V292.335C144.4 291.898 144.476 291.511 144.629 291.176C144.781 290.841 144.995 290.585 145.272 290.408C145.551 290.228 145.87 290.139 146.228 290.139C146.593 290.139 146.913 290.227 147.19 290.404C147.469 290.579 147.684 290.835 147.834 291.17C147.984 291.503 148.059 291.892 148.059 292.335V292.623ZM147.462 292.329C147.462 291.79 147.354 291.376 147.137 291.089C146.921 290.799 146.618 290.654 146.228 290.654C145.849 290.654 145.55 290.799 145.331 291.089C145.115 291.376 145.003 291.776 144.997 292.288V292.623C144.997 293.145 145.107 293.557 145.325 293.857C145.546 294.155 145.849 294.303 146.234 294.303C146.622 294.303 146.922 294.163 147.134 293.882C147.347 293.598 147.456 293.193 147.462 292.666V292.329Z" fill="white"/>
<path d="M152.455 294.75H151.852L149.562 291.245V294.75H148.959V290.201H149.562L151.858 293.722V290.201H152.455V294.75Z" fill="white"/>
<path d="M156.091 292.648H154.12V294.26H156.41V294.75H153.52V290.201H156.379V290.695H154.12V292.157H156.091V292.648Z" fill="white"/>
<path d="M158.497 292.723C157.982 292.575 157.607 292.394 157.372 292.179C157.139 291.962 157.022 291.696 157.022 291.379C157.022 291.021 157.165 290.725 157.45 290.492C157.738 290.257 158.11 290.139 158.569 290.139C158.881 290.139 159.159 290.199 159.403 290.32C159.649 290.441 159.838 290.608 159.971 290.82C160.107 291.032 160.174 291.265 160.174 291.517H159.571C159.571 291.242 159.484 291.026 159.309 290.87C159.134 290.712 158.887 290.633 158.569 290.633C158.273 290.633 158.042 290.698 157.875 290.829C157.711 290.958 157.628 291.139 157.628 291.37C157.628 291.555 157.706 291.712 157.863 291.842C158.021 291.969 158.288 292.085 158.665 292.191C159.045 292.298 159.34 292.415 159.553 292.545C159.767 292.672 159.926 292.821 160.028 292.991C160.132 293.162 160.184 293.363 160.184 293.594C160.184 293.963 160.04 294.259 159.753 294.482C159.465 294.702 159.081 294.813 158.6 294.813C158.287 294.813 157.996 294.753 157.725 294.635C157.454 294.514 157.245 294.349 157.097 294.141C156.951 293.933 156.878 293.696 156.878 293.432H157.481C157.481 293.707 157.582 293.924 157.784 294.085C157.989 294.243 158.26 294.322 158.6 294.322C158.916 294.322 159.159 294.258 159.328 294.128C159.496 293.999 159.581 293.823 159.581 293.601C159.581 293.378 159.503 293.206 159.347 293.085C159.19 292.962 158.907 292.841 158.497 292.723Z" fill="white"/>
<mask id="mask5_679_6471" style="mask-type:alpha" maskUnits="userSpaceOnUse" x="117" y="288" width="8" height="10">
<path d="M124.103 290.351V296.635C124.103 297.108 123.72 297.492 123.246 297.492H118.105C117.632 297.492 117.248 297.108 117.248 296.635V290.351C117.248 289.878 117.632 289.494 118.105 289.494H119.533C119.533 288.864 120.046 288.352 120.676 288.352C121.306 288.352 121.818 288.864 121.818 289.494H123.246C123.72 289.494 124.103 289.878 124.103 290.351ZM120.676 289.066C120.439 289.066 120.247 289.257 120.247 289.494C120.247 289.731 120.439 289.923 120.676 289.923C120.912 289.923 121.104 289.731 121.104 289.494C121.104 289.257 120.912 289.066 120.676 289.066ZM122.39 291.101V290.744C122.39 290.685 122.342 290.637 122.282 290.637H119.069C119.01 290.637 118.962 290.685 118.962 290.744V291.101C118.962 291.16 119.01 291.208 119.069 291.208H122.282C122.342 291.208 122.39 291.16 122.39 291.101Z" fill="white"/>
</mask>
<g mask="url(#mask5_679_6471)">
<path d="M124.103 290.351V296.635C124.103 297.108 123.72 297.492 123.246 297.492H118.105C117.632 297.492 117.248 297.108 117.248 296.635V290.351C117.248 289.878 117.632 289.494 118.105 289.494H119.533C119.533 288.864 120.046 288.352 120.676 288.352C121.306 288.352 121.818 288.864 121.818 289.494H123.246C123.72 289.494 124.103 289.878 124.103 290.351ZM120.676 289.066C120.439 289.066 120.247 289.257 120.247 289.494C120.247 289.731 120.439 289.923 120.676 289.923C120.912 289.923 121.104 289.731 121.104 289.494C121.104 289.257 120.912 289.066 120.676 289.066ZM122.39 291.101V290.744C122.39 290.685 122.342 290.637 122.282 290.637H119.069C119.01 290.637 118.962 290.685 118.962 290.744V291.101C118.962 291.16 119.01 291.208 119.069 291.208H122.282C122.342 291.208 122.39 291.16 122.39 291.101Z" fill="black"/>
<path d="M125.246 288.352H116.105V297.492H125.246V288.352Z" fill="white"/>
</g>
<g filter="url(#filter7_d_679_6471)">
<path d="M749.995 313.945H587.752V330.398H749.995V313.945Z" fill="black"/>
</g>
<path d="M749.995 313.945H587.752V330.398H749.995V313.945Z" fill="#4D648D"/>
<path d="M749.995 313.945H587.752V330.398H749.995V313.945Z" fill="url(#paint4_linear_679_6471)"/>
<g opacity="0.3">
<path d="M594.15 322.4C594.15 320.254 595.89 318.515 598.035 318.515H670.702C672.847 318.515 674.586 320.254 674.586 322.4V322.4C674.586 324.545 672.847 326.285 670.702 326.285H598.035C595.89 326.285 594.15 324.545 594.15 322.4V322.4Z" fill="white"/>
<path d="M594.15 322.4C594.15 320.254 595.89 318.515 598.035 318.515H670.702C672.847 318.515 674.586 320.254 674.586 322.4V322.4C674.586 324.545 672.847 326.285 670.702 326.285H598.035C595.89 326.285 594.15 324.545 594.15 322.4V322.4Z" fill="white"/>
<path d="M594.15 322.4C594.15 320.254 595.89 318.515 598.035 318.515H670.702C672.847 318.515 674.586 320.254 674.586 322.4V322.4C674.586 324.545 672.847 326.285 670.702 326.285H598.035C595.89 326.285 594.15 324.545 594.15 322.4V322.4Z" fill="#E2E9FF" fill-opacity="0.3"/>
</g>
<g opacity="0.3">
<path d="M516.914 291.779C516.914 289.634 518.653 287.895 520.799 287.895H561.931C564.076 287.895 565.815 289.634 565.815 291.779V291.779C565.815 293.925 564.076 295.664 561.931 295.664H520.799C518.653 295.664 516.914 293.925 516.914 291.779V291.779Z" fill="white"/>
<path d="M516.914 291.779C516.914 289.634 518.653 287.895 520.799 287.895H561.931C564.076 287.895 565.815 289.634 565.815 291.779V291.779C565.815 293.925 564.076 295.664 561.931 295.664H520.799C518.653 295.664 516.914 293.925 516.914 291.779V291.779Z" fill="white"/>
<path d="M516.914 291.779C516.914 289.634 518.653 287.895 520.799 287.895H561.931C564.076 287.895 565.815 289.634 565.815 291.779V291.779C565.815 293.925 564.076 295.664 561.931 295.664H520.799C518.653 295.664 516.914 293.925 516.914 291.779V291.779Z" fill="#E2E9FF" fill-opacity="0.3"/>
</g>
<mask id="mask6_679_6471" style="mask-type:alpha" maskUnits="userSpaceOnUse" x="738" y="320" width="6" height="5">
<path d="M740.554 324.342L738.126 321.914C737.958 321.746 737.958 321.474 738.126 321.308L738.529 320.905C738.697 320.737 738.968 320.737 739.135 320.905L740.855 322.626L742.576 320.905C742.744 320.737 743.016 320.737 743.182 320.905L743.585 321.308C743.753 321.476 743.753 321.748 743.585 321.914L741.157 324.342C740.993 324.509 740.722 324.509 740.554 324.342Z" fill="white"/>
</mask>
<g mask="url(#mask6_679_6471)">
<path d="M740.554 324.342L738.126 321.914C737.958 321.746 737.958 321.474 738.126 321.308L738.529 320.905C738.697 320.737 738.968 320.737 739.135 320.905L740.855 322.626L742.576 320.905C742.744 320.737 743.016 320.737 743.182 320.905L743.585 321.308C743.753 321.476 743.753 321.748 743.585 321.914L741.157 324.342C740.993 324.509 740.722 324.509 740.554 324.342Z" fill="black"/>
<path d="M745.428 318.047L736.287 318.047L736.287 327.188L745.428 327.188L745.428 318.047Z" fill="white"/>
</g>
<g filter="url(#filter8_d_679_6471)">
<path d="M749.995 332.683H587.752V349.136H749.995V332.683Z" fill="black"/>
</g>
<path d="M749.995 332.683H587.752V349.136H749.995V332.683Z" fill="#4D648D"/>
<path d="M749.995 332.683H587.752V349.136H749.995V332.683Z" fill="url(#paint5_linear_679_6471)"/>
<g opacity="0.3">
<path d="M594.15 341.138C594.15 338.992 595.89 337.253 598.035 337.253H670.702C672.847 337.253 674.586 338.992 674.586 341.138V341.138C674.586 343.283 672.847 345.023 670.702 345.023H598.035C595.89 345.023 594.15 343.283 594.15 341.138V341.138Z" fill="white"/>
<path d="M594.15 341.138C594.15 338.992 595.89 337.253 598.035 337.253H670.702C672.847 337.253 674.586 338.992 674.586 341.138V341.138C674.586 343.283 672.847 345.023 670.702 345.023H598.035C595.89 345.023 594.15 343.283 594.15 341.138V341.138Z" fill="white"/>
<path d="M594.15 341.138C594.15 338.992 595.89 337.253 598.035 337.253H670.702C672.847 337.253 674.586 338.992 674.586 341.138V341.138C674.586 343.283 672.847 345.023 670.702 345.023H598.035C595.89 345.023 594.15 343.283 594.15 341.138V341.138Z" fill="#E2E9FF" fill-opacity="0.3"/>
</g>
<mask id="mask7_679_6471" style="mask-type:alpha" maskUnits="userSpaceOnUse" x="738" y="339" width="6" height="5">
<path d="M740.554 343.079L738.126 340.651C737.958 340.484 737.958 340.212 738.126 340.046L738.529 339.643C738.697 339.475 738.968 339.475 739.135 339.643L740.855 341.364L742.576 339.643C742.744 339.475 743.016 339.475 743.182 339.643L743.585 340.046C743.753 340.214 743.753 340.485 743.585 340.651L741.157 343.079C740.993 343.247 740.722 343.247 740.554 343.079Z" fill="white"/>
</mask>
<g mask="url(#mask7_679_6471)">
<path d="M740.554 343.079L738.126 340.651C737.958 340.484 737.958 340.212 738.126 340.046L738.529 339.643C738.697 339.475 738.968 339.475 739.135 339.643L740.855 341.364L742.576 339.643C742.744 339.475 743.016 339.475 743.182 339.643L743.585 340.046C743.753 340.214 743.753 340.485 743.585 340.651L741.157 343.079C740.993 343.247 740.722 343.247 740.554 343.079Z" fill="black"/>
<path d="M745.428 336.785L736.287 336.785L736.287 345.925L745.428 345.925L745.428 336.785Z" fill="white"/>
</g>
<mask id="mask8_679_6471" style="mask-type:alpha" maskUnits="userSpaceOnUse" x="742" y="381" width="7" height="4">
<path d="M745.124 384.668L742.696 382.24C742.528 382.073 742.528 381.801 742.696 381.635L743.1 381.232C743.267 381.064 743.539 381.064 743.705 381.232L745.426 382.953L747.147 381.232C747.315 381.064 747.586 381.064 747.752 381.232L748.155 381.635C748.323 381.803 748.323 382.074 748.155 382.24L745.728 384.668C745.563 384.836 745.292 384.836 745.124 384.668Z" fill="white"/>
</mask>
<g mask="url(#mask8_679_6471)">
<path d="M745.124 384.668L742.696 382.24C742.528 382.073 742.528 381.801 742.696 381.635L743.1 381.232C743.267 381.064 743.539 381.064 743.705 381.232L745.426 382.953L747.147 381.232C747.315 381.064 747.586 381.064 747.752 381.232L748.155 381.635C748.323 381.803 748.323 382.074 748.155 382.24L745.728 384.668C745.563 384.836 745.292 384.836 745.124 384.668Z" fill="black"/>
<path d="M749.996 378.375L740.855 378.375L740.855 387.515L749.996 387.515L749.996 378.375Z" fill="white"/>
</g>
<mask id="mask9_679_6471" style="mask-type:alpha" maskUnits="userSpaceOnUse" x="742" y="402" width="7" height="4">
<path d="M745.124 405.691L742.696 403.263C742.528 403.095 742.528 402.824 742.696 402.658L743.1 402.255C743.267 402.087 743.539 402.087 743.705 402.255L745.426 403.975L747.147 402.255C747.315 402.087 747.586 402.087 747.752 402.255L748.155 402.658C748.323 402.826 748.323 403.097 748.155 403.263L745.728 405.691C745.563 405.859 745.292 405.859 745.124 405.691Z" fill="white"/>
</mask>
<g mask="url(#mask9_679_6471)">
<path d="M745.124 405.691L742.696 403.263C742.528 403.095 742.528 402.824 742.696 402.658L743.1 402.255C743.267 402.087 743.539 402.087 743.705 402.255L745.426 403.975L747.147 402.255C747.315 402.087 747.586 402.087 747.752 402.255L748.155 402.658C748.323 402.826 748.323 403.097 748.155 403.263L745.728 405.691C745.563 405.859 745.292 405.859 745.124 405.691Z" fill="black"/>
<path d="M749.996 399.397L740.855 399.397L740.855 408.538L749.996 408.538L749.996 399.397Z" fill="white"/>
</g>
<mask id="mask10_679_6471" style="mask-type:alpha" maskUnits="userSpaceOnUse" x="742" y="423" width="7" height="4">
<path d="M745.124 426.714L742.696 424.286C742.528 424.119 742.528 423.847 742.696 423.681L743.1 423.278C743.267 423.11 743.539 423.11 743.705 423.278L745.426 424.999L747.147 423.278C747.315 423.11 747.586 423.11 747.752 423.278L748.155 423.681C748.323 423.849 748.323 424.12 748.155 424.286L745.728 426.714C745.563 426.882 745.292 426.882 745.124 426.714Z" fill="white"/>
</mask>
<g mask="url(#mask10_679_6471)">
<path d="M745.124 426.714L742.696 424.286C742.528 424.119 742.528 423.847 742.696 423.681L743.1 423.278C743.267 423.11 743.539 423.11 743.705 423.278L745.426 424.999L747.147 423.278C747.315 423.11 747.586 423.11 747.752 423.278L748.155 423.681C748.323 423.849 748.323 424.12 748.155 424.286L745.728 426.714C745.563 426.882 745.292 426.882 745.124 426.714Z" fill="black"/>
<path d="M749.996 420.42L740.855 420.42L740.855 429.561L749.996 429.561L749.996 420.42Z" fill="white"/>
</g>
<mask id="mask11_679_6471" style="mask-type:alpha" maskUnits="userSpaceOnUse" x="742" y="444" width="7" height="4">
<path d="M745.124 447.738L742.696 445.31C742.528 445.142 742.528 444.87 742.696 444.704L743.1 444.301C743.267 444.133 743.539 444.133 743.705 444.301L745.426 446.022L747.147 444.301C747.315 444.133 747.586 444.133 747.752 444.301L748.155 444.704C748.323 444.872 748.323 445.144 748.155 445.31L745.728 447.738C745.563 447.905 745.292 447.905 745.124 447.738Z" fill="white"/>
</mask>
<g mask="url(#mask11_679_6471)">
<path d="M745.124 447.738L742.696 445.31C742.528 445.142 742.528 444.87 742.696 444.704L743.1 444.301C743.267 444.133 743.539 444.133 743.705 444.301L745.426 446.022L747.147 444.301C747.315 444.133 747.586 444.133 747.752 444.301L748.155 444.704C748.323 444.872 748.323 445.144 748.155 445.31L745.728 447.738C745.563 447.905 745.292 447.905 745.124 447.738Z" fill="black"/>
<path d="M749.996 441.444L740.855 441.444L740.855 450.584L749.996 450.584L749.996 441.444Z" fill="white"/>
</g>
<path d="M750.027 545.655H733.283C732.543 545.655 731.943 546.255 731.943 546.995V563.739C731.943 564.479 732.543 565.079 733.283 565.079H750.027C750.767 565.079 751.367 564.479 751.367 563.739V546.995C751.367 546.255 750.767 545.655 750.027 545.655Z" fill="#6BBF59"/>
<path fill-rule="evenodd" clip-rule="evenodd" d="M750.027 546.325H733.283C732.913 546.325 732.613 546.625 732.613 546.995V563.739C732.613 564.109 732.913 564.409 733.283 564.409H750.027C750.397 564.409 750.697 564.109 750.697 563.739V546.995C750.697 546.625 750.397 546.325 750.027 546.325ZM733.283 545.655H750.027C750.767 545.655 751.367 546.255 751.367 546.995V563.739C751.367 564.479 750.767 565.079 750.027 565.079H733.283C732.543 565.079 731.943 564.479 731.943 563.739V546.995C731.943 546.255 732.543 545.655 733.283 545.655Z" fill="#6BBF59"/>
<mask id="mask12_679_6471" style="mask-type:alpha" maskUnits="userSpaceOnUse" x="737" y="550" width="10" height="10">
<path d="M746.092 556.116V554.617C746.092 554.356 745.882 554.146 745.621 554.146H742.917V551.442C742.917 551.181 742.707 550.971 742.446 550.971H740.947C740.686 550.971 740.476 551.181 740.476 551.442V554.146H737.772C737.511 554.146 737.301 554.356 737.301 554.617V556.116C737.301 556.377 737.511 556.587 737.772 556.587H740.476V559.291C740.476 559.552 740.686 559.762 740.947 559.762H742.446C742.707 559.762 742.917 559.552 742.917 559.291V556.587H745.621C745.882 556.587 746.092 556.377 746.092 556.116Z" fill="white"/>
</mask>
<g mask="url(#mask12_679_6471)">
<path d="M746.092 556.116V554.617C746.092 554.356 745.882 554.146 745.621 554.146H742.917V551.442C742.917 551.181 742.707 550.971 742.446 550.971H740.947C740.686 550.971 740.476 551.181 740.476 551.442V554.146H737.772C737.511 554.146 737.301 554.356 737.301 554.617V556.116C737.301 556.377 737.511 556.587 737.772 556.587H740.476V559.291C740.476 559.552 740.686 559.762 740.947 559.762H742.446C742.707 559.762 742.917 559.552 742.917 559.291V556.587H745.621C745.882 556.587 746.092 556.377 746.092 556.116Z" fill="black"/>
<path d="M746.718 550.344H736.672V560.39H746.718V550.344Z" fill="white"/>
</g>
<path d="M142.819 255.446H141.803L139.196 251.297V255.446H138.18V249.597H139.196L141.811 253.763V249.597H142.819V255.446Z" fill="#4D648D"/>
<path d="M144.964 255.446H143.988V251.1H144.964V255.446ZM143.928 249.971C143.928 249.821 143.975 249.697 144.068 249.597C144.165 249.498 144.301 249.449 144.478 249.449C144.655 249.449 144.791 249.498 144.888 249.597C144.984 249.697 145.032 249.821 145.032 249.971C145.032 250.118 144.984 250.241 144.888 250.341C144.791 250.437 144.655 250.485 144.478 250.485C144.301 250.485 144.165 250.437 144.068 250.341C143.975 250.241 143.928 250.118 143.928 249.971Z" fill="#4D648D"/>
<path d="M145.848 253.241C145.848 252.571 146.003 252.034 146.314 251.63C146.624 251.223 147.041 251.019 147.563 251.019C148.024 251.019 148.396 251.18 148.68 251.501V249.276H149.656V255.446H148.772L148.724 254.996C148.432 255.35 148.042 255.526 147.555 255.526C147.046 255.526 146.634 255.321 146.318 254.912C146.004 254.502 145.848 253.945 145.848 253.241ZM146.824 253.325C146.824 253.767 146.908 254.112 147.077 254.361C147.248 254.608 147.491 254.731 147.804 254.731C148.203 254.731 148.495 254.553 148.68 254.197V252.341C148.5 251.993 148.211 251.819 147.812 251.819C147.496 251.819 147.252 251.945 147.081 252.196C146.91 252.445 146.824 252.822 146.824 253.325Z" fill="#4D648D"/>
<path d="M151.712 255.446H150.736V251.1H151.712V255.446ZM150.676 249.971C150.676 249.821 150.723 249.697 150.817 249.597C150.913 249.498 151.05 249.449 151.226 249.449C151.403 249.449 151.54 249.498 151.636 249.597C151.732 249.697 151.781 249.821 151.781 249.971C151.781 250.118 151.732 250.241 151.636 250.341C151.54 250.437 151.403 250.485 151.226 250.485C151.05 250.485 150.913 250.437 150.817 250.341C150.723 250.241 150.676 250.118 150.676 249.971Z" fill="#4D648D"/>
<path d="M155.376 255.446C155.333 255.363 155.295 255.228 155.263 255.04C154.952 255.364 154.572 255.526 154.122 255.526C153.686 255.526 153.33 255.402 153.054 255.153C152.778 254.904 152.64 254.596 152.64 254.229C152.64 253.766 152.812 253.411 153.154 253.164C153.5 252.915 153.992 252.791 154.632 252.791H155.231V252.506C155.231 252.281 155.168 252.101 155.042 251.967C154.916 251.831 154.725 251.763 154.468 251.763C154.246 251.763 154.063 251.819 153.922 251.931C153.78 252.041 153.709 252.182 153.709 252.353H152.733C152.733 252.115 152.812 251.892 152.97 251.686C153.128 251.477 153.342 251.314 153.612 251.196C153.885 251.078 154.189 251.019 154.524 251.019C155.033 251.019 155.439 251.148 155.741 251.405C156.044 251.659 156.199 252.018 156.207 252.482V254.442C156.207 254.833 156.262 255.145 156.372 255.378V255.446H155.376ZM154.303 254.743C154.496 254.743 154.677 254.696 154.845 254.602C155.017 254.509 155.145 254.383 155.231 254.225V253.405H154.705C154.343 253.405 154.071 253.468 153.889 253.594C153.707 253.72 153.616 253.898 153.616 254.128C153.616 254.316 153.678 254.466 153.801 254.578C153.927 254.688 154.094 254.743 154.303 254.743Z" fill="#4D648D"/>
<path d="M161.433 254.173L162.919 249.597H164.036L161.931 255.446H160.947L158.85 249.597H159.963L161.433 254.173Z" fill="#4D648D"/>
<path d="M167.016 255.446C166.973 255.363 166.936 255.228 166.904 255.04C166.593 255.364 166.213 255.526 165.763 255.526C165.327 255.526 164.97 255.402 164.695 255.153C164.419 254.904 164.281 254.596 164.281 254.229C164.281 253.766 164.452 253.411 164.795 253.164C165.14 252.915 165.633 252.791 166.273 252.791H166.872V252.506C166.872 252.281 166.809 252.101 166.683 251.967C166.557 251.831 166.366 251.763 166.108 251.763C165.886 251.763 165.704 251.819 165.562 251.931C165.42 252.041 165.349 252.182 165.349 252.353H164.373C164.373 252.115 164.452 251.892 164.61 251.686C164.768 251.477 164.982 251.314 165.253 251.196C165.526 251.078 165.83 251.019 166.165 251.019C166.674 251.019 167.079 251.148 167.382 251.405C167.684 251.659 167.84 252.018 167.848 252.482V254.442C167.848 254.833 167.903 255.145 168.012 255.378V255.446H167.016ZM165.944 254.743C166.137 254.743 166.317 254.696 166.486 254.602C166.657 254.509 166.786 254.383 166.872 254.225V253.405H166.345C165.984 253.405 165.712 253.468 165.53 253.594C165.348 253.72 165.257 253.898 165.257 254.128C165.257 254.316 165.319 254.466 165.442 254.578C165.568 254.688 165.735 254.743 165.944 254.743Z" fill="#4D648D"/>
<path d="M169.908 255.446H168.932V249.276H169.908V255.446Z" fill="#4D648D"/>
<path d="M170.792 253.241C170.792 252.571 170.947 252.034 171.258 251.63C171.569 251.223 171.985 251.019 172.507 251.019C172.968 251.019 173.34 251.18 173.624 251.501V249.276H174.6V255.446H173.716L173.668 254.996C173.376 255.35 172.987 255.526 172.499 255.526C171.99 255.526 171.578 255.321 171.262 254.912C170.949 254.502 170.792 253.945 170.792 253.241ZM171.768 253.325C171.768 253.767 171.853 254.112 172.021 254.361C172.193 254.608 172.435 254.731 172.748 254.731C173.147 254.731 173.439 254.553 173.624 254.197V252.341C173.444 251.993 173.155 251.819 172.756 251.819C172.44 251.819 172.197 251.945 172.025 252.196C171.854 252.445 171.768 252.822 171.768 253.325Z" fill="#4D648D"/>
<path d="M177.532 255.526C176.914 255.526 176.412 255.332 176.026 254.944C175.643 254.553 175.452 254.033 175.452 253.385V253.265C175.452 252.831 175.535 252.444 175.701 252.104C175.869 251.761 176.105 251.495 176.408 251.305C176.71 251.114 177.048 251.019 177.42 251.019C178.012 251.019 178.468 251.208 178.79 251.586C179.114 251.963 179.276 252.498 179.276 253.188V253.582H176.436C176.465 253.941 176.584 254.225 176.793 254.434C177.005 254.643 177.27 254.747 177.588 254.747C178.036 254.747 178.4 254.566 178.681 254.205L179.207 254.707C179.033 254.967 178.8 255.169 178.508 255.313C178.219 255.455 177.894 255.526 177.532 255.526ZM177.416 251.803C177.148 251.803 176.931 251.896 176.765 252.084C176.602 252.271 176.497 252.532 176.452 252.867H178.312V252.795C178.29 252.468 178.203 252.222 178.05 252.056C177.898 251.887 177.686 251.803 177.416 251.803ZM177.637 249.276H178.749L177.637 250.493H176.853L177.637 249.276Z" fill="#4D648D"/>
<path d="M182.473 254.265C182.473 254.091 182.401 253.958 182.256 253.867C182.114 253.776 181.877 253.696 181.545 253.626C181.213 253.557 180.936 253.468 180.714 253.361C180.226 253.126 179.983 252.784 179.983 252.337C179.983 251.962 180.14 251.649 180.456 251.397C180.772 251.145 181.174 251.019 181.662 251.019C182.181 251.019 182.6 251.148 182.919 251.405C183.24 251.662 183.401 251.995 183.401 252.405H182.425C182.425 252.218 182.355 252.062 182.216 251.939C182.077 251.813 181.892 251.75 181.662 251.75C181.447 251.75 181.272 251.8 181.135 251.899C181.001 251.998 180.934 252.131 180.934 252.297C180.934 252.447 180.997 252.563 181.123 252.646C181.249 252.729 181.504 252.814 181.886 252.899C182.269 252.982 182.569 253.083 182.786 253.201C183.006 253.316 183.168 253.455 183.272 253.618C183.379 253.782 183.433 253.98 183.433 254.213C183.433 254.604 183.271 254.921 182.947 255.165C182.623 255.406 182.198 255.526 181.674 255.526C181.317 255.526 181 255.462 180.722 255.333C180.443 255.205 180.226 255.028 180.071 254.803C179.916 254.578 179.838 254.336 179.838 254.076H180.786C180.799 254.306 180.886 254.485 181.047 254.61C181.208 254.734 181.421 254.795 181.686 254.795C181.943 254.795 182.138 254.747 182.272 254.651C182.406 254.552 182.473 254.423 182.473 254.265Z" fill="#4D648D"/>
<defs>
<filter id="filter0_d_679_6471" x="222.705" y="330.683" width="347.568" height="73.3542" filterUnits="userSpaceOnUse" color-interpolation-filters="sRGB">
<feFlood flood-opacity="0" result="BackgroundImageFix"/>
<feColorMatrix in="SourceAlpha" type="matrix" values="0 0 0 0 0 0 0 0 0 0 0 0 0 0 0 0 0 0 127 0" result="hardAlpha"/>
<feOffset dy="2"/>
<feGaussianBlur stdDeviation="2"/>
<feColorMatrix type="matrix" values="0 0 0 0 0 0 0 0 0 0 0 0 0 0 0 0 0 0 0.0285457 0"/>
<feBlend mode="normal" in2="BackgroundImageFix" result="effect1_dropShadow_679_6471"/>
<feBlend mode="normal" in="SourceGraphic" in2="effect1_dropShadow_679_6471" result="shape"/>
</filter>
<filter id="filter1_d_679_6471" x="222.705" y="415.232" width="347.568" height="29.48" filterUnits="userSpaceOnUse" color-interpolation-filters="sRGB">
<feFlood flood-opacity="0" result="BackgroundImageFix"/>
<feColorMatrix in="SourceAlpha" type="matrix" values="0 0 0 0 0 0 0 0 0 0 0 0 0 0 0 0 0 0 127 0" result="hardAlpha"/>
<feOffset dy="2"/>
<feGaussianBlur stdDeviation="2"/>
<feColorMatrix type="matrix" values="0 0 0 0 0 0 0 0 0 0 0 0 0 0 0 0 0 0 0.0285457 0"/>
<feBlend mode="normal" in2="BackgroundImageFix" result="effect1_dropShadow_679_6471"/>
<feBlend mode="normal" in="SourceGraphic" in2="effect1_dropShadow_679_6471" result="shape"/>
</filter>
<filter id="filter2_d_679_6471" x="201.936" y="265.496" width="392.762" height="56.8511" filterUnits="userSpaceOnUse" color-interpolation-filters="sRGB">
<feFlood flood-opacity="0" result="BackgroundImageFix"/>
<feColorMatrix in="SourceAlpha" type="matrix" values="0 0 0 0 0 0 0 0 0 0 0 0 0 0 0 0 0 0 127 0" result="hardAlpha"/>
<feOffset dy="1"/>
<feGaussianBlur stdDeviation="8.5"/>
<feColorMatrix type="matrix" values="0 0 0 0 0 0 0 0 0 0 0 0 0 0 0 0 0 0 0.145542 0"/>
<feBlend mode="normal" in2="BackgroundImageFix" result="effect1_dropShadow_679_6471"/>
<feBlend mode="normal" in="SourceGraphic" in2="effect1_dropShadow_679_6471" result="shape"/>
</filter>
<filter id="filter3_d_679_6471" x="505.602" y="282.696" width="69.2402" height="24.4529" filterUnits="userSpaceOnUse" color-interpolation-filters="sRGB">
<feFlood flood-opacity="0" result="BackgroundImageFix"/>
<feColorMatrix in="SourceAlpha" type="matrix" values="0 0 0 0 0 0 0 0 0 0 0 0 0 0 0 0 0 0 127 0" result="hardAlpha"/>
<feOffset dy="2"/>
<feGaussianBlur stdDeviation="2"/>
<feColorMatrix type="matrix" values="0 0 0 0 0 0 0 0 0 0 0 0 0 0 0 0 0 0 0.131529 0"/>
<feBlend mode="normal" in2="BackgroundImageFix" result="effect1_dropShadow_679_6471"/>
<feBlend mode="normal" in="SourceGraphic" in2="effect1_dropShadow_679_6471" result="shape"/>
</filter>
<filter id="filter4_d_679_6471" x="565.725" y="265.496" width="207.668" height="56.8511" filterUnits="userSpaceOnUse" color-interpolation-filters="sRGB">
<feFlood flood-opacity="0" result="BackgroundImageFix"/>
<feColorMatrix in="SourceAlpha" type="matrix" values="0 0 0 0 0 0 0 0 0 0 0 0 0 0 0 0 0 0 127 0" result="hardAlpha"/>
<feOffset dy="1"/>
<feGaussianBlur stdDeviation="8.5"/>
<feColorMatrix type="matrix" values="0 0 0 0 0 0 0 0 0 0 0 0 0 0 0 0 0 0 0.145542 0"/>
<feBlend mode="normal" in2="BackgroundImageFix" result="effect1_dropShadow_679_6471"/>
<feBlend mode="normal" in="SourceGraphic" in2="effect1_dropShadow_679_6471" result="shape"/>
</filter>
<filter id="filter5_d_679_6471" x="92.707" y="220.708" width="680.688" height="70.5618" filterUnits="userSpaceOnUse" color-interpolation-filters="sRGB">
<feFlood flood-opacity="0" result="BackgroundImageFix"/>
<feColorMatrix in="SourceAlpha" type="matrix" values="0 0 0 0 0 0 0 0 0 0 0 0 0 0 0 0 0 0 127 0" result="hardAlpha"/>
<feOffset dy="1"/>
<feGaussianBlur stdDeviation="8.5"/>
<feColorMatrix type="matrix" values="0 0 0 0 0 0 0 0 0 0 0 0 0 0 0 0 0 0 0.145542 0"/>
<feBlend mode="normal" in2="BackgroundImageFix" result="effect1_dropShadow_679_6471"/>
<feBlend mode="normal" in="SourceGraphic" in2="effect1_dropShadow_679_6471" result="shape"/>
</filter>
<filter id="filter6_d_679_6471" x="92.25" y="265.496" width="139.115" height="56.8511" filterUnits="userSpaceOnUse" color-interpolation-filters="sRGB">
<feFlood flood-opacity="0" result="BackgroundImageFix"/>
<feColorMatrix in="SourceAlpha" type="matrix" values="0 0 0 0 0 0 0 0 0 0 0 0 0 0 0 0 0 0 127 0" result="hardAlpha"/>
<feOffset dy="1"/>
<feGaussianBlur stdDeviation="8.5"/>
<feColorMatrix type="matrix" values="0 0 0 0 0 0 0 0 0 0 0 0 0 0 0 0 0 0 0.145542 0"/>
<feBlend mode="normal" in2="BackgroundImageFix" result="effect1_dropShadow_679_6471"/>
<feBlend mode="normal" in="SourceGraphic" in2="effect1_dropShadow_679_6471" result="shape"/>
</filter>
<filter id="filter7_d_679_6471" x="583.752" y="311.945" width="170.242" height="24.4529" filterUnits="userSpaceOnUse" color-interpolation-filters="sRGB">
<feFlood flood-opacity="0" result="BackgroundImageFix"/>
<feColorMatrix in="SourceAlpha" type="matrix" values="0 0 0 0 0 0 0 0 0 0 0 0 0 0 0 0 0 0 127 0" result="hardAlpha"/>
<feOffset dy="2"/>
<feGaussianBlur stdDeviation="2"/>
<feColorMatrix type="matrix" values="0 0 0 0 0 0 0 0 0 0 0 0 0 0 0 0 0 0 0.0933949 0"/>
<feBlend mode="normal" in2="BackgroundImageFix" result="effect1_dropShadow_679_6471"/>
<feBlend mode="normal" in="SourceGraphic" in2="effect1_dropShadow_679_6471" result="shape"/>
</filter>
<filter id="filter8_d_679_6471" x="583.752" y="330.683" width="170.242" height="24.4529" filterUnits="userSpaceOnUse" color-interpolation-filters="sRGB">
<feFlood flood-opacity="0" result="BackgroundImageFix"/>
<feColorMatrix in="SourceAlpha" type="matrix" values="0 0 0 0 0 0 0 0 0 0 0 0 0 0 0 0 0 0 127 0" result="hardAlpha"/>
<feOffset dy="2"/>
<feGaussianBlur stdDeviation="2"/>
<feColorMatrix type="matrix" values="0 0 0 0 0 0 0 0 0 0 0 0 0 0 0 0 0 0 0.0933949 0"/>
<feBlend mode="normal" in2="BackgroundImageFix" result="effect1_dropShadow_679_6471"/>
<feBlend mode="normal" in="SourceGraphic" in2="effect1_dropShadow_679_6471" result="shape"/>
</filter>
<linearGradient id="paint0_linear_679_6471" x1="91.3537" y1="180.887" x2="460.304" y2="791.933" gradientUnits="userSpaceOnUse">
<stop stop-color="#7DB8FF"/>
<stop offset="0.0621" stop-color="#7CB6FF"/>
<stop offset="1" stop-color="#7194FF"/>
</linearGradient>
<linearGradient id="paint1_linear_679_6471" x1="190.306" y1="292.73" x2="305.82" y2="348.036" gradientUnits="userSpaceOnUse">
<stop stop-color="#A1C0FF"/>
<stop offset="1" stop-color="#7093FF"/>
</linearGradient>
<linearGradient id="paint2_linear_679_6471" x1="569.002" y1="292.102" x2="604.282" y2="326.949" gradientUnits="userSpaceOnUse">
<stop stop-color="#A1C0FF"/>
<stop offset="1" stop-color="#7093FF"/>
</linearGradient>
<linearGradient id="paint3_linear_679_6471" x1="101.049" y1="290.684" x2="113.768" y2="311.404" gradientUnits="userSpaceOnUse">
<stop stop-color="#A1C0FF"/>
<stop offset="1" stop-color="#7093FF"/>
</linearGradient>
<linearGradient id="paint4_linear_679_6471" x1="642.509" y1="310.303" x2="642.743" y2="318.792" gradientUnits="userSpaceOnUse">
<stop stop-color="#7093FF"/>
<stop offset="1" stop-color="#243F6D"/>
</linearGradient>
<linearGradient id="paint5_linear_679_6471" x1="642.509" y1="329.041" x2="642.743" y2="337.53" gradientUnits="userSpaceOnUse">
<stop stop-color="#7093FF"/>
<stop offset="1" stop-color="#243F6D"/>
</linearGradient>
<clipPath id="clip0_679_6471">
<rect width="14.0561" height="16.2755" fill="white" transform="translate(740.752 190.351)"/>
</clipPath>
</defs>
</svg>
